<svg width="133" height="300" viewBox="0 0 133 300" fill="none" xmlns="http://www.w3.org/2000/svg">
<path d="M68.2092 4.25293C61.3782 5.00816 54.7655 7.11449 48.7562 10.4494C42.7468 13.7842 37.4608 18.281 33.2057 23.678C28.9506 29.075 25.8114 35.2644 23.9708 41.886C22.1302 48.5076 21.625 55.4292 22.4846 62.2479C23.1812 69.7737 26.2902 76.8732 31.3484 82.4891C35.5984 86.8548 41.2706 89.6 46.827 91.9482C53.8055 94.8422 61.0983 97.3062 68.6392 97.5212C74.6649 97.6438 80.6355 96.3523 86.072 93.7504C91.5084 91.1485 96.2593 87.3086 99.9436 82.5387C110.825 68.2343 110.147 47.8112 103.863 31.0427C101.795 24.7476 98.3097 19.0109 93.6761 14.2743C86.8298 7.84144 77.321 5.24515 68.2092 4.25293Z" fill="#368DCC"/>
<path d="M5.0384 292.128C1.44504 239.441 9.37369 186.604 28.2728 137.292C31.8778 127.866 36.0451 118.374 43.0237 111.098C50.0023 103.822 60.4371 99.092 70.2766 101.324C84.9779 104.632 92.2376 120.954 96.7356 135.324C113.091 186.589 123.377 239.639 125.311 294.41C91.6202 294.718 57.929 294.277 24.2378 293.087C17.9703 292.855 11.4713 292.624 5.0384 292.128Z" fill="#368DCC"/>
<g opacity="0.13">
<path d="M105.781 37.3765C104.128 32.8619 97.4301 32.5312 95.1646 36.6654C93.0644 41.6265 95.1646 47.4144 94.6519 52.7062C94.9496 53.6488 92.3368 63.2899 90.8154 65.2743C90.2862 66.1838 91.2619 64.8278 91.6091 64.4143C91.1792 64.9435 90.4846 65.9027 89.9554 66.498C89.7405 66.7626 89.5255 67.0106 89.294 67.2587C85.7054 70.8307 81.9846 74.2373 78.2638 77.6604C74.9374 79.8258 71.2943 81.4604 67.4652 82.5057C65.9983 82.9476 64.5076 83.3064 63.0002 83.5806H62.6199C57.6588 83.3491 52.582 83.8783 47.5878 83.4318H47.0587C44.4293 83.0018 41.7172 82.3569 39.3194 83.8948C33.7795 86.888 34.9371 95.9337 41.0888 97.4055C47.869 99.0592 54.8145 101.242 61.8592 100.614C70.5576 99.8695 78.6276 95.6526 86.0693 91.3696C106.559 80.8686 111.784 54.0953 105.781 37.3765Z" fill="#010101"/>
</g>
<g opacity="0.13">
<path d="M127.693 281.164L127.544 279.99V279.891C127.015 270.167 126.717 260.443 126.816 250.72C124.951 234.727 122.262 218.842 118.763 203.126C115.174 186.887 110.99 170.83 105.98 154.987C101.796 141.196 98.0421 127.139 91.3942 114.307C89.5713 110.76 87.3522 107.431 84.7794 104.384C84.1682 103.373 83.3175 102.527 82.3025 101.921C81.2874 101.316 80.139 100.969 78.9585 100.912C77.7001 100.938 76.4766 101.33 75.4373 102.04C74.3979 102.749 73.5877 103.746 73.1055 104.909C72.6233 106.072 72.4899 107.349 72.7217 108.587C72.9535 109.824 73.5404 110.966 74.4108 111.876C93.1141 135.209 94.4535 175.758 98.2405 203.292C99.5304 220.341 100.241 217.315 100.886 228.544C101.631 237.06 101.465 245.676 102.325 254.159C103.053 257.467 104.773 269.142 105.748 272.681C105.996 275.806 106.492 278.899 106.509 282.007C104.657 287.365 107.419 294.311 112.942 296.18C119.987 299.685 129.032 293.484 128.668 285.679C128.687 284.12 128.354 282.576 127.693 281.164Z" fill="#010101"/>
</g>
<path d="M65.1007 103.723C58.0871 103.719 51.1213 102.568 44.4792 100.316C40.5937 99.1007 36.9141 97.3055 33.5648 94.9912C27.4627 90.6089 22.9315 83.9776 19.6903 74.7169C17.8144 69.6284 16.7486 64.277 16.5318 58.858C16.5026 52.2121 17.7256 45.6203 20.1368 39.4271C24.0409 28.2017 30.9922 18.2843 40.2126 10.7852C50.0014 2.92901 62.4318 -0.871131 74.9402 0.168467C86.6648 1.35913 98.0919 9.11493 106.046 21.4515C112.526 31.8179 115.863 43.84 115.654 56.0633C115.718 60.7027 115.162 65.3299 114 69.822C110.478 82.9523 99.6959 94.4951 85.8876 99.9357C79.2546 102.48 72.2049 103.764 65.1007 103.723ZM70.5413 9.8591C61.7331 9.99858 53.2217 13.0646 46.3478 18.5741C38.5758 24.939 32.7247 33.3378 29.4471 42.8337C27.4592 47.856 26.438 53.2086 26.4374 58.61C26.6254 62.9971 27.5015 67.3274 29.0337 71.4426C31.5804 78.7188 34.9539 83.7957 39.3362 86.9377C41.8752 88.6802 44.6628 90.0294 47.6046 90.9396C58.8219 94.8651 71.0527 94.7832 82.2164 90.7081C93.1639 86.4085 101.647 77.4786 104.392 67.2587C105.299 63.5979 105.721 59.834 105.649 56.0633C105.858 45.7598 103.078 35.6164 97.6454 26.8591C94.6191 22.2287 86.2349 11.2813 73.8322 10.0245C72.7388 9.91277 71.6404 9.85759 70.5413 9.8591Z" fill="#010101"/>
<path d="M61.7106 300C37.1202 300 13.489 299.471 5.12128 297.751C4.07059 297.533 3.11906 296.979 2.40943 296.174C1.6998 295.369 1.27035 294.356 1.1855 293.286C-2.84927 242.494 3.43979 191.411 19.6738 143.114C23.6757 131.323 28.6368 119.103 36.9052 109.428C46.5463 98.2826 59.7593 93.0073 71.3517 95.6863C90.303 100.019 99.8117 122.03 105.319 138.203C122.349 188.375 131.367 240.918 132.042 293.898C132.043 295.177 131.55 296.408 130.666 297.332C129.782 298.256 128.574 298.803 127.296 298.859C116.96 299.355 88.7485 300 61.7106 300ZM10.7769 288.589C31.1008 290.905 96.0909 290.061 122.103 289.201C120.992 238.89 112.192 189.045 96.0082 141.394C88.5666 119.566 79.802 107.775 69.2019 105.344C59.6104 103.144 50.1348 109.346 44.3965 115.911C37.1368 124.295 32.6883 135.474 28.9841 146.322C13.6174 192.086 7.43023 240.431 10.7769 288.589Z" fill="#010101"/>
</svg>
