<svg width="480" height="455" viewBox="0 0 480 455" fill="none" xmlns="http://www.w3.org/2000/svg">
<g clip-path="url(#clip0_206_2517)">
<path d="M125.8 135.61C95.3201 171.67 76.3301 217.61 73.9901 264.75C71.5684 313.026 86.9193 360.516 117.14 398.24C129.38 407.34 141.787 416.213 154.36 424.86C163.43 431.1 172.64 437.25 182.69 441.74C197.49 448.36 213.74 451.21 229.92 452.17C287.28 455.58 345.69 434.85 388.27 396.17C435.27 344.37 452.84 267.54 433.19 201.22C447.107 193.792 461.573 187.44 476.46 182.22C473.92 179.62 470.29 178.46 466.81 177.41C457.26 174.52 447.68 171.74 437.59 169.26L448.39 135.13C446.97 133.81 444.69 134.45 442.89 135.13C431.15 139.82 419.67 145.13 408.48 150.75C391.136 130.913 370.821 113.884 348.26 100.27L392.88 35.21L363.25 41.13C362.45 41.3845 361.586 41.3491 360.81 41.03C360.107 40.4909 359.635 39.7043 359.49 38.83C356.15 27.519 354.419 15.7938 354.35 4C350.65 7.85 347.88 12.48 345.15 17.07L314.84 67.95C314.103 69.0931 313.486 70.3096 313 71.58C311.58 75.68 312.93 80.16 314.09 84.21C264.68 69.44 209.09 77 164.99 105.21C155.05 89.7767 145.46 74.15 136.22 58.33C135.22 59.2599 134.547 60.4873 134.3 61.83C131.11 72.2896 128.874 83.0168 127.62 93.88C116.61 90.6968 105.369 88.3698 94.0001 86.92C95.9001 91.62 98.7701 95.86 101.62 100.07C109.87 112.2 118.08 124.33 125.8 135.61Z" fill="white"/>
<path d="M328.57 89.33C328.375 89.3313 328.185 89.2669 328.031 89.1472C327.877 89.0275 327.767 88.8594 327.72 88.67L321.12 62.2C321.066 61.9747 321.102 61.7369 321.222 61.5384C321.342 61.3399 321.535 61.1968 321.76 61.14C321.872 61.1117 321.988 61.1058 322.102 61.1227C322.216 61.1396 322.325 61.179 322.424 61.2385C322.522 61.298 322.608 61.3766 322.676 61.4695C322.744 61.5625 322.793 61.668 322.82 61.78L329.42 88.24C329.449 88.3523 329.455 88.4691 329.438 88.5837C329.421 88.6983 329.382 88.8085 329.322 88.9079C329.263 89.0073 329.184 89.094 329.091 89.163C328.998 89.232 328.892 89.282 328.78 89.31L328.57 89.33Z" fill="#010101"/>
<path d="M335.75 76.05C335.57 76.0499 335.395 75.9954 335.247 75.8937C335.099 75.7919 334.985 75.6477 334.92 75.48L326.75 53.13C326.678 52.9132 326.692 52.6766 326.791 52.4704C326.89 52.2642 327.065 52.1046 327.279 52.0253C327.494 51.946 327.731 51.9533 327.94 52.0457C328.149 52.138 328.314 52.3081 328.4 52.52L336.57 74.88C336.648 75.0976 336.637 75.337 336.54 75.5465C336.442 75.7561 336.266 75.919 336.05 76C335.954 76.0352 335.852 76.0522 335.75 76.05Z" fill="#010101"/>
<path d="M342.89 66.43C342.714 66.4308 342.542 66.3788 342.396 66.2808C342.249 66.1828 342.136 66.0431 342.07 65.88L332.76 42.11C332.717 42.0037 332.695 41.8899 332.696 41.7751C332.697 41.6603 332.721 41.5469 332.767 41.4416C332.812 41.3363 332.879 41.2412 332.962 41.1619C333.045 41.0826 333.143 41.0208 333.25 40.98C333.357 40.9363 333.472 40.9143 333.587 40.9153C333.703 40.9164 333.817 40.9404 333.923 40.986C334.029 41.0316 334.125 41.0979 334.205 41.181C334.285 41.2641 334.348 41.3623 334.39 41.47L343.7 65.24C343.744 65.3462 343.765 65.46 343.764 65.5748C343.763 65.6896 343.739 65.803 343.693 65.9083C343.648 66.0136 343.581 66.1087 343.498 66.188C343.415 66.2673 343.317 66.3291 343.21 66.37C343.107 66.4073 342.999 66.4276 342.89 66.43Z" fill="#010101"/>
<path d="M349.31 57.57C349.122 57.5699 348.939 57.5096 348.788 57.3981C348.637 57.2865 348.525 57.1295 348.47 56.95C345.47 47.06 342.9 38.17 340.42 29.57L340.3 29.18C340.252 28.961 340.289 28.7318 340.404 28.5393C340.519 28.3468 340.703 28.2055 340.919 28.1442C341.135 28.0829 341.366 28.1063 341.565 28.2096C341.764 28.3129 341.916 28.4884 341.99 28.7L342.1 29.09C344.51 37.44 347.01 46.09 349.9 55.63C361.05 52.5527 372.415 50.3132 383.9 48.93C384.014 48.9163 384.129 48.925 384.239 48.9557C384.349 48.9864 384.452 49.0386 384.542 49.1092C384.632 49.1797 384.708 49.2673 384.764 49.367C384.82 49.4667 384.856 49.5765 384.87 49.69C384.884 49.8036 384.875 49.9188 384.844 50.0291C384.814 50.1393 384.761 50.2424 384.691 50.3324C384.62 50.4225 384.533 50.4978 384.433 50.554C384.333 50.6102 384.223 50.6463 384.11 50.66C372.449 52.0788 360.913 54.3788 349.6 57.54C349.505 57.5642 349.408 57.5743 349.31 57.57Z" fill="#010101"/>
<path d="M345.7 67.74C345.478 67.7483 345.261 67.6712 345.093 67.5244C344.926 67.3776 344.822 67.1723 344.801 66.9507C344.781 66.7292 344.846 66.5082 344.983 66.3333C345.121 66.1583 345.32 66.0426 345.54 66.01C354.89 64.29 364.42 62.85 373.86 61.72C373.976 61.7046 374.094 61.7123 374.208 61.7427C374.321 61.7731 374.427 61.8255 374.52 61.8971C374.613 61.9687 374.691 62.0579 374.749 62.1596C374.807 62.2614 374.845 62.3737 374.86 62.49C374.877 62.6065 374.87 62.7251 374.84 62.839C374.81 62.9528 374.758 63.0595 374.686 63.1527C374.614 63.2459 374.525 63.3238 374.422 63.3818C374.32 63.4397 374.207 63.4765 374.09 63.49C364.69 64.61 355.2 66.05 345.89 67.76L345.7 67.74Z" fill="#010101"/>
<path d="M339 78.39C338.786 78.3818 338.582 78.2956 338.426 78.1476C338.271 77.9995 338.175 77.7999 338.157 77.5862C338.138 77.3725 338.199 77.1594 338.326 76.987C338.454 76.8146 338.64 76.6947 338.85 76.65C348.03 75.0722 357.297 74.047 366.6 73.58C366.716 73.5673 366.834 73.5793 366.945 73.6153C367.057 73.6513 367.159 73.7104 367.246 73.7888C367.333 73.8672 367.402 73.963 367.449 74.0701C367.497 74.1771 367.521 74.293 367.52 74.41C367.525 74.5242 367.508 74.6385 367.469 74.7461C367.43 74.8537 367.371 74.9526 367.294 75.0371C367.217 75.1216 367.124 75.1901 367.02 75.2387C366.916 75.2872 366.804 75.3148 366.69 75.32C357.457 75.793 348.261 76.8148 339.15 78.38L339 78.39Z" fill="#010101"/>
<path d="M332 91.15C331.784 91.1461 331.577 91.0631 331.419 90.9166C331.26 90.7702 331.161 90.5706 331.14 90.3557C331.119 90.1409 331.178 89.9259 331.305 89.7515C331.432 89.5772 331.619 89.4556 331.83 89.41C340.428 87.7749 349.107 86.5966 357.83 85.88C358.062 85.8635 358.291 85.9394 358.467 86.0912C358.643 86.2429 358.752 86.4582 358.77 86.69C358.779 86.8044 358.766 86.9194 358.731 87.0287C358.696 87.1379 358.64 87.2391 358.565 87.3265C358.491 87.4138 358.4 87.4856 358.298 87.5377C358.196 87.5898 358.084 87.6212 357.97 87.63C349.3 88.3339 340.674 89.5056 332.13 91.14L332 91.15Z" fill="#010101"/>
<path d="M207 255.41C206.786 255.411 206.579 255.333 206.42 255.19C206.245 255.036 206.139 254.819 206.124 254.587C206.109 254.354 206.186 254.125 206.34 253.95C220.941 237.539 237.111 222.594 254.62 209.33C254.806 209.19 255.039 209.129 255.27 209.161C255.5 209.193 255.709 209.315 255.85 209.5C255.919 209.591 255.969 209.695 255.998 209.806C256.027 209.917 256.034 210.032 256.018 210.145C256.002 210.259 255.964 210.368 255.906 210.466C255.848 210.565 255.771 210.651 255.68 210.72C238.27 223.93 222.194 238.811 207.68 255.15C207.592 255.24 207.486 255.31 207.368 255.355C207.251 255.399 207.125 255.418 207 255.41Z" fill="#010101"/>
<path d="M207 274.33C206.782 274.328 206.572 274.246 206.41 274.1C206.238 273.943 206.135 273.725 206.124 273.492C206.113 273.26 206.194 273.033 206.35 272.86C225.964 251.13 247.293 231.012 270.13 212.7C270.312 212.557 270.543 212.491 270.774 212.517C271.004 212.543 271.215 212.659 271.36 212.84C271.433 212.929 271.487 213.032 271.52 213.142C271.553 213.252 271.564 213.368 271.552 213.482C271.54 213.596 271.505 213.707 271.45 213.808C271.394 213.909 271.32 213.998 271.23 214.07C248.459 232.329 227.196 252.394 207.65 274.07C207.566 274.156 207.464 274.223 207.352 274.268C207.24 274.313 207.12 274.334 207 274.33Z" fill="#010101"/>
<path d="M211.55 288.59C211.376 288.592 211.206 288.542 211.061 288.446C210.917 288.351 210.804 288.214 210.737 288.054C210.67 287.894 210.653 287.718 210.687 287.548C210.722 287.378 210.806 287.222 210.93 287.1C233.05 264.71 256 242.59 279.21 221.33C279.383 221.174 279.61 221.093 279.842 221.104C280.075 221.115 280.293 221.218 280.45 221.39C280.527 221.475 280.586 221.574 280.625 221.681C280.664 221.789 280.681 221.903 280.675 222.017C280.669 222.132 280.641 222.244 280.592 222.347C280.544 222.45 280.475 222.543 280.39 222.62C257.23 243.84 234.27 265.94 212.17 288.31C212.091 288.397 211.996 288.467 211.889 288.515C211.782 288.563 211.667 288.589 211.55 288.59Z" fill="#010101"/>
<path d="M222.68 301.71C222.483 301.711 222.293 301.644 222.14 301.52C221.969 301.377 221.858 301.174 221.832 300.953C221.806 300.732 221.866 300.509 222 300.33C229.88 290.39 238.34 280.74 247.13 271.63C247.296 271.469 247.518 271.379 247.75 271.379C247.981 271.379 248.204 271.469 248.37 271.63C248.452 271.711 248.517 271.807 248.562 271.914C248.607 272.02 248.63 272.135 248.63 272.25C248.63 272.365 248.607 272.48 248.562 272.586C248.517 272.693 248.452 272.789 248.37 272.87C239.62 281.93 231.2 291.55 223.37 301.44C223.282 301.533 223.174 301.605 223.055 301.652C222.936 301.699 222.808 301.719 222.68 301.71Z" fill="#010101"/>
<path d="M260.73 257.33C260.615 257.332 260.501 257.311 260.395 257.268C260.288 257.225 260.191 257.161 260.11 257.08C259.946 256.915 259.854 256.692 259.854 256.46C259.854 256.228 259.946 256.005 260.11 255.84L287.6 227.99C287.68 227.908 287.776 227.843 287.881 227.798C287.987 227.754 288.1 227.731 288.215 227.731C288.33 227.731 288.443 227.754 288.549 227.798C288.654 227.843 288.75 227.908 288.83 227.99C288.912 228.071 288.978 228.167 289.022 228.274C289.067 228.38 289.09 228.495 289.09 228.61C289.09 228.725 289.067 228.84 289.022 228.946C288.978 229.053 288.912 229.149 288.83 229.23L261.35 257.08C261.269 257.161 261.172 257.226 261.066 257.269C260.959 257.311 260.845 257.332 260.73 257.33Z" fill="#010101"/>
<path d="M236.87 309.12C236.702 309.12 236.537 309.072 236.396 308.981C236.255 308.889 236.143 308.759 236.075 308.606C236.006 308.453 235.983 308.283 236.009 308.116C236.035 307.95 236.108 307.795 236.22 307.67C249.83 292.28 264.37 277.39 279.46 263.42C279.63 263.262 279.855 263.178 280.087 263.187C280.319 263.195 280.537 263.295 280.695 263.465C280.853 263.635 280.937 263.86 280.928 264.092C280.92 264.323 280.82 264.542 280.65 264.7C265.65 278.64 251.1 293.48 237.53 308.83C237.447 308.922 237.345 308.996 237.231 309.046C237.117 309.096 236.994 309.121 236.87 309.12Z" fill="#010101"/>
<path d="M255 310.89C254.786 310.893 254.578 310.815 254.42 310.67C254.247 310.515 254.142 310.297 254.129 310.064C254.116 309.832 254.195 309.604 254.35 309.43C270.14 291.91 286.35 274.19 302.41 256.78C302.562 256.62 302.768 256.523 302.988 256.506C303.207 256.489 303.426 256.555 303.6 256.69C303.773 256.828 303.887 257.026 303.921 257.245C303.954 257.463 303.904 257.687 303.78 257.87L302.78 259.39C302.701 259.508 302.593 259.604 302.468 259.671C302.342 259.737 302.202 259.771 302.06 259.77C286.51 276.6 270.91 293.69 255.67 310.61C255.585 310.703 255.482 310.776 255.366 310.824C255.25 310.873 255.125 310.895 255 310.89Z" fill="#010101"/>
<path d="M277 307.43C276.774 307.431 276.555 307.345 276.39 307.19C276.308 307.109 276.242 307.013 276.198 306.906C276.153 306.8 276.13 306.685 276.13 306.57C276.13 306.455 276.153 306.34 276.198 306.234C276.242 306.127 276.308 306.031 276.39 305.95L297.27 284.2C297.346 284.105 297.442 284.028 297.55 283.972C297.658 283.916 297.776 283.883 297.897 283.875C298.019 283.867 298.14 283.884 298.255 283.926C298.369 283.967 298.474 284.032 298.562 284.116C298.65 284.2 298.719 284.301 298.766 284.413C298.813 284.525 298.836 284.646 298.834 284.768C298.832 284.889 298.805 285.009 298.755 285.12C298.704 285.23 298.631 285.329 298.54 285.41L277.65 307.16C277.567 307.248 277.466 307.318 277.354 307.365C277.242 307.411 277.121 307.433 277 307.43Z" fill="#010101"/>
<g opacity="0.13">
<path d="M441.07 286.72C441.21 282.51 441.31 278.31 441.33 274.11C441.33 267.39 441.05 260.69 440.85 253.99C440.67 254.74 440.5 255.46 440.37 256.13C436.52 270.49 434.06 285.28 428.72 299.19C425.72 308.96 412.49 333.01 407.82 340.65C396.82 359.65 388.82 371.87 372.82 385.3C362.848 393.31 352.413 400.726 341.57 407.51C336.34 410.51 330.98 413.27 325.57 415.91L325.16 416.08C312.3 421.08 308.83 422.42 296.92 426.93C286.335 430.434 275.454 432.968 264.41 434.5L266.9 434.16C255.83 435.43 254.82 435.16 247.15 435.57C242.567 435.888 237.97 435.954 233.38 435.77C209.67 433.28 201.68 432.98 181.6 428.92C173.07 427.08 163.84 425.77 159.4 422.65C158.22 421.96 157.06 421.25 155.9 420.53C150.794 419.164 145.77 417.511 140.85 415.58C140.14 416.478 139.787 417.607 139.859 418.75C139.931 419.892 140.423 420.968 141.24 421.77C147.55 426.82 153.98 432.01 161.55 435.02C173.01 438.89 184.84 441.74 196.62 444.49C208.68 446.99 227.55 451.32 232.89 452.11C240.01 453.399 247.235 454.012 254.47 453.94C284.41 452.99 312.36 440.24 338.47 426.56C350.23 420.49 361.52 413.56 371.61 404.94C373.61 403.19 375.69 401.5 377.76 399.8C375.86 402.21 373.96 404.8 372.13 407.63C371.21 409.08 370.3 410.55 369.41 412.02C369.38 412.072 369.347 412.122 369.31 412.17C369.31 412.22 369.25 412.27 369.23 412.32V412.27C368.709 413.101 368.429 414.059 368.42 415.04C368.418 415.61 368.52 416.176 368.72 416.71C371.27 414.71 373.83 412.62 376.33 410.51C388.28 400.44 399.41 389.3 408.33 376.4C417.39 363.23 423.88 348.62 430.46 334.12C431.16 331.52 431.827 328.907 432.46 326.28C434.54 317.8 436.52 309.297 438.4 300.77C439 298.02 439.56 295.26 440.12 292.49C439.847 292.173 439.675 291.783 439.623 291.369C439.571 290.954 439.643 290.534 439.83 290.16C440.27 289.04 440.68 287.88 441.07 286.72Z" fill="#010101"/>
</g>
<g opacity="0.13">
<path d="M440.25 169.78C438.01 169.87 436.25 171.57 434.14 172.23C428.53 175.23 422.78 177.96 417.14 180.93C410.247 185.679 402.921 189.767 395.26 193.14C392.838 194.333 390.327 195.336 387.75 196.14C386.44 196.68 384.82 196.61 383.75 197.52C380.75 199.63 383.23 204.52 386.75 203.52C387.2 203.43 387.67 203.34 388.14 203.23C388.391 203.684 388.732 204.083 389.142 204.401C389.553 204.719 390.023 204.95 390.526 205.08C391.029 205.21 391.552 205.237 392.065 205.157C392.578 205.078 393.07 204.895 393.51 204.62C401.38 201.09 408.92 196.92 416.4 192.62C422.64 189.811 428.723 186.663 434.62 183.19C437.27 181.753 439.822 180.143 442.26 178.37C443.18 177.52 443.38 178.29 444.61 175.47C444.791 174.801 444.816 174.099 444.682 173.418C444.548 172.738 444.259 172.097 443.837 171.547C443.415 170.996 442.872 170.551 442.25 170.244C441.628 169.938 440.944 169.779 440.25 169.78Z" fill="#010101"/>
</g>
<g opacity="0.13">
<path d="M262.17 270.75C260.17 268.21 260.79 269.48 259.68 268.36C259.68 268.25 259.61 268.14 259.58 268.04C259.55 267.94 259.58 267.69 259.58 267.52C259.58 267.35 259.64 267.26 259.67 267.13C260.05 265.52 261.03 263.9 260.62 262.2C260.11 256.41 251.4 255.88 249.99 261.48C248.63 265.18 247.88 269.48 249.93 273.06C251.68 276.06 255.61 278.92 259.18 278.13C259.916 277.916 260.594 277.538 261.163 277.025C261.732 276.511 262.177 275.875 262.465 275.165C262.752 274.455 262.875 273.688 262.824 272.924C262.773 272.159 262.55 271.416 262.17 270.75Z" fill="#010101"/>
</g>
<g opacity="0.13">
<path d="M281.28 191.06C281.021 190.165 280.54 189.351 279.88 188.693C279.221 188.036 278.405 187.556 277.51 187.3L277.23 187.2C276.803 187.01 276.365 186.843 275.92 186.7L275.84 186.65C275.68 186.5 275.53 186.36 275.38 186.2C275.23 186.04 274.93 185.41 274.65 184.84C273.76 182.59 273.16 180.11 270.91 178.84C265.64 175.63 259.32 181.95 262.54 187.21C264.07 190.97 266.09 194.83 269.87 196.72C274.58 199.46 282.72 197.9 281.28 191.06Z" fill="#010101"/>
</g>
<g opacity="0.13">
<path d="M209.1 204.1C208.47 197.7 199.03 197.1 197.41 203.31C195.75 207.13 197.07 204.79 195.08 208.4C194.76 208.74 194.44 209.09 194.08 209.4C193.24 209.94 190.75 211.75 190.39 212.72C186.66 219.25 195.23 225.85 200.58 220.58C203.938 217.742 206.429 214.017 207.77 209.83C208.35 207.98 209.57 206.1 209.1 204.1Z" fill="#010101"/>
</g>
<g opacity="0.13">
<path d="M360.39 40.53C351.783 53.99 343.367 67.59 335.14 81.33C332.53 85.65 329.69 89.84 327.09 94.18C326.609 94.7994 326.255 95.508 326.049 96.265C325.843 97.0219 325.789 97.8121 325.89 98.59C324.886 98.7572 323.979 99.2874 323.34 100.08C322.616 100.774 322.171 101.71 322.09 102.71C322.082 102.76 322.082 102.81 322.09 102.86C321.994 103.857 322.231 104.857 322.763 105.705C323.294 106.553 324.092 107.202 325.03 107.55C325.105 107.584 325.182 107.614 325.26 107.64C325.26 107.64 325.32 107.64 325.36 107.64C326.18 107.914 327.06 107.955 327.902 107.759C328.744 107.563 329.515 107.138 330.13 106.53C330.7 105.956 331.116 105.247 331.338 104.469C331.56 103.69 331.582 102.869 331.4 102.08C331.844 101.996 332.27 101.837 332.66 101.61C333.696 100.89 334.507 99.8914 335 98.73C336.29 96.58 337.77 94.55 339.12 92.44C349.5 76.51 360 60.33 368.25 43.24C369.06 38.77 362.6 36.56 360.39 40.53Z" fill="#010101"/>
</g>
<path d="M409.3 154.2C408.891 154.199 408.488 154.103 408.122 153.921C407.757 153.739 407.437 153.475 407.19 153.15C401.694 145.843 395.611 138.997 389 132.68C376.24 120.606 362.008 110.19 346.64 101.68C346.317 101.525 346.029 101.305 345.794 101.034C345.559 100.764 345.381 100.448 345.273 100.106C345.164 99.7648 345.126 99.4046 345.162 99.0478C345.198 98.6911 345.306 98.3455 345.48 98.0321C345.654 97.7187 345.89 97.4442 346.174 97.2255C346.458 97.0068 346.784 96.8485 347.132 96.7602C347.479 96.672 347.841 96.6557 348.195 96.7124C348.549 96.7691 348.888 96.8976 349.19 97.09C364.955 105.822 379.553 116.51 392.64 128.9C399.449 135.417 405.716 142.476 411.38 150.01C411.586 150.286 411.737 150.599 411.822 150.933C411.907 151.267 411.925 151.614 411.876 151.955C411.827 152.296 411.711 152.624 411.535 152.92C411.359 153.216 411.126 153.474 410.85 153.68C410.404 154.018 409.86 154.201 409.3 154.2Z" fill="#010101"/>
<path d="M243.08 454.66C228.233 454.753 213.438 452.884 199.08 449.1C142.09 433.63 95.5701 389.78 80.5401 337.33C74.6401 316.76 73.5401 295.69 73.1901 279.63C72.8201 261.14 73.6401 246.19 75.7601 232.63C81.4901 195.98 98.2601 161.86 124.27 133.97C124.745 133.461 125.402 133.161 126.098 133.137C126.794 133.112 127.471 133.365 127.98 133.84C128.489 134.315 128.789 134.972 128.813 135.668C128.838 136.364 128.585 137.041 128.11 137.55C102.82 164.67 86.5201 197.83 81.0001 233.44C78.9201 246.73 78.1201 261.39 78.4901 279.57C78.8001 295.31 79.9001 315.94 85.6301 335.92C100.17 386.6 145.24 429.04 200.46 444.03C281.75 466.1 401.46 418.57 425.32 331.63L425.86 329.63C432.67 304.87 446.86 253.33 431.49 201.41C431.354 201.072 431.29 200.709 431.302 200.344C431.314 199.98 431.402 199.622 431.56 199.294C431.719 198.965 431.944 198.674 432.221 198.437C432.499 198.201 432.823 198.025 433.172 197.921C433.522 197.816 433.889 197.786 434.251 197.832C434.612 197.878 434.961 197.999 435.273 198.187C435.585 198.376 435.855 198.627 436.064 198.925C436.274 199.224 436.419 199.562 436.49 199.92C452.28 253.28 437.84 305.79 430.89 331.03L430.35 333.03C418.98 374.49 384.84 411.09 336.7 433.46C306.65 447.4 273.8 454.66 243.08 454.66Z" fill="#010101"/>
<path d="M164 106.98C163.428 106.978 162.872 106.79 162.417 106.444C161.961 106.098 161.631 105.613 161.476 105.062C161.322 104.512 161.35 103.926 161.559 103.393C161.767 102.86 162.143 102.41 162.63 102.11C197.845 80.5859 239.137 71.1804 280.2 75.33C289.45 75.01 301.46 77.22 314.87 81.73C315.533 81.9515 316.081 82.4273 316.393 83.0527C316.705 83.6781 316.757 84.402 316.535 85.065C316.314 85.7281 315.838 86.276 315.212 86.5882C314.587 86.9005 313.863 86.9515 313.2 86.73C300.48 82.46 288.78 80.3 280.2 80.6C280.077 80.61 279.953 80.61 279.83 80.6C239.867 76.5231 199.669 85.6559 165.39 106.6C164.97 106.852 164.489 106.983 164 106.98Z" fill="#010101"/>
<path d="M318.35 111.08C317.722 111.078 317.116 110.853 316.639 110.444C316.163 110.035 315.847 109.47 315.75 108.85C313.98 97.22 312.03 85.45 309.95 73.85C309.841 73.2266 309.958 72.5849 310.28 72.04C317.133 60.6 323.89 49.3634 330.55 38.33C338.097 25.8034 345.5 13.47 352.76 1.33002C353.056 0.833196 353.507 0.447626 354.044 0.232954C354.58 0.0182812 355.173 -0.0135322 355.73 0.142435C356.286 0.298402 356.776 0.633459 357.123 1.09578C357.47 1.5581 357.656 2.12191 357.65 2.70002C357.418 14.3465 358.621 25.9772 361.23 37.33C369.23 36.13 377.23 34.55 385 33.03C388 32.43 391.06 31.83 394.08 31.26C394.583 31.1684 395.102 31.2258 395.572 31.4254C396.043 31.6249 396.445 31.9578 396.729 32.383C397.013 32.8082 397.166 33.3071 397.17 33.8184C397.173 34.3296 397.028 34.8307 396.75 35.26C382.38 56.66 367.52 78.79 351.14 101.09C350.863 101.478 350.481 101.779 350.04 101.96C340.019 106.245 329.51 109.287 318.75 111.02L318.35 111.08ZM315.3 73.92C317.16 84.35 318.92 94.92 320.54 105.43C329.736 103.739 338.722 101.057 347.34 97.43C362.16 77.23 375.75 57.15 388.87 37.62L386.01 38.18C377.41 39.87 368.52 41.62 359.63 42.87C358.993 42.9623 358.343 42.8165 357.807 42.4605C357.27 42.1044 356.883 41.5632 356.72 40.94C354.296 31.4501 352.895 21.7281 352.54 11.94C346.8 21.5334 340.97 31.2267 335.05 41.02C328.563 51.8 321.98 62.7667 315.3 73.92Z" fill="#010101"/>
<path d="M411.85 213.6C411.581 213.602 411.314 213.558 411.06 213.47C406.28 211.96 400.81 210.61 395.51 209.29C386.92 207.16 379.51 205.29 375.41 203.04C374.836 202.72 374.403 202.196 374.198 201.572C373.992 200.947 374.029 200.269 374.3 199.67C378.9 189.49 381.41 180.67 384.6 163.49C384.673 163.103 384.831 162.737 385.062 162.419C385.294 162.101 385.594 161.838 385.94 161.65C391.71 158.56 397.5 155.38 403.34 152.17C417.51 144.39 432.16 136.34 447.45 129.17C447.903 128.955 448.408 128.875 448.906 128.938C449.403 129.002 449.872 129.207 450.257 129.529C450.641 129.851 450.925 130.277 451.074 130.756C451.224 131.235 451.233 131.746 451.1 132.23C447.92 143.94 444.64 155.99 441.04 167.75C453.884 170.06 466.424 173.821 478.42 178.96C478.881 179.162 479.274 179.493 479.553 179.912C479.832 180.331 479.984 180.821 479.993 181.324C480.001 181.828 479.865 182.323 479.6 182.751C479.336 183.179 478.954 183.522 478.5 183.74C469.88 187.82 459.36 192.31 449.18 196.67C434.23 203.05 420.11 209.09 413.18 213.24C412.777 213.477 412.318 213.602 411.85 213.6ZM380.13 199.46C384.06 201.04 390.27 202.58 396.77 204.19C401.77 205.43 406.87 206.7 411.52 208.12C419.01 203.83 432.68 197.98 447.12 191.81C455.19 188.36 463.48 184.81 470.82 181.48C459.935 177.342 448.671 174.277 437.19 172.33C436.826 172.26 436.482 172.114 436.179 171.901C435.876 171.688 435.622 171.413 435.433 171.095C435.244 170.776 435.124 170.421 435.082 170.053C435.041 169.685 435.077 169.313 435.19 168.96C438.54 158.23 441.61 147.17 444.56 136.34C431.26 142.82 418.4 149.89 405.91 156.75C400.43 159.75 394.99 162.75 389.58 165.66C386.6 181.27 384.17 190.05 380.13 199.46Z" fill="#010101"/>
<path d="M347.41 176.06C323.47 149.39 281.18 134.06 262.54 134.41C214.4 135.41 170.74 153.41 147.15 195.41C140.48 207.27 135.93 220.22 132.55 233.41C123.1 270.3 123.65 312.41 146.21 343.06C151.426 350.015 157.471 356.308 164.21 361.8C195.21 387.49 238.21 397.98 277.47 389.27C316.73 380.56 351.35 352.78 368.21 316.27C389.14 270.84 380.83 213.33 347.41 176.06ZM300.41 296.2C283.66 319.33 249 327.48 224.07 313.66C199.14 299.84 187.75 265.43 200.26 239.77C211.4 216.92 238.18 200.04 263.26 204.16C269.84 205.24 282.55 210.94 292.42 219.33C314 237.68 317.05 273.27 300.42 296.2H300.41Z" fill="#AED3F0"/>
<path d="M160.69 145.87H160.51C149.759 145.156 139.051 143.888 128.43 142.07C127.783 141.952 127.205 141.595 126.81 141.07C112.73 122.07 101.11 104.82 91.2801 88.42C91.0072 87.9667 90.878 87.4413 90.9094 86.9132C90.9408 86.385 91.1314 85.8787 91.4561 85.4609C91.7808 85.0432 92.2244 84.7335 92.7284 84.5727C93.2325 84.4119 93.7735 84.4074 94.2801 84.56C105.89 88.14 116.36 89.99 126.21 90.18C127.022 78.4063 129.475 66.804 133.5 55.71C133.682 55.2327 133.999 54.8187 134.412 54.5185C134.825 54.2184 135.317 54.045 135.827 54.0195C136.337 53.9941 136.843 54.1177 137.284 54.3752C137.725 54.6328 138.082 55.0132 138.31 55.47C149.83 78.73 159.56 95.02 169.87 108.3C170.101 108.598 170.266 108.943 170.352 109.311C170.438 109.678 170.445 110.06 170.37 110.43C168.14 121.58 165.83 133.12 163.22 143.89C163.08 144.455 162.754 144.957 162.296 145.315C161.837 145.674 161.272 145.869 160.69 145.87ZM130.42 137.09C137.55 138.37 148.69 139.7 158.65 140.46C160.94 130.79 163.01 120.53 165 110.54C155.6 98.26 146.65 83.54 136.44 63.39C133.596 73.0168 131.868 82.9385 131.29 92.96C131.243 93.6208 130.949 94.2399 130.468 94.6953C129.987 95.1506 129.353 95.4092 128.69 95.42C118.75 95.3959 108.856 94.0508 99.2701 91.42C108.1 105.71 118.34 120.72 130.42 137.09Z" fill="#010101"/>
<path d="M250 396.22C218.54 396.22 186.8 385.22 162.62 365.22C155.733 359.583 149.555 353.133 144.22 346.01C116.63 308.49 123.55 259.82 130.13 234.15C134 219.05 138.86 206.42 144.98 195.52C166.98 156.42 208.74 134.28 262.61 133.18C282.61 132.83 325.29 148.76 349.49 175.71C383.42 213.49 392.13 272.31 370.68 318.71C353.56 355.77 318.1 384.31 278.13 393.18C268.892 395.213 259.459 396.232 250 396.22ZM262.7 138.4C210.76 139.46 170.57 160.64 149.54 198.06C143.64 208.55 138.95 220.77 135.2 235.41C128.85 260.18 122.13 307.08 148.43 342.86C153.522 349.642 159.423 355.777 166 361.13C196.23 386.22 238.78 396.54 277 388.06C315.41 379.54 349.48 352.12 365.92 316.52C386.51 271.92 378.16 215.44 345.59 179.18C323 154.02 282.22 138.39 263.4 138.39L262.7 138.4Z" fill="#010101"/>
<path d="M251.44 324.49C241.474 324.56 231.653 322.096 222.9 317.33C196.64 302.78 185 266.64 198 239.98C210.32 214.73 238.61 198.8 263.8 202.98C270.94 204.15 284.04 210.07 294.23 218.74C316.61 237.74 320.47 274.59 302.65 299.15C290.83 315.41 271.05 324.49 251.44 324.49ZM255.92 207.55C235.09 207.55 212.74 221.75 202.73 242.29C190.89 266.55 201.51 299.47 225.45 312.72C248.97 325.72 282.38 318.1 298.4 296.02C314.42 273.94 310.85 239.72 290.83 222.69C280.77 214.14 268.47 209.01 262.95 208.11C260.626 207.732 258.275 207.545 255.92 207.55Z" fill="#010101"/>
<path d="M272.37 191.5C271.907 191.502 271.452 191.382 271.051 191.151C270.649 190.92 270.316 190.587 270.086 190.185C269.855 189.784 269.735 189.329 269.737 188.866C269.74 188.403 269.865 187.949 270.1 187.55L370.79 15.43C370.955 15.1137 371.182 14.8343 371.458 14.6086C371.734 14.3829 372.053 14.2158 372.396 14.1173C372.739 14.0188 373.098 13.9911 373.452 14.0357C373.806 14.0804 374.147 14.1965 374.454 14.3771C374.762 14.5577 375.029 14.7989 375.241 15.0861C375.452 15.3733 375.603 15.7005 375.684 16.0478C375.765 16.3951 375.774 16.7552 375.712 17.1063C375.649 17.4573 375.516 17.792 375.32 18.09L274.64 190.2C274.409 190.597 274.077 190.925 273.679 191.154C273.28 191.382 272.829 191.501 272.37 191.5Z" fill="#010101"/>
<path d="M257 269.2C256.397 269.219 255.806 269.03 255.326 268.665C254.846 268.3 254.506 267.781 254.363 267.195C254.22 266.609 254.282 265.991 254.54 265.446C254.799 264.901 255.236 264.461 255.78 264.2C324.44 228.08 393.56 190.56 461.22 152.68C461.837 152.338 462.564 152.255 463.242 152.449C463.92 152.643 464.493 153.098 464.835 153.715C465.177 154.332 465.26 155.059 465.066 155.737C464.872 156.415 464.417 156.988 463.8 157.33C396.11 195.2 327 232.75 258.24 268.89C257.859 269.096 257.433 269.203 257 269.2Z" fill="#010101"/>
<path d="M197.34 213.6C196.854 213.599 196.378 213.464 195.963 213.21C195.549 212.956 195.212 212.593 194.99 212.16C172.204 167.614 146.616 124.557 118.38 83.25C118.183 82.9651 118.044 82.6441 117.971 82.3054C117.898 81.9668 117.893 81.6171 117.955 81.2763C118.017 80.9355 118.146 80.6103 118.334 80.3192C118.522 80.0282 118.765 79.777 119.05 79.58C119.335 79.383 119.656 79.2441 119.995 79.1712C120.333 79.0983 120.683 79.0927 121.024 79.155C121.365 79.2172 121.69 79.3459 121.981 79.5338C122.272 79.7217 122.523 79.9651 122.72 80.25C151.081 121.74 176.783 164.987 199.67 209.73C199.988 210.351 200.047 211.072 199.833 211.736C199.619 212.4 199.151 212.952 198.53 213.27C198.165 213.471 197.757 213.584 197.34 213.6Z" fill="#010101"/>
<path d="M64.3201 377.21C63.7966 377.209 63.2852 377.053 62.8507 376.761C62.4162 376.469 62.0784 376.054 61.8801 375.57C47.3374 339.805 38.064 302.119 34.3501 263.69C34.2991 263.338 34.3202 262.978 34.4121 262.634C34.5041 262.29 34.6649 261.969 34.8849 261.689C35.1048 261.409 35.3794 261.176 35.6919 261.005C36.0043 260.835 36.3482 260.729 36.7027 260.695C37.0572 260.661 37.4148 260.7 37.754 260.808C38.0932 260.917 38.4068 261.093 38.6758 261.326C38.9449 261.559 39.1638 261.845 39.3192 262.165C39.4746 262.486 39.5634 262.834 39.5801 263.19C43.2441 301.111 52.3963 338.299 66.7501 373.59C66.8806 373.909 66.9469 374.251 66.9452 374.595C66.9434 374.94 66.8737 375.281 66.7399 375.599C66.6061 375.917 66.411 376.205 66.1656 376.447C65.9203 376.689 65.6295 376.88 65.3101 377.01C64.9957 377.139 64.6598 377.206 64.3201 377.21Z" fill="#010101"/>
<path d="M22.51 391.08C21.9617 391.085 21.4254 390.919 20.9756 390.606C20.5258 390.292 20.1848 389.846 20 389.33L0.149985 332.51C0.0357348 332.182 -0.0127321 331.834 0.00735138 331.487C0.0274349 331.14 0.115675 330.8 0.267035 330.487C0.418394 330.174 0.629909 329.894 0.889501 329.663C1.14909 329.432 1.45168 329.254 1.77998 329.14C2.10829 329.026 2.45588 328.977 2.80292 328.997C3.14995 329.017 3.48964 329.106 3.80257 329.257C4.1155 329.408 4.39556 329.62 4.62675 329.88C4.85794 330.139 5.03573 330.442 5.14998 330.77L25 387.59C25.1369 387.986 25.1774 388.409 25.118 388.823C25.0586 389.238 24.901 389.632 24.6584 389.973C24.4158 390.315 24.0952 390.593 23.7233 390.786C23.3513 390.978 22.9388 391.079 22.52 391.08H22.51Z" fill="#010101"/>
</g>
<defs>
<clipPath id="clip0_206_2517">
<rect width="480" height="454.65" fill="white"/>
</clipPath>
</defs>
</svg>
