<svg width="24" height="24" viewBox="0 0 24 24" fill="none" xmlns="http://www.w3.org/2000/svg">
<path d="M20.9227 23.472C21.6267 24.176 22.768 24.176 23.472 23.472C24.176 22.768 24.176 21.6267 23.472 20.9227L14.5493 12L23.472 3.07732C24.176 2.37334 24.176 1.23197 23.472 0.527988C22.768 -0.175992 21.6267 -0.175992 20.9227 0.527988L12 9.45066L3.07733 0.527985C2.37335 -0.175995 1.23197 -0.175994 0.527991 0.527985C-0.17599 1.23197 -0.175989 2.37334 0.527991 3.07732L9.45067 12L0.527985 20.9227C-0.175995 21.6267 -0.175995 22.768 0.527985 23.472C1.23196 24.176 2.37334 24.176 3.07732 23.472L12 14.5493L20.9227 23.472Z" fill="white"/>
</svg>
