<svg width="22" height="22" viewBox="0 0 22 22" fill="none" xmlns="http://www.w3.org/2000/svg">
<circle cx="11" cy="11" r="11" fill="#9C182F"/>
<path fill-rule="evenodd" clip-rule="evenodd" d="M15.7611 11.22C15.9016 11.3606 15.9805 11.5512 15.9805 11.75C15.9805 11.9488 15.9016 12.1394 15.7611 12.28L11.5111 16.53C11.3705 16.6704 11.1799 16.7493 10.9811 16.7493C10.7824 16.7493 10.5918 16.6704 10.4511 16.53L6.20113 12.28C6.06865 12.1378 5.99652 11.9498 5.99995 11.7555C6.00338 11.5612 6.08209 11.3758 6.21951 11.2384C6.35692 11.101 6.54231 11.0223 6.73661 11.0188C6.93091 11.0154 7.11895 11.0875 7.26113 11.22L10.2311 14.19L10.2311 6.75C10.2311 6.55109 10.3101 6.36032 10.4508 6.21967C10.5915 6.07902 10.7822 6 10.9811 6C11.18 6 11.3708 6.07902 11.5115 6.21967C11.6521 6.36032 11.7311 6.55109 11.7311 6.75L11.7311 14.19L14.7011 11.22C14.8418 11.0795 15.0324 11.0007 15.2311 11.0007C15.4299 11.0007 15.6205 11.0795 15.7611 11.22V11.22Z" fill="white"/>
</svg>
