<svg width="678" height="421" viewBox="0 0 678 421" fill="none" xmlns="http://www.w3.org/2000/svg">
<g clip-path="url(#clip0_206_3223)">
<path d="M433.63 407.99C436.039 406.639 438.745 405.909 441.506 405.864C444.267 405.819 446.997 406.461 449.448 407.732C451.899 409.003 453.996 410.864 455.55 413.147C457.104 415.43 458.066 418.063 458.35 420.81C448.25 420.81 438.35 418.46 433.63 407.99Z" fill="#EBEBEB"/>
<path d="M445.39 397.64C448.786 398.755 452.406 399.008 455.924 398.375C459.442 397.743 462.748 396.245 465.543 394.017C468.338 391.789 470.535 388.901 471.937 385.613C473.338 382.325 473.899 378.739 473.57 375.18C460.74 377.7 448.7 383.18 445.39 397.64Z" fill="#EBEBEB"/>
<path d="M401.42 414.73C401.622 414.629 401.833 414.545 402.05 414.48L403.9 413.86C405.5 413.34 407.82 412.58 410.67 411.59C416.38 409.59 424.21 406.75 432.67 403.08C436.88 401.23 440.84 399.35 444.4 397.55C447.96 395.75 451.07 393.97 453.65 392.4C455.681 391.179 457.641 389.844 459.52 388.4C460.84 387.4 461.52 386.69 461.52 386.73C461.389 386.913 461.238 387.081 461.07 387.23C460.618 387.699 460.141 388.143 459.64 388.56C457.799 390.085 455.858 391.485 453.83 392.75C451.28 394.37 448.15 396.15 444.61 398.01C441.07 399.87 437.09 401.74 432.86 403.6C424.41 407.28 416.54 410.1 410.8 411.98C407.93 412.93 405.59 413.63 403.97 414.09L402.1 414.62C401.879 414.685 401.65 414.722 401.42 414.73Z" fill="#E0E0E0"/>
<path d="M446.63 413.87C446.63 413.95 445.41 413.13 443.4 412.04C440.774 410.631 438.001 409.518 435.13 408.72C432.25 407.938 429.292 407.486 426.31 407.37C424.03 407.28 422.6 407.37 422.6 407.29C422.925 407.195 423.261 407.141 423.6 407.13C424.507 407.034 425.418 406.99 426.33 407C432.399 407.027 438.353 408.655 443.59 411.72C444.379 412.178 445.141 412.682 445.87 413.23C446.153 413.405 446.409 413.621 446.63 413.87Z" fill="#E0E0E0"/>
<path d="M208.36 368.91C207.137 372.169 206.744 375.682 207.216 379.131C207.687 382.58 209.009 385.858 211.062 388.669C213.115 391.481 215.834 393.738 218.976 395.237C222.118 396.737 225.583 397.432 229.06 397.26C227.14 384.68 222.3 372.72 208.36 368.91Z" fill="#EBEBEB"/>
<path d="M206.39 362.73C206.47 362.73 206.81 364.11 207.54 366.3C208.488 369.155 209.676 371.925 211.09 374.58C212.523 377.225 214.172 379.747 216.02 382.12C217.45 383.94 218.42 385 218.36 385.06C218.079 384.87 217.823 384.645 217.6 384.39C217.13 383.93 216.49 383.24 215.74 382.39C211.807 377.733 208.894 372.303 207.19 366.45C206.87 365.33 206.64 364.45 206.53 363.77C206.427 363.433 206.38 363.082 206.39 362.73Z" fill="#E0E0E0"/>
<path d="M8.51999 116.57C6.6211 121.623 6.00973 127.07 6.741 132.419C7.47226 137.767 9.52316 142.85 12.7088 147.208C15.8945 151.567 20.1147 155.064 24.989 157.384C29.8634 159.704 35.2386 160.775 40.63 160.5C37.63 141 30.16 122.5 8.55999 116.57" fill="#EBEBEB"/>
<path d="M5.45996 107.01C5.66313 107.491 5.82049 107.99 5.92996 108.5C6.18996 109.5 6.59996 110.86 7.14996 112.57C8.60084 117.007 10.4344 121.31 12.63 125.43C14.8424 129.547 17.4122 133.462 20.31 137.13C21.43 138.53 22.31 139.65 23.02 140.4C23.382 140.779 23.7162 141.183 24.02 141.61C23.6078 141.289 23.2262 140.931 22.88 140.54C22.17 139.82 21.19 138.74 20.04 137.36C14.0012 130.12 9.49975 121.726 6.80996 112.69C6.29996 110.97 5.93996 109.55 5.73996 108.57C5.6099 108.057 5.51634 107.536 5.45996 107.01Z" fill="#E0E0E0"/>
<path d="M42.31 315.61C39.5961 317.793 37.4679 320.617 36.117 323.827C34.766 327.038 34.2347 330.533 34.571 334C34.9073 337.467 36.1005 340.795 38.0432 343.686C39.9859 346.577 42.6172 348.939 45.7 350.56C50.45 338.75 52.37 326 42.31 315.61Z" fill="#EBEBEB"/>
<path d="M43.75 309.29C43.83 309.29 43.42 310.7 42.93 312.95C41.6353 318.84 41.3815 324.912 42.18 330.89C42.48 333.18 42.78 334.59 42.69 334.61C42.5467 334.29 42.4426 333.955 42.38 333.61C42.21 332.98 42.01 332.06 41.81 330.92C40.8079 324.906 41.0667 318.749 42.57 312.84C42.86 311.71 43.14 310.84 43.36 310.2C43.4547 309.883 43.5856 309.577 43.75 309.29Z" fill="#E0E0E0"/>
<path d="M227.89 62.75C231.007 64.3019 234.461 65.0544 237.941 64.9399C241.42 64.8253 244.817 63.8473 247.825 62.0938C250.833 60.3404 253.358 57.8665 255.173 54.8948C256.987 51.9231 258.034 48.5469 258.22 45.07C245.5 45.68 233.12 49.27 227.89 62.75Z" fill="#EBEBEB"/>
<path d="M221.54 64.13C221.54 64.05 222.96 63.85 225.21 63.35C231.1 62.0628 236.721 59.7583 241.82 56.54C243.82 55.3 244.93 54.45 244.98 54.54C244.768 54.8049 244.519 55.0374 244.24 55.23C243.74 55.65 242.98 56.23 242.02 56.87C236.982 60.2997 231.284 62.6397 225.29 63.74C224.14 63.95 223.21 64.07 222.56 64.13C222.222 64.1757 221.879 64.1757 221.54 64.13Z" fill="#E0E0E0"/>
<path d="M201.97 60.94C206.459 59.9764 210.639 57.9116 214.132 54.9313C217.625 51.951 220.322 48.1489 221.98 43.8672C223.639 39.5855 224.206 34.9585 223.632 30.403C223.057 25.8474 221.359 21.5061 218.69 17.77C206.09 28.86 196.27 42.77 201.97 60.94Z" fill="#EBEBEB"/>
<path d="M196.52 67.52C196.768 67.161 197.049 66.8262 197.36 66.52C197.93 65.89 198.74 64.95 199.7 63.77C204.743 57.6098 208.647 50.6002 211.23 43.07C211.73 41.63 212.1 40.45 212.34 39.63C212.44 39.1965 212.584 38.7744 212.77 38.37C212.739 38.8143 212.659 39.2537 212.53 39.68C212.36 40.52 212.03 41.68 211.53 43.18C209.132 50.8397 205.187 57.9259 199.94 64C198.94 65.16 198.08 66.07 197.46 66.66C197.177 66.9785 196.862 67.2668 196.52 67.52Z" fill="#E0E0E0"/>
<path d="M284 403.5C284.948 405.368 286.346 406.972 288.067 408.166C289.788 409.361 291.779 410.109 293.861 410.344C295.943 410.579 298.051 410.293 299.995 409.513C301.939 408.732 303.659 407.48 305 405.87C298.64 401.59 291.36 398.87 284 403.5Z" fill="#EBEBEB"/>
<path d="M280.46 401.86C282.8 402.897 285.205 403.779 287.66 404.5C290.158 405.052 292.69 405.433 295.24 405.64C294.495 405.804 293.729 405.851 292.97 405.78C289.288 405.655 285.678 404.73 282.39 403.07C281.69 402.766 281.039 402.358 280.46 401.86Z" fill="#E0E0E0"/>
<path d="M376.7 44.46C377.99 46.1135 379.672 47.4198 381.593 48.2614C383.514 49.1029 385.615 49.4531 387.705 49.2805C389.795 49.1079 391.81 48.4178 393.567 47.2726C395.324 46.1273 396.768 44.5627 397.77 42.72C390.7 39.72 383.04 38.49 376.7 44.46Z" fill="#EBEBEB"/>
<path d="M372.91 43.54C377.878 44.8406 383.058 45.1296 388.14 44.39C387.438 44.6859 386.697 44.8779 385.94 44.96C382.302 45.5525 378.579 45.3443 375.03 44.35C374.286 44.1887 373.572 43.9156 372.91 43.54Z" fill="#E0E0E0"/>
<path d="M616.94 75.22C620.294 76.1431 623.826 76.2182 627.217 75.4387C630.607 74.6592 633.751 73.0494 636.366 70.7541C638.981 68.4587 640.984 65.5497 642.196 62.2884C643.408 59.0271 643.791 55.5158 643.31 52.07C630.95 55.07 619.49 61 616.94 75.22Z" fill="#EBEBEB"/>
<path d="M610.96 77.74C610.96 77.66 612.29 77.19 614.41 76.27C619.945 73.8806 625.021 70.5439 629.41 66.41C631.1 64.82 632.06 63.76 632.13 63.82C631.966 64.1151 631.765 64.3874 631.53 64.63C631.12 65.14 630.53 65.84 629.67 66.63C625.379 70.9578 620.233 74.3432 614.56 76.57C613.48 76.99 612.56 77.3 611.96 77.47C611.639 77.6015 611.303 77.6922 610.96 77.74Z" fill="#E0E0E0"/>
<path d="M640.63 380.01C646.53 378.644 651.999 375.833 656.544 371.83C661.089 367.827 664.568 362.757 666.668 357.076C668.768 351.395 669.423 345.282 668.576 339.285C667.728 333.288 665.403 327.596 661.81 322.72C645.38 337.61 632.72 356.13 640.63 380.01Z" fill="#EBEBEB"/>
<path d="M633.54 388.81C633.88 388.33 634.255 387.876 634.66 387.45C635.41 386.61 636.46 385.36 637.71 383.79C638.96 382.22 640.4 380.29 641.89 378.09C643.38 375.89 644.89 373.38 646.36 370.68C647.83 367.98 649.03 365.32 650.06 362.86C651.09 360.4 651.9 358.15 652.51 356.23C653.12 354.31 653.58 352.75 653.87 351.66C653.995 351.086 654.169 350.524 654.39 349.98C654.325 350.564 654.218 351.142 654.07 351.71C653.84 352.82 653.43 354.4 652.86 356.34C652.29 358.28 651.5 360.56 650.51 363.05C649.52 365.54 648.27 368.2 646.82 370.93C645.435 373.481 643.923 375.961 642.29 378.36C640.76 380.56 639.29 382.47 638 384.02C636.71 385.57 635.6 386.79 634.81 387.59C634.42 388.03 633.995 388.438 633.54 388.81Z" fill="#E0E0E0"/>
<path d="M504.85 253.93C498.54 218.68 468.27 187.93 432.58 184.99C413.13 183.41 393.58 189.54 374.21 187.2C357.793 185.151 342.687 177.187 331.72 164.8C315.72 146.6 310.31 120.71 293.37 103.39C270.03 79.5 229.3 79.13 200.9 96.7C172.5 114.27 155.33 145.98 147.47 178.43L147.16 188.3C145.45 221.96 154.31 261.13 173.84 291.13C193.63 321.53 206.64 334.13 242.7 355.94C273.32 374.5 333.28 382.66 369.08 383.52C404.88 384.38 441.65 373.72 468.58 350.1C495.51 326.48 511.17 289.18 504.85 253.93Z" fill="#368DCC"/>
<g opacity="0.8">
<path d="M504.85 253.93C498.54 218.68 468.27 187.93 432.58 184.99C413.13 183.41 393.58 189.54 374.21 187.2C357.793 185.151 342.687 177.187 331.72 164.8C315.72 146.6 310.31 120.71 293.37 103.39C270.03 79.5 229.3 79.13 200.9 96.7C172.5 114.27 155.33 145.98 147.47 178.43L147.16 188.3C145.45 221.96 154.31 261.13 173.84 291.13C193.63 321.53 206.64 334.13 242.7 355.94C273.32 374.5 333.28 382.66 369.08 383.52C404.88 384.38 441.65 373.72 468.58 350.1C495.51 326.48 511.17 289.18 504.85 253.93Z" fill="white"/>
</g>
<path d="M539.945 379.785C541.313 370.357 534.78 361.604 525.352 360.236C515.924 358.867 507.171 365.401 505.803 374.829C504.434 384.257 510.967 393.009 520.395 394.378C529.823 395.747 538.576 389.213 539.945 379.785Z" fill="#368DCC"/>
<path opacity="0.8" d="M539.945 379.785C541.313 370.357 534.78 361.604 525.352 360.236C515.924 358.867 507.171 365.401 505.803 374.829C504.434 384.257 510.967 393.009 520.395 394.378C529.823 395.747 538.576 389.213 539.945 379.785Z" fill="white"/>
<path d="M401.79 244.58C402.117 279.02 394.61 305.353 379.27 323.58C363.93 341.807 342.93 351.04 316.27 351.28C289.47 351.54 268.167 342.713 252.36 324.8C236.553 306.887 228.48 280.713 228.14 246.28L227.56 185.72C227.227 151.413 234.733 125.08 250.08 106.72C265.427 88.36 286.497 79.0666 313.29 78.84C339.957 78.58 361.2 87.47 377.02 105.51C392.84 123.55 400.91 149.72 401.23 184.02L401.79 244.58ZM356.96 177.66C356.74 155.973 352.963 139.96 345.63 129.62C338.297 119.28 327.63 114.173 313.63 114.3C299.677 114.433 289.147 119.743 282.04 130.23C274.933 140.717 271.463 156.8 271.63 178.48L272.33 252.07C272.537 273.87 276.36 289.973 283.8 300.38C291.24 310.787 301.93 315.923 315.87 315.79C329.81 315.657 340.307 310.347 347.36 299.86C354.413 289.373 357.837 273.17 357.63 251.25L356.96 177.66Z" fill="#368DCC"/>
<g opacity="0.4">
<path d="M401.79 244.58C402.117 279.02 394.61 305.353 379.27 323.58C363.93 341.807 342.93 351.04 316.27 351.28C289.47 351.54 268.167 342.713 252.36 324.8C236.553 306.887 228.48 280.713 228.14 246.28L227.56 185.72C227.227 151.413 234.733 125.08 250.08 106.72C265.427 88.36 286.497 79.0666 313.29 78.84C339.957 78.58 361.2 87.47 377.02 105.51C392.84 123.55 400.91 149.72 401.23 184.02L401.79 244.58ZM356.96 177.66C356.74 155.973 352.963 139.96 345.63 129.62C338.297 119.28 327.63 114.173 313.63 114.3C299.677 114.433 289.147 119.743 282.04 130.23C274.933 140.717 271.463 156.8 271.63 178.48L272.33 252.07C272.537 273.87 276.36 289.973 283.8 300.38C291.24 310.787 301.93 315.923 315.87 315.79C329.81 315.657 340.307 310.347 347.36 299.86C354.413 289.373 357.837 273.17 357.63 251.25L356.96 177.66Z" fill="black"/>
</g>
<path d="M427.25 244.34C427.583 278.773 420.077 305.107 404.73 323.34C389.384 341.573 368.384 350.807 341.73 351.04C314.93 351.3 293.627 342.47 277.82 324.55C262.014 306.63 253.95 280.45 253.63 246.01L253.05 185.45C252.717 151.143 260.224 124.81 275.57 106.45C290.917 88.09 311.987 78.7933 338.78 78.56C365.447 78.3133 386.69 87.2033 402.51 105.23C418.33 123.257 426.37 149.44 426.63 183.78L427.25 244.34ZM382.42 177.42C382.207 155.74 378.414 139.74 371.04 129.42C363.667 119.1 353 113.993 339.04 114.1C325.087 114.24 314.557 119.55 307.45 130.03C300.344 140.51 296.89 156.597 297.09 178.29L297.8 251.87C298.014 273.677 301.837 289.783 309.27 300.19C316.704 310.597 327.393 315.733 341.34 315.6C355.28 315.46 365.777 310.15 372.83 299.67C379.884 289.19 383.303 272.983 383.09 251.05L382.42 177.42Z" fill="#368DCC"/>
<path d="M253.18 189.05C253.23 189.18 247.32 191.53 239.98 194.29C232.64 197.05 226.63 199.13 226.63 199.04C226.63 198.95 232.49 196.56 239.83 193.8C247.17 191.04 253.13 188.91 253.18 189.05Z" fill="#368DCC"/>
<path d="M254.63 212.98C254.68 213.11 248.77 215.46 241.42 218.22C234.07 220.98 228.09 223.1 228.04 222.97C227.99 222.84 233.9 220.49 241.24 217.73C248.58 214.97 254.63 212.84 254.63 212.98Z" fill="#368DCC"/>
<path d="M256.12 236.91C256.17 237.04 250.26 239.39 242.91 242.15C235.56 244.91 229.63 247.03 229.53 246.9C229.43 246.77 235.39 244.42 242.73 241.66C250.07 238.9 256.07 236.77 256.12 236.91Z" fill="#368DCC"/>
<path d="M257.63 260.84C257.68 260.97 251.77 263.32 244.42 266.08C237.07 268.84 231.08 270.96 231.03 270.83C230.98 270.7 236.9 268.35 244.24 265.59C251.58 262.83 257.54 260.7 257.63 260.84Z" fill="#368DCC"/>
<path d="M259.06 284.77C258.772 284.955 258.463 285.106 258.14 285.22C257.54 285.48 256.66 285.84 255.58 286.27C253.4 287.14 250.39 288.27 247.05 289.56C243.71 290.85 240.67 291.92 238.46 292.7C237.36 293.09 236.46 293.4 235.84 293.6C235.521 293.734 235.184 293.822 234.84 293.86C235.127 293.672 235.436 293.521 235.76 293.41C236.36 293.15 237.23 292.79 238.32 292.41C240.49 291.54 243.51 290.41 246.85 289.12C250.19 287.83 253.23 286.75 255.44 285.98C256.54 285.59 257.44 285.28 258.06 285.08C258.376 284.926 258.713 284.822 259.06 284.77Z" fill="#368DCC"/>
<path d="M265.89 306.66C264.926 307.179 263.923 307.624 262.89 307.99C260.99 308.75 258.36 309.77 255.45 310.87C252.54 311.97 249.88 312.93 247.96 313.6C246.935 314.017 245.878 314.351 244.8 314.6C245.763 314.078 246.766 313.633 247.8 313.27C249.69 312.5 252.32 311.48 255.24 310.39C258.16 309.3 260.8 308.33 262.73 307.66C263.753 307.238 264.81 306.904 265.89 306.66Z" fill="#368DCC"/>
<path d="M280.52 326.74C279.659 327.219 278.759 327.624 277.83 327.95C276.14 328.63 273.83 329.54 271.21 330.52C268.59 331.5 266.21 332.35 264.53 332.94C263.616 333.31 262.673 333.601 261.71 333.81C262.568 333.326 263.469 332.921 264.4 332.6C266.08 331.92 268.4 331.01 271.02 330.03C273.64 329.05 276.02 328.2 277.7 327.6C278.613 327.23 279.556 326.942 280.52 326.74Z" fill="#368DCC"/>
<path d="M304.83 339.91C303.967 340.382 303.068 340.784 302.14 341.11C300.45 341.8 298.14 342.71 295.52 343.68C292.9 344.65 290.52 345.51 288.84 346.11C287.927 346.48 286.984 346.768 286.02 346.97C286.881 346.491 287.781 346.086 288.71 345.76C290.4 345.08 292.71 344.17 295.33 343.19C297.95 342.21 300.33 341.36 302.01 340.77C302.92 340.394 303.865 340.106 304.83 339.91Z" fill="#368DCC"/>
<path d="M378.15 288.84C378.21 288.97 370.62 292.51 361.2 296.75C351.78 300.99 344.09 304.31 344.03 304.18C343.97 304.05 351.56 300.51 361.03 296.27C370.5 292.03 378.09 288.71 378.15 288.84Z" fill="#368DCC"/>
<path d="M383.13 268.34C383.19 268.47 376.92 271.41 369.13 274.91C361.34 278.41 354.98 281.15 354.92 281.02C354.86 280.89 361.12 277.94 368.92 274.44C376.72 270.94 383.07 268.21 383.13 268.34Z" fill="#368DCC"/>
<path d="M385.42 245.31C385.48 245.44 379.21 248.38 371.42 251.88C363.63 255.38 357.27 258.12 357.21 257.99C357.15 257.86 363.41 254.91 371.21 251.41C379.01 247.91 385.36 245.13 385.42 245.31Z" fill="#368DCC"/>
<path d="M387.71 222.27C387.77 222.4 381.51 225.35 373.71 228.85C365.91 232.35 359.56 235.08 359.5 234.95C359.44 234.82 365.71 231.88 373.5 228.38C381.29 224.88 387.63 222.13 387.71 222.27Z" fill="#368DCC"/>
<path d="M390.01 199.24C390.06 199.37 383.8 202.32 376.01 205.82C368.22 209.32 361.86 212.05 361.8 211.92C361.74 211.79 368.01 208.85 375.8 205.34C383.59 201.83 389.95 199.13 390.01 199.24Z" fill="#368DCC"/>
<path d="M385.42 178.73C385.48 178.86 379.21 181.81 371.42 185.31C363.63 188.81 357.27 191.54 357.21 191.41C357.15 191.28 363.41 188.33 371.21 184.83C379.01 181.33 385.36 178.6 385.42 178.73Z" fill="#368DCC"/>
<path d="M385.42 156.65C385.48 156.78 379.21 159.73 371.42 163.23C363.63 166.73 357.27 169.46 357.21 169.33C357.15 169.2 363.41 166.25 371.21 162.75C379.01 159.25 385.36 156.52 385.42 156.65Z" fill="#368DCC"/>
<path d="M383.13 135.86C383.19 135.99 376.92 138.93 369.13 142.43C361.34 145.93 354.98 148.67 354.92 148.54C354.86 148.41 361.12 145.46 368.92 141.96C376.72 138.46 383.07 135.73 383.13 135.86Z" fill="#368DCC"/>
<path d="M363.38 121.37C360.634 122.891 357.806 124.26 354.91 125.47C352.082 126.835 349.181 128.044 346.22 129.09C348.962 127.562 351.79 126.193 354.69 124.99C357.518 123.625 360.419 122.416 363.38 121.37Z" fill="#368DCC"/>
<path d="M352.82 112.5C350.072 114.013 347.244 115.378 344.35 116.59C341.522 117.955 338.621 119.164 335.66 120.21C338.406 118.696 341.234 117.334 344.13 116.13C346.958 114.761 349.859 113.549 352.82 112.5Z" fill="#368DCC"/>
<path d="M254.31 160.04C254.36 160.17 248.45 162.52 241.11 165.28C233.77 168.04 227.77 170.17 227.72 170.03C227.67 169.89 233.58 167.55 240.93 164.79C248.28 162.03 254.26 159.91 254.31 160.04Z" fill="#368DCC"/>
<path d="M261.63 130.2C261.69 130.33 255.27 132.86 247.32 135.86C239.37 138.86 232.86 141.16 232.81 141.03C232.76 140.9 239.17 138.36 247.13 135.37C255.09 132.38 261.63 130.06 261.63 130.2Z" fill="#368DCC"/>
<path d="M280.9 100.66C280.95 100.8 272.82 103.97 262.74 107.76C252.66 111.55 244.45 114.51 244.4 114.38C244.35 114.25 252.48 111.06 262.56 107.27C272.64 103.48 280.85 100.53 280.9 100.66Z" fill="#368DCC"/>
<path d="M422.94 289.13L422.52 288.99L421.32 288.52C420.79 288.33 420.1 288.18 419.32 287.96C418.386 287.778 417.44 287.661 416.49 287.61C412.22 287.34 405.82 288.89 399.63 293.53C396.279 296.069 393.276 299.038 390.7 302.36C387.83 305.87 385.02 309.84 381.83 313.84C378.584 318.131 374.699 321.898 370.31 325.01C365.505 328.251 360.076 330.451 354.37 331.47C348.664 332.498 342.805 332.303 337.18 330.9C331.988 329.538 326.943 327.666 322.12 325.31C317.47 323.16 313.12 320.97 308.98 319.16C305.13 317.459 301.133 316.111 297.04 315.13C293.665 314.333 290.208 313.937 286.74 313.95C284.123 313.97 281.518 314.323 278.99 315C277.4 315.467 275.854 316.072 274.37 316.81L273.23 317.41C273.104 317.488 272.97 317.552 272.83 317.6L273.2 317.37L274.32 316.72C275.791 315.935 277.335 315.295 278.93 314.81C281.47 314.093 284.091 313.707 286.73 313.66C290.225 313.615 293.713 313.988 297.12 314.77C301.233 315.738 305.249 317.077 309.12 318.77C313.3 320.57 317.65 322.77 322.29 324.89C327.095 327.222 332.12 329.071 337.29 330.41C342.853 331.799 348.648 331.99 354.29 330.97C359.925 329.962 365.289 327.793 370.04 324.6C374.396 321.524 378.254 317.797 381.48 313.55C384.67 309.55 387.48 305.61 390.39 302.09C392.989 298.758 396.015 295.783 399.39 293.24C405.67 288.6 412.16 287.08 416.48 287.42C417.441 287.483 418.397 287.613 419.34 287.81C420.14 288.06 420.83 288.22 421.34 288.43L422.53 288.95L422.94 289.13Z" fill="white"/>
<path d="M429.25 222.43C429.25 222.48 428.54 222.57 427.3 222.98C425.576 223.611 423.95 224.483 422.47 225.57C420.57 226.9 418.47 228.76 416.06 230.68C413.4 232.755 410.52 234.529 407.47 235.97C401.936 238.623 395.937 240.172 389.81 240.53C388.64 240.63 387.57 240.6 386.64 240.62C385.71 240.64 384.91 240.56 384.26 240.51L382.75 240.36C382.576 240.357 382.404 240.327 382.24 240.27C382.412 240.246 382.588 240.246 382.76 240.27L384.27 240.32H386.64C387.57 240.27 388.64 240.32 389.78 240.16C395.841 239.692 401.764 238.109 407.25 235.49C410.263 234.058 413.119 232.315 415.77 230.29C418.2 228.41 420.31 226.56 422.27 225.29C423.798 224.208 425.485 223.372 427.27 222.81C427.756 222.672 428.25 222.565 428.75 222.49C428.913 222.444 429.081 222.424 429.25 222.43Z" fill="white"/>
<path d="M298.63 245.6C298.448 245.592 298.267 245.565 298.09 245.52C297.73 245.44 297.2 245.36 296.53 245.17C294.652 244.614 292.851 243.825 291.17 242.82C288.704 241.306 286.363 239.597 284.17 237.71C281.66 235.63 278.98 233.26 275.91 231.14C273.044 229.114 269.826 227.639 266.42 226.79C261.741 225.638 256.85 225.659 252.18 226.85C250.85 227.19 250.13 227.45 250.12 227.4C250.274 227.299 250.443 227.221 250.62 227.17C250.96 227.04 251.46 226.84 252.13 226.65C254.003 226.102 255.932 225.766 257.88 225.65C260.783 225.436 263.701 225.675 266.53 226.36C270.001 227.202 273.282 228.691 276.2 230.75C279.31 232.9 281.99 235.29 284.48 237.38C286.641 239.273 288.94 241.002 291.36 242.55C293.006 243.565 294.76 244.394 296.59 245.02C297.28 245.177 297.961 245.371 298.63 245.6Z" fill="white"/>
<path d="M298.8 151.07C298.262 151.32 297.703 151.524 297.13 151.68C296.474 151.911 295.807 152.108 295.13 152.27C294.34 152.47 293.45 152.74 292.44 152.92C291.43 153.1 290.34 153.35 289.14 153.5C287.94 153.65 286.67 153.79 285.32 153.91C282.388 154.096 279.446 154.059 276.52 153.8C273.596 153.507 270.698 152.996 267.85 152.27C266.55 151.9 265.3 151.56 264.17 151.15C263.04 150.74 261.98 150.36 261.04 149.97C260.1 149.58 259.26 149.17 258.52 148.83C257.78 148.49 257.17 148.16 256.67 147.88C256.141 147.616 255.633 147.312 255.15 146.97C255.704 147.174 256.242 147.418 256.76 147.7C257.27 147.95 257.9 148.26 258.64 148.57C259.38 148.88 260.22 149.28 261.18 149.62C262.14 149.96 263.18 150.39 264.31 150.74C265.44 151.09 266.67 151.45 267.97 151.8C273.626 153.226 279.467 153.776 285.29 153.43C286.63 153.32 287.9 153.25 289.09 153.07C290.28 152.89 291.37 152.74 292.37 152.56C293.37 152.38 294.26 152.16 295.05 151.99C295.84 151.82 296.52 151.64 297.05 151.49C297.623 151.308 298.208 151.168 298.8 151.07Z" fill="white"/>
<path d="M423.57 150.82C423.423 150.766 423.282 150.695 423.15 150.61L421.99 149.94C421.388 149.574 420.767 149.24 420.13 148.94C419.308 148.499 418.464 148.102 417.6 147.75L416.1 147.12C415.57 146.91 415.01 146.75 414.43 146.55C413.29 146.13 412.02 145.84 410.69 145.49C404.876 144.167 398.845 144.116 393.01 145.34C391.74 145.609 390.485 145.943 389.25 146.34C388.67 146.53 388.1 146.68 387.57 146.88L386.06 147.48C385.191 147.82 384.34 148.204 383.51 148.63C382.866 148.923 382.241 149.257 381.64 149.63L380.46 150.28C380.19 150.42 380.04 150.49 380.03 150.47C380.144 150.36 380.272 150.266 380.41 150.19L381.53 149.45C382.122 149.056 382.74 148.702 383.38 148.39C384.201 147.929 385.049 147.518 385.92 147.16L387.43 146.52C387.96 146.31 388.54 146.15 389.12 145.95C390.363 145.531 391.628 145.18 392.91 144.9C398.809 143.606 404.925 143.661 410.8 145.06C412.14 145.42 413.42 145.73 414.57 146.17C415.15 146.38 415.72 146.55 416.24 146.78L417.75 147.44C418.611 147.821 419.452 148.245 420.27 148.71C420.9 149.037 421.508 149.404 422.09 149.81L423.21 150.57C423.46 150.7 423.63 150.8 423.57 150.82Z" fill="white"/>
<path d="M362.43 82.89C362.205 83.0599 361.964 83.2073 361.71 83.33L359.63 84.48C357.78 85.48 355.1 86.87 351.74 88.55C345.04 91.86 335.63 96.39 324.49 99.21C319.253 100.526 313.888 101.271 308.49 101.43C304.084 101.559 299.679 101.18 295.36 100.3C292.449 99.7155 289.602 98.8481 286.86 97.71C285.86 97.33 285.17 96.93 284.67 96.71C284.411 96.5985 284.16 96.4682 283.92 96.32C284.193 96.3908 284.458 96.4915 284.71 96.62C285.23 96.81 285.95 97.18 286.94 97.53C289.692 98.5898 292.533 99.3997 295.43 99.95C299.729 100.771 304.106 101.107 308.48 100.95C313.835 100.764 319.155 100.01 324.35 98.7C335.42 95.9 344.84 91.45 351.57 88.22L359.57 84.29L361.63 83.23C361.889 83.0993 362.156 82.9858 362.43 82.89Z" fill="white"/>
<path d="M161.69 257.13L195.12 258.59L193.57 294.02L160.14 292.56L157.57 351.43L113.57 349.51L116.14 290.64L2.63013 285.68L2.72013 258.68L123.72 84.88L169.14 86.88L161.69 257.13ZM46.6901 252.13L117.69 255.23L122.37 147.85L121.3 147.44L117.3 155.09L46.6901 252.13Z" fill="#368DCC"/>
<g opacity="0.4">
<path d="M161.69 257.13L195.12 258.59L193.57 294.02L160.14 292.56L157.57 351.43L113.57 349.51L116.14 290.64L2.63013 285.68L2.72013 258.68L123.72 84.88L169.14 86.88L161.69 257.13ZM46.6901 252.13L117.69 255.23L122.37 147.85L121.3 147.44L117.3 155.09L46.6901 252.13Z" fill="black"/>
</g>
<path d="M189.63 258.35L223.06 259.81L221.51 295.24L188.08 293.78L185.51 352.65L141.51 350.73L144.08 291.86L30.52 286.86L30.61 259.86L151.63 86.13L197.06 88.13L189.63 258.35ZM74.63 253.35L145.68 256.45L150.36 149.07L149.29 148.66L145.29 156.31L74.63 253.35Z" fill="#368DCC"/>
<path d="M31.22 265.05C30.8841 265.293 30.5218 265.498 30.14 265.66C29.43 266.02 28.39 266.52 27.14 267.12C24.57 268.33 20.98 269.94 16.97 271.64C12.96 273.34 9.31004 274.78 6.65004 275.79C5.32004 276.29 4.23004 276.68 3.48004 276.94C3.09621 277.099 2.69761 277.22 2.29004 277.3C2.64087 277.074 3.01671 276.889 3.41004 276.75L6.51004 275.44L16.73 271.13L26.95 266.76L30.06 265.44C30.4324 265.271 30.8211 265.14 31.22 265.05Z" fill="#368DCC"/>
<path d="M47.4999 235.13C47.0153 235.428 46.5107 235.692 45.9899 235.92C44.9899 236.4 43.5699 237.08 41.7899 237.92C38.2199 239.54 33.2699 241.71 27.7899 244.04C22.3099 246.37 17.2399 248.36 13.6299 249.78C11.8099 250.5 10.3299 251.06 9.28992 251.43C8.7673 251.653 8.22495 251.828 7.66992 251.95C8.1694 251.677 8.68733 251.44 9.21992 251.24L13.4899 249.44L27.5999 243.51L41.6799 237.51L45.9499 235.7C46.4477 235.462 46.9666 235.271 47.4999 235.13Z" fill="#368DCC"/>
<path d="M67.37 208.4C66.8669 208.711 66.3383 208.978 65.79 209.2C64.79 209.68 63.26 210.36 61.4 211.2C57.67 212.83 52.5 215 46.76 217.33C41.02 219.66 35.76 221.69 31.97 223.12C30.07 223.83 28.52 224.39 27.45 224.76C26.9036 224.984 26.338 225.158 25.76 225.28C26.284 225.008 26.8252 224.771 27.38 224.57L31.84 222.77L46.56 216.84L61.25 210.84L65.71 209.03C66.2463 208.777 66.8013 208.567 67.37 208.4Z" fill="#368DCC"/>
<path d="M146.96 239.24C146.619 239.476 146.254 239.674 145.87 239.83C145.16 240.18 144.12 240.66 142.82 241.24C140.24 242.41 136.64 243.96 132.63 245.59C128.62 247.22 124.95 248.59 122.29 249.59C120.95 250.07 119.87 250.45 119.12 250.7C118.735 250.847 118.336 250.958 117.93 251.03C118.278 250.814 118.651 250.639 119.04 250.51L122.16 249.25L132.44 245.13L142.68 240.93L145.79 239.66C146.163 239.477 146.556 239.337 146.96 239.24Z" fill="#368DCC"/>
<path d="M143.72 294.18C143.393 294.415 143.041 294.613 142.67 294.77C141.98 295.11 140.97 295.6 139.72 296.18C137.22 297.35 133.72 298.9 129.85 300.52C125.98 302.14 122.4 303.52 119.85 304.52C118.55 305 117.5 305.38 116.77 305.62C116.397 305.776 116.008 305.89 115.61 305.96C115.949 305.743 116.311 305.565 116.69 305.43L119.69 304.17L129.69 300.06L139.61 295.86L142.61 294.6C142.964 294.422 143.336 294.281 143.72 294.18Z" fill="#368DCC"/>
<path d="M143.26 313.44C142.95 313.67 142.614 313.865 142.26 314.02C141.57 314.37 140.56 314.85 139.26 315.44C136.76 316.6 133.26 318.15 129.38 319.78C125.5 321.41 121.94 322.78 119.38 323.78C118.09 324.26 117.04 324.64 116.3 324.89C115.933 325.05 115.546 325.161 115.15 325.22C115.492 325.012 115.854 324.838 116.23 324.7L119.23 323.44L129.23 319.33L139.16 315.13L142.16 313.87C142.508 313.682 142.877 313.537 143.26 313.44Z" fill="#368DCC"/>
<path d="M142.8 332.69C142.487 332.919 142.152 333.117 141.8 333.28C141.11 333.63 140.1 334.11 138.8 334.69C136.29 335.86 132.8 337.41 128.92 339.03C125.04 340.65 121.48 342.03 118.92 343.03C117.63 343.51 116.57 343.89 115.84 344.13C115.47 344.283 115.084 344.397 114.69 344.47C115.029 344.253 115.391 344.075 115.77 343.94L118.77 342.69L128.77 338.57L138.7 334.37L141.7 333.11C142.05 332.93 142.419 332.789 142.8 332.69Z" fill="#368DCC"/>
<path d="M147.48 218.9C147.136 219.131 146.771 219.329 146.39 219.49C145.68 219.84 144.64 220.32 143.39 220.9C140.81 222.07 137.21 223.62 133.2 225.25C129.19 226.88 125.52 228.25 122.86 229.25C121.52 229.73 120.44 230.11 119.69 230.35C119.306 230.503 118.907 230.617 118.5 230.69C118.846 230.467 119.219 230.289 119.61 230.16L122.73 228.9L133.01 224.79L143.25 220.59L146.36 219.33C146.717 219.147 147.092 219.003 147.48 218.9Z" fill="#368DCC"/>
<path d="M148 198.56C147.656 198.791 147.291 198.989 146.91 199.15C146.2 199.49 145.16 199.98 143.86 200.56C141.28 201.73 137.68 203.28 133.67 204.9C129.66 206.52 126 207.9 123.33 208.9C121.99 209.38 120.91 209.75 120.16 210C119.776 210.153 119.377 210.267 118.97 210.34C119.319 210.116 119.696 209.938 120.09 209.81L123.2 208.55L133.48 204.44L143.72 200.24L146.83 198.98C147.203 198.797 147.596 198.657 148 198.56Z" fill="#368DCC"/>
<path d="M148.52 178.22C148.206 178.44 147.871 178.627 147.52 178.78C146.85 179.11 145.86 179.57 144.63 180.13C142.16 181.25 138.74 182.74 134.92 184.28C131.1 185.82 127.6 187.15 125.06 188.06C123.79 188.51 122.76 188.87 122.06 189.06C121.693 189.209 121.311 189.316 120.92 189.38C121.256 189.169 121.615 188.998 121.99 188.87L124.99 187.67L134.78 183.76L144.54 179.76L147.54 178.56C147.853 178.41 148.182 178.296 148.52 178.22Z" fill="#368DCC"/>
<path d="M150.82 159.21C149.224 160.074 147.55 160.787 145.82 161.34C144.146 162.053 142.408 162.605 140.63 162.99C142.227 162.123 143.901 161.406 145.63 160.85C147.303 160.137 149.041 159.588 150.82 159.21Z" fill="#368DCC"/>
<path d="M87.2001 180.72C86.6958 181.023 86.1713 181.29 85.6301 181.52C84.6301 182 83.1001 182.67 81.2301 183.52C77.5101 185.15 72.3401 187.32 66.5901 189.65C60.8401 191.98 55.5901 194.02 51.8101 195.44C49.9101 196.15 48.3601 196.71 47.2901 197.08C46.7394 197.295 46.1748 197.472 45.6001 197.61C46.1185 197.324 46.6605 197.083 47.2201 196.89L51.6801 195.1L66.4001 189.13L81.0901 183.13L85.5401 181.32C86.0795 181.083 86.6341 180.883 87.2001 180.72Z" fill="#368DCC"/>
<path d="M107.04 153.03C106.537 153.341 106.008 153.608 105.46 153.83C104.46 154.31 102.93 154.99 101.07 155.83C97.3499 157.45 92.1699 159.63 86.4299 161.95C80.6899 164.27 75.4299 166.32 71.6499 167.74C69.7399 168.46 68.1999 169.02 67.1199 169.39C66.5761 169.612 66.014 169.786 65.4399 169.91C65.9585 169.634 66.4966 169.397 67.0499 169.2L71.5099 167.4L86.2299 161.47L100.93 155.47L105.38 153.65C105.917 153.403 106.472 153.195 107.04 153.03Z" fill="#368DCC"/>
<path d="M125.37 125.35C124.863 125.654 124.335 125.921 123.79 126.15C122.79 126.63 121.26 127.3 119.4 128.15C115.68 129.78 110.5 131.95 104.76 134.28C99.02 136.61 93.76 138.65 89.98 140.07C88.08 140.78 86.53 141.34 85.46 141.71C84.9093 141.925 84.3447 142.102 83.77 142.24C84.2884 141.954 84.8304 141.713 85.39 141.52L89.85 139.73L104.57 133.8L119.26 127.8L123.71 125.99C124.243 125.728 124.799 125.514 125.37 125.35Z" fill="#368DCC"/>
<path d="M144.45 98.73C143.941 99.0308 143.414 99.298 142.87 99.53C141.87 100.01 140.34 100.68 138.48 101.53C134.75 103.16 129.58 105.33 123.84 107.66C118.1 109.99 112.84 112.03 109.05 113.45C107.15 114.16 105.61 114.72 104.53 115.09C103.981 115.308 103.416 115.485 102.84 115.62C103.36 115.337 103.901 115.096 104.46 114.9L108.92 113.11L123.63 107.13L138.32 101.13L142.78 99.32C143.321 99.0824 143.88 98.8852 144.45 98.73Z" fill="#368DCC"/>
<path d="M195.07 139.4C194.903 139.642 194.708 139.863 194.49 140.06C193.924 140.681 193.32 141.266 192.68 141.81C190.348 143.846 187.73 145.531 184.91 146.81C180.704 148.7 176.16 149.72 171.55 149.81C168.825 149.86 166.106 149.554 163.46 148.9C160.636 148.177 157.897 147.154 155.29 145.85C149.91 143.23 145.13 140.14 140.46 137.99C136.367 135.983 131.912 134.82 127.36 134.57C124.293 134.413 121.233 134.985 118.43 136.24C117.674 136.594 116.949 137.009 116.26 137.48C116.025 137.654 115.778 137.811 115.52 137.95C115.733 137.751 115.961 137.567 116.2 137.4C116.872 136.89 117.588 136.441 118.34 136.06C121.145 134.72 124.234 134.082 127.34 134.2C131.956 134.419 136.479 135.579 140.63 137.61C145.35 139.76 150.15 142.84 155.48 145.44C158.062 146.718 160.77 147.724 163.56 148.44C166.159 149.088 168.831 149.397 171.51 149.36C179.187 149.254 186.597 146.527 192.51 141.63C193.36 140.95 193.96 140.35 194.38 139.96C194.595 139.755 194.826 139.568 195.07 139.4Z" fill="white"/>
<path d="M181.15 89.96C180.747 90.2399 180.322 90.4873 179.88 90.7C179.05 91.15 177.81 91.7 176.25 92.4C174.422 93.169 172.552 93.8367 170.65 94.4C165.99 95.7911 161.171 96.5775 156.31 96.74C154.309 96.8129 152.306 96.7729 150.31 96.62C148.62 96.49 147.31 96.33 146.31 96.16C145.823 96.1054 145.341 96.0083 144.87 95.87C145.362 95.8528 145.854 95.883 146.34 95.96C147.27 96.07 148.63 96.17 150.34 96.25C152.05 96.33 154.03 96.35 156.25 96.25C158.655 96.1308 161.052 95.8838 163.43 95.51C165.789 95.1047 168.126 94.5773 170.43 93.93C172.56 93.31 174.43 92.67 176.02 92.05C177.61 91.43 178.84 90.9 179.7 90.51C180.165 90.2809 180.65 90.0968 181.15 89.96Z" fill="white"/>
<path d="M110.15 201.02C109.82 200.715 109.519 200.38 109.25 200.02L106.89 197.2C104.256 194.135 101.459 191.214 98.5101 188.45C96.9091 186.932 95.1489 185.59 93.2601 184.45C91.7149 183.526 90.0243 182.87 88.2601 182.51C86.623 182.217 84.9471 182.217 83.3101 182.51C83.3101 182.51 83.4201 182.45 83.6401 182.38C83.9655 182.272 84.3003 182.195 84.6401 182.15C85.8681 181.944 87.122 181.944 88.3501 182.15C90.1722 182.467 91.9231 183.107 93.5201 184.04C95.4614 185.184 97.2635 186.55 98.8901 188.11C101.86 190.88 104.633 193.854 107.19 197.01C108.19 198.22 108.93 199.23 109.43 199.93C109.708 200.267 109.95 200.632 110.15 201.02Z" fill="white"/>
<path d="M189.92 231.23C189.92 231.23 189.79 231.35 189.53 231.53C189.27 231.71 188.88 232 188.34 232.3C186.839 233.18 185.262 233.927 183.63 234.53C178.222 236.572 172.346 237.041 166.683 235.882C161.02 234.723 155.801 231.983 151.63 227.98C150.366 226.792 149.214 225.49 148.19 224.09C147.82 223.6 147.58 223.19 147.4 222.92C147.22 222.65 147.14 222.5 147.16 222.49C147.583 222.961 147.98 223.455 148.35 223.97C149.431 225.304 150.611 226.554 151.88 227.71C156.054 231.568 161.204 234.21 166.773 235.351C172.341 236.491 178.115 236.086 183.47 234.18C185.092 233.618 186.666 232.929 188.18 232.12C188.743 231.792 189.324 231.495 189.92 231.23Z" fill="white"/>
<path d="M219.05 294.55C219.05 294.55 218.95 294.4 218.77 294.08C218.59 293.76 218.31 293.3 217.97 292.7C216.967 290.922 215.823 289.226 214.55 287.63L213.19 286.03L212.46 285.16L211.61 284.33L209.81 282.55L207.71 280.81C204.356 278.145 200.656 275.948 196.71 274.28C191.947 272.266 186.873 271.085 181.71 270.79C175.767 270.471 169.824 271.426 164.28 273.59C158.43 275.89 152.78 279.36 146.8 282.72C143.771 284.47 140.635 286.026 137.41 287.38C134.068 288.787 130.543 289.713 126.94 290.13C123.335 290.493 119.695 290.273 116.16 289.48C112.738 288.727 109.409 287.604 106.23 286.13C100.276 283.249 94.6103 279.807 89.31 275.85C84.18 272.2 79.31 268.67 74.5 265.85C70.0778 263.142 65.2839 261.094 60.27 259.77C56.1154 258.747 51.8132 258.463 47.56 258.93C44.3489 259.263 41.2232 260.168 38.33 261.6C36.5201 262.527 34.8391 263.687 33.33 265.05L32.17 266.13C31.92 266.38 31.78 266.5 31.78 266.5C31.78 266.5 31.89 266.36 32.14 266.09L33.23 264.92C34.7299 263.518 36.4116 262.324 38.23 261.37C41.1372 259.891 44.2879 258.949 47.53 258.59C51.8186 258.087 56.1624 258.347 60.36 259.36C65.414 260.677 70.2508 262.718 74.72 265.42C79.59 268.24 84.45 271.76 89.59 275.42C94.8705 279.347 100.513 282.762 106.44 285.62C109.581 287.093 112.874 288.216 116.26 288.97C119.746 289.749 123.335 289.966 126.89 289.61C130.436 289.199 133.907 288.29 137.2 286.91C140.405 285.562 143.524 284.019 146.54 282.29C152.54 278.94 158.18 275.46 164.08 273.15C165.536 272.578 167.025 272.097 168.54 271.71C169.29 271.52 170.03 271.29 170.77 271.14L173.01 270.77C175.889 270.341 178.804 270.207 181.71 270.37C186.935 270.681 192.067 271.893 196.88 273.95C200.828 275.659 204.528 277.892 207.88 280.59C208.6 281.2 209.3 281.8 209.98 282.36L211.77 284.17L212.61 285.01C212.86 285.31 213.11 285.6 213.34 285.89C213.82 286.46 214.27 287 214.69 287.52C215.953 289.133 217.074 290.853 218.04 292.66C218.367 293.273 218.617 293.743 218.79 294.07C218.98 294.38 219.05 294.55 219.05 294.55Z" fill="white"/>
<path d="M188.83 336.32C188.667 336.386 188.495 336.429 188.32 336.45L186.84 336.73C186.063 336.887 185.279 337.004 184.49 337.08C183.57 337.17 182.49 337.32 181.35 337.35L179.51 337.43C178.88 337.43 178.21 337.43 177.51 337.43C176.14 337.43 174.67 337.3 173.13 337.18C169.793 336.815 166.491 336.173 163.26 335.26C160.045 334.292 156.914 333.061 153.9 331.58C152.54 330.85 151.23 330.18 150.07 329.43C149.49 329.07 148.91 328.74 148.38 328.43L146.88 327.38C145.88 326.73 145.11 326.04 144.38 325.46C143.749 324.976 143.145 324.459 142.57 323.91C142.14 323.49 141.77 323.15 141.48 322.91C141.344 322.795 141.223 322.664 141.12 322.52C141.275 322.606 141.419 322.71 141.55 322.83L142.71 323.83C143.2 324.25 143.81 324.76 144.56 325.3C145.31 325.84 146.11 326.52 147.09 327.15L148.6 328.15C149.13 328.5 149.71 328.82 150.29 329.15C151.45 329.88 152.76 330.53 154.12 331.24C160.101 334.188 166.552 336.066 173.18 336.79C174.71 336.92 176.18 337.08 177.53 337.09C178.21 337.09 178.87 337.15 179.53 337.09H181.35C182.51 337.09 183.56 336.96 184.48 336.9C185.4 336.84 186.19 336.74 186.83 336.64L188.32 336.46C188.482 336.388 188.654 336.341 188.83 336.32Z" fill="white"/>
<path d="M595.95 257.54L629.25 254.29L632.7 289.58L599.4 292.84L605.13 351.48L561.33 355.77L555.63 297.13L442.47 308.19L438.76 281.46L534.11 92.37L579.36 87.94L595.95 257.54ZM481.37 268.75L552.14 261.83L541.68 154.83L540.56 154.58L537.7 162.72L481.37 268.75Z" fill="#368DCC"/>
<g opacity="0.4">
<path d="M595.95 257.54L629.25 254.29L632.7 289.58L599.4 292.84L605.13 351.48L561.33 355.77L555.63 297.13L442.47 308.19L438.76 281.46L534.11 92.37L579.36 87.94L595.95 257.54ZM481.37 268.75L552.14 261.83L541.68 154.83L540.56 154.58L537.7 162.72L481.37 268.75Z" fill="black"/>
</g>
<path d="M623.8 254.82L657.1 251.56L660.56 286.86L627.25 290.13L632.99 348.78L589.18 353.06L583.45 294.42L470.32 305.46L466.63 278.74L561.98 89.65L607.23 85.22L623.8 254.82ZM509.23 266.02L580 259.13L569.54 152.13L568.41 151.87L565.56 160.01L509.23 266.02Z" fill="#368DCC"/>
<path d="M467.89 283.74C467.584 284.024 467.249 284.275 466.89 284.49C466.24 284.95 465.28 285.59 464.09 286.37C461.7 287.93 458.38 290.03 454.65 292.27C450.92 294.51 447.51 296.46 445.01 297.83C443.77 298.51 442.75 299.06 442.01 299.42C441.652 299.632 441.274 299.806 440.88 299.94C441.184 299.667 441.52 299.432 441.88 299.24L444.77 297.51L454.33 291.82L463.83 286.06L466.72 284.32C467.086 284.082 467.479 283.887 467.89 283.74Z" fill="#368DCC"/>
<path d="M479.79 251.8C479.357 252.169 478.895 252.503 478.41 252.8C477.51 253.41 476.18 254.28 474.53 255.34C471.23 257.45 466.63 260.34 461.53 263.34C456.43 266.34 451.73 269.15 448.32 271.07C446.62 272.07 445.23 272.8 444.26 273.31C443.769 273.596 443.257 273.847 442.73 274.06C443.181 273.712 443.659 273.401 444.16 273.13L448.16 270.75L461.29 262.9L474.38 254.99L478.38 252.6C478.829 252.298 479.3 252.031 479.79 251.8Z" fill="#368DCC"/>
<path d="M495.71 222.57C495.253 222.94 494.769 223.275 494.26 223.57C493.26 224.19 491.92 225.07 490.19 226.14C486.73 228.27 481.91 231.14 476.55 234.26C471.19 237.38 466.3 240.13 462.73 242.13C460.95 243.13 459.5 243.88 458.49 244.4C457.976 244.69 457.442 244.941 456.89 245.15C457.366 244.803 457.868 244.492 458.39 244.22L462.55 241.81L476.29 233.87L490 225.87L494.15 223.45C494.647 223.117 495.169 222.823 495.71 222.57Z" fill="#368DCC"/>
<path d="M578.85 241.91C578.544 242.189 578.209 242.434 577.85 242.64C577.2 243.09 576.23 243.71 575.04 244.47C572.64 245.99 569.3 248.03 565.56 250.21C561.82 252.39 558.38 254.27 555.87 255.59C554.62 256.26 553.6 256.78 552.87 257.13C552.512 257.337 552.133 257.504 551.74 257.63C552.048 257.369 552.384 257.141 552.74 256.95L555.65 255.27L565.24 249.75L574.79 244.16L577.7 242.47C578.061 242.24 578.446 242.052 578.85 241.91Z" fill="#368DCC"/>
<path d="M583.37 296.75C583.068 297.033 582.732 297.278 582.37 297.48C581.74 297.92 580.81 298.54 579.65 299.3C577.34 300.8 574.11 302.83 570.49 304.99C566.87 307.15 563.54 308.99 561.11 310.33C559.9 310.99 558.91 311.51 558.22 311.86C557.875 312.067 557.505 312.232 557.12 312.35C557.429 312.092 557.764 311.868 558.12 311.68L560.93 310.01L570.22 304.54L579.46 298.98L582.27 297.31C582.613 297.08 582.982 296.892 583.37 296.75Z" fill="#368DCC"/>
<path d="M585.63 315.88C585.328 316.163 584.992 316.408 584.63 316.61C584 317.05 583.07 317.67 581.91 318.43C579.6 319.93 576.37 321.96 572.75 324.11C569.13 326.26 565.8 328.11 563.37 329.46C562.16 330.12 561.17 330.64 560.48 330.99C560.135 331.197 559.765 331.362 559.38 331.48C559.689 331.222 560.024 330.998 560.38 330.81L563.19 329.14L572.48 323.67L581.72 318.11L584.53 316.44C584.873 316.21 585.242 316.022 585.63 315.88Z" fill="#368DCC"/>
<path d="M587.87 335.01C587.568 335.293 587.232 335.538 586.87 335.74C586.24 336.18 585.31 336.8 584.15 337.55C581.84 339.06 578.61 341.09 574.99 343.24C571.37 345.39 568.04 347.24 565.61 348.59C564.4 349.25 563.41 349.77 562.72 350.12C562.372 350.321 562.003 350.486 561.62 350.61C561.929 350.352 562.264 350.128 562.62 349.94L565.43 348.27L574.72 342.8L583.96 337.24L586.77 335.57C587.113 335.34 587.482 335.152 587.87 335.01Z" fill="#368DCC"/>
<path d="M576.5 221.69C576.193 221.97 575.858 222.218 575.5 222.43C574.84 222.87 573.88 223.5 572.68 224.26C570.28 225.77 566.94 227.82 563.2 229.99C559.46 232.16 556.02 234.05 553.52 235.38C552.26 236.04 551.24 236.57 550.52 236.92C550.162 237.127 549.784 237.294 549.39 237.42C549.7 237.161 550.035 236.933 550.39 236.74L553.29 235.06L562.89 229.54L572.44 223.94L575.34 222.26C575.706 222.03 576.094 221.839 576.5 221.69Z" fill="#368DCC"/>
<path d="M574.15 201.48C573.846 201.763 573.51 202.012 573.15 202.22C572.49 202.66 571.53 203.28 570.33 204.04C567.94 205.56 564.6 207.61 560.85 209.78C557.1 211.95 553.68 213.84 551.17 215.17C549.92 215.83 548.9 216.36 548.17 216.71C547.815 216.92 547.436 217.085 547.04 217.2C547.348 216.94 547.683 216.716 548.04 216.53L550.94 214.84L560.54 209.33L570.09 203.73L572.99 202.04C573.357 201.814 573.745 201.627 574.15 201.48Z" fill="#368DCC"/>
<path d="M571.81 181.27C571.525 181.539 571.209 181.773 570.87 181.97C570.24 182.4 569.32 182.97 568.18 183.72C565.91 185.17 562.73 187.12 559.18 189.19C555.63 191.26 552.34 193.06 549.95 194.32L547.1 195.78C546.758 195.976 546.396 196.133 546.02 196.25C546.331 196 546.666 195.783 547.02 195.6L549.78 193.99L558.93 188.74L568.02 183.4L570.79 181.8C571.109 181.586 571.451 181.408 571.81 181.27Z" fill="#368DCC"/>
<path d="M571.41 162.13C569.951 163.218 568.39 164.162 566.75 164.95C565.189 165.887 563.545 166.681 561.84 167.32C563.299 166.232 564.86 165.288 566.5 164.5C568.06 163.561 569.704 162.767 571.41 162.13Z" fill="#368DCC"/>
<path d="M511.45 192.37C510.998 192.742 510.517 193.077 510.01 193.37C509.01 193.99 507.66 194.87 505.93 195.94C502.48 198.07 497.66 200.94 492.3 204.06C486.94 207.18 482.05 209.93 478.48 211.87C476.7 212.87 475.24 213.62 474.23 214.14C473.718 214.426 473.187 214.677 472.64 214.89C473.114 214.54 473.616 214.229 474.14 213.96L478.3 211.55L492.04 203.61L505.74 195.61L509.9 193.19C510.396 192.88 510.914 192.606 511.45 192.37Z" fill="#368DCC"/>
<path d="M527.2 162.13C526.743 162.5 526.258 162.835 525.75 163.13C524.75 163.75 523.41 164.63 521.68 165.7C518.22 167.83 513.4 170.7 508.05 173.82C502.7 176.94 497.79 179.69 494.22 181.63C492.44 182.63 490.99 183.38 489.98 183.9C489.466 184.19 488.931 184.441 488.38 184.65C488.856 184.303 489.357 183.992 489.88 183.72L494.04 181.31L507.78 173.37L521.49 165.37L525.65 162.95C526.145 162.637 526.663 162.363 527.2 162.13Z" fill="#368DCC"/>
<path d="M541.46 132.18C541.003 132.55 540.518 132.885 540.01 133.18C539.01 133.8 537.67 134.68 535.94 135.75C532.48 137.88 527.66 140.75 522.3 143.87C516.94 146.99 512.05 149.74 508.48 151.68C506.7 152.68 505.25 153.43 504.24 153.95C503.725 154.238 503.19 154.488 502.64 154.7C503.116 154.353 503.617 154.042 504.14 153.77L508.3 151.36L522.04 143.42L535.75 135.42L539.9 133C540.397 132.686 540.919 132.411 541.46 132.18Z" fill="#368DCC"/>
<path d="M556.63 103.13C556.173 103.5 555.688 103.835 555.18 104.13C554.23 104.75 552.84 105.63 551.11 106.7C547.65 108.83 542.83 111.7 537.47 114.83C532.11 117.96 527.22 120.69 523.65 122.64C521.87 123.64 520.42 124.38 519.41 124.9C518.896 125.193 518.362 125.447 517.81 125.66C518.281 125.302 518.783 124.988 519.31 124.72L523.47 122.32L537.21 114.32L550.92 106.32L555.07 103.9C555.57 103.605 556.092 103.348 556.63 103.13Z" fill="#368DCC"/>
<path d="M612.44 136.29C612.302 136.547 612.142 136.792 611.96 137.02C611.487 137.72 610.97 138.388 610.41 139.02C608.387 141.373 606.028 143.415 603.41 145.08C599.519 147.563 595.165 149.23 590.61 149.98C587.922 150.41 585.189 150.487 582.48 150.21C579.582 149.891 576.726 149.264 573.96 148.34C568.26 146.51 563.1 144.12 558.17 142.64C553.836 141.246 549.266 140.732 544.73 141.13C541.671 141.409 538.721 142.406 536.12 144.04C535.416 144.499 534.748 145.011 534.12 145.57C533.919 145.781 533.698 145.972 533.46 146.14C533.638 145.91 533.835 145.696 534.05 145.5C534.643 144.9 535.289 144.354 535.98 143.87C538.578 142.146 541.558 141.082 544.66 140.77C549.259 140.287 553.907 140.75 558.32 142.13C563.32 143.6 568.48 145.97 574.12 147.8C576.855 148.708 579.677 149.331 582.54 149.66C585.205 149.932 587.893 149.862 590.54 149.45C595.037 148.735 599.345 147.126 603.21 144.72C605.804 143.092 608.159 141.114 610.21 138.84C610.781 138.229 611.318 137.588 611.82 136.92C612.012 136.696 612.219 136.485 612.44 136.29Z" fill="white"/>
<path d="M591.7 89.3C591.345 89.6376 590.96 89.9421 590.55 90.21C589.79 90.78 588.65 91.53 587.2 92.4C585.499 93.4192 583.743 94.3439 581.94 95.17C579.726 96.1707 577.455 97.0421 575.14 97.78C572.816 98.495 570.452 99.0727 568.06 99.51C566.107 99.8521 564.138 100.092 562.16 100.23C560.47 100.34 559.1 100.36 558.16 100.33C557.668 100.351 557.176 100.321 556.69 100.24C557.172 100.158 557.661 100.121 558.15 100.13C559.09 100.13 560.45 100.01 562.15 99.86C563.85 99.71 565.81 99.44 567.99 99.04C570.352 98.5757 572.688 97.9916 574.99 97.29C577.287 96.5578 579.544 95.7032 581.75 94.73C583.75 93.82 585.56 92.92 587.02 92.08C588.48 91.24 589.65 90.55 590.44 90.08C590.837 89.7838 591.258 89.5229 591.7 89.3Z" fill="white"/>
<path d="M537.03 209.24C536.671 208.977 536.337 208.682 536.03 208.36L533.29 205.91C530.254 203.244 527.076 200.743 523.77 198.42C521.971 197.127 520.036 196.034 518 195.16C516.341 194.464 514.576 194.054 512.78 193.95C511.117 193.881 509.455 194.104 507.87 194.61C507.87 194.61 507.97 194.53 508.18 194.43C508.484 194.286 508.798 194.166 509.12 194.07C510.311 193.702 511.555 193.537 512.8 193.58C514.647 193.638 516.468 194.024 518.18 194.72C520.26 195.579 522.233 196.676 524.06 197.99C527.393 200.318 530.56 202.874 533.54 205.64C534.68 206.7 535.54 207.64 536.17 208.22C536.494 208.526 536.783 208.868 537.03 209.24Z" fill="white"/>
<path d="M620.25 227.94C620.25 227.94 620.15 228.07 619.91 228.29C619.67 228.51 619.33 228.84 618.84 229.21C617.488 230.298 616.039 231.259 614.51 232.08C609.444 234.848 603.699 236.128 597.937 235.775C592.175 235.421 586.63 233.447 581.94 230.08C580.525 229.081 579.206 227.953 578 226.71C577.56 226.28 577.26 225.91 577 225.71C576.881 225.592 576.78 225.457 576.7 225.31C576.7 225.31 577.2 225.77 578.09 226.61C579.338 227.782 580.676 228.855 582.09 229.82C586.76 233.059 592.228 234.958 597.901 235.311C603.574 235.663 609.235 234.456 614.27 231.82C615.798 231.034 617.262 230.132 618.65 229.12C619.161 228.697 619.695 228.303 620.25 227.94Z" fill="white"/>
<path d="M658.01 286.52C657.876 286.398 657.749 286.268 657.63 286.13C657.39 285.84 657.07 285.42 656.63 284.88C655.383 283.262 654.013 281.744 652.53 280.34L650.95 278.94L650.11 278.19L649.11 277.48L647.11 275.98L644.78 274.55C641.094 272.384 637.131 270.729 633 269.63C627.993 268.293 622.795 267.827 617.63 268.25C611.702 268.774 605.954 270.557 600.77 273.48C595.3 276.58 590.2 280.81 584.77 284.98C582.015 287.133 579.129 289.113 576.13 290.91C573.012 292.773 569.645 294.184 566.13 295.1C562.609 295.959 558.973 296.253 555.36 295.97C551.861 295.682 548.403 295.011 545.05 293.97C538.751 291.963 532.659 289.354 526.86 286.18C521.26 283.28 515.97 280.48 510.79 278.37C506.009 276.319 500.957 274.972 495.79 274.37C491.531 273.956 487.232 274.295 483.09 275.37C479.959 276.151 476.992 277.485 474.33 279.31C472.662 280.488 471.15 281.872 469.83 283.43L468.88 284.71C468.66 285 468.54 285.14 468.54 285.14C468.54 285.14 468.63 284.98 468.83 284.68L469.75 283.37C471.038 281.767 472.538 280.347 474.21 279.15C476.874 277.27 479.86 275.894 483.02 275.09C487.194 273.985 491.532 273.63 495.83 274.04C501.02 274.637 506.097 275.985 510.9 278.04C516.12 280.14 521.43 282.94 527.03 285.82C532.808 288.967 538.872 291.559 545.14 293.56C548.46 294.57 551.88 295.217 555.34 295.49C558.9 295.772 562.482 295.482 565.95 294.63C569.405 293.723 572.714 292.333 575.78 290.5C578.764 288.719 581.633 286.751 584.37 284.61C589.81 280.46 594.94 276.22 600.46 273.1C601.823 272.331 603.233 271.646 604.68 271.05C605.39 270.75 606.08 270.43 606.8 270.17L608.96 269.49C611.751 268.66 614.619 268.114 617.52 267.86C622.737 267.44 627.986 267.92 633.04 269.28C637.196 270.399 641.18 272.081 644.88 274.28L647.21 275.73L649.21 277.27L650.21 277.98L651.05 278.75L652.62 280.17C654.076 281.599 655.414 283.144 656.62 284.79C657.02 285.35 657.34 285.79 657.56 286.08L658.01 286.52Z" fill="white"/>
<path d="M633.95 332.13C633.797 332.212 633.636 332.279 633.47 332.33L632.05 332.82C631.302 333.081 630.541 333.305 629.77 333.49C628.86 333.71 627.85 334.01 626.69 334.2L624.89 334.54C624.26 334.65 623.6 334.71 622.89 334.8C621.53 335 620.06 335.07 618.51 335.17C615.168 335.271 611.824 335.101 608.51 334.66C605.19 334.157 601.918 333.374 598.73 332.32C597.27 331.8 595.88 331.32 594.63 330.74C594 330.46 593.38 330.22 592.81 329.94L591.18 329.11C590.12 328.6 589.23 328.03 588.43 327.56C587.741 327.169 587.074 326.742 586.43 326.28L585.2 325.41C585.05 325.318 584.912 325.207 584.79 325.08C584.957 325.138 585.115 325.219 585.26 325.32L586.54 326.11C587.08 326.46 587.76 326.88 588.54 327.31C589.32 327.74 590.24 328.31 591.3 328.78L592.94 329.57C593.51 329.85 594.13 330.08 594.76 330.35C596.01 330.9 597.39 331.35 598.84 331.87C602.037 332.886 605.311 333.642 608.63 334.13C611.927 334.576 615.254 334.76 618.58 334.68C620.11 334.59 621.58 334.55 622.92 334.36C623.59 334.28 624.25 334.23 624.92 334.13L626.72 333.83C627.87 333.67 628.88 333.39 629.79 333.2C630.7 333.01 631.46 332.8 632.08 332.61L633.53 332.22C633.666 332.175 633.807 332.145 633.95 332.13Z" fill="white"/>
<path d="M425.71 185.67L418.71 184.57L375.34 170.57L349.98 163.24C346.417 161.955 342.626 161.425 338.847 161.683C335.069 161.941 331.385 162.982 328.03 164.74C316.03 170.84 282.97 201.62 282.97 201.62L306.78 226.17L295.57 275.85C308.12 311.53 332.69 315.62 332.69 315.62C344.699 316.133 356.685 314.151 367.89 309.8C390.7 301.13 414.63 280.72 417.63 271.95C419.43 266.69 420.92 255.63 422.1 243.14L458.22 228.42L468.01 178.42L425.71 185.67Z" fill="#455A64"/>
<path d="M372.95 274.13C372.95 274.13 372.84 274.25 372.6 274.44C372.36 274.63 372.01 274.92 371.52 275.24C370.155 276.159 368.701 276.94 367.18 277.57C362.119 279.726 356.512 280.255 351.137 279.083C345.762 277.911 340.885 275.097 337.18 271.03C336.052 269.819 335.047 268.499 334.18 267.09C333.87 266.6 333.68 266.19 333.53 265.92C333.452 265.787 333.388 265.647 333.34 265.5C333.703 265.972 334.037 266.467 334.34 266.98C335.254 268.331 336.285 269.599 337.42 270.77C341.122 274.698 345.923 277.417 351.196 278.569C356.469 279.722 361.967 279.255 366.97 277.23C368.487 276.636 369.95 275.909 371.34 275.06C372.4 274.43 372.92 274.07 372.95 274.13Z" fill="#263238"/>
<path d="M359.23 172.64C359.27 172.715 359.297 172.796 359.31 172.88C359.36 173.07 359.42 173.3 359.49 173.59C359.64 174.21 359.85 175.14 360.1 176.33C360.84 179.698 361.318 183.118 361.53 186.56C361.658 188.948 361.52 191.343 361.12 193.7C360.636 196.419 359.671 199.03 358.27 201.41C356.647 203.983 354.648 206.299 352.34 208.28C349.99 210.38 347.39 212.28 344.74 214.34C339.1 218.57 333.62 222.4 328.74 225.88C323.86 229.36 319.51 232.47 316.05 235.09L315.94 235.18L315.83 235.09C313.389 233.153 311.071 231.066 308.89 228.84C308.3 228.241 307.755 227.599 307.26 226.92C307.09 226.69 306.99 226.5 306.91 226.38C306.869 226.316 306.832 226.249 306.8 226.18C306.8 226.18 306.99 226.42 307.34 226.86C307.866 227.507 308.427 228.124 309.02 228.71C311.244 230.868 313.581 232.908 316.02 234.82H315.8C319.24 232.16 323.54 228.99 328.44 225.5C333.34 222.01 338.8 218.16 344.44 213.93C347.08 211.93 349.68 209.98 352.01 207.93C354.286 205.986 356.261 203.714 357.87 201.19C359.257 198.87 360.215 196.319 360.7 193.66C361.115 191.331 361.272 188.963 361.17 186.6C360.991 183.175 360.57 179.766 359.91 176.4C359.69 175.23 359.52 174.31 359.39 173.64C359.337 173.353 359.297 173.113 359.27 172.92C359.24 172.83 359.226 172.735 359.23 172.64Z" fill="#263238"/>
<path d="M547.56 195.13C557.71 186.42 561.15 170.75 555.56 158.6L541.26 157.13C544.859 155.147 547.775 152.123 549.625 148.454C551.476 144.785 552.174 140.643 551.63 136.57C547.673 140.664 542.536 143.42 536.937 144.451C531.337 145.482 525.555 144.737 520.4 142.32C513.72 139.02 508.3 132.87 500.96 131.58C494.3 130.41 487.75 133.58 481.37 135.8C474.99 138.02 467.27 139.31 461.99 135.08C457.81 131.73 456.51 125.86 456.78 120.5C457.05 115.14 458.6 109.92 458.93 104.57C459.169 99.306 458.256 94.0534 456.254 89.1791C454.252 84.3048 451.21 79.9264 447.34 76.35C446.046 72.0908 443.736 68.21 440.608 65.042C437.481 61.874 433.63 59.5138 429.388 58.1647C425.146 56.8156 420.64 56.5181 416.257 57.2977C411.874 58.0773 407.747 59.9107 404.23 62.64C401.1 65.06 398.46 68.19 394.91 69.94C390.91 71.94 386.24 71.94 381.91 72.94C377.58 73.94 373.01 76.88 372.55 81.33L370.8 90.44C370.51 91.09 370.2 91.73 369.8 92.36C366.12 98.82 358.58 103.07 356.93 110.36C356.01 114.43 357.15 118.84 355.78 122.78C353.97 127.97 348.37 130.89 345.78 135.72C342.2 142.36 344.63 153.99 350.36 158.89C356.09 163.79 367.9 168.99 375.28 170.56C377.28 162.89 379.05 154.69 380.76 146.3C383.76 149.19 386.93 151.94 390.07 154.67C398.28 161.81 406.67 169.06 412.37 178.33C423.2 195.96 423.37 219.33 437.02 234.87C439.69 237.92 442.94 240.63 446.82 241.81C450.7 242.99 455.3 242.36 458.17 239.5C461.56 236.12 462 230.42 465.75 227.45C470.75 223.5 478.01 226.65 483.36 230.08C487.24 232.56 491.12 235.18 495.51 236.54C499.9 237.9 505.02 237.81 508.76 235.13C512.5 232.45 514.14 226.73 511.44 223C510.36 221.51 508.75 220.47 507.68 219C506.61 217.53 506.3 215.13 507.77 214C509.24 212.87 511.65 214 513.4 215C517.693 217.523 522.495 219.058 527.455 219.494C532.416 219.93 537.412 219.255 542.079 217.519C546.746 215.783 550.968 213.029 554.438 209.457C557.908 205.885 560.539 201.586 562.14 196.87C557.212 197.608 552.176 197.007 547.56 195.13Z" fill="#263238"/>
<path d="M538.63 116.68C539.088 117.013 539.519 117.38 539.92 117.78C541.127 118.903 542.14 120.217 542.92 121.67C543.461 122.729 543.833 123.866 544.02 125.04C544.25 126.561 544.036 128.116 543.405 129.519C542.774 130.922 541.751 132.113 540.46 132.95C539.701 133.442 538.838 133.753 537.94 133.86C536.988 133.961 536.026 133.824 535.14 133.46C531.43 131.94 529.56 127.65 525.55 125.74C521.64 123.67 516.64 123.53 511.84 124.63C507.04 125.73 502.35 128.34 497.62 131C492.89 133.66 487.86 136.51 482.07 137.5C479.228 138.05 476.304 138.03 473.47 137.44C472.078 137.123 470.733 136.625 469.47 135.96C468.243 135.288 467.113 134.454 466.11 133.48C464.204 131.542 462.737 129.216 461.81 126.66C460.902 124.235 460.304 121.705 460.03 119.13C459.5 114.13 459.92 109.33 459.97 104.9C460.17 100.789 459.762 96.6717 458.76 92.68C458.283 90.9565 457.644 89.2823 456.85 87.68C456.155 86.2387 455.342 84.8573 454.42 83.55C452.957 81.4471 451.241 79.5327 449.31 77.85C448.08 76.7938 446.773 75.8311 445.4 74.97L444.31 74.32L443.95 74.09C444.086 74.1403 444.217 74.204 444.34 74.28L445.46 74.88C449.096 77.032 452.232 79.9329 454.66 83.39C456.661 86.1783 458.166 89.2905 459.11 92.59C460.153 96.6091 460.588 100.762 460.4 104.91C460.4 109.37 459.97 114.13 460.51 119.08C460.782 121.61 461.37 124.096 462.26 126.48C463.169 128.966 464.601 131.227 466.46 133.11C467.425 134.055 468.515 134.862 469.7 135.51C470.919 136.144 472.212 136.624 473.55 136.94C476.32 137.507 479.174 137.524 481.95 136.99C487.63 135.99 492.61 133.2 497.34 130.55C502.07 127.9 506.74 125.29 511.7 124.16C514.1 123.594 516.569 123.386 519.03 123.54C520.208 123.623 521.377 123.813 522.52 124.11C523.629 124.41 524.702 124.829 525.72 125.36C529.87 127.36 531.72 131.7 535.25 133.11C536.055 133.453 536.933 133.592 537.805 133.515C538.677 133.439 539.517 133.148 540.25 132.67C541.594 131.822 542.642 130.578 543.25 129.11C543.777 127.847 543.949 126.464 543.75 125.11C543.596 123.96 543.259 122.843 542.75 121.8C542.011 120.358 541.053 119.039 539.91 117.89C539.52 117.49 539.21 117.2 539 117.01C538.79 116.82 538.63 116.68 538.63 116.68Z" fill="#263238"/>
<path d="M375.18 174.4C375.18 174.4 375.18 174.25 375.1 173.95C375.048 173.506 374.957 173.068 374.83 172.64C374.37 170.984 373.531 169.457 372.38 168.18C370.523 166.19 368.263 164.618 365.75 163.57C362.85 162.24 359.25 161.57 355.31 160.85C351.37 160.13 346.9 159.27 342.88 156.59C340.648 155.082 338.773 153.104 337.387 150.794C336.001 148.485 335.138 145.899 334.857 143.22C334.577 140.541 334.887 137.833 335.765 135.287C336.643 132.74 338.068 130.417 339.94 128.48C344.08 124.23 349.94 122.12 354.72 118.39C355.892 117.45 356.946 116.372 357.86 115.18C358.72 113.964 359.369 112.612 359.78 111.18C360.58 108.34 360.51 105.37 360.78 102.48C360.889 101.032 361.157 99.5996 361.58 98.21C362.024 96.8338 362.742 95.5616 363.69 94.47C365.656 92.499 368.132 91.114 370.84 90.47C373.41 89.72 375.97 89.25 378.38 88.59C380.737 87.9881 382.968 86.9723 384.97 85.59C386.817 84.2827 388.476 82.7282 389.9 80.97C391.235 79.3946 392.48 77.7453 393.63 76.03C395.84 72.69 397.73 69.56 399.74 67.03C401.404 64.8462 403.366 62.9073 405.57 61.27C406.971 60.2422 408.527 59.4455 410.18 58.91C410.749 58.7103 411.334 58.563 411.93 58.47C411.93 58.47 411.32 58.61 410.21 59.01C408.587 59.5809 407.062 60.4007 405.69 61.44C403.523 63.087 401.598 65.0291 399.97 67.21C397.97 69.71 396.13 72.83 393.97 76.21C392.833 77.9862 391.591 79.6926 390.25 81.32C388.805 83.1131 387.123 84.701 385.25 86.04C383.21 87.4256 380.942 88.4411 378.55 89.04C376.11 89.72 373.55 90.19 371.02 90.94C368.4 91.5534 366.003 92.8869 364.1 94.79C363.201 95.8303 362.521 97.0411 362.1 98.35C361.69 99.7039 361.432 101.099 361.33 102.51C361.06 105.37 361.14 108.36 360.33 111.31C359.902 112.787 359.225 114.18 358.33 115.43C357.388 116.657 356.3 117.765 355.09 118.73C352.641 120.533 350.072 122.167 347.4 123.62C344.853 125.026 342.5 126.757 340.4 128.77C338.576 130.656 337.186 132.919 336.328 135.398C335.47 137.878 335.165 140.516 335.433 143.126C335.702 145.737 336.538 148.257 337.883 150.51C339.228 152.763 341.05 154.695 343.22 156.17C347.12 158.8 351.56 159.64 355.47 160.43C359.38 161.22 363.03 161.87 365.95 163.24C368.489 164.32 370.765 165.937 372.62 167.98C373.771 169.291 374.594 170.858 375.02 172.55C375.135 172.985 375.209 173.431 375.24 173.88C375.18 174.25 375.18 174.4 375.18 174.4Z" fill="#263238"/>
<path d="M455.02 84.63C454.758 84.604 454.501 84.5365 454.26 84.43C453.577 84.2066 452.909 83.9394 452.26 83.63C447.93 81.591 444.236 78.4146 441.57 74.44C441.17 73.8424 440.806 73.2213 440.48 72.58C440.337 72.3553 440.232 72.1087 440.17 71.85C440.24 71.85 440.81 72.77 441.87 74.22C444.646 78.0135 448.255 81.1198 452.42 83.3C454.01 84.13 455.06 84.55 455.02 84.63Z" fill="#455A64"/>
<path d="M488.27 152.84C488.27 152.84 487.64 152.68 486.51 152.44C484.91 152.102 483.284 151.901 481.65 151.84C479.228 151.774 476.804 151.844 474.39 152.05C471.65 152.24 468.63 152.52 465.44 152.45C462.419 152.45 459.425 151.887 456.61 150.79C454.324 149.836 452.296 148.355 450.69 146.47C449.612 145.196 448.836 143.696 448.42 142.08C448.311 141.644 448.24 141.199 448.21 140.75C448.188 140.594 448.188 140.436 448.21 140.28C448.27 140.28 448.3 140.92 448.62 142.03C449.107 143.581 449.914 145.011 450.99 146.23C452.585 148.035 454.577 149.445 456.81 150.35C459.575 151.393 462.505 151.929 465.46 151.93C468.61 152 471.62 151.74 474.37 151.57C476.802 151.381 479.244 151.347 481.68 151.47C483.331 151.566 484.969 151.824 486.57 152.24C487.003 152.355 487.43 152.492 487.85 152.65C487.999 152.691 488.141 152.755 488.27 152.84Z" fill="#455A64"/>
<path d="M547.2 198.31C547.2 198.31 547.11 198.31 546.91 198.44C546.625 198.57 546.327 198.667 546.02 198.73C544.833 198.983 543.6 198.928 542.44 198.57C540.616 197.984 538.966 196.953 537.64 195.57C535.956 193.676 534.647 191.481 533.78 189.1C532.69 186.54 531.78 183.6 529.99 180.88C529.087 179.472 528.023 178.173 526.82 177.01C525.523 175.794 524.102 174.719 522.58 173.8C516.3 170.01 508.05 168.46 499.58 168.96C491.11 169.46 483.14 171.06 475.77 171.57C469.235 172.27 462.625 171.589 456.37 169.57C452.138 168.194 448.313 165.789 445.24 162.57C444.764 162.068 444.32 161.537 443.91 160.98C443.591 160.587 443.303 160.169 443.05 159.73C442.85 159.4 442.69 159.13 442.56 158.93C442.498 158.844 442.448 158.75 442.41 158.65C442.41 158.65 442.49 158.73 442.61 158.9L443.13 159.67C443.404 160.092 443.705 160.496 444.03 160.88C444.449 161.426 444.904 161.943 445.39 162.43C448.484 165.549 452.29 167.869 456.48 169.19C462.698 171.139 469.253 171.779 475.73 171.07C483.06 170.53 491.02 168.85 499.55 168.41C508.08 167.97 516.4 169.48 522.78 173.36C524.328 174.302 525.773 175.405 527.09 176.65C528.315 177.854 529.396 179.196 530.31 180.65C532.12 183.44 533.01 186.41 534.08 188.96C534.903 191.313 536.166 193.488 537.8 195.37C539.08 196.737 540.677 197.767 542.45 198.37C543.577 198.749 544.781 198.835 545.95 198.62C546.8 198.48 547.19 198.27 547.2 198.31Z" fill="#455A64"/>
<path d="M389.92 84.62C388.048 84.5734 386.227 85.2307 384.816 86.462C383.405 87.6932 382.507 89.4089 382.3 91.27L374.21 175.48C372.81 187.32 388.3 212.71 400.99 214.11C413.8 215.52 415.06 209.31 416.72 198.11C419.5 179.37 420.43 172.31 420.42 172.42C420.41 172.53 436.92 171.87 443.04 151.24C446.04 140.98 447.82 123.73 448.79 109.57C449.66 96.82 443.33 80.21 430.55 79.88L389.92 84.62Z" fill="#FFBE9D"/>
<path d="M443.21 120.72C443.127 121.433 442.765 122.084 442.202 122.531C441.64 122.977 440.923 123.182 440.21 123.1C439.863 123.082 439.522 122.995 439.209 122.844C438.896 122.693 438.616 122.481 438.386 122.22C438.156 121.959 437.98 121.655 437.869 121.325C437.758 120.995 437.714 120.647 437.74 120.3C437.828 119.588 438.191 118.939 438.752 118.493C439.313 118.046 440.027 117.837 440.74 117.91C441.088 117.928 441.43 118.015 441.744 118.167C442.058 118.318 442.338 118.532 442.568 118.794C442.799 119.055 442.974 119.361 443.084 119.692C443.194 120.023 443.237 120.372 443.21 120.72Z" fill="#263238"/>
<path d="M444.36 115.27C444.04 115.65 441.88 114.27 438.95 114.48C436.02 114.69 433.95 116.3 433.64 115.97C433.48 115.82 433.77 115.16 434.64 114.41C435.845 113.445 437.319 112.876 438.86 112.78C440.381 112.667 441.898 113.041 443.19 113.85C444.16 114.48 444.51 115.13 444.36 115.27Z" fill="#263238"/>
<path d="M417.48 122.24C417.13 122.59 415.11 121 412.18 120.93C409.25 120.86 407.06 122.26 406.75 121.93C406.6 121.76 406.96 121.13 407.92 120.48C409.212 119.632 410.736 119.209 412.28 119.27C413.803 119.309 415.274 119.83 416.48 120.76C417.36 121.44 417.63 122.13 417.48 122.24Z" fill="#263238"/>
<path d="M422.94 137.73C422.94 137.56 424.8 137.49 427.78 137.5C428.53 137.5 429.25 137.5 429.45 136.97C429.611 136.213 429.538 135.424 429.24 134.71C428.78 132.817 428.297 130.817 427.79 128.71C425.79 120.26 424.46 113.35 424.79 113.27C425.12 113.19 427.02 119.99 429.01 128.44C429.49 130.52 429.94 132.5 430.37 134.44C430.728 135.408 430.728 136.472 430.37 137.44C430.228 137.687 430.032 137.898 429.796 138.057C429.561 138.217 429.292 138.32 429.01 138.36C428.582 138.415 428.148 138.415 427.72 138.36C424.76 138.13 422.93 137.89 422.94 137.73Z" fill="#263238"/>
<path d="M420.42 172.4C410.474 171.241 401.046 167.339 393.19 161.13C393.19 161.13 398.4 176.55 419.75 177.36L420.42 172.4Z" fill="#EB996E"/>
<path d="M417.89 117.23C417.43 117.94 414.66 116.9 411.22 116.52C407.78 116.14 404.85 116.42 404.57 115.62C404.45 115.24 405.09 114.62 406.36 114.13C408.027 113.528 409.813 113.336 411.57 113.57C413.334 113.763 415.028 114.373 416.51 115.35C417.63 116.13 418.1 116.89 417.89 117.23Z" fill="#263238"/>
<path d="M443.92 111.34C443.44 112.03 441.39 111.45 438.92 111.54C436.45 111.63 434.46 112.21 433.92 111.54C433.7 111.21 433.99 110.54 434.85 109.86C436.013 109.016 437.413 108.561 438.85 108.56C440.268 108.517 441.664 108.912 442.85 109.69C443.82 110.33 444.13 111.01 443.92 111.34Z" fill="#263238"/>
<path d="M415.86 143.04C417.202 142.123 418.848 141.765 420.45 142.04C421.267 142.153 422.019 142.545 422.58 143.15C423.186 144.045 423.452 145.126 423.33 146.2C423.335 146.848 423.237 147.493 423.04 148.11C422.835 148.727 422.397 149.24 421.82 149.54C421.178 149.772 420.482 149.806 419.82 149.64C418.72 149.499 417.665 149.117 416.73 148.52C416.265 148.222 415.87 147.826 415.573 147.359C415.276 146.893 415.084 146.368 415.01 145.82C414.948 145.269 415.066 144.713 415.345 144.233C415.624 143.754 416.05 143.378 416.56 143.16" fill="#EB996E"/>
<path d="M423.75 149.46C423.54 149.54 423.15 148.9 422.45 148.03C421.58 146.888 420.489 145.932 419.241 145.221C417.994 144.51 416.616 144.057 415.19 143.89C414.08 143.73 413.34 143.72 413.29 143.5C413.24 143.28 413.94 142.91 415.21 142.78C416.885 142.649 418.562 143.025 420.02 143.86C421.483 144.686 422.658 145.938 423.39 147.45C423.93 148.6 423.94 149.4 423.75 149.46Z" fill="#263238"/>
<path d="M373.08 169.69C380.03 168.3 385.39 162.33 387.78 155.69C390.17 149.05 390.04 141.74 389.41 134.69C389.428 134.234 389.353 133.779 389.19 133.352C389.026 132.926 388.778 132.537 388.46 132.21C387.41 131.4 385.9 132.06 384.76 132.75C380.378 135.414 376.179 138.367 372.19 141.59C368.47 144.59 364.79 148.04 363.36 152.59C361.17 159.59 365.8 167.94 372.89 169.78" fill="#263238"/>
<path d="M532.83 168.06L500.06 115.38L491 96.84C491 96.84 488.11 93.01 485.11 89.74C480.19 84.37 475.32 88.54 475.32 88.54C475.047 87.9061 474.584 87.3728 473.995 87.0144C473.405 86.6559 472.718 86.4901 472.03 86.54C471.146 86.5394 470.275 86.7485 469.487 87.1501C468.7 87.5516 468.019 88.1342 467.5 88.85C467.5 88.85 466.16 87.36 462.44 87.13C461.595 87.1198 460.769 87.3868 460.09 87.89C458.87 86.82 456.63 85.28 454.48 86.06C452.8 86.67 442.61 94.42 440.1 98.32C438.86 100.25 441.16 102.75 444.26 101.58C445.535 101.168 446.778 100.663 447.98 100.07C448.921 99.5412 449.771 98.8661 450.5 98.07C450.5 98.07 447.93 102.57 450.5 103.36C451.342 103.529 452.21 103.511 453.044 103.309C453.879 103.107 454.659 102.725 455.33 102.19C456.33 101.37 457.43 100.3 458.5 99.25L458.38 99.43C456.96 101.53 460.66 104.64 462.45 103.38C463.282 102.793 464.08 102.159 464.84 101.48C469 104.48 463.23 108.37 460.79 108.17C457.035 107.885 453.265 107.885 449.51 108.17C447.39 108.34 445.51 108.85 444.35 110.02C442.97 111.44 444.42 114.42 446.35 114.72C449.94 115.28 454.52 116.07 459.28 117.3C464.88 118.74 479.55 123.51 479.55 123.51L480.98 124.67L500.91 173.28L466.79 180.51L459.17 223.75L520.77 207.03C534.63 199.73 541.24 181.26 532.83 168.06Z" fill="#FFBE9D"/>
<path d="M479.56 123.42C479.295 123.382 479.033 123.318 478.78 123.23L476.57 122.6L468.46 120.19L462.87 118.5C460.87 117.88 458.72 117.24 456.44 116.66C454.065 116.019 451.654 115.522 449.22 115.17C447.884 115.147 446.56 114.907 445.3 114.46C444.964 114.308 444.664 114.086 444.42 113.81C444.287 113.65 444.185 113.467 444.12 113.27L444.05 112.74C443.944 112.032 443.988 111.31 444.18 110.62C444.425 109.911 444.934 109.324 445.6 108.98C446.207 108.665 446.843 108.411 447.5 108.22C448.799 107.848 450.149 107.682 451.5 107.73C454.1 107.73 456.55 108.13 458.89 108.03C460.027 108.003 461.16 107.893 462.28 107.7C463.37 107.5 464.41 107.22 465.43 106.96C467.314 106.371 469.288 106.117 471.26 106.21C472.879 106.365 474.465 106.77 475.96 107.41C477.085 107.879 478.181 108.416 479.24 109.02C480.11 109.51 480.77 109.92 481.24 110.19C481.471 110.323 481.692 110.474 481.9 110.64C481.649 110.544 481.408 110.423 481.18 110.28L479.18 109.2C478.113 108.632 477.014 108.125 475.89 107.68C474.415 107.08 472.857 106.709 471.27 106.58C469.342 106.51 467.416 106.777 465.58 107.37C464.58 107.64 463.52 107.94 462.41 108.15C461.264 108.358 460.104 108.478 458.94 108.51C456.56 108.62 454.08 108.27 451.54 108.24C450.257 108.201 448.975 108.36 447.74 108.71C446.52 109.11 445.13 109.54 444.74 110.78C444.578 111.4 444.54 112.046 444.63 112.68L444.7 113.14C444.736 113.264 444.801 113.377 444.89 113.47C445.091 113.69 445.332 113.87 445.6 114C446.809 114.411 448.074 114.634 449.35 114.66C451.806 115.025 454.237 115.539 456.63 116.2C458.92 116.79 461.06 117.45 463.06 118.09L468.64 119.84L476.7 122.41L478.88 123.13C479.115 123.206 479.343 123.303 479.56 123.42Z" fill="#EB996E"/>
<path d="M454.29 86.13C454.35 86.21 452.75 87.13 450.39 88.92C449.013 89.9697 447.704 91.1053 446.47 92.32C445.07 93.68 443.6 95.32 441.86 96.77C440.989 97.3655 440.341 98.2348 440.02 99.24C439.897 99.6829 439.954 100.156 440.179 100.557C440.404 100.958 440.778 101.254 441.22 101.38C442.082 101.621 442.99 101.638 443.86 101.43C444.646 101.284 445.416 101.063 446.16 100.77C447.622 100.149 448.986 99.3208 450.21 98.31C449.965 98.6714 449.66 98.9891 449.31 99.25C448.406 100.015 447.395 100.645 446.31 101.12C445.553 101.442 444.766 101.69 443.96 101.86C443.016 102.105 442.025 102.105 441.08 101.86C440.517 101.703 440.038 101.331 439.748 100.823C439.458 100.316 439.38 99.7148 439.53 99.15C439.871 98.0331 440.575 97.0619 441.53 96.39C443.24 94.93 444.71 93.39 446.15 91.99C447.399 90.7798 448.736 89.6634 450.15 88.65C451.37 87.78 452.4 87.16 453.15 86.74C453.51 86.5007 453.892 86.2965 454.29 86.13Z" fill="#EB996E"/>
<path d="M466.8 90.25C466.444 90.7314 466.056 91.1891 465.64 91.62L462.35 95.24L457.42 100.57C456.435 101.651 455.263 102.545 453.96 103.21C453.246 103.57 452.46 103.764 451.66 103.78C451.235 103.787 450.812 103.71 450.418 103.552C450.023 103.394 449.663 103.158 449.36 102.86C449.049 102.513 448.859 102.074 448.82 101.61C448.786 101.179 448.83 100.745 448.95 100.33C449.178 99.5458 449.537 98.8054 450.01 98.14C451.78 96.27 453.42 94.51 454.89 92.89C456.36 91.27 457.83 90 459.01 88.89C459.517 88.3597 460.092 87.899 460.72 87.52C461.228 87.2952 461.775 87.1729 462.33 87.16C463.22 87.1 463.74 87.16 463.69 87.28C463.243 87.2263 462.79 87.2466 462.35 87.34C461.827 87.3849 461.317 87.5202 460.84 87.74C460.251 88.1393 459.711 88.6058 459.23 89.13C458.09 90.27 456.68 91.59 455.23 93.19C453.78 94.79 452.15 96.61 450.39 98.5C449.952 99.1088 449.614 99.784 449.39 100.5C449.287 100.857 449.246 101.229 449.27 101.6C449.311 101.952 449.457 102.283 449.69 102.55C450.206 103.043 450.896 103.313 451.61 103.3C452.33 103.286 453.037 103.112 453.68 102.79C454.93 102.157 456.058 101.307 457.01 100.28L462.01 95.03L465.42 91.53L466.37 90.59C466.637 90.35 466.78 90.2367 466.8 90.25Z" fill="#EB996E"/>
<path d="M482.12 95.07C482.12 95.07 482.12 95.38 481.72 95.66C481.487 95.8414 481.219 95.9723 480.933 96.0443C480.647 96.1162 480.349 96.1276 480.058 96.0777C479.767 96.0278 479.49 95.9178 479.244 95.7546C478.998 95.5914 478.789 95.3786 478.63 95.13C478.4 94.75 478.4 94.46 478.46 94.45C478.52 94.44 478.66 94.64 478.92 94.9C479.251 95.2382 479.676 95.4683 480.14 95.56C480.611 95.6295 481.091 95.5563 481.52 95.35C481.86 95.19 482.06 95.02 482.12 95.07Z" fill="#EB996E"/>
<path d="M483.32 99.66C483.21 99.75 482.46 99 481.8 97.87C481.319 97.2345 481.031 96.4744 480.97 95.68C481.1 95.63 481.6 96.53 482.25 97.61C482.706 98.2364 483.067 98.9274 483.32 99.66Z" fill="#EB996E"/>
<path d="M485.53 117.54C485.092 116.909 484.77 116.204 484.58 115.46C484.01 113.694 483.733 111.846 483.76 109.99C483.797 108.134 484.135 106.297 484.76 104.55C484.967 103.809 485.306 103.111 485.76 102.49C484.918 104.91 484.429 107.44 484.31 110C484.348 112.559 484.759 115.099 485.53 117.54Z" fill="#EB996E"/>
<path d="M512.45 186.83C512.35 186.83 512.25 185.77 511.73 184.14C511.419 183.19 511.024 182.27 510.55 181.39C509.37 179.243 507.731 177.382 505.75 175.94C504.942 175.352 504.082 174.84 503.18 174.41C501.64 173.68 500.59 173.41 500.61 173.35C500.864 173.34 501.118 173.374 501.36 173.45C502.044 173.596 502.713 173.804 503.36 174.07C504.309 174.468 505.214 174.964 506.06 175.55C508.143 176.989 509.84 178.919 511 181.17C511.472 182.084 511.844 183.046 512.11 184.04C512.294 184.694 512.417 185.364 512.48 186.04C512.512 186.303 512.502 186.57 512.45 186.83Z" fill="#EB996E"/>
<path d="M398.07 283.13C395.25 282.637 392.347 283.007 389.74 284.19C385.29 282.19 379.8 285.62 379.8 285.62C378.19 284.85 368.49 291.19 368.49 291.19L356.41 296.89L291.88 248.94L310.17 229.94L284.54 203.27L254.54 234.17C250.865 238.147 248.736 243.309 248.54 248.72C248.252 254.481 249.653 260.2 252.572 265.174C255.491 270.149 259.8 274.162 264.97 276.72L340.97 315.72C346.808 315.395 352.599 314.494 358.26 313.03C364.82 311.32 376.03 306.34 376.03 306.34C376.03 306.34 376.03 306.68 378.03 310.57C381.64 317.57 386.93 310.01 386.93 310.01C387.456 311.239 388.149 312.39 388.99 313.43C393.56 317.86 396.73 311.91 396.73 311.91C396.73 311.91 398.1 314.3 402.18 312.52C406.26 310.74 401.59 298.46 401.59 298.46C401.59 298.46 402.96 301.13 405.59 297.75C408.22 294.37 402.44 284.05 398.07 283.13Z" fill="#FFBE9D"/>
<path d="M388.94 284.82C389.19 284.645 389.478 284.532 389.78 284.49C390.591 284.313 391.433 284.34 392.23 284.57C393.404 284.904 394.501 285.464 395.46 286.22C396.037 286.649 396.576 287.128 397.07 287.65C397.568 288.264 397.991 288.936 398.33 289.65C399.515 292.035 400.501 294.513 401.28 297.06C401.58 298.06 401.78 298.83 401.91 299.39C402.003 299.674 402.047 299.971 402.04 300.27C401.97 300.27 401.61 299.08 400.93 297.17C400.048 294.683 399.023 292.249 397.86 289.88C397.545 289.217 397.148 288.595 396.68 288.03C396.214 287.528 395.709 287.063 395.17 286.64C394.275 285.909 393.26 285.341 392.17 284.96C391.121 284.65 390.012 284.602 388.94 284.82Z" fill="#EB996E"/>
<path d="M396.71 311.94C396.48 311.592 396.288 311.22 396.14 310.83L394.73 307.77C393.54 305.18 391.8 301.64 390.14 297.61C389.472 295.694 388.59 293.859 387.51 292.14C386.578 290.791 385.295 289.723 383.8 289.05C382.806 288.569 381.699 288.372 380.6 288.48C379.82 288.58 379.42 288.79 379.4 288.74C379.38 288.69 379.49 288.67 379.68 288.57C379.958 288.431 380.254 288.333 380.56 288.28C381.708 288.084 382.888 288.234 383.95 288.71C385.537 289.372 386.906 290.467 387.9 291.87C389.023 293.602 389.937 295.462 390.62 297.41C392.27 301.41 393.96 304.99 395.07 307.62C395.62 308.93 396.07 310.01 396.33 310.75C396.5 311.132 396.627 311.531 396.71 311.94Z" fill="#EB996E"/>
<path d="M367.09 296.51C367.403 296.287 367.738 296.096 368.09 295.94L370.97 294.55C371.59 294.26 372.24 293.94 372.97 293.62C373.792 293.293 374.679 293.162 375.56 293.24C376.541 293.319 377.482 293.665 378.28 294.24C379.085 294.898 379.763 295.698 380.28 296.6C380.83 297.5 381.28 298.43 381.68 299.29C382.08 300.15 382.55 300.98 382.99 301.76C383.86 303.31 384.68 304.7 385.28 305.92C385.774 306.873 386.201 307.858 386.56 308.87C386.72 309.229 386.828 309.61 386.88 310C386.8 310 386.26 308.45 384.96 306.09C384.31 304.91 383.47 303.55 382.57 302C382.12 301.22 381.67 300.39 381.23 299.52C380.79 298.65 380.37 297.74 379.84 296.87C379.356 296.026 378.73 295.272 377.99 294.64C377.277 294.095 376.431 293.75 375.54 293.64C374.731 293.553 373.913 293.655 373.15 293.94C372.43 294.23 371.74 294.55 371.15 294.8L368.2 296.13C367.847 296.301 367.474 296.429 367.09 296.51Z" fill="#EB996E"/>
<path d="M368.49 291.2C368.223 291.422 367.927 291.607 367.61 291.75C367.03 292.08 366.18 292.54 365.12 293.1C363.01 294.22 360.07 295.74 356.81 297.38C353.55 299.02 350.59 300.48 348.43 301.52L345.87 302.72C345.555 302.887 345.218 303.012 344.87 303.09C345.143 302.868 345.442 302.68 345.76 302.53C346.34 302.21 347.19 301.75 348.25 301.19C350.36 300.07 353.3 298.56 356.56 296.91C359.82 295.26 362.78 293.81 364.93 292.78C366.01 292.26 366.93 291.85 367.5 291.57C367.81 291.399 368.144 291.275 368.49 291.2Z" fill="#EB996E"/>
<path d="M292.74 249.06C290.218 248.679 287.661 248.595 285.12 248.81C282.598 249.19 280.128 249.861 277.76 250.81C278.362 250.331 279.037 249.953 279.76 249.69C281.449 248.964 283.234 248.486 285.06 248.27C286.891 248.054 288.743 248.101 290.56 248.41C291.317 248.507 292.053 248.727 292.74 249.06Z" fill="#EB996E"/>
<path d="M435.25 75.84C419.267 75.6113 403.315 77.2898 387.73 80.84C384.12 81.67 380.3 82.73 377.86 85.51C375.27 88.45 374.86 92.64 374.48 96.51C374.067 101.263 373.653 106.013 373.24 110.76C372.554 111.936 371.796 113.068 370.97 114.15C367.21 119.06 362.42 123.15 358.97 128.31C355.52 133.47 353.66 140.31 356.44 145.83C358.13 149.17 361.25 151.53 363.53 154.49C367.4 159.49 368.66 166 370.92 171.93C373.18 177.86 377.26 183.93 383.49 185.09C386.49 185.66 389.55 185.03 392.54 185.47C397.01 186.12 400.77 189.05 404.32 191.84C407.87 194.63 411.73 197.47 416.23 197.92C420.73 198.37 425.88 195.32 425.97 190.8C424.301 191.741 422.408 192.21 420.493 192.157C418.579 192.104 416.714 191.531 415.1 190.5C412.48 188.77 410.79 185.97 408.54 183.79C403.01 178.43 394.11 176.73 390.26 170.06C387.26 164.79 388.43 158.18 389.81 152.25C391 147.11 392.22 141.54 390.73 136.6C390.848 135.805 390.912 135.003 390.92 134.2C390.92 128.94 388.87 123.3 391.32 118.65C394.56 112.49 403.9 111.71 407.17 105.58C409.08 102.01 408.41 97.45 410.49 93.98C412.44 90.72 416.35 89.22 420.07 88.41C423.79 87.6 427.7 87.23 430.98 85.31C434.26 83.39 436.74 79.33 435.25 75.84Z" fill="#263238"/>
<path d="M447.37 183.13C447.333 183.22 447.282 183.304 447.22 183.38L446.73 184.07C446.058 184.935 445.286 185.717 444.43 186.4C443.055 187.467 441.51 188.295 439.86 188.85C437.678 189.607 435.357 189.877 433.06 189.64C430.254 189.367 427.59 188.275 425.4 186.5C423.02 184.67 420.9 182.24 418.21 180.31C416.862 179.305 415.29 178.643 413.63 178.38C411.878 178.236 410.119 178.557 408.53 179.31C406.839 180.108 405.065 180.719 403.24 181.13C401.282 181.412 399.285 181.062 397.54 180.13C395.834 179.231 394.222 178.162 392.73 176.94C391.238 175.819 389.827 174.593 388.51 173.27C387.208 171.987 386.186 170.448 385.51 168.75C384.907 167.084 384.789 165.281 385.17 163.55C385.536 161.946 386.041 160.376 386.68 158.86C387.26 157.39 387.76 155.94 388.2 154.52C389.004 151.9 389.622 149.227 390.05 146.52C390.669 142.575 390.886 138.578 390.7 134.59C390.64 133.18 390.55 132.08 390.47 131.34C390.47 130.99 390.47 130.72 390.4 130.5C390.385 130.404 390.385 130.306 390.4 130.21C390.435 130.3 390.455 130.394 390.46 130.49L390.58 131.33C390.69 132.07 390.82 133.16 390.91 134.58C391.174 138.586 391.013 142.608 390.43 146.58C390.022 149.322 389.42 152.032 388.63 154.69C388.19 156.11 387.69 157.58 387.12 159.07C386.495 160.545 385.996 162.07 385.63 163.63C385.268 165.275 385.386 166.99 385.97 168.57C386.627 170.201 387.614 171.679 388.87 172.91C390.172 174.212 391.565 175.418 393.04 176.52C394.504 177.719 396.086 178.768 397.76 179.65C399.403 180.553 401.293 180.903 403.15 180.65C404.936 180.242 406.673 179.642 408.33 178.86C410.001 178.086 411.845 177.762 413.68 177.92C415.418 178.188 417.066 178.874 418.48 179.92C421.22 181.92 423.32 184.36 425.66 186.17C427.776 187.916 430.361 188.998 433.09 189.28C437.067 189.715 441.063 188.645 444.29 186.28C445.439 185.356 446.473 184.299 447.37 183.13Z" fill="#263238"/>
<path d="M347.46 151.33C347.172 150.976 346.905 150.605 346.66 150.22C345.979 149.098 345.499 147.867 345.24 146.58C344.846 144.535 344.88 142.431 345.34 140.4C345.94 137.705 347.121 135.172 348.8 132.98C350.866 130.371 353.298 128.074 356.02 126.16C358.89 124.02 362.15 122.03 365.4 119.72C368.866 117.4 371.882 114.469 374.3 111.07C375.492 109.215 376.402 107.193 377 105.07C377.64 102.93 378.08 100.69 378.6 98.43C379.051 96.1768 379.721 93.973 380.6 91.85C381.479 89.7643 382.824 87.907 384.53 86.42C386.197 85.0162 388.124 83.9528 390.2 83.29C392.172 82.6517 394.213 82.2489 396.28 82.09C400.083 81.897 403.896 82.0174 407.68 82.45C410.955 82.8002 414.256 82.8437 417.54 82.58C420.241 82.3199 422.866 81.5389 425.27 80.28C427.086 79.3354 428.694 78.0365 430 76.46C430.824 75.4596 431.474 74.327 431.92 73.11C432.2 72.27 432.31 71.81 432.33 71.82C432.258 72.27 432.154 72.7144 432.02 73.15C431.605 74.396 430.975 75.5601 430.16 76.59C428.862 78.2295 427.246 79.59 425.41 80.59C422.981 81.8943 420.322 82.7129 417.58 83C414.272 83.2904 410.944 83.2669 407.64 82.93C403.881 82.5211 400.095 82.4174 396.32 82.62C394.279 82.779 392.265 83.1818 390.32 83.82C388.309 84.454 386.441 85.4729 384.82 86.82C383.174 88.2634 381.878 90.062 381.03 92.08C380.151 94.1721 379.481 96.346 379.03 98.57C378.51 100.82 378.03 103.07 377.41 105.24C376.801 107.402 375.867 109.458 374.64 111.34C372.197 114.783 369.148 117.751 365.64 120.1C362.36 122.42 359.1 124.39 356.24 126.5C353.537 128.376 351.119 130.633 349.06 133.2C347.384 135.332 346.199 137.808 345.59 140.45C345.105 142.441 345.04 144.512 345.4 146.53C345.747 148.255 346.449 149.89 347.46 151.33Z" fill="#455A64"/>
<path d="M350.39 156.58C349.274 155.698 348.246 154.71 347.32 153.63C346.179 152.395 345.274 150.961 344.65 149.4C344.257 148.406 344.1 147.335 344.19 146.27C344.313 145.072 344.782 143.936 345.54 143C347.16 141 349.84 139.94 352.65 139.35C354.06 139.06 355.54 138.83 357.01 138.46C358.528 138.142 359.973 137.541 361.27 136.69C362.579 135.729 363.641 134.471 364.37 133.02C365.131 131.481 365.772 129.887 366.29 128.25C366.822 126.533 367.491 124.861 368.29 123.25C369.146 121.556 370.441 120.123 372.04 119.1C373.665 118.173 375.422 117.498 377.25 117.1C379.02 116.64 380.77 116.27 382.42 115.71C385.595 114.603 388.362 112.564 390.36 109.86C392.21 107.413 393.871 104.829 395.33 102.13C396.615 99.7776 398.118 97.5512 399.82 95.48C401.24 93.7619 402.983 92.3385 404.95 91.29C406.437 90.4995 408.064 90.007 409.74 89.84C410.8 89.739 411.87 89.827 412.9 90.1C413.243 90.1911 413.578 90.3116 413.9 90.46C413.9 90.46 413.53 90.36 412.83 90.2C411.808 89.9814 410.759 89.9274 409.72 90.04C408.083 90.2413 406.498 90.7502 405.05 91.54C403.13 92.5949 401.432 94.0108 400.05 95.71C398.386 97.7864 396.914 100.009 395.65 102.35C394.211 105.068 392.566 107.673 390.73 110.14C389.701 111.468 388.516 112.666 387.2 113.71C385.824 114.769 384.279 115.587 382.63 116.13C380.95 116.71 379.18 117.08 377.43 117.54C375.65 117.943 373.944 118.617 372.37 119.54C370.838 120.526 369.601 121.908 368.79 123.54C367.993 125.127 367.324 126.776 366.79 128.47C366.25 130.13 365.582 131.745 364.79 133.3C364.015 134.815 362.899 136.129 361.53 137.14C360.176 138.011 358.675 138.628 357.1 138.96C355.6 139.32 354.1 139.54 352.72 139.83C349.95 140.39 347.34 141.42 345.81 143.28C345.084 144.158 344.629 145.228 344.5 146.36C344.402 147.377 344.539 148.404 344.9 149.36C345.5 150.897 346.363 152.318 347.45 153.56C348.33 154.56 349.08 155.35 349.59 155.86L350.18 156.43C350.33 156.5 350.4 156.57 350.39 156.58Z" fill="#455A64"/>
<path d="M473.49 91.98C473.351 92.2583 473.176 92.5171 472.97 92.75C472.61 93.23 472.08 93.91 471.39 94.75C470.03 96.39 468.07 98.59 465.77 100.9C464.63 102.02 463.56 103.28 462.09 103.74C461.406 103.975 460.664 103.975 459.98 103.74C459.394 103.496 458.912 103.054 458.62 102.49C458.226 101.705 458.096 100.814 458.25 99.95C458.267 99.6378 458.345 99.332 458.48 99.05C458.513 99.3558 458.513 99.6642 458.48 99.97C458.407 100.781 458.578 101.596 458.97 102.31C459.239 102.771 459.66 103.124 460.16 103.31C460.746 103.514 461.384 103.514 461.97 103.31C463.25 102.9 464.28 101.7 465.43 100.56C467.72 98.27 469.71 96.11 471.15 94.56C471.871 93.6485 472.653 92.7865 473.49 91.98Z" fill="#EB996E"/>
<path d="M481.13 91.98C480.966 92.2684 480.76 92.5311 480.52 92.76C480.11 93.24 479.52 93.92 478.74 94.76L476.05 97.67L474.45 99.37C473.897 100.01 473.288 100.599 472.63 101.13C471.929 101.689 471.082 102.036 470.19 102.13C469.757 102.175 469.32 102.107 468.922 101.931C468.524 101.756 468.179 101.48 467.92 101.13C467.679 100.791 467.55 100.386 467.55 99.97C467.573 99.5906 467.69 99.2229 467.89 98.9C468.26 98.3 468.64 97.84 468.97 97.38C469.63 96.47 470.18 95.74 470.57 95.24C470.75 94.9635 470.969 94.7143 471.22 94.5C471.095 94.8048 470.934 95.0936 470.74 95.36C470.4 95.89 469.9 96.65 469.27 97.59C468.96 98.06 468.58 98.59 468.27 99.11C468.088 99.3634 467.99 99.6678 467.99 99.98C467.99 100.292 468.088 100.597 468.27 100.85C468.485 101.128 468.768 101.344 469.093 101.478C469.418 101.611 469.772 101.657 470.12 101.61C470.908 101.525 471.657 101.22 472.28 100.73C472.934 100.235 473.54 99.6792 474.09 99.07L475.72 97.39L478.49 94.55C479.28 93.75 479.93 93.11 480.39 92.67C480.604 92.4068 480.853 92.1746 481.13 91.98Z" fill="#EB996E"/>
<path d="M585.54 398.13C586.399 396.261 587.699 394.629 589.329 393.375C590.959 392.12 592.87 391.281 594.896 390.93C596.923 390.578 599.004 390.725 600.961 391.358C602.918 391.99 604.692 393.089 606.13 394.56C604.023 397.961 600.748 400.478 596.92 401.64C594.898 402.352 592.7 402.396 590.651 401.764C588.602 401.132 586.81 399.858 585.54 398.13Z" fill="#368DCC"/>
<path d="M578.44 399.77C579.358 399.359 580.321 399.057 581.31 398.87C583.12 398.43 585.64 397.94 588.43 397.48C591.22 397.02 593.76 396.67 595.61 396.48C596.601 396.315 597.605 396.238 598.61 396.25C597.649 396.532 596.665 396.733 595.67 396.85L588.52 398.02C585.74 398.48 583.22 398.92 581.4 399.26C580.424 399.486 579.435 399.656 578.44 399.77Z" fill="#263238"/>
<path d="M228.11 334.82C230.242 336.576 231.905 338.835 232.947 341.393C233.989 343.951 234.379 346.728 234.082 349.475C233.784 352.221 232.809 354.85 231.242 357.125C229.676 359.401 227.569 361.251 225.11 362.51C221.44 353.1 220.03 342.97 228.11 334.82Z" fill="#368DCC"/>
<path d="M242.02 342.04C242.217 345.607 243.297 349.069 245.164 352.115C247.031 355.16 249.626 357.694 252.715 359.488C255.804 361.282 259.291 362.28 262.861 362.392C266.432 362.504 269.974 361.727 273.17 360.13C266.17 349.13 256.7 339.86 242.02 342.02" fill="#368DCC"/>
<path d="M210.15 307.26C210.326 307.407 210.484 307.575 210.62 307.76L211.87 309.25C212.93 310.56 214.48 312.45 216.44 314.74C220.34 319.34 225.85 325.6 232.34 332.13C235.59 335.39 238.78 338.4 241.74 341.06C244.7 343.72 247.5 345.99 249.9 347.81C251.785 349.255 253.752 350.59 255.79 351.81C257.24 352.67 258.1 353.03 258.08 353.08C257.857 353.029 257.641 352.948 257.44 352.84C256.839 352.594 256.255 352.31 255.69 351.99C253.605 350.829 251.6 349.53 249.69 348.1C247.25 346.3 244.45 344.03 241.44 341.41C238.43 338.79 235.24 335.75 231.98 332.49C225.48 325.95 219.98 319.64 216.17 314.97C214.24 312.64 212.74 310.71 211.72 309.37L210.54 307.81C210.393 307.639 210.263 307.455 210.15 307.26Z" fill="#263238"/>
<path d="M227.34 349.04C227.25 349.04 227.58 347.64 227.87 345.37C228.612 339.433 227.983 333.405 226.03 327.75C225.28 325.59 224.67 324.3 224.75 324.26C224.958 324.522 225.129 324.812 225.26 325.12C225.677 325.933 226.051 326.767 226.38 327.62C227.458 330.443 228.164 333.395 228.48 336.4C228.791 339.398 228.707 342.424 228.23 345.4C228.082 346.321 227.881 347.232 227.63 348.13C227.569 348.444 227.472 348.749 227.34 349.04Z" fill="#263238"/>
<path d="M668.63 146.67C667.392 145.029 666.571 143.111 666.24 141.082C665.908 139.052 666.076 136.973 666.727 135.023C667.379 133.073 668.495 131.311 669.98 129.889C671.465 128.466 673.274 127.427 675.25 126.86C677.246 130.322 677.911 134.393 677.12 138.31C676.789 140.43 675.785 142.387 674.256 143.893C672.727 145.398 670.755 146.372 668.63 146.67Z" fill="#368DCC"/>
<path d="M666.73 153.7C666.8 152.697 666.991 151.707 667.3 150.75C667.77 148.95 668.53 146.5 669.45 143.82C670.37 141.14 671.27 138.74 671.95 137.01C672.27 136.057 672.679 135.137 673.17 134.26C672.96 135.242 672.669 136.206 672.3 137.14C671.64 139.05 670.83 141.39 669.94 143.99C669.05 146.59 668.21 149.09 667.65 150.85C667.392 151.815 667.085 152.766 666.73 153.7Z" fill="#263238"/>
<path d="M624.63 221.07C623.595 217.23 623.511 213.196 624.385 209.316C625.258 205.436 627.063 201.827 629.643 198.801C632.224 195.774 635.502 193.422 639.195 191.946C642.888 190.47 646.885 189.915 650.84 190.33C652.23 197.89 649.84 205.65 645.89 212.22C641.18 219.97 631.82 223.22 624.63 221.07Z" fill="#368DCC"/>
<path d="M595.04 250.67C595.165 250.476 595.309 250.295 595.47 250.13L596.76 248.66C597.91 247.4 599.59 245.6 601.68 243.4C605.88 239 611.74 232.99 618.26 226.4C624.78 219.81 630.71 213.86 635.03 209.59L640.17 204.54L641.59 203.19C641.91 202.89 642.09 202.73 642.11 202.75C641.977 202.937 641.826 203.111 641.66 203.27L640.31 204.69L635.31 209.84L618.63 226.76L601.95 243.66L596.95 248.8L595.59 250.2C595.425 250.377 595.241 250.535 595.04 250.67Z" fill="#263238"/>
<g opacity="0.3">
<path d="M624.63 221.07C623.595 217.23 623.511 213.196 624.385 209.316C625.258 205.436 627.063 201.827 629.643 198.801C632.224 195.774 635.502 193.422 639.195 191.946C642.888 190.47 646.885 189.915 650.84 190.33C652.23 197.89 649.84 205.65 645.89 212.22C641.18 219.97 631.82 223.22 624.63 221.07Z" fill="black"/>
</g>
<path d="M610.92 224.04C608.742 222.93 606.868 221.305 605.461 219.305C604.054 217.306 603.158 214.993 602.849 212.568C602.54 210.143 602.829 207.679 603.69 205.391C604.552 203.103 605.959 201.06 607.79 199.44C611.79 201.94 614.35 206.21 615.68 210.73C617.26 216.07 614.88 221.73 610.92 224.04Z" fill="#368DCC"/>
<g opacity="0.3">
<path d="M610.92 224.04C608.742 222.93 606.868 221.305 605.461 219.305C604.054 217.306 603.158 214.993 602.849 212.568C602.54 210.143 602.829 207.679 603.69 205.391C604.552 203.103 605.959 201.06 607.79 199.44C611.79 201.94 614.35 206.21 615.68 210.73C617.26 216.07 614.88 221.73 610.92 224.04Z" fill="black"/>
</g>
<path d="M612.48 232.56C612.342 232.267 612.241 231.958 612.18 231.64C612.01 231.05 611.82 230.18 611.61 229.09C611.19 226.93 610.75 223.91 610.35 220.58C609.95 217.25 609.67 214.21 609.5 212.01C609.356 210.829 609.309 209.639 609.36 208.45C609.61 209.614 609.78 210.793 609.87 211.98C610.14 214.3 610.49 217.25 610.87 220.52C611.25 223.79 611.65 226.86 611.97 229.03C612.29 231.2 612.56 232.54 612.48 232.56Z" fill="#263238"/>
<path d="M423.63 339.94C425.158 336.314 427.566 333.126 430.637 330.665C433.707 328.204 437.342 326.547 441.214 325.844C445.085 325.141 449.071 325.415 452.81 326.64C456.55 327.865 459.925 330.003 462.63 332.86C451.29 341.65 438.06 347.65 423.71 339.94" fill="#368DCC"/>
<g opacity="0.3">
<path d="M423.63 339.94C425.158 336.314 427.566 333.126 430.637 330.665C433.707 328.204 437.342 326.547 441.214 325.844C445.085 325.141 449.071 325.415 452.81 326.64C456.55 327.865 459.925 330.003 462.63 332.86C451.29 341.65 438.06 347.65 423.71 339.94" fill="black"/>
</g>
<path d="M417.26 343.46C417.53 343.19 417.832 342.955 418.16 342.76C418.76 342.33 419.65 341.76 420.79 341.1C426.733 337.664 433.32 335.489 440.14 334.71C441.44 334.57 442.5 334.5 443.23 334.49C443.608 334.438 443.992 334.438 444.37 334.49C444.37 334.57 442.76 334.67 440.18 335.05C436.823 335.541 433.515 336.317 430.29 337.37C427.074 338.433 423.956 339.772 420.97 341.37C418.63 342.65 417.31 343.53 417.26 343.46Z" fill="#263238"/>
<path d="M160.06 209.64C162.806 208.359 165.828 207.781 168.853 207.958C171.878 208.134 174.811 209.06 177.39 210.652C179.968 212.243 182.11 214.451 183.624 217.076C185.137 219.701 185.974 222.661 186.06 225.69C175.01 224.87 164.32 221.48 160.06 209.64Z" fill="#368DCC"/>
<g opacity="0.3">
<path d="M160.06 209.64C162.806 208.359 165.828 207.781 168.853 207.958C171.878 208.134 174.811 209.06 177.39 210.652C179.968 212.243 182.11 214.451 183.624 217.076C185.137 219.701 185.974 222.661 186.06 225.69C175.01 224.87 164.32 221.48 160.06 209.64Z" fill="black"/>
</g>
<path d="M154.57 208.35C154.861 208.302 155.159 208.302 155.45 208.35C156.246 208.435 157.037 208.562 157.82 208.73C160.41 209.271 162.937 210.078 165.36 211.14C167.781 212.212 170.086 213.529 172.24 215.07C173.06 215.67 173.7 216.18 174.12 216.56C174.356 216.738 174.568 216.947 174.75 217.18C174.69 217.25 173.75 216.48 172.03 215.38C167.659 212.496 162.825 210.382 157.74 209.13C155.79 208.64 154.56 208.43 154.57 208.35Z" fill="#263238"/>
<path d="M518.39 327.69C518.064 324.999 518.413 322.269 519.404 319.745C520.396 317.222 521.999 314.985 524.07 313.236C526.141 311.486 528.614 310.279 531.268 309.723C533.921 309.167 536.671 309.279 539.27 310.05C535.5 319.22 529.64 327.37 518.39 327.69Z" fill="#368DCC"/>
<path d="M515.76 332C516.065 331.065 516.485 330.172 517.01 329.34C519.37 325.215 522.577 321.636 526.42 318.84C527.191 318.229 528.034 317.715 528.93 317.31C528.196 317.957 527.429 318.565 526.63 319.13C522.959 322.042 519.807 325.555 517.31 329.52C516.841 330.376 516.324 331.204 515.76 332Z" fill="#263238"/>
<path d="M597.08 275.74C596.254 273.158 596.084 270.411 596.583 267.747C597.083 265.083 598.237 262.584 599.942 260.477C601.646 258.369 603.848 256.719 606.35 255.674C608.851 254.629 611.573 254.222 614.27 254.49C612.27 264.21 608.07 273.31 597.08 275.74Z" fill="#368DCC"/>
<g opacity="0.3">
<path d="M597.08 275.74C596.254 273.158 596.084 270.411 596.583 267.747C597.083 265.083 598.237 262.584 599.942 260.477C601.646 258.369 603.848 256.719 606.35 255.674C608.851 254.629 611.573 254.222 614.27 254.49C612.27 264.21 608.07 273.31 597.08 275.74Z" fill="black"/>
</g>
<path d="M595.31 280.47C595.431 279.496 595.677 278.542 596.04 277.63C596.805 275.385 597.811 273.229 599.04 271.2C600.257 269.167 601.692 267.272 603.32 265.55C603.958 264.797 604.687 264.125 605.49 263.55C604.896 264.323 604.262 265.064 603.59 265.77C602.07 267.55 600.696 269.45 599.48 271.45C598.287 273.459 597.254 275.559 596.39 277.73C596.083 278.663 595.722 279.578 595.31 280.47Z" fill="#263238"/>
<path d="M3.90991 204.23C4.49784 201.583 5.73469 199.124 7.50912 197.075C9.28355 195.025 11.5399 193.448 14.075 192.487C16.6101 191.526 19.3443 191.211 22.0317 191.569C24.7191 191.927 27.2752 192.948 29.4699 194.54C22.8699 201.93 14.6299 207.67 3.90991 204.23Z" fill="#368DCC"/>
<path d="M0 207.42C0.601519 206.644 1.29303 205.943 2.06 205.33C3.8531 203.795 5.80402 202.454 7.88 201.33C9.95777 200.185 12.154 199.27 14.43 198.6C15.3563 198.274 16.321 198.069 17.3 197.99C16.3988 198.373 15.4775 198.707 14.54 198.99C10.1086 200.511 5.96916 202.777 2.3 205.69C1.56801 206.311 0.800011 206.889 0 207.42Z" fill="#263238"/>
<path d="M461 73.73L469 59.24C463.865 51.0827 461.968 41.2999 463.68 31.8144C465.392 22.329 470.59 13.8269 478.252 7.97938C485.915 2.13185 495.487 -0.63824 505.088 0.213592C514.689 1.06542 523.624 5.47757 530.137 12.5828C536.651 19.688 540.271 28.9724 540.286 38.6111C540.301 48.2498 536.711 57.5457 530.22 64.6716C523.73 71.7975 514.809 76.238 505.21 77.1204C495.612 78.0028 486.031 75.2631 478.35 69.44L461 73.73Z" fill="white"/>
<path d="M461 73.73L478.37 69.33L478.3 69.54L477.69 68.77L478.49 69.36C480.949 71.2026 483.613 72.753 486.43 73.98C489.784 75.4228 493.326 76.3823 496.95 76.83C498.956 77.0805 500.981 77.1541 503 77.05C504 76.98 505.1 76.94 506.17 76.84L509.38 76.31C518.956 74.3154 527.413 68.7479 533.03 60.74C536.15 56.312 538.291 51.2701 539.31 45.95C540.334 40.3188 540.102 34.531 538.63 29C537.132 23.2252 534.284 17.8887 530.32 13.43L528.75 11.74C528.23 11.17 527.62 10.74 527.06 10.18C526.508 9.65117 525.927 9.15372 525.32 8.68999L523.48 7.33999C522.892 6.89398 522.274 6.48966 521.63 6.12999L519.63 4.94999L517.63 3.94999C516.982 3.61218 516.314 3.31494 515.63 3.05999C510.191 0.962389 504.35 0.118117 498.54 0.589988C493.043 1.00695 487.706 2.6323 482.91 5.34999C474.286 10.2478 467.866 18.2639 464.97 27.75C463.824 31.7942 463.291 35.9876 463.39 40.19C463.62 46.9229 465.621 53.4762 469.19 59.19V59.25V59.32L461.04 73.74L468.97 59.19V59.32C465.336 53.6008 463.283 47.0208 463.02 40.25C462.899 36.0091 463.422 31.7743 464.57 27.69C467.465 18.0868 473.928 9.95686 482.63 4.96999C487.488 2.21541 492.892 0.563046 498.46 0.129989C504.347 -0.349748 510.267 0.501271 515.78 2.61999C516.488 2.87639 517.179 3.17698 517.85 3.51999L519.91 4.51999L521.91 5.68999C522.581 6.06309 523.225 6.48069 523.84 6.93999L525.63 8.27999C526.27 8.71999 526.8 9.27999 527.4 9.78999C528 10.3 528.58 10.79 529.11 11.37L530.74 13.13C534.765 17.6431 537.652 23.0537 539.16 28.91C540.624 34.515 540.836 40.3739 539.78 46.07C538.752 51.4692 536.576 56.5846 533.4 61.07C527.711 69.1665 519.144 74.783 509.45 76.77L506.19 77.3C505.12 77.4 504.05 77.43 503 77.5C500.96 77.5996 498.915 77.516 496.89 77.25C493.232 76.7904 489.658 75.807 486.28 74.33C483.435 73.0841 480.75 71.5029 478.28 69.62L478.46 69.44L478.59 69.6H478.39L461 73.73Z" fill="#263238"/>
<path d="M490.99 32.13L495.99 32.08C495.981 31.5092 496.086 30.9424 496.3 30.4133C496.515 29.8842 496.834 29.4037 497.238 29.0005C497.642 28.5974 498.123 28.2797 498.653 28.0666C499.182 27.8534 499.749 27.7492 500.32 27.76C501.163 27.7136 502 27.9353 502.709 28.3934C503.419 28.8515 503.965 29.5224 504.27 30.31C504.542 30.9633 504.656 31.6716 504.602 32.3772C504.548 33.0827 504.328 33.7656 503.96 34.37C503.12 35.78 501.27 37.07 497.88 36.51L497.99 47.82H502.99L502.9 41.13C504.93 40.5116 506.701 39.2447 507.942 37.5233C509.183 35.802 509.825 33.7213 509.77 31.6C509.7 24.27 503.11 22.6 500.29 22.66C498.14 22.71 490.81 23.3 490.99 32.13Z" fill="#368DCC"/>
<path d="M503.051 50.1067L498.021 50.1549L498.066 54.8547L503.096 54.8064L503.051 50.1067Z" fill="#368DCC"/>
</g>
<defs>
<clipPath id="clip0_206_3223">
<rect width="677.42" height="420.81" fill="white"/>
</clipPath>
</defs>
</svg>
