<svg width="19" height="22" viewBox="0 0 19 22" fill="none" xmlns="http://www.w3.org/2000/svg">
<path d="M15.4873 14H14.3623C14.0459 14 13.7998 14.2812 13.7998 14.5625V18.5H2.5498V7.25H7.6123C7.89355 7.25 8.1748 7.00391 8.1748 6.6875V5.5625C8.1748 5.28125 7.89355 5 7.6123 5H1.9873C1.03809 5 0.299805 5.77344 0.299805 6.6875V19.0625C0.299805 20.0117 1.03809 20.75 1.9873 20.75H14.3623C15.2764 20.75 16.0498 20.0117 16.0498 19.0625V14.5625C16.0498 14.2812 15.7686 14 15.4873 14ZM17.4561 2.75H12.9561C12.1826 2.75 11.7959 3.66406 12.3584 4.19141L13.5889 5.45703L5.0459 14.0352C4.87012 14.1758 4.76465 14.3867 4.76465 14.6328C4.76465 14.8789 4.87012 15.0898 5.0459 15.2305L5.81934 16.0039C5.99512 16.1797 6.20605 16.2852 6.41699 16.2852C6.66309 16.2852 6.87402 16.1797 7.01465 16.0039L15.5928 7.46094L16.8584 8.69141C17.3857 9.21875 18.2998 8.86719 18.2998 8.09375V3.59375C18.2998 3.13672 17.9131 2.75 17.4561 2.75Z" fill="white"/>
</svg>
