<svg width="480" height="264" viewBox="0 0 480 264" fill="none" xmlns="http://www.w3.org/2000/svg">
<g clip-path="url(#clip0_206_3467)">
<path d="M98.72 60.47C81.27 109.23 63.79 158.1 52 209.28C60.9915 212.337 70.3577 214.153 79.84 214.68C83.4333 202.133 87.02 189.583 90.6 177.03C90.2394 176.777 89.8311 176.6 89.4 176.51C96.56 177.9 103.05 181.79 108.51 186.63C113.97 191.47 118.51 197.24 123.51 203.9C122.98 211 128.18 217.79 134.87 220.22C141.56 222.65 149.26 221.17 155.49 216.98C154.88 220.107 154.88 223.323 155.49 226.45C155.733 227.814 156.167 229.137 156.78 230.38C158.221 232.922 160.41 234.957 163.05 236.21C167.615 238.496 172.802 239.226 177.82 238.29C177.28 244.21 181.74 249.84 187.33 251.9C192.92 253.96 199.24 252.98 205.05 250.8C205.816 252.903 207.011 254.824 208.56 256.44C210.524 258.037 212.934 258.987 215.46 259.16C221.46 259.85 227.66 258.16 233.25 254.81C236.339 256.461 239.778 257.352 243.28 257.409C246.782 257.466 250.248 256.689 253.39 255.14C255.047 254.335 256.55 253.245 257.83 251.92C260.279 249.061 261.664 245.443 261.75 241.68C261.96 237.98 261.33 234.29 261.09 230.5C264.18 234.09 267.42 237.65 271.45 240.13C275.48 242.61 280.45 243.93 285.02 242.69C288.825 241.537 292.067 239.014 294.12 235.61C296.233 232.071 297.423 228.058 297.58 223.94C299.103 226.453 300.773 228.873 302.58 231.19C304.216 233.416 306.186 235.376 308.42 237C310.683 238.631 313.449 239.41 316.23 239.2C320.48 238.72 323.91 235.27 325.61 231.34C327.31 227.41 327.61 223.05 327.81 218.79C327.996 216.305 328.056 213.811 327.99 211.32C330.097 215.604 332.594 219.685 335.45 223.51C338.335 227.346 342.225 230.309 346.69 232.07C347.81 232.46 348.95 232.76 350.09 233.07C351.94 233.54 354.09 233.95 355.63 232.86C356.213 232.364 356.686 231.753 357.02 231.064C357.354 230.375 357.542 229.625 357.57 228.86C357.74 227.34 357.66 225.78 358.57 224.26C375.66 217.83 392.48 210.67 408.77 202.98C410.327 209.004 412.284 214.917 414.63 220.68C426.781 217.857 438.536 213.545 449.63 207.84C459.29 204.15 468.78 200.05 477.41 194.61C476.01 146.32 467.81 97.39 445.72 54.42C444.417 51.6215 442.709 49.0303 440.65 46.73C416.41 55.1764 392.843 65.4422 370.15 77.44C370.879 78.5883 371.306 79.9024 371.39 81.26C347.9 82.92 324.9 75 302.71 67.15C295.66 64.65 288.52 62.15 281.06 61.63C274.44 61.18 267.82 62.33 260.44 62.98C252.57 58.2 243.78 55.17 234.92 52.7C229.56 51.21 224.09 49.91 218.53 49.97C213.431 50.1923 208.385 51.1039 203.53 52.68C177.22 60.37 152.61 74.57 125.29 77.11C125.51 75.2833 125.727 73.4466 125.94 71.6C126.167 70.6265 126.047 69.6043 125.6 68.71C116.72 65.08 107.73 61.46 98.72 60.47Z" fill="white"/>
<path d="M464.73 193.46C464.644 193.474 464.556 193.474 464.47 193.46L440.39 184.39C440.206 184.321 440.056 184.182 439.975 184.003C439.893 183.824 439.886 183.619 439.955 183.435C440.024 183.251 440.163 183.101 440.342 183.02C440.522 182.938 440.726 182.931 440.91 183L465 192.03C465.091 192.063 465.175 192.115 465.247 192.18C465.318 192.246 465.376 192.326 465.417 192.414C465.458 192.502 465.481 192.598 465.485 192.695C465.489 192.792 465.474 192.889 465.44 192.98C465.385 193.123 465.287 193.246 465.16 193.331C465.033 193.417 464.883 193.462 464.73 193.46Z" fill="#010101"/>
<path d="M472.87 184.43C472.791 184.444 472.709 184.444 472.63 184.43C459.339 179.896 446.318 174.607 433.63 168.59C433.542 168.548 433.463 168.489 433.398 168.417C433.333 168.344 433.282 168.259 433.25 168.167C433.217 168.076 433.203 167.978 433.209 167.881C433.214 167.783 433.238 167.688 433.28 167.6C433.322 167.512 433.381 167.433 433.453 167.368C433.526 167.303 433.611 167.252 433.703 167.22C433.794 167.187 433.892 167.173 433.989 167.179C434.087 167.184 434.182 167.208 434.27 167.25C446.915 173.248 459.893 178.517 473.14 183.03C473.326 183.094 473.478 183.228 473.565 183.405C473.651 183.581 473.664 183.784 473.6 183.97C473.543 184.114 473.442 184.237 473.31 184.319C473.179 184.402 473.025 184.441 472.87 184.43Z" fill="#010101"/>
<path d="M474.92 170.23C474.844 170.244 474.766 170.244 474.69 170.23C460 165.38 445.25 159.88 431 153.86C430.906 153.823 430.821 153.767 430.749 153.696C430.678 153.625 430.622 153.54 430.584 153.446C430.547 153.353 430.529 153.252 430.532 153.151C430.534 153.051 430.558 152.951 430.6 152.86C430.638 152.767 430.695 152.683 430.766 152.612C430.837 152.541 430.922 152.486 431.015 152.448C431.109 152.411 431.208 152.393 431.309 152.395C431.409 152.397 431.508 152.419 431.6 152.46C445.84 158.46 460.51 163.95 475.2 168.76C475.292 168.789 475.378 168.837 475.452 168.9C475.526 168.963 475.586 169.04 475.63 169.126C475.674 169.213 475.7 169.307 475.707 169.404C475.714 169.501 475.701 169.598 475.67 169.69C475.625 169.852 475.526 169.993 475.39 170.091C475.253 170.19 475.088 170.238 474.92 170.23Z" fill="#010101"/>
<path d="M474.92 156.6C474.831 156.598 474.743 156.581 474.66 156.55C457.49 150.11 444.21 144.55 425.91 136.84C425.816 136.803 425.731 136.747 425.659 136.676C425.588 136.605 425.532 136.52 425.494 136.426C425.457 136.333 425.439 136.232 425.441 136.131C425.444 136.031 425.468 135.931 425.51 135.84C425.549 135.748 425.606 135.665 425.678 135.595C425.75 135.525 425.835 135.471 425.928 135.434C426.021 135.398 426.121 135.381 426.221 135.383C426.32 135.386 426.419 135.409 426.51 135.45C444.8 143.16 458.07 148.7 475.21 155.13C475.378 155.187 475.519 155.303 475.609 155.455C475.698 155.608 475.731 155.788 475.699 155.962C475.668 156.136 475.575 156.293 475.437 156.405C475.3 156.516 475.127 156.575 474.95 156.57L474.92 156.6Z" fill="#010101"/>
<path d="M470.66 141.2C470.564 141.199 470.468 141.179 470.38 141.14L421.21 121.14C421.116 121.103 421.031 121.047 420.959 120.976C420.887 120.905 420.831 120.821 420.792 120.727C420.754 120.634 420.735 120.534 420.736 120.433C420.738 120.332 420.759 120.232 420.8 120.14C420.837 120.046 420.893 119.961 420.964 119.889C421.035 119.818 421.12 119.762 421.214 119.724C421.307 119.687 421.408 119.669 421.508 119.672C421.609 119.674 421.708 119.698 421.8 119.74L470.97 139.74C471.132 139.803 471.267 139.921 471.351 140.073C471.435 140.225 471.463 140.402 471.429 140.572C471.396 140.743 471.303 140.896 471.168 141.006C471.033 141.115 470.864 141.173 470.69 141.17L470.66 141.2Z" fill="#010101"/>
<path d="M469.07 126.48C468.966 126.482 468.863 126.458 468.77 126.41L415.36 102.76C415.178 102.677 415.035 102.525 414.964 102.338C414.893 102.151 414.899 101.943 414.98 101.76C415.02 101.669 415.078 101.587 415.15 101.518C415.222 101.449 415.307 101.396 415.4 101.36C415.493 101.325 415.593 101.309 415.692 101.312C415.792 101.315 415.89 101.338 415.98 101.38L469.39 125.04C469.547 125.107 469.676 125.227 469.755 125.379C469.834 125.531 469.858 125.706 469.822 125.873C469.787 126.04 469.695 126.19 469.561 126.297C469.428 126.404 469.261 126.462 469.09 126.46L469.07 126.48Z" fill="#010101"/>
<path d="M463.86 107.97C463.756 107.971 463.653 107.947 463.56 107.9L409.67 83.68C409.581 83.6399 409.501 83.5828 409.435 83.5119C409.368 83.441 409.316 83.3576 409.282 83.2666C409.248 83.1756 409.232 83.0787 409.235 82.9815C409.238 82.8843 409.26 82.7886 409.3 82.7C409.34 82.6114 409.397 82.5315 409.468 82.4649C409.539 82.3983 409.622 82.3464 409.713 82.312C409.804 82.2777 409.901 82.2616 409.998 82.2647C410.096 82.2677 410.191 82.2899 410.28 82.33L464.17 106.55C464.261 106.59 464.343 106.648 464.412 106.72C464.48 106.793 464.533 106.878 464.568 106.971C464.602 107.065 464.618 107.164 464.613 107.263C464.608 107.363 464.583 107.46 464.54 107.55C464.476 107.676 464.379 107.781 464.259 107.855C464.139 107.929 464.001 107.969 463.86 107.97Z" fill="#010101"/>
<path d="M451.75 83.74C451.658 83.7428 451.565 83.7257 451.48 83.69C438.1 78.54 424.48 73.58 410.9 68.95C410.808 68.9185 410.723 68.8692 410.65 68.8049C410.578 68.7406 410.518 68.6626 410.475 68.5753C410.433 68.488 410.408 68.3932 410.401 68.2962C410.395 68.1992 410.409 68.1019 410.44 68.01C410.506 67.826 410.641 67.6749 410.817 67.589C410.992 67.5031 411.194 67.4891 411.38 67.55C424.94 72.19 438.61 77.15 452.01 82.31C452.17 82.3722 452.304 82.4883 452.388 82.6384C452.472 82.7885 452.502 82.9632 452.471 83.1324C452.44 83.3017 452.351 83.455 452.22 83.5658C452.088 83.6767 451.922 83.7383 451.75 83.74Z" fill="#010101"/>
<path d="M450.68 66.68C450.58 66.6803 450.482 66.6599 450.39 66.62L431.16 58.62C431.065 58.5843 430.979 58.5292 430.907 58.4582C430.834 58.3873 430.777 58.3021 430.74 58.2081C430.702 58.114 430.685 58.0132 430.688 57.9119C430.692 57.8107 430.716 57.7113 430.76 57.62C430.797 57.5262 430.853 57.4409 430.924 57.3693C430.995 57.2978 431.08 57.2416 431.174 57.2042C431.267 57.1667 431.368 57.1488 431.469 57.1515C431.569 57.1542 431.669 57.1775 431.76 57.22L450.99 65.22C451.146 65.2868 451.274 65.405 451.353 65.5548C451.432 65.7046 451.457 65.877 451.424 66.0433C451.392 66.2095 451.303 66.3594 451.173 66.468C451.043 66.5766 450.879 66.6373 450.71 66.64L450.68 66.68Z" fill="#010101"/>
<path d="M42.93 42.5C61.93 48.89 81.16 54.68 99.49 60.16C96.49 72.84 88.76 83.81 83.58 95.76C80.9432 102.149 78.6728 108.683 76.78 115.33C67.34 146.317 58.2967 177.407 49.65 208.6C32.7 202.79 19.54 199.81 1.37 196.6C18.11 144.53 33.21 94.52 42.93 42.5Z" fill="#AED3F0"/>
<g opacity="0.13">
<path d="M401.93 196.54C398.974 197.431 396.067 198.475 393.22 199.67C392.573 199.648 391.925 199.702 391.29 199.83C389.865 200.14 388.477 200.603 387.15 201.21C385.64 201.72 384.22 202.21 382.76 202.83C382.19 203.05 380.44 203.72 379.76 203.88L379.24 204.05C378.81 204.19 378.38 204.33 377.93 204.44H377.15C376.86 204.38 376.58 204.31 376.29 204.22C375.673 203.639 375.095 203.018 374.56 202.36C373.85 201.45 374.65 202.48 374.92 202.83C374.44 202.19 373.92 201.58 373.4 200.99C373.24 200.8 373.12 200.65 373 200.52C372.51 199.83 372.06 199.11 371.61 198.4C369.727 195.529 368.001 192.558 366.44 189.5C363.11 183.04 360.05 176.45 356.5 170.11C354.44 165.79 352.68 161.31 350.1 157.26C342.996 146.106 334.358 136.007 324.44 127.26C317.415 120.205 309.454 114.148 300.78 109.26C294.93 106.02 288.78 102.82 282 102.33C277.25 101.25 276.1 108.33 281 108.63C285.46 108.86 290.23 110.88 295.35 113.83C295.082 114.461 295.015 115.159 295.156 115.829C295.297 116.5 295.641 117.111 296.14 117.58C300.87 121.7 306.33 124.86 311.27 128.72C311.03 128.57 313.78 130.89 314.33 131.47C314.88 132.05 315.47 132.6 316.01 133.19C315.78 133.402 315.597 133.66 315.475 133.948C315.352 134.236 315.293 134.547 315.3 134.86C315.62 136.86 317.92 139.32 318.96 141.23C324.39 149.5 330.76 157.17 335.37 165.94C341.959 178.429 346.216 192.014 347.93 206.03C348.99 211.09 349.58 220.34 347.93 222.98C347.79 223.143 347.64 223.297 347.48 223.44L347.15 223.64L346.52 223.86C346.42 223.86 346.31 223.94 346.21 223.96H346.11C345.66 223.96 345.11 223.96 344.81 223.96L344.31 223.87C342.48 223.4 343.47 223.81 340.71 222.32C336.45 219.92 332.79 226.21 336.95 228.76C347.46 236.32 354.82 233.63 356.9 223.38C357.95 217.2 357.25 210.88 356.16 204.73L357.09 207.52C357.69 211.18 358.2 214.63 358.68 217.72C358.61 217.81 358.53 217.88 358.46 217.98C357.961 218.873 357.823 219.922 358.074 220.914C358.325 221.905 358.946 222.763 359.81 223.31C360.208 223.894 360.778 224.341 361.441 224.588C362.103 224.835 362.826 224.871 363.51 224.69C364.009 224.562 364.469 224.313 364.847 223.964C365.226 223.615 365.512 223.177 365.68 222.69C377.15 218.18 388.54 213.33 399.09 206.92C400.512 205.906 402.041 205.05 403.65 204.37C404.817 203.996 405.856 203.303 406.65 202.37C407.187 202.01 407.652 201.552 408.02 201.02C410 196.86 405.13 194.79 401.93 196.54Z" fill="#010101"/>
</g>
<g opacity="0.13">
<path d="M475.34 184.68C474.743 184.693 474.155 184.825 473.61 185.07C470.95 185.86 468.54 187.56 465.93 188.53C461.28 190.78 459.47 191.2 453.24 194.19C442.53 199.89 424.72 205.47 415.15 209.48C408.85 211.38 411.39 220.7 417.81 219.14C427.81 215.89 437.33 211.2 447.01 207.06C452.12 204.7 461.84 201.21 469.89 197.24C473.65 195.24 478.35 192.94 478.81 191.78C481.17 189.1 478.86 184.58 475.34 184.68Z" fill="#010101"/>
</g>
<g opacity="0.13">
<path d="M120.27 81.4C116.2 96.14 109.01 107.02 103.74 123.25C100.575 132.729 98.0822 142.42 96.28 152.25C95.12 156.6 94.28 161 93.28 165.4C92.61 169.29 91.46 173.29 92.17 177.24C92.4237 178.122 92.8557 178.943 93.4394 179.652C94.023 180.361 94.7459 180.942 95.5633 181.36C96.3807 181.778 97.2752 182.024 98.1914 182.082C99.1076 182.141 100.026 182.011 100.89 181.7C103.08 184 105.4 186.18 107.74 188.35V188.05C107.567 183.71 107.613 179.377 107.88 175.05C107.109 172.604 106.626 170.077 106.44 167.52C107.33 162.73 108.44 157.98 109.05 153.13C111.34 137.51 115.77 122.31 120.83 107.38C122.35 102.92 123.53 98.38 125.48 94.05C126.85 90.17 129.11 86.22 129.11 82.05C128.73 77.18 121.45 76.68 120.27 81.4Z" fill="#010101"/>
</g>
<g opacity="0.13">
<path d="M124.88 200.85C124.758 201.325 124.477 201.745 124.084 202.039C123.692 202.333 123.21 202.485 122.72 202.47C123.103 202.702 123.529 202.853 123.973 202.915C124.416 202.977 124.868 202.948 125.3 202.83C125.994 202.633 126.6 202.204 127.017 201.614C127.433 201.025 127.636 200.31 127.59 199.59C126.69 200.02 125.79 200.45 124.88 200.85Z" fill="#010101"/>
</g>
<g opacity="0.13">
<path d="M92.22 177.21C92.15 176.62 92.07 176.04 91.99 175.45C91.9874 176.044 92.0648 176.636 92.22 177.21Z" fill="#010101"/>
</g>
<g opacity="0.13">
<path d="M151.87 212.81C150.14 213.98 147.81 213.62 143.32 213.55C140.32 213.26 136.52 213.49 133.19 212.42C131 211.92 128.95 210.23 126.65 210.52C122.37 210.9 121.97 217.34 126.12 218.39C129.11 219.592 132.189 220.558 135.33 221.28C137.99 221.9 140.73 222.5 143.44 221.84C146.793 221.061 150.014 219.794 153 218.08C154.21 217.29 155.87 216.65 156.33 215.17C157 212.47 153.81 211.1 151.87 212.81Z" fill="#010101"/>
</g>
<g opacity="0.13">
<path d="M197.38 218.68C195.88 219.18 195.57 219.99 193.24 221.23C188.56 223.77 186.55 224.23 180.31 225.47C174.37 226.99 174.89 226.67 168.31 227.11C166.26 227.183 164.207 227.096 162.17 226.85C160.83 226.62 159.49 226.09 158.17 226.37C152.78 226.9 152.28 234.85 157.49 236.22C170.76 240.08 181.68 236.22 191.09 230.52C193.982 228.901 196.688 226.969 199.16 224.76C200.48 223.28 200.81 223.54 201.1 221.51C201.088 221.062 200.975 220.622 200.771 220.223C200.566 219.824 200.274 219.476 199.918 219.204C199.561 218.933 199.147 218.745 198.708 218.654C198.269 218.563 197.815 218.572 197.38 218.68Z" fill="#010101"/>
</g>
<g opacity="0.13">
<path d="M253.09 245.98C250.31 246.37 251 246.72 249.53 247.17C247.755 247.956 245.91 248.576 244.02 249.02C241.16 249.52 241.25 249.5 240.5 249.58C240.774 249.221 240.969 248.809 241.073 248.369C241.176 247.93 241.186 247.473 241.1 247.03C240.99 246.145 240.56 245.331 239.892 244.742C239.223 244.152 238.361 243.828 237.47 243.83C235.29 243.96 233.64 245.76 231.65 246.54C228.776 247.925 225.801 249.089 222.75 250.02C219.533 250.958 216.201 251.443 212.85 251.46C210.95 251.4 209.09 250.17 207.35 249.96C210.832 248.541 214.179 246.81 217.35 244.79C220.944 242.535 224.249 239.848 227.19 236.79C227.482 236.521 227.718 236.197 227.885 235.836C228.052 235.476 228.147 235.086 228.163 234.689C228.179 234.292 228.117 233.895 227.98 233.522C227.843 233.15 227.634 232.807 227.365 232.515C227.096 232.223 226.772 231.986 226.411 231.82C226.051 231.653 225.661 231.558 225.264 231.542C224.867 231.526 224.47 231.588 224.098 231.725C223.725 231.862 223.382 232.071 223.09 232.34C223.29 232.19 223.8 231.8 223.49 232C222.01 232.92 220.49 233.84 219.01 234.72C210.34 240.3 198.91 243.56 191.47 244.72C189.717 244.988 187.939 245.062 186.17 244.94H185.88H185.68C184.34 244.81 183.02 244.15 181.68 244.32C178.48 244.6 178.17 249.42 181.28 250.21C184.05 251.29 186.941 252.028 189.89 252.41C193.031 252.607 196.184 252.452 199.29 251.95C200.962 251.808 202.616 251.506 204.23 251.05C202.72 252.7 202.77 255.76 205.02 256.96C213.1 261.04 221.8 260.2 229.85 256.55C231.32 255.967 232.741 255.268 234.1 254.46C234.089 255.715 234.577 256.924 235.456 257.82C236.336 258.716 237.535 259.227 238.79 259.24C243.79 258.6 249.25 258.31 253.51 255.24C254.77 254.24 256.43 253.44 256.98 251.86C257.25 251.217 257.357 250.518 257.291 249.823C257.226 249.129 256.991 248.462 256.606 247.88C256.222 247.299 255.699 246.821 255.086 246.49C254.473 246.158 253.787 245.983 253.09 245.98Z" fill="#010101"/>
</g>
<g opacity="0.13">
<path d="M293.81 227.22C290.71 228.8 291.46 229.1 289.46 230.35C286.46 232.42 286.88 232.18 282.56 233.29C279.02 233.89 281.16 233.77 278.11 233.82C277.75 233.82 277.4 233.82 277.04 233.75C276.68 233.68 276.16 233.59 275.8 233.49C273.23 233.08 270.51 231.16 267.99 232.69C264.67 234.48 265.37 239.88 269.05 240.77C272.43 241.77 275.91 242.77 279.46 242.52C283.731 242.164 287.84 240.726 291.4 238.34C293.098 237.117 294.73 235.805 296.29 234.41C297.42 233.49 298.55 232.35 298.49 230.78C298.481 230.214 298.343 229.657 298.088 229.152C297.832 228.647 297.465 228.206 297.015 227.863C296.564 227.52 296.042 227.284 295.486 227.173C294.931 227.062 294.358 227.078 293.81 227.22Z" fill="#010101"/>
</g>
<g opacity="0.13">
<path d="M328.81 214.97C328.82 214.035 328.523 213.123 327.965 212.374C327.407 211.624 326.618 211.078 325.72 210.82H325.43C325.43 207.33 325.5 203.82 324.63 200.4C323.34 195.08 320.44 190.4 318.05 185.55C315.895 180.37 312.939 175.562 309.29 171.3C308.91 171.013 308.458 170.836 307.985 170.79C307.511 170.743 307.034 170.827 306.605 171.034C306.176 171.24 305.812 171.561 305.554 171.961C305.295 172.361 305.152 172.824 305.14 173.3C305.28 175.07 306.89 176.3 307.7 177.82C312.24 184.44 313.77 189.39 315.94 197.32C318.58 205.65 319.06 209.68 318.28 218.32V218.58C318.21 218.97 318.13 219.36 318.05 219.75C317.992 220.031 317.915 220.309 317.82 220.58C317.39 221.29 316.92 221.98 316.44 222.66C315.644 223.644 314.796 224.586 313.9 225.48C313.75 225.58 313.59 225.67 313.45 225.75C312.07 225.88 311.05 225.83 307.4 224.64C306.4 224.25 306.15 224.13 307.3 224.64C305.46 224 303.79 222.72 301.87 222.38C297.55 221.6 295.44 227.84 299.26 229.96C300.6 230.64 302.08 231.31 303.38 231.88C303.505 232.603 303.787 233.289 304.207 233.891C304.627 234.492 305.174 234.994 305.81 235.36C306.13 235.54 306.46 235.67 306.81 235.82C306.87 236.756 307.227 237.649 307.83 238.369C308.432 239.088 309.249 239.596 310.16 239.82C311.978 240.474 313.928 240.673 315.84 240.4C316.584 240.213 317.308 239.952 318 239.62C319.91 238.79 321.9 237.62 322.73 235.71C323.168 234.82 323.243 233.795 322.94 232.85C323.655 232.106 324.093 231.139 324.18 230.11C326.073 227.609 327.434 224.747 328.18 221.7C328.606 219.599 328.844 217.464 328.89 215.32C328.895 215.243 328.895 215.167 328.89 215.09V215.01L328.81 214.97Z" fill="#010101"/>
</g>
<path d="M78.46 217.07C78.3271 217.085 78.193 217.085 78.06 217.07C64.36 214.58 50.2 212.01 36.22 208.2C30.81 206.4 25.59 205.2 20.07 203.95C13.7849 202.645 7.5811 200.976 1.49003 198.95C1.20966 198.851 0.951563 198.697 0.730475 198.499C0.509387 198.3 0.329639 198.059 0.201494 197.791C0.0733489 197.522 -0.000682954 197.231 -0.0163759 196.935C-0.0320689 196.638 0.0108846 196.34 0.110033 196.06C0.209181 195.78 0.362582 195.522 0.561476 195.3C0.760371 195.079 1.00086 194.9 1.26923 194.771C1.53759 194.643 1.82856 194.569 2.12553 194.554C2.42251 194.538 2.71966 194.581 3.00003 194.68C8.93054 196.655 14.9707 198.285 21.09 199.56C26.48 200.79 32.09 202.06 37.55 203.89C50.55 207.43 63.87 209.89 76.84 212.27C82.39 189.68 90 167.52 97.37 146.11C101.75 133.38 106.28 120.22 110.37 106.91L110.43 106.75C111.81 103.3 113.3 99.91 114.74 96.63C118.63 87.76 122.31 79.38 124.13 69.63C124.048 69.5166 123.938 69.4268 123.81 69.37C123.554 69.368 123.3 69.3206 123.06 69.23C111 64.68 98.29 61.27 86 58.02C71.5 54.18 56.5 50.2 41.94 44.02C41.6708 43.9071 41.4265 43.7422 41.221 43.5349C41.0155 43.3275 40.8529 43.0817 40.7424 42.8115C40.6319 42.5413 40.5757 42.2519 40.577 41.96C40.5783 41.6681 40.6371 41.3792 40.75 41.11C40.863 40.8408 41.0278 40.5965 41.2352 40.391C41.4426 40.1855 41.6884 40.0228 41.9586 39.9123C42.2288 39.8018 42.5181 39.7457 42.8101 39.747C43.102 39.7483 43.3908 39.8071 43.66 39.92C57.94 45.92 72.78 49.92 87.14 53.68C99.41 56.93 112.14 60.3 124.35 64.94C125.497 65.1105 126.55 65.6746 127.327 66.5357C128.104 67.3968 128.558 68.5013 128.61 69.66C128.62 69.7898 128.62 69.9202 128.61 70.05C126.72 80.44 122.72 89.55 118.85 98.37C117.44 101.59 115.98 104.91 114.64 108.26C110.49 121.61 105.96 134.77 101.58 147.5C93.68 170.5 86.22 192.16 80.63 215.32C80.521 215.815 80.2466 216.258 79.8522 216.576C79.4578 216.894 78.9667 217.068 78.46 217.07Z" fill="#010101"/>
<path d="M50.35 209.99C50.1677 209.991 49.986 209.968 49.81 209.92C49.5272 209.85 49.2611 209.725 49.0269 209.551C48.7927 209.378 48.5951 209.16 48.4455 208.91C48.2958 208.66 48.1971 208.383 48.155 208.094C48.1129 207.806 48.1282 207.512 48.2 207.23C60.96 156.34 78.92 102.23 97.48 58.83C97.718 58.2979 98.1557 57.8808 98.6986 57.6687C99.2414 57.4566 99.846 57.4665 100.382 57.6962C100.917 57.926 101.341 58.3572 101.562 58.8967C101.782 59.4362 101.781 60.0408 101.56 60.58C83.09 103.79 65.21 157.68 52.5 208.31C52.3814 208.79 52.105 209.217 51.7152 209.521C51.3254 209.826 50.8447 209.991 50.35 209.99Z" fill="#010101"/>
<path d="M414.35 223.54C414.001 223.541 413.657 223.455 413.35 223.29C413.081 223.153 412.843 222.963 412.65 222.731C412.458 222.499 412.315 222.23 412.23 221.94C403.41 191.6 394.08 161.28 384.23 129.19C379.11 112.55 373.82 95.35 368.54 77.94C368.392 77.4512 368.417 76.9259 368.612 76.4537C368.807 75.9815 369.16 75.5915 369.61 75.35C392.166 63.1238 415.68 52.7562 439.92 44.35C440.196 44.2548 440.488 44.2149 440.779 44.2324C441.07 44.25 441.355 44.3248 441.617 44.4524C441.88 44.5801 442.114 44.7582 442.308 44.9766C442.501 45.1949 442.65 45.4492 442.745 45.725C442.84 46.0008 442.88 46.2926 442.863 46.5838C442.845 46.8751 442.77 47.16 442.643 47.4223C442.515 47.6846 442.337 47.9192 442.118 48.1127C441.9 48.3062 441.646 48.4548 441.37 48.55C417.948 56.663 395.21 66.6278 373.37 78.35C378.47 95.16 383.58 111.76 388.52 127.84C398.16 159.16 407.27 188.78 415.9 218.4C436.55 211.01 457.07 202.58 476.9 193.32C477.166 193.162 477.462 193.062 477.77 193.025C478.077 192.989 478.388 193.017 478.684 193.108C478.98 193.199 479.253 193.351 479.487 193.553C479.72 193.756 479.909 194.006 480.041 194.286C480.172 194.566 480.244 194.87 480.251 195.179C480.258 195.489 480.2 195.796 480.082 196.082C479.963 196.367 479.786 196.625 479.562 196.838C479.338 197.052 479.071 197.216 478.78 197.32C458.09 206.98 436.68 215.73 415.15 223.32C414.901 223.446 414.629 223.521 414.35 223.54Z" fill="#010101"/>
<path d="M441.07 211.92C440.581 211.92 440.106 211.759 439.718 211.46C439.331 211.162 439.054 210.743 438.93 210.27C426 161.53 411.19 112.58 395 64.79C394.81 64.2317 394.85 63.621 395.111 63.0921C395.372 62.5633 395.832 62.1596 396.39 61.97C396.948 61.7804 397.559 61.8203 398.088 62.0809C398.617 62.3416 399.02 62.8017 399.21 63.36C415.42 111.25 430.21 160.29 443.21 209.13C443.3 209.459 443.312 209.805 443.245 210.139C443.179 210.474 443.036 210.789 442.828 211.059C442.62 211.329 442.352 211.548 442.045 211.697C441.738 211.846 441.401 211.923 441.06 211.92H441.07Z" fill="#010101"/>
<path d="M195.31 145.82C190.2 145.82 184.22 143.6 181.55 138.41C176.77 129.14 185.75 118.73 188.7 115.31C200.88 101.19 213.48 86.58 229.16 75.56C246.84 63.14 266.16 57.56 283.55 59.72C292.45 60.85 300.91 63.98 309.1 67.01C311.74 68.01 314.47 69.01 317.16 69.92C334.207 75.7616 352.071 78.87 370.09 79.13C370.679 79.13 371.243 79.3639 371.66 79.7802C372.076 80.1966 372.31 80.7612 372.31 81.35C372.31 81.9388 372.076 82.5035 371.66 82.9198C371.243 83.3361 370.679 83.57 370.09 83.57C351.602 83.305 333.271 80.1155 315.78 74.12C313.04 73.18 310.28 72.12 307.62 71.17C299.62 68.23 291.44 65.17 283.05 64.12C266.75 62.05 248.54 67.41 231.78 79.19C216.55 89.9 204.13 104.29 192.12 118.19C185.41 125.97 183.26 131.91 185.56 136.36C187.49 140.13 192.28 141.59 196.13 141.36C200.55 141.09 204.71 139.16 209.31 136.85C212.37 135.31 215.423 133.787 218.47 132.28C237.14 122.99 254.78 114.21 271.47 102.41C271.708 102.242 271.977 102.122 272.262 102.058C272.547 101.994 272.841 101.987 273.128 102.037C273.416 102.086 273.691 102.192 273.937 102.348C274.184 102.504 274.397 102.707 274.565 102.945C274.733 103.183 274.853 103.452 274.917 103.737C274.981 104.022 274.988 104.316 274.939 104.603C274.889 104.891 274.783 105.166 274.627 105.412C274.471 105.659 274.268 105.872 274.03 106.04C257.03 118.04 239.23 126.88 220.4 136.25C217.4 137.76 214.31 139.25 211.25 140.82C206.4 143.26 201.61 145.48 196.35 145.82C196 145.81 195.66 145.82 195.31 145.82Z" fill="#010101"/>
<path d="M359.51 226.74C358.993 226.743 358.492 226.565 358.092 226.238C357.692 225.911 357.419 225.455 357.319 224.948C357.22 224.44 357.3 223.915 357.547 223.46C357.793 223.006 358.191 222.653 358.67 222.46C374.67 215.88 390.75 209.04 406.57 202.12C407.11 201.884 407.721 201.872 408.27 202.087C408.818 202.301 409.259 202.725 409.495 203.265C409.731 203.805 409.743 204.416 409.528 204.965C409.314 205.513 408.89 205.954 408.35 206.19C392.49 213.12 376.35 219.98 360.35 226.57C360.083 226.678 359.798 226.735 359.51 226.74Z" fill="#010101"/>
<path d="M353.32 235.68C352.889 235.676 352.458 235.649 352.03 235.6C344.66 234.81 337.41 229.92 332.14 222.18C328.76 217.18 326.42 211.7 324.14 206.35C323.43 204.67 322.71 202.98 321.97 201.35C315.956 187.888 307.774 175.503 297.75 164.69C297.522 164.483 297.34 164.231 297.215 163.949C297.09 163.668 297.024 163.364 297.023 163.056C297.022 162.748 297.085 162.443 297.208 162.161C297.331 161.878 297.511 161.625 297.737 161.416C297.964 161.207 298.231 161.048 298.522 160.948C298.813 160.848 299.122 160.809 299.429 160.835C299.736 160.861 300.034 160.95 300.304 161.097C300.575 161.244 300.812 161.446 301 161.69C311.349 172.861 319.795 185.654 326 199.56C326.76 201.25 327.48 202.97 328.21 204.68C330.49 210.07 332.64 215.15 335.77 219.74C340.3 226.41 346.39 230.6 352.47 231.25C353.1 231.367 353.749 231.311 354.35 231.09C354.91 230.74 355.17 229.57 355.11 227.63C354.301 201.565 346.023 176.28 331.262 154.782C316.5 133.284 295.876 116.477 271.84 106.36C271.561 106.255 271.306 106.094 271.09 105.888C270.874 105.681 270.702 105.434 270.584 105.16C270.467 104.885 270.405 104.59 270.404 104.292C270.403 103.993 270.462 103.698 270.578 103.423C270.693 103.147 270.863 102.898 271.078 102.691C271.292 102.483 271.545 102.32 271.824 102.212C272.102 102.105 272.4 102.054 272.698 102.064C272.996 102.074 273.289 102.144 273.56 102.27C298.378 112.72 319.674 130.074 334.919 152.271C350.164 174.468 358.716 200.575 359.56 227.49C359.56 228.98 359.73 232.95 356.74 234.85C355.7 235.442 354.515 235.729 353.32 235.68Z" fill="#010101"/>
<path d="M242.43 259.98C238.327 260.071 234.313 258.782 231.03 256.32C230.554 255.973 230.235 255.45 230.144 254.868C230.053 254.286 230.198 253.691 230.545 253.215C230.892 252.739 231.415 252.42 231.997 252.329C232.579 252.238 233.174 252.383 233.65 252.73C237.79 255.73 241.26 255.62 244.33 255.49H244.65C249.371 255.256 253.81 253.168 257 249.68C257.794 248.813 258.399 247.79 258.774 246.676C259.15 245.561 259.288 244.381 259.18 243.21C259.18 243.11 259.18 243.01 259.18 242.91C259.104 238.474 258.683 234.051 257.92 229.68C257.847 229.208 257.928 228.725 258.151 228.302C258.374 227.88 258.727 227.541 259.159 227.335C259.59 227.13 260.076 227.069 260.545 227.162C261.013 227.254 261.44 227.496 261.76 227.85C265.12 231.56 268.6 235.4 272.84 237.94C277.27 240.58 282.17 241.33 285.97 239.94C291.2 238.03 296.56 228.94 295.38 224.01C295.286 223.718 295.253 223.409 295.285 223.103C295.316 222.798 295.41 222.502 295.562 222.235C295.713 221.968 295.918 221.735 296.164 221.551C296.411 221.367 296.692 221.236 296.991 221.167C297.291 221.097 297.601 221.091 297.903 221.148C298.205 221.204 298.492 221.323 298.745 221.496C298.999 221.669 299.214 221.893 299.376 222.154C299.539 222.415 299.646 222.706 299.69 223.01C301.56 230.77 294.29 241.67 287.5 244.15C282.38 246.02 276.21 245.15 270.57 241.79C267.893 240.14 265.425 238.173 263.22 235.93C263.44 238.14 263.59 240.47 263.59 242.81C263.769 244.572 263.577 246.351 263.025 248.034C262.474 249.717 261.577 251.266 260.39 252.58C258.419 254.788 256.028 256.581 253.356 257.855C250.685 259.129 247.786 259.858 244.83 260H244.51C243.88 259.95 243.18 259.98 242.43 259.98Z" fill="#010101"/>
<path d="M315.47 241.8C313.661 241.751 311.877 241.365 310.21 240.66C301.82 237.41 297.37 228.26 293.06 219.42C290.06 213.29 286.99 206.95 282.77 203.2C282.553 203.003 282.376 202.765 282.251 202.5C282.125 202.235 282.053 201.948 282.039 201.655C282.025 201.362 282.068 201.069 282.167 200.793C282.266 200.516 282.418 200.262 282.615 200.045C282.812 199.828 283.05 199.651 283.315 199.526C283.58 199.4 283.867 199.328 284.16 199.314C284.453 199.3 284.746 199.343 285.022 199.442C285.299 199.541 285.553 199.693 285.77 199.89C290.63 204.22 293.92 210.96 297.09 217.47C301.21 225.92 305.09 233.9 311.86 236.47C314.76 237.6 318.38 239 323.19 230.88C324.51 228.66 324.86 225.88 325.05 223.16C325.53 216.23 323.67 209.09 321.87 202.16C321.6 201.1 321.32 200.05 321.06 199C320.974 198.713 320.947 198.412 320.981 198.114C321.015 197.817 321.108 197.529 321.256 197.268C321.404 197.008 321.602 196.78 321.841 196.598C322.079 196.417 322.351 196.285 322.641 196.212C322.932 196.138 323.234 196.124 323.53 196.17C323.826 196.217 324.109 196.322 324.363 196.481C324.617 196.639 324.836 196.848 325.008 197.094C325.179 197.339 325.299 197.617 325.36 197.91L326.17 201.04C328.06 208.29 330.01 215.79 329.47 223.43C329.25 226.68 328.8 230.09 327.01 233.11C323 239.84 319.11 241.8 315.47 241.8Z" fill="#010101"/>
<path d="M171.12 240.47H170.54C162.23 240.28 155.03 235.33 153.03 228.47C152.346 225.938 152.21 223.289 152.63 220.7C147.986 223.563 142.456 224.63 137.08 223.7C128.83 222.22 121.9 215.45 120.6 207.6C120.06 204.36 121.08 202.55 122.04 201.6C122.466 201.223 123.02 201.025 123.588 201.044C124.156 201.064 124.694 201.301 125.093 201.706C125.492 202.111 125.72 202.653 125.73 203.221C125.741 203.79 125.533 204.34 125.15 204.76C124.95 204.96 124.78 205.63 124.98 206.85C125.98 212.91 131.4 218.15 137.86 219.31C140.958 219.867 144.149 219.576 147.096 218.469C150.042 217.362 152.635 215.479 154.6 213.02C154.894 212.634 155.306 212.354 155.773 212.223C156.24 212.091 156.737 212.115 157.19 212.29C157.837 211.947 158.505 211.647 159.19 211.39C168.059 207.919 177.394 205.782 186.89 205.05C194.53 204.45 199.62 206.3 202 210.53C203.183 212.797 203.597 215.387 203.18 217.91C202.701 221.611 201.143 225.089 198.7 227.91C196.315 230.45 193.519 232.57 190.43 234.18C185.32 237.14 178.52 240.47 171.12 240.47ZM157.9 217.17C156.9 220.92 156.41 224.17 157.29 227.17C158.92 232.8 165.29 235.88 170.64 236C177.17 236.17 183.48 233.05 188.25 230.33C190.898 228.953 193.303 227.152 195.37 225C197.236 222.833 198.425 220.166 198.79 217.33C199.062 215.751 198.839 214.127 198.15 212.68C196.33 209.45 191.22 209.14 187.25 209.45C178.195 210.135 169.292 212.157 160.83 215.45C159.748 215.822 158.752 216.407 157.9 217.17Z" fill="#010101"/>
<path d="M192.89 255.48C189.572 255.527 186.302 254.684 183.42 253.04C180.746 251.426 178.574 249.1 177.148 246.322C175.721 243.544 175.095 240.423 175.34 237.31C175.403 236.727 175.691 236.192 176.144 235.818C176.596 235.445 177.176 235.262 177.76 235.31C178.344 235.366 178.883 235.651 179.257 236.102C179.632 236.554 179.813 237.136 179.76 237.72C179.595 239.993 180.059 242.268 181.099 244.296C182.14 246.324 183.717 248.028 185.66 249.22C189.42 251.44 194.54 251.65 199.66 249.82C204.5 248.09 208.73 244.96 213 241.62C219.07 236.87 224.76 231.55 225.28 224.84C225.347 224.402 225.316 223.955 225.19 223.53C224.889 223.059 224.463 222.682 223.96 222.44C220.75 220.52 216.41 220.04 211.75 221.09C207.63 222.02 204.26 223.76 200.37 225.78L199.71 226.12C199.448 226.278 199.157 226.381 198.854 226.421C198.551 226.461 198.243 226.439 197.95 226.354C197.656 226.27 197.383 226.126 197.147 225.932C196.912 225.737 196.719 225.496 196.581 225.223C196.443 224.95 196.362 224.652 196.345 224.347C196.327 224.042 196.373 223.737 196.479 223.45C196.585 223.164 196.749 222.902 196.961 222.682C197.173 222.461 197.428 222.287 197.71 222.17L198.37 221.83C202.37 219.77 206.14 217.83 210.81 216.76C216.59 215.45 222.09 216.12 226.28 218.63C227.486 219.205 228.475 220.154 229.1 221.336C229.726 222.517 229.953 223.869 229.75 225.19C229.1 233.61 222.65 239.74 215.75 245.12C211.37 248.55 206.64 252.06 201.16 254C198.508 254.962 195.711 255.463 192.89 255.48Z" fill="#010101"/>
<path d="M218.8 261.79C215.616 261.791 212.475 261.059 209.62 259.65C206.32 258.01 202.89 254.73 203.16 250.44C203.21 249.862 203.484 249.327 203.923 248.948C204.363 248.57 204.933 248.378 205.512 248.415C206.091 248.452 206.632 248.713 207.021 249.144C207.409 249.575 207.613 250.14 207.59 250.72C207.45 252.84 209.66 254.72 211.59 255.67C214.642 257.179 218.092 257.69 221.45 257.13C226.75 256.23 231.32 252.77 235.1 249.5C239.36 245.81 241.18 242.76 240.83 239.89C240.43 236.54 236.78 234.28 233.63 234.11C230.48 233.94 227.22 235.24 223.42 238.21C223.191 238.397 222.927 238.537 222.643 238.621C222.359 238.705 222.062 238.731 221.768 238.698C221.474 238.665 221.189 238.574 220.931 238.429C220.672 238.285 220.446 238.09 220.264 237.857C220.082 237.624 219.948 237.356 219.871 237.071C219.794 236.785 219.775 236.487 219.814 236.194C219.854 235.901 219.952 235.618 220.102 235.363C220.253 235.109 220.453 234.886 220.69 234.71C223.64 232.4 228.23 229.36 233.87 229.71C238.87 229.99 244.55 233.71 245.24 239.39C245.95 245.26 241.45 249.91 238 252.9C234 256.35 228.61 260.46 222.2 261.55C221.075 261.725 219.938 261.805 218.8 261.79Z" fill="#010101"/>
<path d="M156.62 215.12C156.097 215.119 155.591 214.934 155.191 214.597C154.791 214.261 154.521 213.795 154.43 213.28C153.65 208.74 148.66 206.01 145.75 204.78C137.26 201.21 129.89 201.32 123.83 205.13C123.351 205.438 122.772 205.55 122.214 205.442C121.655 205.334 121.159 205.014 120.83 204.55C112.895 193.23 102.026 184.287 89.39 178.68C89.1146 178.569 88.8641 178.405 88.6534 178.196C88.4428 177.986 88.2762 177.737 88.1635 177.463C88.0508 177.188 87.9944 176.894 87.9975 176.597C88.0006 176.3 88.0632 176.007 88.1816 175.735C88.2999 175.462 88.4717 175.217 88.6867 175.012C88.9017 174.807 89.1555 174.648 89.4332 174.543C89.7109 174.438 90.0068 174.39 90.3034 174.402C90.6 174.413 90.8913 174.484 91.16 174.61C103.925 180.243 114.994 189.117 123.27 200.35C130.27 196.75 138.37 196.86 147.48 200.7C153.93 203.42 157.96 207.62 158.81 212.53C158.86 212.818 158.853 213.112 158.79 213.397C158.726 213.682 158.606 213.952 158.438 214.191C158.27 214.429 158.056 214.632 157.81 214.789C157.563 214.945 157.288 215.05 157 215.1L156.62 215.12Z" fill="#010101"/>
<path d="M124.54 79.91C123.997 79.9069 123.474 79.7049 123.07 79.3423C122.666 78.9796 122.408 78.4813 122.347 77.9418C122.285 77.4023 122.424 76.8589 122.736 76.4144C123.048 75.97 123.512 75.6553 124.04 75.53C148.59 69.85 171.18 62.05 190.04 55.17L191.72 54.55C198.89 51.93 206.3 49.21 214.1 48.35C232.1 46.35 248.69 54.1 263.33 60.92C263.805 61.2014 264.158 61.6497 264.32 62.1775C264.483 62.7053 264.442 63.2745 264.208 63.7742C263.973 64.2739 263.56 64.6682 263.05 64.88C262.54 65.0919 261.97 65.1061 261.45 64.92C247.34 58.34 231.34 50.92 214.59 52.73C207.32 53.53 200.17 56.16 193.25 58.73L191.56 59.35C172.56 66.28 149.84 74.14 125.05 79.87C124.882 79.8987 124.711 79.9121 124.54 79.91Z" fill="#010101"/>
<path d="M168.55 41.4201C168.068 41.4221 167.598 41.2669 167.211 40.978C166.825 40.6891 166.543 40.2822 166.409 39.8189C166.274 39.3556 166.294 38.861 166.466 38.4102C166.638 37.9593 166.951 37.5766 167.36 37.3201C187.725 24.5122 211.557 18.3254 235.58 19.6101C236.169 19.6432 236.72 19.9089 237.113 20.3487C237.506 20.7884 237.708 21.3663 237.675 21.9551C237.642 22.5438 237.376 23.0953 236.936 23.4882C236.497 23.8811 235.919 24.0832 235.33 24.0501C212.231 22.7961 189.312 28.7355 169.73 41.0501C169.381 41.2858 168.971 41.4144 168.55 41.4201Z" fill="#010101"/>
<path d="M154.63 19.6801C154.152 19.6796 153.686 19.5248 153.303 19.2385C152.92 18.9522 152.64 18.5498 152.504 18.0913C152.368 17.6327 152.383 17.1425 152.548 16.6936C152.714 16.2447 153.019 15.8612 153.42 15.6001C165.444 7.82671 178.901 2.53632 193 0.0400551C193.57 -0.0400466 194.148 0.104236 194.614 0.442483C195.079 0.78073 195.395 1.28651 195.495 1.8532C195.595 2.4199 195.471 3.00323 195.149 3.48021C194.827 3.95719 194.333 4.29058 193.77 4.41006C180.23 6.82712 167.31 11.9271 155.77 19.41C155.422 19.6043 155.028 19.6978 154.63 19.6801Z" fill="#010101"/>
<path d="M296.66 263.36C296.071 263.369 295.503 263.144 295.08 262.735C294.657 262.325 294.414 261.764 294.405 261.175C294.396 260.586 294.621 260.018 295.03 259.595C295.44 259.172 296.001 258.929 296.59 258.92C309.582 258.497 322.072 253.805 332.13 245.57C332.355 245.385 332.615 245.246 332.894 245.161C333.173 245.076 333.465 245.047 333.756 245.075C334.046 245.104 334.328 245.189 334.585 245.326C334.842 245.463 335.07 245.65 335.255 245.875C335.44 246.1 335.579 246.36 335.664 246.639C335.749 246.918 335.778 247.211 335.75 247.501C335.721 247.791 335.636 248.073 335.499 248.33C335.362 248.587 335.175 248.815 334.95 249C324.134 257.857 310.702 262.904 296.73 263.36H296.66Z" fill="#010101"/>
<path d="M464.73 193.46C464.644 193.474 464.556 193.474 464.47 193.46L440.39 184.39C440.206 184.321 440.056 184.182 439.975 184.003C439.893 183.824 439.886 183.619 439.955 183.435C440.024 183.251 440.163 183.101 440.342 183.02C440.522 182.938 440.726 182.931 440.91 183L465 192.03C465.091 192.063 465.175 192.115 465.247 192.18C465.318 192.246 465.376 192.326 465.417 192.414C465.458 192.502 465.481 192.598 465.485 192.695C465.489 192.792 465.474 192.889 465.44 192.98C465.385 193.123 465.287 193.246 465.16 193.331C465.033 193.417 464.883 193.462 464.73 193.46Z" fill="#010101"/>
<path d="M472.87 184.43C472.791 184.444 472.709 184.444 472.63 184.43C459.339 179.896 446.318 174.607 433.63 168.59C433.542 168.548 433.463 168.489 433.398 168.417C433.333 168.344 433.282 168.259 433.25 168.167C433.217 168.076 433.203 167.978 433.209 167.881C433.214 167.783 433.238 167.688 433.28 167.6C433.322 167.512 433.381 167.433 433.453 167.368C433.526 167.303 433.611 167.252 433.703 167.22C433.794 167.187 433.892 167.173 433.989 167.179C434.087 167.184 434.182 167.208 434.27 167.25C446.915 173.248 459.893 178.517 473.14 183.03C473.326 183.094 473.478 183.228 473.565 183.405C473.651 183.581 473.664 183.784 473.6 183.97C473.543 184.114 473.442 184.237 473.31 184.319C473.179 184.402 473.025 184.441 472.87 184.43Z" fill="#010101"/>
<path d="M474.92 170.23C474.844 170.244 474.766 170.244 474.69 170.23C460 165.38 445.25 159.88 431 153.86C430.906 153.823 430.821 153.767 430.749 153.696C430.678 153.625 430.622 153.54 430.584 153.446C430.547 153.353 430.529 153.252 430.532 153.151C430.534 153.051 430.558 152.951 430.6 152.86C430.638 152.767 430.695 152.683 430.766 152.612C430.837 152.541 430.922 152.486 431.015 152.448C431.109 152.411 431.208 152.393 431.309 152.395C431.409 152.397 431.508 152.419 431.6 152.46C445.84 158.46 460.51 163.95 475.2 168.76C475.292 168.789 475.378 168.837 475.452 168.9C475.526 168.963 475.586 169.04 475.63 169.126C475.674 169.213 475.7 169.307 475.707 169.404C475.714 169.501 475.701 169.598 475.67 169.69C475.625 169.852 475.526 169.993 475.39 170.091C475.253 170.19 475.088 170.238 474.92 170.23Z" fill="#010101"/>
<path d="M474.92 156.6C474.831 156.598 474.743 156.581 474.66 156.55C457.49 150.11 444.21 144.55 425.91 136.84C425.816 136.803 425.731 136.747 425.659 136.676C425.588 136.605 425.532 136.52 425.494 136.426C425.457 136.333 425.439 136.232 425.441 136.131C425.444 136.031 425.468 135.931 425.51 135.84C425.549 135.748 425.606 135.665 425.678 135.595C425.75 135.525 425.835 135.471 425.928 135.434C426.021 135.398 426.121 135.381 426.221 135.383C426.32 135.386 426.419 135.409 426.51 135.45C444.8 143.16 458.07 148.7 475.21 155.13C475.378 155.187 475.519 155.303 475.609 155.455C475.698 155.608 475.731 155.788 475.699 155.962C475.668 156.136 475.575 156.293 475.437 156.405C475.3 156.516 475.127 156.575 474.95 156.57L474.92 156.6Z" fill="#010101"/>
<path d="M470.66 141.2C470.564 141.199 470.468 141.179 470.38 141.14L421.21 121.14C421.116 121.103 421.031 121.047 420.959 120.976C420.887 120.905 420.831 120.821 420.792 120.727C420.754 120.634 420.735 120.534 420.736 120.433C420.738 120.332 420.759 120.232 420.8 120.14C420.837 120.046 420.893 119.961 420.964 119.889C421.035 119.818 421.12 119.762 421.214 119.724C421.307 119.687 421.408 119.669 421.508 119.672C421.609 119.674 421.708 119.698 421.8 119.74L470.97 139.74C471.132 139.803 471.267 139.921 471.351 140.073C471.435 140.225 471.463 140.402 471.429 140.572C471.396 140.743 471.303 140.896 471.168 141.006C471.033 141.115 470.864 141.173 470.69 141.17L470.66 141.2Z" fill="#010101"/>
<path d="M469.07 126.48C468.966 126.482 468.863 126.458 468.77 126.41L415.36 102.76C415.178 102.677 415.035 102.525 414.964 102.338C414.893 102.151 414.899 101.943 414.98 101.76C415.02 101.669 415.078 101.587 415.15 101.518C415.222 101.449 415.307 101.396 415.4 101.36C415.493 101.325 415.593 101.309 415.692 101.312C415.792 101.315 415.89 101.338 415.98 101.38L469.39 125.04C469.547 125.107 469.676 125.227 469.755 125.379C469.834 125.531 469.858 125.706 469.822 125.873C469.787 126.04 469.695 126.19 469.561 126.297C469.428 126.404 469.261 126.462 469.09 126.46L469.07 126.48Z" fill="#010101"/>
<path d="M463.86 107.97C463.756 107.971 463.653 107.947 463.56 107.9L409.67 83.68C409.581 83.6399 409.501 83.5828 409.435 83.5119C409.368 83.441 409.316 83.3576 409.282 83.2666C409.248 83.1756 409.232 83.0787 409.235 82.9815C409.238 82.8843 409.26 82.7886 409.3 82.7C409.34 82.6114 409.397 82.5315 409.468 82.4649C409.539 82.3983 409.622 82.3464 409.713 82.312C409.804 82.2777 409.901 82.2616 409.998 82.2647C410.096 82.2677 410.191 82.2899 410.28 82.33L464.17 106.55C464.261 106.59 464.343 106.648 464.412 106.72C464.48 106.793 464.533 106.878 464.568 106.971C464.602 107.065 464.618 107.164 464.613 107.263C464.608 107.363 464.583 107.46 464.54 107.55C464.476 107.676 464.379 107.781 464.259 107.855C464.139 107.929 464.001 107.969 463.86 107.97Z" fill="#010101"/>
<path d="M451.75 83.74C451.658 83.7428 451.565 83.7257 451.48 83.69C438.1 78.54 424.48 73.58 410.9 68.95C410.808 68.9185 410.723 68.8692 410.65 68.8049C410.578 68.7406 410.518 68.6626 410.475 68.5753C410.433 68.488 410.408 68.3932 410.401 68.2962C410.395 68.1992 410.409 68.1019 410.44 68.01C410.506 67.826 410.641 67.6749 410.817 67.589C410.992 67.5031 411.194 67.4891 411.38 67.55C424.94 72.19 438.61 77.15 452.01 82.31C452.17 82.3722 452.304 82.4883 452.388 82.6384C452.472 82.7885 452.502 82.9632 452.471 83.1324C452.44 83.3017 452.351 83.455 452.22 83.5658C452.088 83.6767 451.922 83.7383 451.75 83.74Z" fill="#010101"/>
<path d="M450.68 66.68C450.58 66.6803 450.482 66.6599 450.39 66.62L431.16 58.62C431.065 58.5843 430.979 58.5292 430.907 58.4582C430.834 58.3873 430.777 58.3021 430.74 58.2081C430.702 58.114 430.685 58.0132 430.688 57.9119C430.692 57.8107 430.716 57.7113 430.76 57.62C430.797 57.5262 430.853 57.4409 430.924 57.3693C430.995 57.2978 431.08 57.2416 431.174 57.2042C431.267 57.1667 431.368 57.1488 431.469 57.1515C431.569 57.1542 431.669 57.1775 431.76 57.22L450.99 65.22C451.146 65.2868 451.274 65.405 451.353 65.5548C451.432 65.7046 451.457 65.877 451.424 66.0433C451.392 66.2095 451.303 66.3594 451.173 66.468C451.043 66.5766 450.879 66.6373 450.71 66.64L450.68 66.68Z" fill="#010101"/>
<path d="M42.93 42.5C61.93 48.89 81.16 54.68 99.49 60.16C96.49 72.84 88.76 83.81 83.58 95.76C80.9432 102.149 78.6728 108.683 76.78 115.33C67.34 146.317 58.2967 177.407 49.65 208.6C32.7 202.79 19.54 199.81 1.37 196.6C18.11 144.53 33.21 94.52 42.93 42.5Z" fill="#AED3F0"/>
<g opacity="0.13">
<path d="M401.93 196.54C398.974 197.431 396.067 198.475 393.22 199.67C392.573 199.648 391.925 199.702 391.29 199.83C389.865 200.14 388.477 200.603 387.15 201.21C385.64 201.72 384.22 202.21 382.76 202.83C382.19 203.05 380.44 203.72 379.76 203.88L379.24 204.05C378.81 204.19 378.38 204.33 377.93 204.44H377.15C376.86 204.38 376.58 204.31 376.29 204.22C375.673 203.639 375.095 203.018 374.56 202.36C373.85 201.45 374.65 202.48 374.92 202.83C374.44 202.19 373.92 201.58 373.4 200.99C373.24 200.8 373.12 200.65 373 200.52C372.51 199.83 372.06 199.11 371.61 198.4C369.727 195.529 368.001 192.558 366.44 189.5C363.11 183.04 360.05 176.45 356.5 170.11C354.44 165.79 352.68 161.31 350.1 157.26C342.996 146.106 334.358 136.007 324.44 127.26C317.415 120.205 309.454 114.148 300.78 109.26C294.93 106.02 288.78 102.82 282 102.33C277.25 101.25 276.1 108.33 281 108.63C285.46 108.86 290.23 110.88 295.35 113.83C295.082 114.461 295.015 115.159 295.156 115.829C295.297 116.5 295.641 117.111 296.14 117.58C300.87 121.7 306.33 124.86 311.27 128.72C311.03 128.57 313.78 130.89 314.33 131.47C314.88 132.05 315.47 132.6 316.01 133.19C315.78 133.402 315.597 133.66 315.475 133.948C315.352 134.236 315.293 134.547 315.3 134.86C315.62 136.86 317.92 139.32 318.96 141.23C324.39 149.5 330.76 157.17 335.37 165.94C341.959 178.429 346.216 192.014 347.93 206.03C348.99 211.09 349.58 220.34 347.93 222.98C347.79 223.143 347.64 223.297 347.48 223.44L347.15 223.64L346.52 223.86C346.42 223.86 346.31 223.94 346.21 223.96H346.11C345.66 223.96 345.11 223.96 344.81 223.96L344.31 223.87C342.48 223.4 343.47 223.81 340.71 222.32C336.45 219.92 332.79 226.21 336.95 228.76C347.46 236.32 354.82 233.63 356.9 223.38C357.95 217.2 357.25 210.88 356.16 204.73L357.09 207.52C357.69 211.18 358.2 214.63 358.68 217.72C358.61 217.81 358.53 217.88 358.46 217.98C357.961 218.873 357.823 219.922 358.074 220.914C358.325 221.905 358.946 222.763 359.81 223.31C360.208 223.894 360.778 224.341 361.441 224.588C362.103 224.835 362.826 224.871 363.51 224.69C364.009 224.562 364.469 224.313 364.847 223.964C365.226 223.615 365.512 223.177 365.68 222.69C377.15 218.18 388.54 213.33 399.09 206.92C400.512 205.906 402.041 205.05 403.65 204.37C404.817 203.996 405.856 203.303 406.65 202.37C407.187 202.01 407.652 201.552 408.02 201.02C410 196.86 405.13 194.79 401.93 196.54Z" fill="#010101"/>
</g>
<g opacity="0.13">
<path d="M475.34 184.68C474.743 184.693 474.155 184.825 473.61 185.07C470.95 185.86 468.54 187.56 465.93 188.53C461.28 190.78 459.47 191.2 453.24 194.19C442.53 199.89 424.72 205.47 415.15 209.48C408.85 211.38 411.39 220.7 417.81 219.14C427.81 215.89 437.33 211.2 447.01 207.06C452.12 204.7 461.84 201.21 469.89 197.24C473.65 195.24 478.35 192.94 478.81 191.78C481.17 189.1 478.86 184.58 475.34 184.68Z" fill="#010101"/>
</g>
<g opacity="0.13">
<path d="M120.27 81.4C116.2 96.14 109.01 107.02 103.74 123.25C100.575 132.729 98.0822 142.42 96.28 152.25C95.12 156.6 94.28 161 93.28 165.4C92.61 169.29 91.46 173.29 92.17 177.24C92.4237 178.122 92.8557 178.943 93.4394 179.652C94.023 180.361 94.7459 180.942 95.5633 181.36C96.3807 181.778 97.2752 182.024 98.1914 182.082C99.1076 182.141 100.026 182.011 100.89 181.7C103.08 184 105.4 186.18 107.74 188.35V188.05C107.567 183.71 107.613 179.377 107.88 175.05C107.109 172.604 106.626 170.077 106.44 167.52C107.33 162.73 108.44 157.98 109.05 153.13C111.34 137.51 115.77 122.31 120.83 107.38C122.35 102.92 123.53 98.38 125.48 94.05C126.85 90.17 129.11 86.22 129.11 82.05C128.73 77.18 121.45 76.68 120.27 81.4Z" fill="#010101"/>
</g>
<g opacity="0.13">
<path d="M124.88 200.85C124.758 201.325 124.477 201.745 124.084 202.039C123.692 202.333 123.21 202.485 122.72 202.47C123.103 202.702 123.529 202.853 123.973 202.915C124.416 202.977 124.868 202.948 125.3 202.83C125.994 202.633 126.6 202.204 127.017 201.614C127.433 201.025 127.636 200.31 127.59 199.59C126.69 200.02 125.79 200.45 124.88 200.85Z" fill="#010101"/>
</g>
<g opacity="0.13">
<path d="M92.22 177.21C92.15 176.62 92.07 176.04 91.99 175.45C91.9874 176.044 92.0648 176.636 92.22 177.21Z" fill="#010101"/>
</g>
<g opacity="0.13">
<path d="M151.87 212.81C150.14 213.98 147.81 213.62 143.32 213.55C140.32 213.26 136.52 213.49 133.19 212.42C131 211.92 128.95 210.23 126.65 210.52C122.37 210.9 121.97 217.34 126.12 218.39C129.11 219.592 132.189 220.558 135.33 221.28C137.99 221.9 140.73 222.5 143.44 221.84C146.793 221.061 150.014 219.794 153 218.08C154.21 217.29 155.87 216.65 156.33 215.17C157 212.47 153.81 211.1 151.87 212.81Z" fill="#010101"/>
</g>
<g opacity="0.13">
<path d="M197.38 218.68C195.88 219.18 195.57 219.99 193.24 221.23C188.56 223.77 186.55 224.23 180.31 225.47C174.37 226.99 174.89 226.67 168.31 227.11C166.26 227.183 164.207 227.096 162.17 226.85C160.83 226.62 159.49 226.09 158.17 226.37C152.78 226.9 152.28 234.85 157.49 236.22C170.76 240.08 181.68 236.22 191.09 230.52C193.982 228.901 196.688 226.969 199.16 224.76C200.48 223.28 200.81 223.54 201.1 221.51C201.088 221.062 200.975 220.622 200.771 220.223C200.566 219.824 200.274 219.476 199.918 219.204C199.561 218.933 199.147 218.745 198.708 218.654C198.269 218.563 197.815 218.572 197.38 218.68Z" fill="#010101"/>
</g>
<g opacity="0.13">
<path d="M253.09 245.98C250.31 246.37 251 246.72 249.53 247.17C247.755 247.956 245.91 248.576 244.02 249.02C241.16 249.52 241.25 249.5 240.5 249.58C240.774 249.221 240.969 248.809 241.073 248.369C241.176 247.93 241.186 247.473 241.1 247.03C240.99 246.145 240.56 245.331 239.892 244.742C239.223 244.152 238.361 243.828 237.47 243.83C235.29 243.96 233.64 245.76 231.65 246.54C228.776 247.925 225.801 249.089 222.75 250.02C219.533 250.958 216.201 251.443 212.85 251.46C210.95 251.4 209.09 250.17 207.35 249.96C210.832 248.541 214.179 246.81 217.35 244.79C220.944 242.535 224.249 239.848 227.19 236.79C227.482 236.521 227.718 236.197 227.885 235.836C228.052 235.476 228.147 235.086 228.163 234.689C228.179 234.292 228.117 233.895 227.98 233.522C227.843 233.15 227.634 232.807 227.365 232.515C227.096 232.223 226.772 231.986 226.411 231.82C226.051 231.653 225.661 231.558 225.264 231.542C224.867 231.526 224.47 231.588 224.098 231.725C223.725 231.862 223.382 232.071 223.09 232.34C223.29 232.19 223.8 231.8 223.49 232C222.01 232.92 220.49 233.84 219.01 234.72C210.34 240.3 198.91 243.56 191.47 244.72C189.717 244.988 187.939 245.062 186.17 244.94H185.88H185.68C184.34 244.81 183.02 244.15 181.68 244.32C178.48 244.6 178.17 249.42 181.28 250.21C184.05 251.29 186.941 252.028 189.89 252.41C193.031 252.607 196.184 252.452 199.29 251.95C200.962 251.808 202.616 251.506 204.23 251.05C202.72 252.7 202.77 255.76 205.02 256.96C213.1 261.04 221.8 260.2 229.85 256.55C231.32 255.967 232.741 255.268 234.1 254.46C234.089 255.715 234.577 256.924 235.456 257.82C236.336 258.716 237.535 259.227 238.79 259.24C243.79 258.6 249.25 258.31 253.51 255.24C254.77 254.24 256.43 253.44 256.98 251.86C257.25 251.217 257.357 250.518 257.291 249.823C257.226 249.129 256.991 248.462 256.606 247.88C256.222 247.299 255.699 246.821 255.086 246.49C254.473 246.158 253.787 245.983 253.09 245.98Z" fill="#010101"/>
</g>
<g opacity="0.13">
<path d="M293.81 227.22C290.71 228.8 291.46 229.1 289.46 230.35C286.46 232.42 286.88 232.18 282.56 233.29C279.02 233.89 281.16 233.77 278.11 233.82C277.75 233.82 277.4 233.82 277.04 233.75C276.68 233.68 276.16 233.59 275.8 233.49C273.23 233.08 270.51 231.16 267.99 232.69C264.67 234.48 265.37 239.88 269.05 240.77C272.43 241.77 275.91 242.77 279.46 242.52C283.731 242.164 287.84 240.726 291.4 238.34C293.098 237.117 294.73 235.805 296.29 234.41C297.42 233.49 298.55 232.35 298.49 230.78C298.481 230.214 298.343 229.657 298.088 229.152C297.832 228.647 297.465 228.206 297.015 227.863C296.564 227.52 296.042 227.284 295.486 227.173C294.931 227.062 294.358 227.078 293.81 227.22Z" fill="#010101"/>
</g>
<g opacity="0.13">
<path d="M328.81 214.97C328.82 214.035 328.523 213.123 327.965 212.374C327.407 211.624 326.618 211.078 325.72 210.82H325.43C325.43 207.33 325.5 203.82 324.63 200.4C323.34 195.08 320.44 190.4 318.05 185.55C315.895 180.37 312.939 175.562 309.29 171.3C308.91 171.013 308.458 170.836 307.985 170.79C307.511 170.743 307.034 170.827 306.605 171.034C306.176 171.24 305.812 171.561 305.554 171.961C305.295 172.361 305.152 172.824 305.14 173.3C305.28 175.07 306.89 176.3 307.7 177.82C312.24 184.44 313.77 189.39 315.94 197.32C318.58 205.65 319.06 209.68 318.28 218.32V218.58C318.21 218.97 318.13 219.36 318.05 219.75C317.992 220.031 317.915 220.309 317.82 220.58C317.39 221.29 316.92 221.98 316.44 222.66C315.644 223.644 314.796 224.586 313.9 225.48C313.75 225.58 313.59 225.67 313.45 225.75C312.07 225.88 311.05 225.83 307.4 224.64C306.4 224.25 306.15 224.13 307.3 224.64C305.46 224 303.79 222.72 301.87 222.38C297.55 221.6 295.44 227.84 299.26 229.96C300.6 230.64 302.08 231.31 303.38 231.88C303.505 232.603 303.787 233.289 304.207 233.891C304.627 234.492 305.174 234.994 305.81 235.36C306.13 235.54 306.46 235.67 306.81 235.82C306.87 236.756 307.227 237.649 307.83 238.369C308.432 239.088 309.249 239.596 310.16 239.82C311.978 240.474 313.928 240.673 315.84 240.4C316.584 240.213 317.308 239.952 318 239.62C319.91 238.79 321.9 237.62 322.73 235.71C323.168 234.82 323.243 233.795 322.94 232.85C323.655 232.106 324.093 231.139 324.18 230.11C326.073 227.609 327.434 224.747 328.18 221.7C328.606 219.599 328.844 217.464 328.89 215.32C328.895 215.243 328.895 215.167 328.89 215.09V215.01L328.81 214.97Z" fill="#010101"/>
</g>
<path d="M78.46 217.07C78.3271 217.085 78.193 217.085 78.06 217.07C64.36 214.58 50.2 212.01 36.22 208.2C30.81 206.4 25.59 205.2 20.07 203.95C13.7849 202.645 7.5811 200.976 1.49003 198.95C1.20966 198.851 0.951563 198.697 0.730475 198.499C0.509387 198.3 0.329639 198.059 0.201494 197.791C0.0733489 197.522 -0.000682954 197.231 -0.0163759 196.935C-0.0320689 196.638 0.0108846 196.34 0.110033 196.06C0.209181 195.78 0.362582 195.522 0.561476 195.3C0.760371 195.079 1.00086 194.9 1.26923 194.771C1.53759 194.643 1.82856 194.569 2.12553 194.554C2.42251 194.538 2.71966 194.581 3.00003 194.68C8.93054 196.655 14.9707 198.285 21.09 199.56C26.48 200.79 32.09 202.06 37.55 203.89C50.55 207.43 63.87 209.89 76.84 212.27C82.39 189.68 90 167.52 97.37 146.11C101.75 133.38 106.28 120.22 110.37 106.91L110.43 106.75C111.81 103.3 113.3 99.91 114.74 96.63C118.63 87.76 122.31 79.38 124.13 69.63C124.048 69.5166 123.938 69.4268 123.81 69.37C123.554 69.368 123.3 69.3206 123.06 69.23C111 64.68 98.29 61.27 86 58.02C71.5 54.18 56.5 50.2 41.94 44.02C41.6708 43.9071 41.4265 43.7422 41.221 43.5349C41.0155 43.3275 40.8529 43.0817 40.7424 42.8115C40.6319 42.5413 40.5757 42.2519 40.577 41.96C40.5783 41.6681 40.6371 41.3792 40.75 41.11C40.863 40.8408 41.0278 40.5965 41.2352 40.391C41.4426 40.1855 41.6884 40.0228 41.9586 39.9123C42.2288 39.8018 42.5181 39.7457 42.8101 39.747C43.102 39.7483 43.3908 39.8071 43.66 39.92C57.94 45.92 72.78 49.92 87.14 53.68C99.41 56.93 112.14 60.3 124.35 64.94C125.497 65.1105 126.55 65.6746 127.327 66.5357C128.104 67.3968 128.558 68.5013 128.61 69.66C128.62 69.7898 128.62 69.9202 128.61 70.05C126.72 80.44 122.72 89.55 118.85 98.37C117.44 101.59 115.98 104.91 114.64 108.26C110.49 121.61 105.96 134.77 101.58 147.5C93.68 170.5 86.22 192.16 80.63 215.32C80.521 215.815 80.2466 216.258 79.8522 216.576C79.4578 216.894 78.9667 217.068 78.46 217.07Z" fill="#010101"/>
<path d="M50.35 209.99C50.1677 209.991 49.986 209.968 49.81 209.92C49.5272 209.85 49.2611 209.725 49.0269 209.551C48.7927 209.378 48.5951 209.16 48.4455 208.91C48.2958 208.66 48.1971 208.383 48.155 208.094C48.1129 207.806 48.1282 207.512 48.2 207.23C60.96 156.34 78.92 102.23 97.48 58.83C97.718 58.2979 98.1557 57.8808 98.6986 57.6687C99.2414 57.4566 99.846 57.4665 100.382 57.6962C100.917 57.926 101.341 58.3572 101.562 58.8967C101.782 59.4362 101.781 60.0408 101.56 60.58C83.09 103.79 65.21 157.68 52.5 208.31C52.3814 208.79 52.105 209.217 51.7152 209.521C51.3254 209.826 50.8447 209.991 50.35 209.99Z" fill="#010101"/>
<path d="M414.35 223.54C414.001 223.541 413.657 223.455 413.35 223.29C413.081 223.153 412.843 222.963 412.65 222.731C412.458 222.499 412.315 222.23 412.23 221.94C403.41 191.6 394.08 161.28 384.23 129.19C379.11 112.55 373.82 95.35 368.54 77.94C368.392 77.4512 368.417 76.9259 368.612 76.4537C368.807 75.9815 369.16 75.5915 369.61 75.35C392.166 63.1238 415.68 52.7562 439.92 44.35C440.196 44.2548 440.488 44.2149 440.779 44.2324C441.07 44.25 441.355 44.3248 441.617 44.4524C441.88 44.5801 442.114 44.7582 442.308 44.9766C442.501 45.1949 442.65 45.4492 442.745 45.725C442.84 46.0008 442.88 46.2926 442.863 46.5838C442.845 46.8751 442.77 47.16 442.643 47.4223C442.515 47.6846 442.337 47.9192 442.118 48.1127C441.9 48.3062 441.646 48.4548 441.37 48.55C417.948 56.663 395.21 66.6278 373.37 78.35C378.47 95.16 383.58 111.76 388.52 127.84C398.16 159.16 407.27 188.78 415.9 218.4C436.55 211.01 457.07 202.58 476.9 193.32C477.166 193.162 477.462 193.062 477.77 193.025C478.077 192.989 478.388 193.017 478.684 193.108C478.98 193.199 479.253 193.351 479.487 193.553C479.72 193.756 479.909 194.006 480.041 194.286C480.172 194.566 480.244 194.87 480.251 195.179C480.258 195.489 480.2 195.796 480.082 196.082C479.963 196.367 479.786 196.625 479.562 196.838C479.338 197.052 479.071 197.216 478.78 197.32C458.09 206.98 436.68 215.73 415.15 223.32C414.901 223.446 414.629 223.521 414.35 223.54Z" fill="#010101"/>
<path d="M441.07 211.92C440.581 211.92 440.106 211.759 439.718 211.46C439.331 211.162 439.054 210.743 438.93 210.27C426 161.53 411.19 112.58 395 64.79C394.81 64.2317 394.85 63.621 395.111 63.0921C395.372 62.5633 395.832 62.1596 396.39 61.97C396.948 61.7804 397.559 61.8203 398.088 62.0809C398.617 62.3416 399.02 62.8017 399.21 63.36C415.42 111.25 430.21 160.29 443.21 209.13C443.3 209.459 443.312 209.805 443.245 210.139C443.179 210.474 443.036 210.789 442.828 211.059C442.62 211.329 442.352 211.548 442.045 211.697C441.738 211.846 441.401 211.923 441.06 211.92H441.07Z" fill="#010101"/>
<path d="M195.31 145.82C190.2 145.82 184.22 143.6 181.55 138.41C176.77 129.14 185.75 118.73 188.7 115.31C200.88 101.19 213.48 86.58 229.16 75.56C246.84 63.14 266.16 57.56 283.55 59.72C292.45 60.85 300.91 63.98 309.1 67.01C311.74 68.01 314.47 69.01 317.16 69.92C334.207 75.7616 352.071 78.87 370.09 79.13C370.679 79.13 371.243 79.3639 371.66 79.7802C372.076 80.1966 372.31 80.7612 372.31 81.35C372.31 81.9388 372.076 82.5035 371.66 82.9198C371.243 83.3361 370.679 83.57 370.09 83.57C351.602 83.305 333.271 80.1155 315.78 74.12C313.04 73.18 310.28 72.12 307.62 71.17C299.62 68.23 291.44 65.17 283.05 64.12C266.75 62.05 248.54 67.41 231.78 79.19C216.55 89.9 204.13 104.29 192.12 118.19C185.41 125.97 183.26 131.91 185.56 136.36C187.49 140.13 192.28 141.59 196.13 141.36C200.55 141.09 204.71 139.16 209.31 136.85C212.37 135.31 215.423 133.787 218.47 132.28C237.14 122.99 254.78 114.21 271.47 102.41C271.708 102.242 271.977 102.122 272.262 102.058C272.547 101.994 272.841 101.987 273.128 102.037C273.416 102.086 273.691 102.192 273.937 102.348C274.184 102.504 274.397 102.707 274.565 102.945C274.733 103.183 274.853 103.452 274.917 103.737C274.981 104.022 274.988 104.316 274.939 104.603C274.889 104.891 274.783 105.166 274.627 105.412C274.471 105.659 274.268 105.872 274.03 106.04C257.03 118.04 239.23 126.88 220.4 136.25C217.4 137.76 214.31 139.25 211.25 140.82C206.4 143.26 201.61 145.48 196.35 145.82C196 145.81 195.66 145.82 195.31 145.82Z" fill="#010101"/>
<path d="M359.51 226.74C358.993 226.743 358.492 226.565 358.092 226.238C357.692 225.911 357.419 225.455 357.319 224.948C357.22 224.44 357.3 223.915 357.547 223.46C357.793 223.006 358.191 222.653 358.67 222.46C374.67 215.88 390.75 209.04 406.57 202.12C407.11 201.884 407.721 201.872 408.27 202.087C408.818 202.301 409.259 202.725 409.495 203.265C409.731 203.805 409.743 204.416 409.528 204.965C409.314 205.513 408.89 205.954 408.35 206.19C392.49 213.12 376.35 219.98 360.35 226.57C360.083 226.678 359.798 226.735 359.51 226.74Z" fill="#010101"/>
<path d="M353.32 235.68C352.889 235.676 352.458 235.649 352.03 235.6C344.66 234.81 337.41 229.92 332.14 222.18C328.76 217.18 326.42 211.7 324.14 206.35C323.43 204.67 322.71 202.98 321.97 201.35C315.956 187.888 307.774 175.503 297.75 164.69C297.522 164.483 297.34 164.231 297.215 163.949C297.09 163.668 297.024 163.364 297.023 163.056C297.022 162.748 297.085 162.443 297.208 162.161C297.331 161.878 297.511 161.625 297.737 161.416C297.964 161.207 298.231 161.048 298.522 160.948C298.813 160.848 299.122 160.809 299.429 160.835C299.736 160.861 300.034 160.95 300.304 161.097C300.575 161.244 300.812 161.446 301 161.69C311.349 172.861 319.795 185.654 326 199.56C326.76 201.25 327.48 202.97 328.21 204.68C330.49 210.07 332.64 215.15 335.77 219.74C340.3 226.41 346.39 230.6 352.47 231.25C353.1 231.367 353.749 231.311 354.35 231.09C354.91 230.74 355.17 229.57 355.11 227.63C354.301 201.565 346.023 176.28 331.262 154.782C316.5 133.284 295.876 116.477 271.84 106.36C271.561 106.255 271.306 106.094 271.09 105.888C270.874 105.681 270.702 105.434 270.584 105.16C270.467 104.885 270.405 104.59 270.404 104.292C270.403 103.993 270.462 103.698 270.578 103.423C270.693 103.147 270.863 102.898 271.078 102.691C271.292 102.483 271.545 102.32 271.824 102.212C272.102 102.105 272.4 102.054 272.698 102.064C272.996 102.074 273.289 102.144 273.56 102.27C298.378 112.72 319.674 130.074 334.919 152.271C350.164 174.468 358.716 200.575 359.56 227.49C359.56 228.98 359.73 232.95 356.74 234.85C355.7 235.442 354.515 235.729 353.32 235.68Z" fill="#010101"/>
<path d="M242.43 259.98C238.327 260.071 234.313 258.782 231.03 256.32C230.554 255.973 230.235 255.45 230.144 254.868C230.053 254.286 230.198 253.691 230.545 253.215C230.892 252.739 231.415 252.42 231.997 252.329C232.579 252.238 233.174 252.383 233.65 252.73C237.79 255.73 241.26 255.62 244.33 255.49H244.65C249.371 255.256 253.81 253.168 257 249.68C257.794 248.813 258.399 247.79 258.774 246.676C259.15 245.561 259.288 244.381 259.18 243.21C259.18 243.11 259.18 243.01 259.18 242.91C259.104 238.474 258.683 234.051 257.92 229.68C257.847 229.208 257.928 228.725 258.151 228.302C258.374 227.88 258.727 227.541 259.159 227.335C259.59 227.13 260.076 227.069 260.545 227.162C261.013 227.254 261.44 227.496 261.76 227.85C265.12 231.56 268.6 235.4 272.84 237.94C277.27 240.58 282.17 241.33 285.97 239.94C291.2 238.03 296.56 228.94 295.38 224.01C295.286 223.718 295.253 223.409 295.285 223.103C295.316 222.798 295.41 222.502 295.562 222.235C295.713 221.968 295.918 221.735 296.164 221.551C296.411 221.367 296.692 221.236 296.991 221.167C297.291 221.097 297.601 221.091 297.903 221.148C298.205 221.204 298.492 221.323 298.745 221.496C298.999 221.669 299.214 221.893 299.376 222.154C299.539 222.415 299.646 222.706 299.69 223.01C301.56 230.77 294.29 241.67 287.5 244.15C282.38 246.02 276.21 245.15 270.57 241.79C267.893 240.14 265.425 238.173 263.22 235.93C263.44 238.14 263.59 240.47 263.59 242.81C263.769 244.572 263.577 246.351 263.025 248.034C262.474 249.717 261.577 251.266 260.39 252.58C258.419 254.788 256.028 256.581 253.356 257.855C250.685 259.129 247.786 259.858 244.83 260H244.51C243.88 259.95 243.18 259.98 242.43 259.98Z" fill="#010101"/>
<path d="M315.47 241.8C313.661 241.751 311.877 241.365 310.21 240.66C301.82 237.41 297.37 228.26 293.06 219.42C290.06 213.29 286.99 206.95 282.77 203.2C282.553 203.003 282.376 202.765 282.251 202.5C282.125 202.235 282.053 201.948 282.039 201.655C282.025 201.362 282.068 201.069 282.167 200.793C282.266 200.516 282.418 200.262 282.615 200.045C282.812 199.828 283.05 199.651 283.315 199.526C283.58 199.4 283.867 199.328 284.16 199.314C284.453 199.3 284.746 199.343 285.022 199.442C285.299 199.541 285.553 199.693 285.77 199.89C290.63 204.22 293.92 210.96 297.09 217.47C301.21 225.92 305.09 233.9 311.86 236.47C314.76 237.6 318.38 239 323.19 230.88C324.51 228.66 324.86 225.88 325.05 223.16C325.53 216.23 323.67 209.09 321.87 202.16C321.6 201.1 321.32 200.05 321.06 199C320.974 198.713 320.947 198.412 320.981 198.114C321.015 197.817 321.108 197.529 321.256 197.268C321.404 197.008 321.602 196.78 321.841 196.598C322.079 196.417 322.351 196.285 322.641 196.212C322.932 196.138 323.234 196.124 323.53 196.17C323.826 196.217 324.109 196.322 324.363 196.481C324.617 196.639 324.836 196.848 325.008 197.094C325.179 197.339 325.299 197.617 325.36 197.91L326.17 201.04C328.06 208.29 330.01 215.79 329.47 223.43C329.25 226.68 328.8 230.09 327.01 233.11C323 239.84 319.11 241.8 315.47 241.8Z" fill="#010101"/>
<path d="M171.12 240.47H170.54C162.23 240.28 155.03 235.33 153.03 228.47C152.346 225.938 152.21 223.289 152.63 220.7C147.986 223.563 142.456 224.63 137.08 223.7C128.83 222.22 121.9 215.45 120.6 207.6C120.06 204.36 121.08 202.55 122.04 201.6C122.466 201.223 123.02 201.025 123.588 201.044C124.156 201.064 124.694 201.301 125.093 201.706C125.492 202.111 125.72 202.653 125.73 203.221C125.741 203.79 125.533 204.34 125.15 204.76C124.95 204.96 124.78 205.63 124.98 206.85C125.98 212.91 131.4 218.15 137.86 219.31C140.958 219.867 144.149 219.576 147.096 218.469C150.042 217.362 152.635 215.479 154.6 213.02C154.894 212.634 155.306 212.354 155.773 212.223C156.24 212.091 156.737 212.115 157.19 212.29C157.837 211.947 158.505 211.647 159.19 211.39C168.059 207.919 177.394 205.782 186.89 205.05C194.53 204.45 199.62 206.3 202 210.53C203.183 212.797 203.597 215.387 203.18 217.91C202.701 221.611 201.143 225.089 198.7 227.91C196.315 230.45 193.519 232.57 190.43 234.18C185.32 237.14 178.52 240.47 171.12 240.47ZM157.9 217.17C156.9 220.92 156.41 224.17 157.29 227.17C158.92 232.8 165.29 235.88 170.64 236C177.17 236.17 183.48 233.05 188.25 230.33C190.898 228.953 193.303 227.152 195.37 225C197.236 222.833 198.425 220.166 198.79 217.33C199.062 215.751 198.839 214.127 198.15 212.68C196.33 209.45 191.22 209.14 187.25 209.45C178.195 210.135 169.292 212.157 160.83 215.45C159.748 215.822 158.752 216.407 157.9 217.17Z" fill="#010101"/>
<path d="M192.89 255.48C189.572 255.527 186.302 254.684 183.42 253.04C180.746 251.426 178.574 249.1 177.148 246.322C175.721 243.544 175.095 240.423 175.34 237.31C175.403 236.727 175.691 236.192 176.144 235.818C176.596 235.445 177.176 235.262 177.76 235.31C178.344 235.366 178.883 235.651 179.257 236.102C179.632 236.554 179.813 237.136 179.76 237.72C179.595 239.993 180.059 242.268 181.099 244.296C182.14 246.324 183.717 248.028 185.66 249.22C189.42 251.44 194.54 251.65 199.66 249.82C204.5 248.09 208.73 244.96 213 241.62C219.07 236.87 224.76 231.55 225.28 224.84C225.347 224.402 225.316 223.955 225.19 223.53C224.889 223.059 224.463 222.682 223.96 222.44C220.75 220.52 216.41 220.04 211.75 221.09C207.63 222.02 204.26 223.76 200.37 225.78L199.71 226.12C199.448 226.278 199.157 226.381 198.854 226.421C198.551 226.461 198.243 226.439 197.95 226.354C197.656 226.27 197.383 226.126 197.147 225.932C196.912 225.737 196.719 225.496 196.581 225.223C196.443 224.95 196.362 224.652 196.345 224.347C196.327 224.042 196.373 223.737 196.479 223.45C196.585 223.164 196.749 222.902 196.961 222.682C197.173 222.461 197.428 222.287 197.71 222.17L198.37 221.83C202.37 219.77 206.14 217.83 210.81 216.76C216.59 215.45 222.09 216.12 226.28 218.63C227.486 219.205 228.475 220.154 229.1 221.336C229.726 222.517 229.953 223.869 229.75 225.19C229.1 233.61 222.65 239.74 215.75 245.12C211.37 248.55 206.64 252.06 201.16 254C198.508 254.962 195.711 255.463 192.89 255.48Z" fill="#010101"/>
<path d="M218.8 261.79C215.616 261.791 212.475 261.059 209.62 259.65C206.32 258.01 202.89 254.73 203.16 250.44C203.21 249.862 203.484 249.327 203.923 248.948C204.363 248.57 204.933 248.378 205.512 248.415C206.091 248.452 206.632 248.713 207.021 249.144C207.409 249.575 207.613 250.14 207.59 250.72C207.45 252.84 209.66 254.72 211.59 255.67C214.642 257.179 218.092 257.69 221.45 257.13C226.75 256.23 231.32 252.77 235.1 249.5C239.36 245.81 241.18 242.76 240.83 239.89C240.43 236.54 236.78 234.28 233.63 234.11C230.48 233.94 227.22 235.24 223.42 238.21C223.191 238.397 222.927 238.537 222.643 238.621C222.359 238.705 222.062 238.731 221.768 238.698C221.474 238.665 221.189 238.574 220.931 238.429C220.672 238.285 220.446 238.09 220.264 237.857C220.082 237.624 219.948 237.356 219.871 237.071C219.794 236.785 219.775 236.487 219.814 236.194C219.854 235.901 219.952 235.618 220.102 235.363C220.253 235.109 220.453 234.886 220.69 234.71C223.64 232.4 228.23 229.36 233.87 229.71C238.87 229.99 244.55 233.71 245.24 239.39C245.95 245.26 241.45 249.91 238 252.9C234 256.35 228.61 260.46 222.2 261.55C221.075 261.725 219.938 261.805 218.8 261.79Z" fill="#010101"/>
<path d="M156.62 215.12C156.097 215.119 155.591 214.934 155.191 214.597C154.791 214.261 154.521 213.795 154.43 213.28C153.65 208.74 148.66 206.01 145.75 204.78C137.26 201.21 129.89 201.32 123.83 205.13C123.351 205.438 122.772 205.55 122.214 205.442C121.655 205.334 121.159 205.014 120.83 204.55C112.895 193.23 102.026 184.287 89.39 178.68C89.1146 178.569 88.8641 178.405 88.6534 178.196C88.4428 177.986 88.2762 177.737 88.1635 177.463C88.0508 177.188 87.9944 176.894 87.9975 176.597C88.0006 176.3 88.0632 176.007 88.1816 175.735C88.2999 175.462 88.4717 175.217 88.6867 175.012C88.9017 174.807 89.1555 174.648 89.4332 174.543C89.7109 174.438 90.0068 174.39 90.3034 174.402C90.6 174.413 90.8913 174.484 91.16 174.61C103.925 180.243 114.994 189.117 123.27 200.35C130.27 196.75 138.37 196.86 147.48 200.7C153.93 203.42 157.96 207.62 158.81 212.53C158.86 212.818 158.853 213.112 158.79 213.397C158.726 213.682 158.606 213.952 158.438 214.191C158.27 214.429 158.056 214.632 157.81 214.789C157.563 214.945 157.288 215.05 157 215.1L156.62 215.12Z" fill="#010101"/>
<path d="M124.54 79.91C123.997 79.9069 123.474 79.7049 123.07 79.3423C122.666 78.9796 122.408 78.4813 122.347 77.9418C122.285 77.4023 122.424 76.8589 122.736 76.4144C123.048 75.97 123.512 75.6553 124.04 75.53C148.59 69.85 171.18 62.05 190.04 55.17L191.72 54.55C198.89 51.93 206.3 49.21 214.1 48.35C232.1 46.35 248.69 54.1 263.33 60.92C263.805 61.2014 264.158 61.6497 264.32 62.1775C264.483 62.7053 264.442 63.2745 264.208 63.7742C263.973 64.2739 263.56 64.6682 263.05 64.88C262.54 65.0919 261.97 65.1061 261.45 64.92C247.34 58.34 231.34 50.92 214.59 52.73C207.32 53.53 200.17 56.16 193.25 58.73L191.56 59.35C172.56 66.28 149.84 74.14 125.05 79.87C124.882 79.8987 124.711 79.9121 124.54 79.91Z" fill="#010101"/>
<path d="M168.55 41.4201C168.068 41.4221 167.598 41.2669 167.211 40.978C166.825 40.6891 166.543 40.2822 166.409 39.8189C166.274 39.3556 166.294 38.861 166.466 38.4102C166.638 37.9593 166.951 37.5766 167.36 37.3201C187.725 24.5122 211.557 18.3254 235.58 19.6101C236.169 19.6432 236.72 19.9089 237.113 20.3487C237.506 20.7884 237.708 21.3663 237.675 21.9551C237.642 22.5438 237.376 23.0953 236.936 23.4882C236.497 23.8811 235.919 24.0832 235.33 24.0501C212.231 22.7961 189.312 28.7355 169.73 41.0501C169.381 41.2858 168.971 41.4144 168.55 41.4201Z" fill="#010101"/>
<path d="M154.63 19.6801C154.152 19.6796 153.686 19.5248 153.303 19.2385C152.92 18.9522 152.64 18.5498 152.504 18.0913C152.368 17.6327 152.383 17.1425 152.548 16.6936C152.714 16.2447 153.019 15.8612 153.42 15.6001C165.444 7.82671 178.901 2.53632 193 0.0400551C193.57 -0.0400466 194.148 0.104236 194.614 0.442483C195.079 0.78073 195.395 1.28651 195.495 1.8532C195.595 2.4199 195.471 3.00323 195.149 3.48021C194.827 3.95719 194.333 4.29058 193.77 4.41006C180.23 6.82712 167.31 11.9271 155.77 19.41C155.422 19.6043 155.028 19.6978 154.63 19.6801Z" fill="#010101"/>
<path d="M296.66 263.36C296.071 263.369 295.503 263.144 295.08 262.735C294.657 262.325 294.414 261.764 294.405 261.175C294.396 260.586 294.621 260.018 295.03 259.595C295.44 259.172 296.001 258.929 296.59 258.92C309.582 258.497 322.072 253.805 332.13 245.57C332.355 245.385 332.615 245.246 332.894 245.161C333.173 245.076 333.465 245.047 333.756 245.075C334.046 245.104 334.328 245.189 334.585 245.326C334.842 245.463 335.07 245.65 335.255 245.875C335.44 246.1 335.579 246.36 335.664 246.639C335.749 246.918 335.778 247.211 335.75 247.501C335.721 247.791 335.636 248.073 335.499 248.33C335.362 248.587 335.175 248.815 334.95 249C324.134 257.857 310.702 262.904 296.73 263.36H296.66Z" fill="#010101"/>
</g>
<defs>
<clipPath id="clip0_206_3467">
<rect width="480" height="263.36" fill="white"/>
</clipPath>
</defs>
</svg>
