<svg width="480" height="463" viewBox="0 0 480 463" fill="none" xmlns="http://www.w3.org/2000/svg">
<g clip-path="url(#clip0_206_3413)">
<path d="M64.7 426.92C48.5509 413.559 33.6863 398.718 20.3 382.59C15.9 377.27 11.55 371.59 9.71 364.98L129.88 270.76C129.88 270.76 135.57 276.76 136.21 276.71C147.807 261.029 157.731 244.177 165.82 226.43C156.203 215.337 145.774 204.975 134.62 195.43L128.8 201.92C128.611 202.004 128.402 202.034 128.197 202.005C127.992 201.977 127.799 201.892 127.64 201.76C86.41 171.64 44.18 142.86 0.880005 116.01C3.76 106.43 9.27 97.88 15.08 89.74C24.8703 76.0287 35.7202 63.1058 47.53 51.09C50.0105 48.3924 52.7997 45.996 55.84 43.95L169.5 145.95C169.5 145.95 163.05 155.64 163.4 156.13C173.03 161.49 181.35 169.25 193 173.45C192.71 166.31 195.11 159.35 198 152.8C198.369 151.692 199.067 150.722 200 150.02C201 149.42 202.55 149.64 204 151.31C208.58 159.68 209.26 169.56 209.83 179.08C210.43 189 211.033 198.923 211.64 208.85C216.36 194.31 215.56 178.64 216.86 163.41C217.25 158.83 217.86 154.12 220.28 150.2C220.805 149.189 221.62 148.357 222.62 147.81C224.78 146.81 227.48 148.24 228.62 150.34C229.76 152.44 229.81 154.95 230.53 158.45C231.47 155.27 233.99 152.85 236.53 150.68C249 139.75 264 130.33 270.8 115.49C269.86 112.49 271.61 109.49 273.29 106.85C295.13 72.75 315.56 37.75 334.67 2.17998C340.42 1.96998 346.05 3.71998 351.41 5.78998C371.265 13.4855 389.008 25.7863 403.18 41.68L314.83 144.97C314.83 144.97 310.47 142.49 310.25 142.34C308.623 144.427 307.181 146.652 305.94 148.99C296.817 165.197 290.826 182.977 288.28 201.4C301.582 215.433 317.9 226.259 336 233.06C336.619 233.366 337.316 233.478 338 233.38C338.746 233.083 339.411 232.614 339.94 232.01C340.54 231.49 341.46 231.1 343.51 232.49C367.15 244.63 390.7 256.96 414.24 269.29L450.67 288.37C459.8 293.15 468.94 297.94 478.43 303.63C469.588 332.685 453.283 358.914 431.14 379.7L300.61 292.59C300.61 292.59 304.17 285.08 304.61 285.25C297.122 278.346 288.777 272.434 279.78 267.66L262.05 300.18C259.05 305.71 255.95 311.48 255.58 317.78C257.38 317.5 258.13 319.99 258.1 321.78C258.033 326.011 257.666 330.231 257 334.41L225.55 332.41C225.55 332.41 182.47 335.41 182.01 335.13C185.34 330.96 184.85 325.04 184.47 319.71C184.39 318.61 184.47 317.25 185.47 316.71C185.81 316.54 186.2 316.51 186.53 316.33C186.878 316.05 187.152 315.687 187.327 315.276C187.501 314.864 187.571 314.415 187.53 313.97C187.81 309.46 187.31 304.9 187.29 301.97C186.114 302.317 184.959 302.731 183.83 303.21C180.07 304.88 177.11 307.92 174.25 310.88C172.38 312.82 170.51 314.75 168.65 316.69C161.55 324.123 154.43 331.537 147.29 338.93C120 367.4 93.1 396.18 64.7 426.92Z" fill="white"/>
<path d="M122.77 293.04H122.72C122.512 293.017 122.321 292.915 122.187 292.755C122.053 292.594 121.986 292.389 122 292.18L122.65 281.56C122.649 281.452 122.671 281.346 122.715 281.248C122.759 281.15 122.823 281.062 122.904 280.991C122.984 280.92 123.079 280.867 123.182 280.836C123.285 280.804 123.393 280.796 123.5 280.81C123.605 280.816 123.708 280.843 123.803 280.89C123.897 280.936 123.982 281 124.052 281.079C124.121 281.158 124.175 281.25 124.209 281.35C124.243 281.449 124.257 281.555 124.25 281.66L123.61 292.28C123.605 292.385 123.579 292.488 123.534 292.583C123.489 292.678 123.426 292.764 123.348 292.834C123.27 292.905 123.178 292.959 123.079 292.995C122.98 293.03 122.875 293.045 122.77 293.04Z" fill="#010101"/>
<path d="M131.26 302.51C131.051 302.51 130.851 302.429 130.701 302.283C130.552 302.137 130.465 301.939 130.46 301.73C130.24 294.95 130.18 288.07 130.31 281.28C130.315 281.069 130.403 280.868 130.554 280.72C130.706 280.573 130.909 280.49 131.12 280.49C131.226 280.491 131.331 280.514 131.428 280.556C131.525 280.598 131.613 280.659 131.686 280.735C131.76 280.811 131.817 280.901 131.856 281C131.894 281.099 131.913 281.204 131.91 281.31C131.79 288.07 131.84 294.92 132.07 301.68C132.073 301.892 131.993 302.098 131.848 302.253C131.702 302.407 131.502 302.5 131.29 302.51H131.26Z" fill="#010101"/>
<path d="M138.94 312.35C138.73 312.35 138.529 312.269 138.378 312.123C138.227 311.978 138.138 311.78 138.13 311.57C137.87 303.68 137.86 295.69 138.13 287.81C138.121 287.697 138.137 287.583 138.175 287.476C138.213 287.369 138.274 287.271 138.352 287.189C138.431 287.107 138.526 287.042 138.631 286.999C138.736 286.956 138.849 286.936 138.963 286.939C139.076 286.943 139.188 286.97 139.29 287.019C139.393 287.069 139.483 287.139 139.557 287.226C139.63 287.313 139.684 287.414 139.716 287.524C139.747 287.633 139.756 287.747 139.74 287.86C139.49 295.7 139.5 303.66 139.74 311.52C139.744 311.626 139.727 311.732 139.69 311.831C139.653 311.93 139.596 312.021 139.524 312.098C139.451 312.175 139.364 312.237 139.267 312.281C139.17 312.324 139.066 312.347 138.96 312.35H138.94Z" fill="#010101"/>
<path d="M146.66 320.68C146.447 320.675 146.244 320.586 146.097 320.432C145.949 320.279 145.867 320.073 145.87 319.86L146.39 296.26C146.403 296.049 146.494 295.851 146.646 295.705C146.798 295.558 146.999 295.475 147.21 295.47C147.316 295.471 147.421 295.494 147.518 295.536C147.615 295.578 147.703 295.639 147.776 295.715C147.85 295.791 147.907 295.881 147.946 295.98C147.984 296.079 148.003 296.184 148 296.29L147.48 319.89C147.475 320.103 147.386 320.305 147.232 320.453C147.079 320.601 146.873 320.683 146.66 320.68Z" fill="#010101"/>
<path d="M154.61 326.02C154.397 326.017 154.193 325.931 154.044 325.779C153.894 325.628 153.81 325.423 153.81 325.21C153.89 318.3 154.2 311.33 154.72 304.47C154.752 304.269 154.858 304.088 155.017 303.962C155.177 303.836 155.378 303.774 155.58 303.789C155.783 303.804 155.973 303.895 156.111 304.043C156.25 304.192 156.328 304.387 156.33 304.59C155.8 311.41 155.5 318.36 155.42 325.22C155.417 325.433 155.331 325.637 155.179 325.786C155.028 325.936 154.823 326.02 154.61 326.02Z" fill="#010101"/>
<path d="M162 318.47C161.798 318.468 161.605 318.391 161.457 318.255C161.309 318.118 161.217 317.931 161.2 317.73C161.008 315.41 161.112 313.074 161.51 310.78C161.527 310.675 161.564 310.575 161.621 310.486C161.677 310.396 161.751 310.319 161.837 310.258C161.924 310.197 162.022 310.155 162.126 310.133C162.229 310.111 162.336 310.11 162.44 310.13C162.65 310.167 162.838 310.285 162.961 310.459C163.085 310.633 163.135 310.849 163.1 311.06C162.72 313.218 162.619 315.416 162.8 317.6C162.817 317.811 162.749 318.019 162.612 318.181C162.476 318.342 162.281 318.442 162.07 318.46L162 318.47Z" fill="#010101"/>
<path d="M344.81 315.66C344.634 315.658 344.463 315.6 344.322 315.494C344.182 315.388 344.079 315.239 344.03 315.07C342.36 308.99 340.97 302.75 339.88 296.53C339.845 296.319 339.895 296.103 340.019 295.929C340.142 295.755 340.33 295.637 340.54 295.6C340.643 295.581 340.749 295.583 340.851 295.606C340.954 295.629 341.051 295.672 341.136 295.732C341.222 295.793 341.295 295.87 341.35 295.959C341.406 296.047 341.443 296.146 341.46 296.25C342.54 302.42 343.93 308.61 345.58 314.64C345.61 314.742 345.62 314.85 345.608 314.956C345.596 315.062 345.563 315.165 345.511 315.258C345.459 315.351 345.388 315.433 345.304 315.499C345.22 315.564 345.123 315.612 345.02 315.64C344.951 315.656 344.881 315.663 344.81 315.66Z" fill="#010101"/>
<path d="M360.32 322.96C360.159 322.958 360.001 322.909 359.868 322.818C359.735 322.727 359.631 322.599 359.57 322.45C354.654 309.848 350.536 296.949 347.24 283.83C347.211 283.726 347.204 283.618 347.218 283.511C347.231 283.404 347.266 283.301 347.32 283.208C347.374 283.115 347.446 283.034 347.532 282.969C347.618 282.904 347.716 282.857 347.82 282.83C347.924 282.803 348.033 282.797 348.14 282.812C348.247 282.827 348.35 282.863 348.442 282.918C348.535 282.972 348.616 283.045 348.681 283.131C348.746 283.217 348.793 283.316 348.82 283.42C352.096 296.473 356.194 309.305 361.09 321.84C361.156 322.034 361.145 322.246 361.059 322.432C360.974 322.618 360.82 322.764 360.63 322.84C360.537 322.904 360.431 322.945 360.32 322.96Z" fill="#010101"/>
<path d="M374 329.43C373.838 329.431 373.68 329.383 373.546 329.292C373.412 329.201 373.309 329.071 373.25 328.92C366.33 311.36 360.01 293.33 354.46 275.31C354.429 275.21 354.418 275.104 354.428 274.999C354.438 274.895 354.469 274.793 354.518 274.7C354.567 274.607 354.634 274.525 354.715 274.458C354.796 274.391 354.89 274.341 354.99 274.31C355.09 274.278 355.196 274.266 355.301 274.275C355.406 274.284 355.509 274.315 355.602 274.364C355.695 274.413 355.777 274.481 355.844 274.563C355.911 274.645 355.96 274.739 355.99 274.84C361.52 292.84 367.83 310.84 374.73 328.33C374.777 328.451 374.793 328.582 374.779 328.711C374.764 328.841 374.718 328.964 374.646 329.072C374.573 329.18 374.476 329.269 374.362 329.331C374.247 329.394 374.12 329.427 373.99 329.43H374Z" fill="#010101"/>
<path d="M388.48 339.1C388.318 339.1 388.161 339.051 388.027 338.96C387.893 338.869 387.79 338.74 387.73 338.59C378.23 313.8 369.73 288.29 362.37 262.77C362.34 262.669 362.331 262.563 362.343 262.458C362.354 262.353 362.386 262.252 362.436 262.16C362.539 261.973 362.711 261.835 362.915 261.775C363.119 261.715 363.339 261.739 363.525 261.841C363.712 261.944 363.85 262.116 363.91 262.32C371.23 287.8 379.74 313.27 389.23 338.01C389.293 338.204 389.281 338.415 389.196 338.6C389.111 338.786 388.959 338.932 388.77 339.01C388.681 339.061 388.582 339.091 388.48 339.1Z" fill="#010101"/>
<path d="M400.69 345.18C400.52 345.182 400.353 345.13 400.215 345.031C400.076 344.932 399.973 344.792 399.92 344.63L370 254.55C369.934 254.348 369.95 254.129 370.046 253.939C370.141 253.75 370.308 253.606 370.51 253.54C370.712 253.474 370.931 253.49 371.121 253.586C371.31 253.681 371.454 253.848 371.52 254.05L401.45 344.1C401.513 344.3 401.495 344.517 401.4 344.704C401.304 344.892 401.139 345.034 400.94 345.1C400.862 345.142 400.777 345.169 400.69 345.18Z" fill="#010101"/>
<path d="M415.77 358.57C415.603 358.569 415.441 358.517 415.305 358.42C415.169 358.324 415.066 358.187 415.01 358.03L382.39 263.18C382.356 263.08 382.342 262.975 382.348 262.869C382.355 262.764 382.382 262.661 382.429 262.566C382.475 262.472 382.54 262.387 382.619 262.317C382.698 262.248 382.79 262.194 382.89 262.16C382.99 262.126 383.095 262.112 383.201 262.118C383.306 262.125 383.409 262.152 383.504 262.199C383.598 262.245 383.683 262.31 383.753 262.389C383.822 262.468 383.876 262.56 383.91 262.66L416.53 357.47C416.591 357.669 416.573 357.884 416.48 358.07C416.387 358.256 416.226 358.4 416.03 358.47C415.95 358.519 415.862 358.553 415.77 358.57Z" fill="#010101"/>
<path d="M432.34 372.28C432.173 372.279 432.011 372.227 431.875 372.13C431.738 372.034 431.636 371.897 431.58 371.74C419.96 338.91 409.34 305.25 399.99 271.74C399.933 271.534 399.96 271.315 400.065 271.129C400.17 270.943 400.344 270.807 400.55 270.75C400.756 270.693 400.975 270.72 401.161 270.825C401.347 270.93 401.483 271.104 401.54 271.31C410.87 304.82 421.49 338.45 433.09 371.24C433.152 371.438 433.135 371.652 433.044 371.838C432.953 372.024 432.794 372.168 432.6 372.24C432.516 372.267 432.428 372.28 432.34 372.28Z" fill="#010101"/>
<path d="M440 359.18C439.837 359.179 439.679 359.128 439.545 359.036C439.411 358.943 439.308 358.812 439.25 358.66C429.6 332.77 420.72 306.22 412.84 279.73C412.779 279.526 412.802 279.306 412.903 279.118C413.004 278.931 413.176 278.791 413.38 278.73C413.584 278.669 413.804 278.692 413.992 278.793C414.179 278.894 414.319 279.066 414.38 279.27C422.24 305.73 431.12 332.27 440.76 358.09C440.82 358.286 440.804 358.498 440.715 358.683C440.626 358.869 440.471 359.014 440.28 359.09C440.192 359.136 440.098 359.166 440 359.18Z" fill="#010101"/>
<path d="M447.66 345.68C447.489 345.68 447.322 345.626 447.184 345.525C447.046 345.424 446.943 345.283 446.89 345.12L428.22 286.44C428.157 286.238 428.177 286.02 428.274 285.833C428.371 285.646 428.539 285.504 428.74 285.44C428.942 285.38 429.159 285.4 429.345 285.498C429.532 285.595 429.673 285.76 429.74 285.96L448.41 344.64C448.443 344.74 448.455 344.845 448.446 344.95C448.438 345.054 448.408 345.156 448.36 345.249C448.311 345.342 448.245 345.425 448.164 345.492C448.084 345.559 447.99 345.609 447.89 345.64C447.816 345.667 447.738 345.68 447.66 345.68Z" fill="#010101"/>
<path d="M455.84 333.6C455.665 333.601 455.494 333.545 455.353 333.44C455.213 333.335 455.11 333.188 455.06 333.02L444.48 295.41C444.452 295.308 444.444 295.202 444.457 295.097C444.47 294.992 444.503 294.891 444.555 294.799C444.607 294.707 444.677 294.626 444.76 294.561C444.843 294.496 444.938 294.448 445.04 294.42C445.142 294.392 445.248 294.384 445.353 294.397C445.458 294.41 445.559 294.443 445.651 294.495C445.743 294.547 445.824 294.617 445.889 294.7C445.954 294.783 446.002 294.878 446.03 294.98L456.61 332.58C456.64 332.682 456.65 332.79 456.638 332.896C456.626 333.002 456.593 333.105 456.541 333.198C456.489 333.291 456.418 333.373 456.334 333.439C456.25 333.504 456.153 333.552 456.05 333.58C455.981 333.596 455.911 333.603 455.84 333.6Z" fill="#010101"/>
<path d="M465.15 321.39C464.973 321.387 464.801 321.325 464.662 321.215C464.523 321.105 464.424 320.952 464.38 320.78L459.16 300.32C459.12 300.213 459.103 300.1 459.11 299.986C459.117 299.873 459.147 299.762 459.2 299.661C459.252 299.56 459.326 299.471 459.415 299.4C459.504 299.33 459.607 299.279 459.717 299.25C459.827 299.222 459.942 299.217 460.054 299.236C460.166 299.256 460.273 299.298 460.368 299.361C460.463 299.424 460.543 299.507 460.603 299.603C460.664 299.699 460.704 299.807 460.72 299.92L465.93 320.38C465.959 320.484 465.966 320.592 465.952 320.699C465.939 320.806 465.904 320.909 465.85 321.002C465.796 321.095 465.724 321.176 465.638 321.241C465.552 321.306 465.454 321.353 465.35 321.38C465.284 321.394 465.217 321.397 465.15 321.39Z" fill="#010101"/>
<path d="M178.9 459.47C180.38 417.99 181.137 376.487 181.17 334.96C206.992 332.723 232.976 333.156 258.71 336.25C257.6 377.68 258.37 419.17 261.34 460.25C247.02 463.42 232.25 459.05 217.63 457.94C204.9 456.97 192.13 458.49 178.9 459.47Z" fill="#AED3F0"/>
<g opacity="0.13">
<path d="M306.13 275.46C300.08 270.29 293.87 266.69 288.93 262.3C289.65 260.46 290.23 258.53 290.93 256.8C292.416 249.107 293.342 241.317 293.7 233.49C294.056 229.464 294.133 225.417 293.93 221.38C293.65 219.79 293.93 217.89 293 216.52C292.726 216.176 292.368 215.908 291.961 215.742C291.553 215.576 291.11 215.517 290.674 215.572C290.237 215.626 289.822 215.791 289.468 216.052C289.113 216.312 288.832 216.659 288.65 217.06C288.204 217.23 287.82 217.533 287.552 217.929C287.284 218.324 287.143 218.792 287.15 219.27C287.05 224.69 285.69 229.45 283.81 235.74C282.305 241.12 280.362 246.367 278 251.43C275.803 256.601 273.319 261.646 270.56 266.54C266.44 274.12 261.97 281.48 257.23 288.69C251.93 295.51 247.75 303.53 247.46 312.33C247.442 313.243 247.496 314.156 247.62 315.06C247.62 314.94 247.62 314.77 247.55 314.51C247.543 315.041 247.642 315.569 247.841 316.062C248.04 316.555 248.336 317.003 248.71 317.38C248.967 317.642 249.264 317.861 249.59 318.03C249.58 318.187 249.58 318.344 249.59 318.5C249.193 323.36 249.395 328.25 250.19 333.06C250.397 333.65 250.809 334.147 251.35 334.46C250.525 334.55 249.765 334.946 249.218 335.57C248.672 336.194 248.38 337.001 248.4 337.83C247.79 346.44 248.47 355.08 248.6 363.7C248.3 370.95 248.87 378.19 248.91 385.44C248.97 390.7 249.62 395.93 250.01 401.16C250.16 405.99 249.95 410.82 250.27 415.65C250.27 417.13 250.31 418.61 250.39 420.09C250.119 425.4 250.119 430.72 250.39 436.03C250.47 438.48 250.52 440.93 250.72 443.37C250.49 444.8 250.72 446.37 250.6 447.78C250.622 449.871 250.779 451.959 251.07 454.03C250.893 455.021 250.793 456.024 250.77 457.03C250.817 457.93 250.992 458.819 251.29 459.67C251.537 460.39 251.981 461.027 252.57 461.51C254.57 461.197 256.55 460.94 258.51 460.74C258.854 460.308 259.099 459.806 259.23 459.27C259.28 459.16 259.33 459.03 259.38 458.89C259.75 458.02 259.38 458.95 259.24 459.22L259.36 458.93C260 457.05 259.81 457.36 260.18 453.5C260.27 451.88 260.31 450.25 260.33 448.62C260.944 447.633 261.158 446.45 260.93 445.31C260.67 441.61 260.51 441.1 260.13 437.12C259.98 433.3 259.81 429.48 259.74 425.67C259.68 422.39 259.74 419.11 259.74 415.84C259.935 415.345 260.014 414.811 259.97 414.28C260.004 413.614 260.004 412.946 259.97 412.28C259.78 409.6 259.59 407.22 259.4 405C259.21 401.84 259.09 398.67 258.95 395.5C258.63 390.7 258.25 385.89 258.22 381.08C258.236 380.693 258.195 380.306 258.1 379.93C257.92 378.21 257.76 376.47 257.75 374.74C257.63 367.68 258.44 360.65 258.27 353.58C258.33 349.28 258.27 344.97 257.99 340.67C257.73 338.81 258.21 336.58 256.78 335.13C256.341 334.661 255.762 334.346 255.13 334.23C255.414 334.011 255.649 333.735 255.82 333.42C256.89 331.01 255.71 328.21 255.82 325.67C255.57 322.89 256.51 319.92 255.82 317.23C255.673 316.839 255.449 316.482 255.16 316.18C256.23 312.92 256.16 305.69 262.39 296.53C268.57 286.48 274.81 276.31 279.76 265.58C279.964 266.35 280.407 267.036 281.025 267.539C281.643 268.043 282.404 268.337 283.2 268.38C284.143 269.286 285.145 270.128 286.2 270.9C290.72 274.32 293.46 276.15 296.14 278.27C299.22 280.42 298.01 279.61 301.27 282.13C302.22 282.91 303.346 283.445 304.55 283.69C305.108 283.762 305.675 283.715 306.214 283.553C306.753 283.391 307.251 283.116 307.677 282.748C308.103 282.38 308.446 281.927 308.684 281.417C308.922 280.907 309.051 280.353 309.06 279.79C309.09 277.81 307.52 276.61 306.13 275.46Z" fill="#010101"/>
</g>
<g opacity="0.13">
<path d="M265 218.73C265 211.73 264.76 204.66 264.08 197.66C263.93 195.94 263.7 194.23 263.43 192.52C263.378 191.329 262.967 190.182 262.25 189.23C259.15 184.94 252.25 188.44 253.66 193.51C255.26 200.68 254.47 218.27 255.12 229.98C255.42 232.62 255.67 235.26 256.12 237.87C256.114 237.957 256.114 238.043 256.12 238.13C256.26 239.41 256 240.81 256.53 242.01C256.75 242.527 257.093 242.982 257.529 243.336C257.965 243.69 258.481 243.932 259.032 244.041C259.583 244.151 260.152 244.124 260.69 243.963C261.228 243.803 261.719 243.513 262.12 243.12C263.28 242.01 263.12 240.3 263.49 238.85C263.49 238.74 263.49 238.64 263.54 238.55V238.74C263.625 238.498 263.695 238.251 263.75 238C264.82 233.92 265.11 226.06 265 218.73Z" fill="#010101"/>
</g>
<g opacity="0.13">
<path d="M181.68 290.54C180.26 293.07 178.27 294.54 173.86 296.74L174.26 296.57C172.754 297.138 171.307 297.851 169.94 298.7L169.25 298.36C166.988 297.121 164.831 295.699 162.8 294.11C155.106 288.787 147.904 282.787 141.28 276.18C139.97 275.03 138.87 273.23 136.95 273.27C136.295 273.285 135.659 273.49 135.119 273.86C134.578 274.23 134.157 274.749 133.906 275.353C133.655 275.958 133.585 276.623 133.705 277.267C133.824 277.911 134.128 278.506 134.58 278.98C138.5 283.03 142.48 287.03 146.58 290.91C150.19 294.08 154.12 296.91 157.58 300.26C159.7 302.53 162.15 304.47 164.2 306.8C164.47 307.1 164.75 307.39 165 307.7C164.76 307.39 164.37 306.86 164.2 306.7C164.63 307.23 165.1 307.78 165.61 308.3C164.461 308.791 163.48 309.608 162.79 310.65L162.69 310.76C150.81 321.89 139.54 329.76 130.59 338.76C124.99 343.76 117.16 352.51 115.74 354.76C111.65 359.98 107.16 364.86 102.89 369.92C93.66 379.82 75.51 398.68 64.28 413.05C62.58 415.18 61.04 417.43 59.45 419.64C59.0645 420.165 58.7828 420.759 58.62 421.39C60.62 423.63 62.62 425.89 64.62 428.17C67.8 427.51 69.89 423.42 71.97 420.65C72.04 420.59 75.44 416.39 76.17 415.58C79.0767 412.06 82.0033 408.557 84.95 405.07C89.58 399.49 95.05 392.57 104.12 383.07C106.84 380.55 109.19 377.67 111.93 375.16C115.103 372.427 118.13 369.53 121 366.48C125.29 362.16 129.05 357.35 133.48 353.16C145 342.08 157 331.54 169.1 321.06C170.16 320.11 170.1 320.14 168.9 321.06C169.52 320.59 170.13 320.13 170.71 319.62C171.675 318.888 172.509 317.999 173.18 316.99C173.791 315.933 174.078 314.719 174.007 313.5C173.936 312.281 173.51 311.109 172.78 310.13C173.711 309.635 174.468 308.866 174.949 307.927C175.43 306.989 175.612 305.925 175.47 304.88C178.693 302.991 181.483 300.446 183.66 297.41C184.869 296.149 185.826 294.669 186.48 293.05C186.737 292.423 186.751 291.722 186.519 291.086C186.286 290.449 185.824 289.922 185.224 289.608C184.623 289.294 183.927 289.215 183.271 289.388C182.616 289.56 182.048 289.971 181.68 290.54Z" fill="#010101"/>
</g>
<g opacity="0.13">
<path d="M163.65 155.24C163.35 154.99 163.08 154.72 162.79 154.46C159.85 158.27 156.99 162.14 154.28 166.11C152.593 168.577 150.963 171.083 149.39 173.63C147.86 176.09 146.51 178.68 144.92 181.09C144.702 181.48 144.348 181.776 143.926 181.921C143.503 182.067 143.042 182.052 142.63 181.88C141.09 184.02 139.56 186.18 138.09 188.39C136.47 190.83 134.96 193.39 133.33 195.82C134.22 199.52 138.74 202 142.33 199.82C142.814 199.49 143.263 199.111 143.67 198.69L143.6 198.81C143.68 198.72 143.74 198.62 143.82 198.53C144.232 198.076 144.569 197.56 144.82 197C144.95 196.74 145.08 196.48 145.19 196.21C145.58 195.45 146.13 194.76 146.55 194.01C148.74 190.89 153.15 185.68 157.49 178.77C160.41 174.55 163.11 170.19 165.83 165.83C166.91 163.71 168.83 161.83 169.25 159.47C167.31 158.16 165.44 156.748 163.65 155.24Z" fill="#010101"/>
</g>
<g opacity="0.13">
<path d="M433.8 373.25C433.7 372.983 433.583 372.722 433.45 372.47C433.289 372.121 433.098 371.786 432.88 371.47L432.51 370.91C432.33 370.57 432.13 370.23 431.93 369.91C431.529 369.249 431.014 368.663 430.41 368.18L430.81 368.48C430.04 367.78 429.26 367.1 428.49 366.41C421.72 360.73 420.74 360.85 413.95 356.23C406.59 350.29 399.73 346.28 389.89 339.43C377.05 329.89 363.72 321.08 350.3 312.38C346.56 309.86 342.59 307.71 338.72 305.38C332.72 301.04 326.46 296.96 320.44 292.59C317.421 290.488 314.289 288.552 311.06 286.79C309.38 285.9 307.58 284.61 305.6 285.02C300.49 285.54 299.97 293.09 304.96 294.42C305.64 294.7 308.51 296.3 311.9 298.22C311.976 298.567 312.127 298.892 312.343 299.174C312.56 299.456 312.835 299.687 313.15 299.85C319.58 303.09 322.63 306.71 329.01 310.91C334.95 314.51 340.92 318.08 346.6 322.1C349.88 324.37 351.99 326.33 356.6 329.1C357.062 329.428 357.617 329.597 358.183 329.583C358.749 329.568 359.296 329.371 359.74 329.02C373.59 339.57 387.41 350.62 396.99 356.97C399.99 359.37 402.99 361.76 405.99 364.21C413.67 369.36 421.36 374.51 428.94 379.81C430.48 377.58 432.1 375.37 433.8 373.25Z" fill="#010101"/>
</g>
<g opacity="0.13">
<path d="M398.89 41.93C397.08 40.29 395.42 42.17 394.31 43.63C392.19 46.22 389.88 48.63 387.62 51.11C377.2 62.97 366.91 74.94 357 87.24C349.67 95.14 342.82 103.44 336.14 111.89C331.682 117.362 326.727 122.41 321.34 126.97C316.98 130.86 315.49 132.45 311.07 135.15C309.91 135.91 308.45 136.53 308.07 138.01C307.913 138.623 307.939 139.268 308.145 139.867C308.351 140.465 308.728 140.989 309.23 141.375C309.732 141.76 310.336 141.99 310.967 142.035C311.598 142.081 312.228 141.94 312.78 141.63C328.78 131.63 340.19 116.44 351.67 101.89C363.27 87.54 380.11 66.89 394.03 50.95C395.563 49.19 397.043 47.3934 398.47 45.56C399.32 44.42 400.18 43.69 398.89 41.93Z" fill="#010101"/>
</g>
<path d="M255.79 318.92C255.18 318.921 254.593 318.691 254.147 318.275C253.701 317.858 253.431 317.288 253.39 316.68C252.72 306.82 258.29 297.96 263.21 290.16L264.52 288.07C272.852 274.701 279.357 260.276 283.86 245.18C286.74 235.54 288.07 227.75 288.05 220.68C288.05 216.94 287.05 212.68 284.18 211.97C280.97 211.15 277.89 215.52 276.18 219.49C275.31 221.56 274.47 223.66 273.63 225.76C269.8 235.35 265.84 245.26 258.46 252.87C258.131 253.21 257.708 253.446 257.246 253.547C256.784 253.649 256.302 253.612 255.86 253.441C255.418 253.271 255.037 252.974 254.763 252.588C254.489 252.201 254.335 251.743 254.32 251.27L251.62 170.18C251.52 167.31 250.69 164.18 249.1 164.1C247.72 163.99 246.42 166.3 245.65 168.46C240.59 182.584 238.14 197.51 238.42 212.51C238.415 213.121 238.179 213.707 237.758 214.15C237.338 214.593 236.765 214.86 236.155 214.896C235.546 214.933 234.945 214.737 234.474 214.348C234.004 213.959 233.698 213.406 233.62 212.8C233.03 207.12 232.49 201.46 231.94 195.8C230.67 182.67 229.35 169.09 227.61 155.87C227.25 153.14 226.2 149.93 224.44 149.87H224.38C222.73 149.87 221.43 152.76 220.9 155.47C219.15 164.61 218.54 174.16 217.9 183.4C217.17 194.89 216.41 206.77 213.45 218.19C213.314 218.752 212.979 219.245 212.508 219.58C212.037 219.915 211.461 220.069 210.885 220.013C210.31 219.957 209.774 219.695 209.376 219.276C208.979 218.856 208.745 218.307 208.72 217.73C207.54 197.73 206.05 178.17 204.28 159.68C204.23 157.907 203.843 156.159 203.14 154.53C202.908 154.015 202.539 153.574 202.074 153.255C201.608 152.936 201.064 152.751 200.5 152.72C198.5 152.96 197.67 156.72 197.38 158.32C193.675 178.884 192.206 199.79 193 220.67C193.023 221.271 192.821 221.859 192.433 222.318C192.045 222.778 191.499 223.076 190.903 223.153C190.307 223.231 189.703 223.083 189.21 222.738C188.717 222.393 188.371 221.877 188.24 221.29C185.82 210.63 183.69 199.19 181.63 188.14C180.69 183.07 179.49 178.01 175.97 175.56C175.551 175.205 175.028 174.995 174.48 174.96C173.69 175.04 172.9 176.67 172.57 178.96C168.81 204.19 174.57 229.96 180.14 254.8C184.46 274.11 188.93 294.08 189.14 314.1C189.144 314.416 189.085 314.73 188.968 315.023C188.85 315.316 188.676 315.584 188.455 315.809C188.234 316.035 187.97 316.215 187.679 316.339C187.388 316.462 187.076 316.527 186.76 316.53C186.124 316.528 185.514 316.278 185.058 315.834C184.603 315.39 184.338 314.786 184.32 314.15C184.13 294.64 179.71 274.92 175.45 255.86C169.78 230.54 163.93 204.36 167.82 178.25C168.82 171.73 172.09 170.42 173.97 170.25C175.683 170.129 177.38 170.641 178.74 171.69C183.74 175.18 185.25 181.29 186.36 187.24C186.98 190.58 187.61 193.94 188.25 197.3C188.81 183.962 190.28 170.678 192.65 157.54C193.97 150.25 197.33 148.34 199.92 148.02C203.21 147.58 206.06 149.87 207.38 152.31C208.421 154.502 209.003 156.884 209.09 159.31C210.23 171.22 211.25 183.57 212.15 196.2C212.55 191.84 212.83 187.48 213.1 183.2C213.7 173.81 214.32 164.11 216.1 154.67C217.27 148.56 220.38 145.07 224.55 145.17C228.72 145.27 231.47 149.05 232.31 155.37C233.66 165.6 234.75 176.02 235.76 186.28C237.016 179.707 238.778 173.241 241.03 166.94C243.47 160.1 247.25 159.3 249.29 159.39C253.49 159.62 256.14 163.63 256.36 170.12L259 244.78C263.41 238.58 266.36 231.19 269.24 223.98C270.09 221.85 270.94 219.72 271.82 217.63C275.1 209.84 280.18 205.99 285.41 207.31C290.09 208.5 292.89 213.49 292.91 220.67C292.91 230.6 290.43 240.21 288.53 246.57C283.899 262.057 277.217 276.855 268.66 290.57L267.34 292.68C262.59 300.22 257.68 308.02 258.24 316.31C258.262 316.626 258.221 316.943 258.12 317.243C258.019 317.543 257.86 317.82 257.652 318.059C257.444 318.298 257.191 318.493 256.908 318.634C256.624 318.775 256.316 318.858 256 318.88L255.79 318.92Z" fill="#010101"/>
<path d="M179.32 462.36H179.23C178.914 462.35 178.603 462.277 178.315 462.146C178.027 462.015 177.768 461.829 177.552 461.597C177.337 461.366 177.169 461.094 177.059 460.798C176.949 460.501 176.898 460.186 176.91 459.87C178.44 418.32 178.98 376.17 178.51 334.6C178.506 334.029 178.705 333.476 179.072 333.038C179.438 332.601 179.948 332.307 180.51 332.21C196.24 329.21 211.63 329.96 226.51 330.73L229.18 330.87C239.42 331.4 249.66 331.93 259.81 332.44C260.138 332.456 260.46 332.539 260.754 332.684C261.049 332.828 261.311 333.032 261.524 333.283C261.737 333.533 261.896 333.824 261.992 334.139C262.087 334.453 262.117 334.784 262.08 335.11C259.93 354.11 260.65 373.62 261.35 392.48L263.82 459.63C263.832 459.946 263.781 460.261 263.671 460.558C263.561 460.854 263.393 461.126 263.178 461.357C262.962 461.589 262.703 461.775 262.415 461.906C262.127 462.037 261.816 462.11 261.5 462.12H261.41C260.787 462.12 260.188 461.878 259.741 461.446C259.293 461.013 259.031 460.423 259.01 459.8L256.53 392.66C255.86 374.46 255.17 355.66 257.02 337.12L228.93 335.68L226.26 335.54C212.26 334.82 197.88 334.08 183.4 336.54C183.83 377.54 183.28 419.06 181.78 460.01C181.764 460.647 181.497 461.253 181.035 461.693C180.574 462.134 179.958 462.373 179.32 462.36Z" fill="#010101"/>
<path d="M183.87 335.91H183.8C183.484 335.902 183.173 335.832 182.884 335.704C182.595 335.575 182.334 335.391 182.117 335.161C181.899 334.932 181.729 334.662 181.617 334.366C181.504 334.071 181.451 333.756 181.46 333.44L181.93 315.96C181.945 315.348 182.194 314.764 182.625 314.329C183.056 313.894 183.638 313.64 184.25 313.62C208.891 312.711 233.565 313.329 258.13 315.47C258.731 315.525 259.29 315.803 259.697 316.248C260.104 316.694 260.33 317.276 260.33 317.88C260.308 323.205 259.941 328.523 259.23 333.8C259.202 334.125 259.108 334.442 258.954 334.73C258.8 335.018 258.589 335.271 258.334 335.475C258.079 335.679 257.786 335.829 257.471 335.916C257.156 336.003 256.827 336.025 256.503 335.981C256.18 335.937 255.869 335.828 255.589 335.66C255.309 335.492 255.066 335.269 254.875 335.004C254.684 334.739 254.548 334.438 254.477 334.119C254.406 333.801 254.4 333.471 254.46 333.15C255.034 328.815 255.367 324.452 255.46 320.08C232.583 318.174 209.614 317.596 186.67 318.35L186.26 333.57C186.239 334.193 185.98 334.784 185.534 335.219C185.089 335.655 184.493 335.903 183.87 335.91Z" fill="#010101"/>
<path d="M66 429.76C65.5332 429.768 65.0742 429.64 64.6792 429.391C64.2842 429.142 63.9703 428.783 63.7761 428.359C63.5819 427.934 63.5157 427.462 63.5857 427.001C63.6556 426.539 63.8587 426.108 64.17 425.76C97.7045 386.549 133.21 349.067 170.55 313.46C158.17 304.08 144.55 291.36 129.09 274.7C115.89 284.88 102.72 295.47 89.97 305.7C64.57 326.14 38.3 347.27 10.77 365.93C10.2396 366.288 9.58864 366.421 8.9604 366.299C8.33215 366.177 7.77806 365.81 7.42002 365.28C7.06197 364.75 6.92931 364.099 7.05121 363.47C7.17311 362.842 7.53958 362.288 8.07002 361.93C35.44 343.38 61.62 322.31 86.95 301.93C100.28 291.2 114.07 280.11 127.89 269.49C128.368 269.124 128.965 268.949 129.564 269.001C130.164 269.053 130.722 269.327 131.13 269.77C148 288.18 162.58 301.7 175.71 311.33C176.001 311.534 176.241 311.801 176.415 312.111C176.588 312.421 176.689 312.766 176.71 313.12C176.734 313.472 176.68 313.824 176.552 314.153C176.424 314.481 176.225 314.777 175.97 315.02C137.991 351.091 101.909 389.109 67.87 428.92C67.6392 429.189 67.352 429.404 67.0288 429.549C66.7056 429.694 66.3543 429.766 66 429.76Z" fill="#010101"/>
<path d="M153.52 334.91C152.93 334.911 152.36 334.694 151.92 334.3C136.176 320.028 121.742 304.376 108.79 287.53C108.578 287.28 108.418 286.989 108.322 286.675C108.226 286.362 108.195 286.032 108.231 285.705C108.267 285.379 108.369 285.064 108.531 284.778C108.693 284.493 108.912 284.244 109.174 284.046C109.436 283.848 109.735 283.706 110.054 283.628C110.373 283.55 110.704 283.538 111.028 283.593C111.351 283.648 111.66 283.768 111.936 283.946C112.211 284.125 112.448 284.357 112.63 284.63C125.396 301.225 139.619 316.646 155.13 330.71C155.492 331.036 155.746 331.464 155.86 331.938C155.973 332.411 155.941 332.908 155.767 333.363C155.592 333.817 155.284 334.209 154.883 334.485C154.482 334.761 154.007 334.909 153.52 334.91Z" fill="#010101"/>
<path d="M136 278.35C135.53 278.349 135.071 278.21 134.679 277.952C134.287 277.693 133.979 277.325 133.793 276.894C133.607 276.463 133.552 275.986 133.633 275.524C133.714 275.061 133.928 274.632 134.25 274.29C150.25 257.37 159.39 236.44 168.07 214.68C168.307 214.086 168.771 213.61 169.359 213.358C169.947 213.106 170.611 213.098 171.205 213.335C171.799 213.572 172.275 214.036 172.527 214.624C172.779 215.212 172.787 215.876 172.55 216.47C163.68 238.68 154.35 260.07 137.75 277.6C137.525 277.838 137.254 278.028 136.953 278.157C136.652 278.286 136.328 278.352 136 278.35Z" fill="#010101"/>
<path d="M172.44 313.18C171.933 313.181 171.439 313.02 171.03 312.72C170.512 312.347 170.163 311.784 170.06 311.154C169.957 310.524 170.108 309.879 170.48 309.36C174.369 304.18 179.022 299.622 184.28 295.84C184.53 295.633 184.819 295.479 185.131 295.386C185.442 295.294 185.768 295.265 186.091 295.302C186.413 295.339 186.725 295.441 187.007 295.601C187.289 295.762 187.536 295.977 187.733 296.235C187.93 296.494 188.073 296.789 188.152 297.103C188.232 297.418 188.248 297.746 188.198 298.066C188.148 298.387 188.034 298.694 187.863 298.97C187.691 299.246 187.466 299.484 187.2 299.67C182.2 303.5 178.07 307.09 174.39 312.18C174.167 312.489 173.874 312.741 173.535 312.914C173.196 313.088 172.821 313.179 172.44 313.18Z" fill="#010101"/>
<path d="M169.41 148.03C168.864 148.028 168.336 147.841 167.91 147.5C128.603 115.923 91.0477 82.2261 55.41 46.56C55.0252 46.0964 54.828 45.5056 54.8571 44.9038C54.8863 44.3021 55.1398 43.7331 55.5677 43.309C55.9956 42.8848 56.5668 42.6364 57.1688 42.6125C57.7708 42.5886 58.3599 42.7911 58.82 43.18C94.3288 78.7245 131.751 112.304 170.92 143.77C171.31 144.082 171.592 144.508 171.729 144.988C171.867 145.468 171.851 145.979 171.685 146.45C171.52 146.921 171.212 147.329 170.804 147.617C170.396 147.906 169.909 148.06 169.41 148.06V148.03Z" fill="#010101"/>
<path d="M129.37 204.7C128.859 204.696 128.362 204.532 127.95 204.23C86.89 174.18 44.22 145.18 1.13001 118.1C0.614531 117.749 0.255148 117.212 0.127374 116.602C-0.000399418 115.991 0.113385 115.355 0.444817 114.827C0.776249 114.299 1.29952 113.92 1.90469 113.769C2.50985 113.619 3.14978 113.709 3.69 114.02C46.88 141.18 89.69 170.22 130.79 200.34C131.202 200.639 131.509 201.061 131.666 201.546C131.823 202.03 131.823 202.552 131.665 203.036C131.508 203.521 131.201 203.942 130.788 204.241C130.376 204.54 129.879 204.701 129.37 204.7Z" fill="#010101"/>
<path d="M129.09 205.06C128.652 205.063 128.222 204.946 127.846 204.722C127.47 204.498 127.163 204.176 126.957 203.789C126.751 203.403 126.654 202.968 126.678 202.531C126.701 202.094 126.844 201.672 127.09 201.31C139.83 182.39 153.18 163.51 166.75 145.2C167.138 144.707 167.703 144.384 168.324 144.301C168.946 144.218 169.576 144.38 170.08 144.754C170.584 145.128 170.922 145.683 171.023 146.302C171.124 146.922 170.979 147.556 170.62 148.07C157.1 166.32 143.8 185.18 131.09 204C130.87 204.328 130.572 204.597 130.223 204.782C129.874 204.967 129.485 205.062 129.09 205.06Z" fill="#010101"/>
<path d="M164.2 228.24C163.811 228.248 163.425 228.161 163.076 227.987C162.728 227.813 162.427 227.556 162.2 227.24C154.097 215.887 144.161 205.961 132.8 197.87C132.542 197.686 132.323 197.453 132.155 197.185C131.987 196.916 131.873 196.617 131.821 196.304C131.768 195.992 131.778 195.672 131.849 195.364C131.92 195.055 132.051 194.763 132.235 194.505C132.419 194.247 132.652 194.028 132.92 193.86C133.189 193.692 133.488 193.578 133.8 193.526C134.113 193.473 134.433 193.483 134.741 193.554C135.05 193.625 135.342 193.756 135.6 193.94C147.397 202.344 157.712 212.655 166.12 224.45C166.376 224.813 166.527 225.24 166.556 225.683C166.585 226.127 166.491 226.569 166.284 226.963C166.077 227.356 165.765 227.684 165.384 227.911C165.002 228.139 164.564 228.256 164.12 228.25L164.2 228.24Z" fill="#010101"/>
<path d="M191 175.64C190.571 175.642 190.149 175.528 189.78 175.31C180.67 169.95 171.71 164.06 163.15 157.81C162.661 157.423 162.341 156.863 162.257 156.245C162.173 155.628 162.331 155.002 162.699 154.499C163.066 153.996 163.614 153.654 164.228 153.546C164.841 153.438 165.473 153.572 165.99 153.92C174.42 160.07 183.25 165.87 192.23 171.16C192.683 171.43 193.035 171.841 193.232 172.33C193.428 172.819 193.459 173.36 193.32 173.868C193.18 174.376 192.878 174.825 192.459 175.145C192.04 175.465 191.527 175.639 191 175.64Z" fill="#010101"/>
<path d="M430.45 382.18C429.952 382.182 429.466 382.028 429.06 381.74C386.54 351.69 342.72 322.27 298.8 294.29C298.269 293.952 297.891 293.42 297.747 292.807C297.603 292.194 297.704 291.549 298.03 291.01C311.29 269.1 325.31 248.06 337.68 229.5C338.004 229.013 338.494 228.659 339.059 228.507C339.624 228.354 340.225 228.412 340.75 228.67C387.11 251.54 433.54 275.8 478.75 300.8C479.27 301.129 479.644 301.643 479.796 302.239C479.949 302.835 479.868 303.466 479.57 304.004C479.273 304.542 478.781 304.945 478.195 305.133C477.609 305.32 476.974 305.276 476.42 305.01C431.88 280.4 386.17 256.48 340.51 233.93C328.84 251.44 315.79 271.08 303.36 291.5C346.68 319.14 389.89 348.17 431.83 377.81C432.251 378.103 432.567 378.523 432.732 379.008C432.897 379.494 432.902 380.019 432.746 380.508C432.591 380.996 432.283 381.422 431.868 381.723C431.453 382.024 430.953 382.184 430.44 382.18H430.45Z" fill="#010101"/>
<path d="M302.93 287.02C302.339 287.023 301.769 286.806 301.33 286.41C294.131 279.973 286.317 274.259 278 269.35C277.721 269.192 277.477 268.981 277.281 268.727C277.086 268.474 276.942 268.184 276.86 267.875C276.777 267.566 276.757 267.243 276.8 266.926C276.844 266.609 276.95 266.304 277.113 266.028C277.275 265.752 277.491 265.512 277.748 265.321C278.005 265.129 278.297 264.991 278.608 264.914C278.918 264.837 279.241 264.823 279.558 264.872C279.874 264.921 280.177 265.032 280.45 265.2C289.035 270.27 297.1 276.171 304.53 282.82C304.892 283.146 305.146 283.574 305.26 284.048C305.373 284.521 305.341 285.018 305.167 285.473C304.992 285.927 304.684 286.319 304.283 286.595C303.882 286.871 303.407 287.019 302.92 287.02H302.93Z" fill="#010101"/>
<path d="M334.62 235.92C334.274 235.922 333.933 235.847 333.62 235.7C316.333 227.896 300.584 217.058 287.12 203.7C283.85 200.47 280.68 197.05 277.61 193.7C270.45 185.98 263.04 178 254.22 172.26C253.768 171.88 253.471 171.348 253.385 170.763C253.3 170.179 253.432 169.584 253.756 169.09C254.08 168.597 254.575 168.24 255.145 168.087C255.715 167.934 256.322 167.995 256.85 168.26C266.17 174.32 273.78 182.53 281.14 190.47C284.14 193.74 287.31 197.12 290.51 200.28C303.569 213.222 318.84 223.721 335.6 231.28C336.105 231.506 336.517 231.898 336.767 232.392C337.016 232.886 337.089 233.45 336.971 233.991C336.854 234.532 336.554 235.015 336.123 235.361C335.691 235.707 335.153 235.894 334.6 235.89L334.62 235.92Z" fill="#010101"/>
<path d="M270 202.47C269.68 202.471 269.362 202.408 269.067 202.285C268.771 202.161 268.504 201.979 268.28 201.75L254 187.18C253.779 186.954 253.605 186.687 253.488 186.394C253.371 186.101 253.312 185.787 253.316 185.472C253.32 185.156 253.385 184.844 253.51 184.554C253.634 184.264 253.814 184.001 254.04 183.78C254.266 183.559 254.533 183.385 254.826 183.268C255.119 183.151 255.433 183.092 255.748 183.096C256.064 183.1 256.376 183.165 256.666 183.29C256.956 183.414 257.219 183.594 257.44 183.82L271.74 198.42C271.964 198.644 272.142 198.91 272.263 199.202C272.384 199.495 272.447 199.808 272.447 200.125C272.447 200.442 272.384 200.755 272.263 201.048C272.142 201.34 271.964 201.606 271.74 201.83C271.508 202.048 271.234 202.216 270.935 202.326C270.636 202.436 270.318 202.485 270 202.47Z" fill="#010101"/>
<path d="M314.19 147.34C313.717 147.34 313.254 147.201 312.86 146.94C303.39 140.67 294.13 134.06 284.32 127.06C278.89 123.18 273.27 119.17 267.32 115.06C267.06 114.878 266.838 114.645 266.668 114.377C266.498 114.108 266.383 113.809 266.329 113.496C266.275 113.183 266.283 112.862 266.354 112.552C266.425 112.242 266.556 111.949 266.74 111.69C283 88.77 294.67 67.75 307 45.5C314.86 31.34 323 16.68 332.57 1.18005C332.731 0.900435 332.947 0.655999 333.204 0.461236C333.461 0.266473 333.755 0.125348 334.068 0.0462308C334.38 -0.0328865 334.706 -0.0483852 335.025 0.000652842C335.344 0.0496909 335.649 0.162268 335.924 0.331708C336.199 0.501147 336.436 0.723999 336.623 0.98705C336.81 1.2501 336.942 1.54799 337.012 1.86306C337.081 2.17813 337.087 2.50396 337.028 2.82123C336.97 3.1385 336.848 3.44074 336.67 3.71005C327.15 19.15 319.05 33.7101 311.22 47.8701C299.17 69.6001 287.77 90.16 272.08 112.49C277.3 116.16 282.28 119.72 287.08 123.17C296.26 129.72 304.96 135.93 313.77 141.82C343.1 109.95 372.56 74.9901 401.07 41.18C401.488 40.7121 402.073 40.4258 402.699 40.382C403.325 40.3382 403.943 40.5403 404.422 40.9454C404.902 41.3505 405.204 41.9266 405.265 42.5512C405.327 43.1758 405.142 43.7997 404.75 44.2901C375.75 78.69 345.75 114.29 315.96 146.58C315.734 146.823 315.46 147.015 315.155 147.146C314.85 147.277 314.522 147.343 314.19 147.34Z" fill="#010101"/>
<path d="M287.93 203.7C287.774 203.715 287.616 203.715 287.46 203.7C286.834 203.572 286.284 203.202 285.929 202.67C285.575 202.138 285.446 201.487 285.57 200.86C289.65 180.52 294.28 157.46 308.88 140.1C309.292 139.611 309.882 139.305 310.52 139.251C311.158 139.196 311.791 139.398 312.28 139.81C312.769 140.222 313.075 140.812 313.129 141.45C313.184 142.088 312.982 142.721 312.57 143.21C298.76 159.62 294.26 182.03 290.29 201.81C290.171 202.347 289.873 202.827 289.443 203.171C289.014 203.515 288.48 203.702 287.93 203.7Z" fill="#010101"/>
<path d="M230.66 159.08C230.175 159.078 229.702 158.932 229.3 158.66C229.038 158.482 228.815 158.253 228.642 157.988C228.469 157.722 228.35 157.426 228.293 157.114C228.235 156.803 228.239 156.483 228.306 156.173C228.372 155.864 228.5 155.57 228.68 155.31C230.97 151.97 234.25 149.8 237.42 147.7L238.56 146.94C250.477 138.93 260.52 128.436 268 116.18C268.161 115.903 268.376 115.661 268.631 115.468C268.887 115.275 269.178 115.135 269.489 115.056C269.799 114.977 270.122 114.961 270.439 115.008C270.755 115.055 271.06 115.165 271.333 115.331C271.607 115.498 271.845 115.717 272.033 115.976C272.221 116.235 272.356 116.529 272.429 116.841C272.503 117.152 272.513 117.476 272.46 117.792C272.407 118.107 272.291 118.409 272.12 118.68C264.278 131.555 253.74 142.578 241.23 150.99L240.07 151.76C237.15 153.69 234.4 155.52 232.64 158.08C232.415 158.394 232.118 158.649 231.773 158.824C231.428 158.998 231.046 159.086 230.66 159.08Z" fill="#010101"/>
<path d="M325.1 309.92C324.593 309.921 324.099 309.76 323.69 309.46C323.433 309.275 323.215 309.042 323.049 308.773C322.883 308.504 322.772 308.204 322.721 307.892C322.671 307.58 322.683 307.261 322.757 306.953C322.83 306.646 322.964 306.356 323.15 306.1C337.62 286.18 351.4 265.39 364.15 244.3C364.313 244.029 364.527 243.794 364.781 243.606C365.035 243.418 365.324 243.283 365.63 243.207C365.937 243.13 366.255 243.115 366.567 243.162C366.88 243.209 367.179 243.317 367.45 243.48C367.721 243.643 367.956 243.857 368.144 244.111C368.332 244.365 368.467 244.654 368.543 244.96C368.62 245.267 368.635 245.585 368.588 245.897C368.541 246.21 368.433 246.509 368.27 246.78C355.5 267.99 341.64 288.9 327.09 308.93C326.863 309.243 326.563 309.497 326.217 309.669C325.87 309.842 325.487 309.928 325.1 309.92Z" fill="#010101"/>
<path d="M78.13 293.46C77.6457 293.459 77.173 293.312 76.7735 293.038C76.374 292.764 76.0662 292.377 75.8903 291.926C75.7143 291.474 75.6784 290.981 75.7872 290.509C75.8959 290.037 76.1443 289.609 76.5 289.28C91.94 275.08 108.17 261.35 124.74 248.47C124.989 248.267 125.277 248.116 125.585 248.026C125.894 247.936 126.217 247.908 126.536 247.945C126.856 247.981 127.165 248.082 127.445 248.239C127.725 248.397 127.97 248.609 128.167 248.864C128.364 249.118 128.508 249.409 128.59 249.719C128.673 250.03 128.693 250.354 128.648 250.672C128.604 250.991 128.496 251.297 128.332 251.573C128.167 251.849 127.949 252.089 127.69 252.28C111.23 265.07 95.1 278.71 79.77 292.83C79.32 293.235 78.7357 293.46 78.13 293.46Z" fill="#010101"/>
<path d="M55 287.96C54.6456 287.96 54.2955 287.881 53.9755 287.729C53.6554 287.577 53.3734 287.355 53.15 287.08C52.7423 286.589 52.546 285.956 52.6041 285.321C52.6622 284.685 52.97 284.099 53.46 283.69C66.3228 273.024 78.5253 261.587 90 249.44C90.4389 248.975 91.0448 248.703 91.6843 248.684C92.3238 248.665 92.9446 248.901 93.41 249.34C93.8755 249.779 94.1475 250.385 94.1662 251.024C94.185 251.664 93.9489 252.285 93.51 252.75C81.8871 265.036 69.5312 276.607 56.51 287.4C56.0846 287.752 55.5522 287.95 55 287.96Z" fill="#010101"/>
</g>
<defs>
<clipPath id="clip0_206_3413">
<rect width="480" height="462.35" fill="white"/>
</clipPath>
</defs>
</svg>
