<svg width="477" height="480" viewBox="0 0 477 480" fill="none" xmlns="http://www.w3.org/2000/svg">
<g clip-path="url(#clip0_206_3567)">
<path d="M394.29 334.35C392.29 331.87 393.87 328.12 396.02 325.78C398.17 323.44 401.02 321.35 401.68 318.24C402.77 313.37 398.2 309.24 394.14 306.33C394.72 300.99 395.39 295.41 398.36 290.93C399.36 289.43 400.62 288.04 401.15 286.32C402.15 283.27 400.55 280.06 400.42 275.98C422.42 253.04 433.08 221.81 442.96 192.23C434.7 191.87 426.65 188.5 418.42 189.23C416.34 189.42 414.29 189.86 412.21 189.89C407.21 189.95 402.28 187.53 396.89 187.51C392.89 155.32 395.78 122.51 390.34 90.51C389.99 88.51 389.57 86.36 388.21 84.81C387.132 83.6679 385.74 82.871 384.21 82.52C381.318 81.8557 378.286 82.2214 375.635 83.5541C372.984 84.8868 370.882 87.1028 369.69 89.82C365.555 89.1788 361.389 88.7516 357.21 88.54C356.39 82.54 351.66 76.98 345.66 76.34C339.66 75.7 333.44 81.17 334.49 86.82L322.94 85.5C323.06 84.4727 322.911 83.4321 322.51 82.4789C322.109 81.5258 321.468 80.6925 320.65 80.06C318.992 78.8035 316.98 78.1034 314.9 78.06C310.7 77.82 306.05 79.82 304.65 83.82C300.375 83.1809 296.047 82.9699 291.73 83.19C288.18 79.13 282.1 77.49 276.04 77.95C250.121 59.6806 221.454 45.6613 191.12 36.42C190.408 26.4067 190.807 16.3454 192.31 6.41997C169.05 3.24997 145.71 0.0599707 122.23 -0.0300293C109.82 -0.0300293 96.7301 0.969972 86.0101 9.59997C84.0291 35.9883 84.4173 62.501 87.1701 88.82C83.4801 91.29 80.8001 95.47 80.8301 99.91C80.8601 104.35 83.9901 108.77 88.3501 109.63C87.6841 113.553 87.5061 117.543 87.8201 121.51C82.4901 121.88 78.2601 126.37 76.0601 131.25C74.4401 134.82 73.8301 139.53 76.6601 142.25C79.2501 144.72 83.3901 144.3 86.5101 145.65L85.6701 155.1C83.6368 155.877 81.8709 157.225 80.5839 158.98C79.2969 160.736 78.5433 162.825 78.4135 164.998C78.2837 167.171 78.7831 169.335 79.852 171.232C80.9209 173.128 82.5139 174.676 84.4401 175.69C83.6574 180.083 83.2726 184.538 83.2901 189C79.4201 193.06 77.8401 199.16 78.6801 205.74C59.8397 230.931 45.5139 259.2 36.3401 289.29C26.7301 289.86 17.1101 290.42 7.25005 291.62C3.14005 298.77 1.80005 307.15 0.990054 315.36C-1.6189 342.151 0.940775 369.194 8.53005 395.02L88.4401 393.08C89.4917 395.065 91.0711 396.721 93.0041 397.866C94.937 399.011 97.1486 399.6 99.3949 399.568C101.641 399.536 103.835 398.884 105.735 397.684C107.634 396.485 109.165 394.784 110.16 392.77C113.53 394.153 117.221 394.559 120.81 393.94C121.114 397.15 122.539 400.15 124.836 402.414C127.133 404.677 130.153 406.058 133.368 406.315C136.582 406.572 139.784 405.687 142.41 403.817C145.037 401.947 146.921 399.211 147.73 396.09L154.73 395.91C155.5 398.208 156.924 400.232 158.827 401.733C160.73 403.234 163.03 404.146 165.445 404.359C167.859 404.571 170.284 404.074 172.42 402.928C174.556 401.783 176.311 400.039 177.47 397.91C182.995 398.342 188.401 399.743 193.44 402.05C196.16 403.31 199.82 404.66 201.44 401.96C229.2 419.38 257.35 436.96 288.22 447.14C287.983 456.857 286.892 466.534 284.96 476.06C296.3 479.42 308.3 479.58 320.13 479.72L339.28 479.94C357.67 480.15 376.59 480.27 394.12 472.4C394.12 472.4 390.34 392.97 391.26 391.61C394.47 388.17 397.93 383.76 396.55 379.27C395.17 374.78 389.55 372.36 389.13 367.73C388.83 364.13 391.95 361.2 395.07 359.37C398.19 357.54 401.77 356.02 403.58 352.9C405.51 349.58 404.82 345.22 402.77 341.97C400.72 338.72 397.54 336.4 394.29 334.35ZM285.75 270.57C280.51 271.94 275.22 273.23 269.97 274.57C264.72 275.91 259.84 277.8 254.81 279.43C244.44 282.82 234.04 286.19 223.54 289.2C222.847 289.43 222.111 289.499 221.387 289.404C220.663 289.309 219.97 289.051 219.36 288.65C216.63 290.94 211.63 290.65 210.41 286.21C203.99 262.71 196.93 239.34 187.53 216.84C186.61 214.64 188.13 211.78 190.04 210.67C191.013 210.096 192.148 209.857 193.27 209.99C193.656 209.641 194.118 209.387 194.62 209.25C205.62 205.98 216.53 202.41 227.56 199.25C233.12 197.65 238.66 196.03 244.23 194.51C246.23 193.96 248.37 193.36 250.5 192.82L256.77 189.93C257.537 189.385 258.409 189.003 259.33 188.81C260.273 188.607 261.253 188.664 262.166 188.976C263.078 189.288 263.889 189.842 264.51 190.58C264.987 190.513 265.472 190.536 265.94 190.65C266.78 190.903 267.495 191.464 267.94 192.22C268.122 192.559 268.254 192.923 268.33 193.3L268.4 193.39C269.088 193.399 269.75 193.655 270.265 194.113C270.779 194.57 271.111 195.197 271.2 195.88C275.615 217.573 281.727 238.885 289.48 259.62C289.699 260.133 289.745 260.704 289.609 261.246C289.474 261.788 289.165 262.27 288.73 262.62C290.31 265.42 289.5 269.59 285.75 270.57Z" fill="white"/>
<path d="M301.18 436.57C301.05 436.573 300.92 436.549 300.799 436.499C300.679 436.449 300.57 436.374 300.48 436.28C300.3 436.094 300.199 435.844 300.199 435.585C300.199 435.326 300.3 435.076 300.48 434.89C310.783 424.906 321.612 415.479 332.92 406.65C333.127 406.542 333.366 406.511 333.594 406.56C333.822 406.61 334.026 406.738 334.169 406.922C334.313 407.106 334.388 407.335 334.381 407.568C334.373 407.802 334.285 408.025 334.13 408.2C322.872 416.982 312.093 426.362 301.84 436.3C301.661 436.468 301.426 436.564 301.18 436.57Z" fill="#010101"/>
<path d="M300.5 463.57C300.26 463.567 300.03 463.479 299.85 463.32C299.66 463.143 299.547 462.899 299.533 462.639C299.52 462.38 299.609 462.125 299.78 461.93C317.872 441.963 337.218 423.168 357.7 405.66C357.902 405.544 358.138 405.503 358.367 405.542C358.596 405.581 358.804 405.7 358.956 405.876C359.107 406.052 359.193 406.276 359.197 406.509C359.202 406.741 359.125 406.968 358.98 407.15C338.553 424.598 319.263 443.337 301.23 463.25C301.137 463.351 301.024 463.431 300.898 463.486C300.773 463.541 300.637 463.57 300.5 463.57Z" fill="#010101"/>
<path d="M319.44 472.06C319.21 472.058 318.987 471.977 318.81 471.83C318.616 471.66 318.495 471.421 318.472 471.164C318.45 470.907 318.528 470.651 318.69 470.45C337.158 448.514 357.233 427.984 378.75 409.03C378.95 408.913 379.184 408.869 379.413 408.905C379.642 408.942 379.851 409.057 380.004 409.23C380.158 409.404 380.246 409.626 380.255 409.857C380.263 410.089 380.191 410.316 380.05 410.5C358.603 429.39 338.594 449.854 320.19 471.72C320.096 471.827 319.981 471.912 319.852 471.971C319.722 472.029 319.582 472.06 319.44 472.06Z" fill="#010101"/>
<path d="M342.83 470.53C342.643 470.521 342.463 470.459 342.309 470.353C342.155 470.246 342.034 470.098 341.96 469.926C341.886 469.755 341.862 469.565 341.89 469.38C341.919 469.195 341.998 469.022 342.12 468.88L380.44 428.72C380.629 428.588 380.858 428.526 381.087 428.543C381.317 428.561 381.534 428.657 381.701 428.816C381.868 428.974 381.975 429.186 382.004 429.414C382.033 429.643 381.982 429.875 381.86 430.07L343.54 470.23C343.447 470.325 343.337 470.4 343.215 470.451C343.093 470.503 342.962 470.529 342.83 470.53Z" fill="#010101"/>
<path d="M368.77 472.82C368.53 472.817 368.3 472.729 368.12 472.57C367.932 472.395 367.818 472.153 367.803 471.896C367.788 471.639 367.873 471.386 368.04 471.19L386.12 450.91C386.193 450.78 386.295 450.668 386.417 450.583C386.54 450.497 386.68 450.44 386.827 450.416C386.974 450.391 387.125 450.4 387.268 450.442C387.412 450.483 387.544 450.556 387.655 450.655C387.767 450.755 387.855 450.878 387.913 451.015C387.97 451.153 387.997 451.302 387.989 451.451C387.982 451.6 387.942 451.745 387.871 451.877C387.8 452.008 387.701 452.122 387.58 452.21L369.5 472.49C369.408 472.592 369.295 472.675 369.17 472.731C369.044 472.788 368.908 472.818 368.77 472.82Z" fill="#010101"/>
<path d="M298.24 417.92C298.011 417.921 297.789 417.843 297.61 417.7C297.414 417.531 297.291 417.293 297.267 417.036C297.243 416.779 297.319 416.522 297.48 416.32C300.973 412.107 304.799 408.181 308.92 404.58C309.008 404.458 309.123 404.358 309.256 404.287C309.388 404.216 309.535 404.175 309.685 404.169C309.835 404.162 309.985 404.19 310.123 404.249C310.261 404.308 310.384 404.398 310.483 404.511C310.582 404.625 310.654 404.759 310.693 404.904C310.733 405.049 310.74 405.201 310.712 405.349C310.685 405.497 310.625 405.637 310.536 405.758C310.448 405.879 310.333 405.979 310.2 406.05C306.165 409.588 302.417 413.44 298.99 417.57C298.897 417.678 298.782 417.766 298.653 417.826C298.524 417.887 298.383 417.919 298.24 417.92Z" fill="#010101"/>
<path d="M98.85 76.64C98.5848 76.64 98.3304 76.5346 98.1429 76.3471C97.9553 76.1595 97.85 75.9052 97.85 75.64L98.21 11.34C98.21 11.0747 98.3153 10.8204 98.5029 10.6329C98.6904 10.4453 98.9448 10.34 99.21 10.34C99.4752 10.34 99.7295 10.4453 99.9171 10.6329C100.105 10.8204 100.21 11.0747 100.21 11.34L99.84 75.65C99.8374 75.9117 99.7322 76.162 99.5471 76.3471C99.362 76.5322 99.1117 76.6374 98.85 76.64Z" fill="#010101"/>
<path d="M115.27 74.3701C115.005 74.3701 114.75 74.2647 114.563 74.0772C114.375 73.8896 114.27 73.6353 114.27 73.3701L113.17 11.1801C113.17 10.9148 113.275 10.6605 113.463 10.4729C113.65 10.2854 113.905 10.1801 114.17 10.1801C114.435 10.1801 114.69 10.2854 114.877 10.4729C115.065 10.6605 115.17 10.9148 115.17 11.1801L116.28 73.3701C116.28 73.6353 116.175 73.8896 115.987 74.0772C115.8 74.2647 115.545 74.3701 115.28 74.3701H115.27Z" fill="#010101"/>
<path d="M132.88 78.1C132.615 78.1 132.36 77.9946 132.173 77.8071C131.985 77.6195 131.88 77.3652 131.88 77.1L131.61 10.1C131.61 9.83476 131.715 9.5804 131.903 9.39287C132.09 9.20533 132.345 9.09998 132.61 9.09998C132.875 9.09998 133.13 9.20533 133.317 9.39287C133.505 9.5804 133.61 9.83476 133.61 10.1L133.87 77.1C133.87 77.3652 133.765 77.6195 133.577 77.8071C133.39 77.9946 133.135 78.1 132.87 78.1H132.88Z" fill="#010101"/>
<path d="M150.51 72.21C150.255 72.2104 150.009 72.1133 149.823 71.9386C149.637 71.7638 149.525 71.5246 149.51 71.27C148.77 52.19 148.78 32.86 149.51 13.8C149.519 13.5347 149.634 13.2841 149.828 13.1031C150.022 12.9221 150.28 12.8257 150.545 12.835C150.81 12.8442 151.061 12.9585 151.242 13.1526C151.423 13.3467 151.519 13.6047 151.51 13.87C150.77 32.87 150.76 52.17 151.51 71.19C151.51 71.4451 151.413 71.6908 151.239 71.8767C151.064 72.0626 150.825 72.1747 150.57 72.19L150.51 72.21Z" fill="#010101"/>
<path d="M166.56 75.63C166.295 75.63 166.04 75.5247 165.853 75.3371C165.665 75.1496 165.56 74.8953 165.56 74.63L166.44 12.75C166.428 12.6156 166.445 12.4802 166.491 12.3533C166.537 12.2264 166.61 12.1111 166.706 12.0157C166.801 11.9202 166.916 11.847 167.043 11.8011C167.17 11.7552 167.306 11.7377 167.44 11.75C167.705 11.75 167.96 11.8554 168.147 12.0429C168.335 12.2305 168.44 12.4848 168.44 12.75L167.56 74.63C167.56 74.8953 167.455 75.1496 167.267 75.3371C167.08 75.5247 166.825 75.63 166.56 75.63Z" fill="#010101"/>
<path d="M178.95 75.74C178.685 75.74 178.43 75.6346 178.243 75.4471C178.055 75.2596 177.95 75.0052 177.95 74.74L177.89 19.74C177.89 19.4748 177.995 19.2204 178.183 19.0329C178.37 18.8453 178.625 18.74 178.89 18.74C179.155 18.74 179.41 18.8453 179.597 19.0329C179.785 19.2204 179.89 19.4748 179.89 19.74L179.95 74.74C179.95 75.0052 179.845 75.2596 179.657 75.4471C179.47 75.6346 179.215 75.74 178.95 75.74Z" fill="#010101"/>
<path d="M471.68 86.1C444.639 88.8856 417.437 89.7944 390.27 88.82C393.47 121.88 395.803 155.003 397.27 188.19L473.96 193C476.131 157.364 475.369 121.611 471.68 86.1Z" fill="#AED3F0"/>
<g opacity="0.13">
<path d="M409.62 181.35C410.62 171.46 409.41 161.44 408.62 151.54C407.74 140.93 407.32 130.28 406.86 119.64C406.43 110.64 406.35 101.42 403.5 92.82C400.8 83.91 387.63 87.51 389.84 96.58C395.61 114.09 393.84 141.23 395.02 168.75C395.3 171.69 395.47 174.62 396.02 177.55C396.083 179.018 396.314 180.475 396.71 181.89C396.93 184.5 396.45 183.17 397.34 185.44C399.78 191.83 409.65 189.8 409.57 182.97C409.16 185.82 409.53 183.22 409.62 181.35Z" fill="#010101"/>
</g>
<g opacity="0.13">
<path d="M444.03 191.82C443.4 185.47 434.03 184.87 432.4 191.03C430.84 196.89 427.73 206.26 426.82 207.78C422.05 217.92 415.97 227.36 410.89 237.33C405.89 246.16 399.47 254.18 395.2 263.42C393.72 266.69 392.98 266.42 392.2 268.42C391.105 267.732 389.902 267.235 388.64 266.95C387.976 266.823 387.292 266.85 386.64 267.03C389.28 270.08 390.69 274.27 389.64 278.08C389.338 278.533 389.146 279.05 389.08 279.59C388.32 281.575 387.312 283.457 386.08 285.19C385.86 285.46 385.58 285.81 385.43 285.97C385.199 286.165 385 286.394 384.84 286.65H384.77C384.21 287.03 382.1 288.04 381.35 288.41C375.62 290.53 370.35 291.69 369.6 293.72C369.359 294.156 369.211 294.638 369.168 295.135C369.125 295.631 369.186 296.131 369.348 296.603C369.51 297.074 369.77 297.506 370.109 297.871C370.449 298.235 370.861 298.525 371.32 298.72C371.541 300.147 372.27 301.446 373.372 302.38C374.474 303.313 375.876 303.817 377.32 303.8C379.32 303.8 381.38 303.8 383.41 303.8C383.33 304.287 383.33 304.783 383.41 305.27C383.457 305.264 383.504 305.264 383.55 305.27C384.375 305.608 385.16 306.038 385.89 306.55C385.764 307.102 385.822 307.68 386.055 308.196C386.288 308.713 386.683 309.139 387.18 309.41C387.846 309.816 388.469 310.289 389.04 310.82C389.15 311.25 389.26 311.82 389.4 312.46C389.66 315.51 389.46 315.84 388.4 319.06C387.49 321.06 387.28 322.06 385.26 323.9C385 324.09 384.74 324.28 384.47 324.46C383.82 324.99 382.92 325.22 382.47 325.94C382.202 326.287 382.023 326.696 381.949 327.129C381.875 327.561 381.909 328.006 382.047 328.423C382.185 328.839 382.424 329.216 382.742 329.519C383.06 329.822 383.447 330.042 383.87 330.16C384.464 330.263 385.074 330.208 385.64 330C385.963 330.48 386.404 330.869 386.92 331.13C386.73 331.567 386.636 332.04 386.647 332.517C386.657 332.993 386.771 333.462 386.98 333.89C386.976 333.923 386.976 333.957 386.98 333.99L386.59 334.09C383.3 335.25 383.67 340.42 387.04 341.21C387.5 341.32 387.96 341.43 388.41 341.58H388.47C388.907 341.956 389.317 342.36 389.7 342.79C389.87 343.07 390.03 343.35 390.14 343.55C390.32 344.13 390.51 344.89 390.63 345.38C390.645 345.646 390.645 345.914 390.63 346.18C390.63 346.29 390.58 346.41 390.55 346.55C390.4 347.819 390.063 349.06 389.55 350.23C387.55 353.026 384.849 355.247 381.72 356.67C379.482 357.542 377.149 358.15 374.77 358.48C374.57 358.48 375.23 358.4 375.38 358.4C372.892 358.722 370.423 359.169 367.98 359.74C367.338 359.748 366.72 359.982 366.233 360.401C365.747 360.82 365.423 361.396 365.32 362.03C365.32 365.68 368.32 364.8 370.41 364.59C372.15 364.43 373.9 364.37 375.63 364.14C375.647 364.995 375.889 365.831 376.334 366.561C376.778 367.292 377.408 367.892 378.16 368.3C379.49 368.91 380.94 369.62 382.43 370.21C382.063 370.633 381.794 371.133 381.644 371.673C381.494 372.213 381.465 372.78 381.561 373.332C381.657 373.885 381.874 374.409 382.197 374.867C382.521 375.325 382.942 375.705 383.43 375.98L383.57 376.08L383.86 376.34C384.089 376.555 384.303 376.786 384.5 377.03C384.74 377.39 384.98 377.83 385.14 378.11C385.401 378.843 385.605 379.595 385.75 380.36C385.9 383.85 386.08 382.43 385.27 385.71C384.46 387.36 384.55 387.3 384.15 387.99C383.799 388.388 383.421 388.762 383.02 389.11C382.176 389.957 381.232 390.699 380.21 391.32C379.843 391.439 379.506 391.636 379.222 391.898C378.937 392.159 378.713 392.478 378.563 392.834C378.413 393.19 378.341 393.573 378.353 393.959C378.364 394.345 378.459 394.724 378.63 395.07C378.204 395.539 377.908 396.112 377.771 396.731C377.634 397.35 377.661 397.995 377.85 398.6C378.49 402.17 379.09 405.76 379.9 409.3C379.943 409.823 380.068 410.336 380.27 410.82C380.88 418.26 381.48 429.82 381.57 437.13C381.99 448.72 380.57 460.71 383.42 472.03C384.52 476.58 390.78 478.23 393.98 474.82C396.24 472.45 396.12 468.89 395.98 465.82C394.98 448.11 395.65 430.31 393.18 412.69C392.95 410.75 392.72 408.8 392.45 406.86C393.23 404.09 392.65 404.39 393.18 401.86C392.99 399.59 393.7 397.12 392.88 394.97C392.81 394.799 392.73 394.632 392.64 394.47C393.7 393.232 394.634 391.892 395.43 390.47C398.75 384.41 398.23 376.06 393.29 371C392.749 370.484 392.181 369.997 391.59 369.54C392.285 368.779 392.743 367.832 392.909 366.816C393.075 365.799 392.942 364.755 392.525 363.813C392.108 362.871 391.427 362.07 390.563 361.508C389.699 360.947 388.69 360.648 387.66 360.65H387.44C387.02 360.56 386.68 360.48 386.39 360.4C387.19 359.97 387.99 359.51 388.77 359.02C388.994 359.585 389.349 360.088 389.807 360.488C390.264 360.888 390.81 361.173 391.4 361.32C393.87 361.88 396.11 360.15 398.21 359.09C404.65 354.84 407 345.31 402.52 338.86C400.272 335.382 396.793 332.882 392.78 331.86C392.668 331.289 392.414 330.756 392.04 330.31C392.55 330.08 393.04 329.85 393.55 329.64C400.55 326.09 403.55 316.64 399.69 309.75C398.613 307.522 397.01 305.59 395.02 304.12C395.86 303.745 396.608 303.191 397.212 302.497C397.815 301.803 398.26 300.986 398.516 300.103C398.771 299.219 398.83 298.29 398.689 297.381C398.548 296.472 398.211 295.605 397.7 294.84C397.186 294.007 396.498 293.294 395.683 292.751C394.869 292.207 393.947 291.845 392.98 291.69C393.34 291.47 393.71 291.25 394.06 291.02C397.18 288.49 396.88 289.08 398.5 284.83C399.35 281.572 399.104 278.125 397.8 275.02C398.151 274.917 398.487 274.769 398.8 274.58C399.923 273.851 400.779 272.777 401.24 271.52C402.007 271.75 402.824 271.75 403.59 271.52C404.435 271.253 405.192 270.762 405.78 270.1C406.01 269.84 407.44 267.99 407.78 267.38C410.367 263.28 412.91 259.147 415.41 254.98C419.46 248.19 423.72 241.51 427.28 234.45C428.19 232.28 430.1 230.15 429.41 227.68C429.196 226.79 428.675 226.005 427.94 225.46C432.81 217.67 437.94 210.06 441.1 201.36C442.04 198.35 444.38 195.21 444.03 191.82Z" fill="#010101"/>
</g>
<g opacity="0.13">
<path d="M269.77 439.97C270.462 439.897 271.112 439.604 271.625 439.135C272.138 438.665 272.487 438.043 272.62 437.36L275.51 438.46C275.043 439.208 274.733 440.043 274.597 440.914C274.461 441.786 274.503 442.675 274.72 443.53L275.99 444.08C277.685 444.876 279.311 445.812 280.85 446.88C281.31 447.19 281.75 447.52 282.19 447.88C283.645 447.494 284.901 446.576 285.711 445.307C286.52 444.038 286.823 442.512 286.56 441.03C286.681 440.84 286.775 440.635 286.84 440.42C287.29 438.58 285.93 437.78 284.56 437.28C283.659 436.517 282.553 436.037 281.38 435.9C277.45 433.68 273.38 429.63 270.79 428.09C266.57 425.09 261.67 423.44 257.26 420.8C255.91 419.94 254.62 419.11 253.38 418.29C252.021 417.191 250.722 416.019 249.49 414.78C238.49 403.55 232.39 397.35 229.38 383.55C229.81 381.77 229.1 379.67 229.14 377.86C229.14 377.49 229.14 377.13 229.06 376.76C228.452 370.948 228.208 365.103 228.33 359.26C228.179 359.026 228.005 358.809 227.81 358.61C227.53 354.3 227.25 350 226.93 345.69C226.93 329.64 227.37 313.42 222.57 297.95C222.316 296.982 221.851 296.082 221.207 295.315C220.563 294.549 219.758 293.935 218.848 293.517C217.938 293.1 216.947 292.89 215.946 292.903C214.945 292.916 213.959 293.15 213.06 293.59C212.14 289.97 211.19 286.35 210.13 282.76C205.66 268.44 202.13 262.35 197.43 250.16C193.87 239.79 190.54 229.3 185.32 219.61C183.41 216.55 181.86 212.1 178.17 210.93C173.38 209.44 168.94 215.18 171.62 219.45C179.22 229.88 183.92 242.08 189.82 253.45C193.05 260.52 196.82 267.33 199.94 274.45C202.01 279.12 206.33 292.05 209.1 300.57C209.126 300.907 209.176 301.241 209.25 301.57C214.07 320.57 214.83 336.78 213.85 363C213.65 373 210.99 386.57 208.85 394.43H208.67C204.58 394.3 202.31 399.76 205.31 402.57C211.01 407.08 216.58 411.79 222.36 416.21C228.13 420.33 234.36 423.8 240.46 427.34C246.87 430.84 253.52 433.9 260.24 436.75C262.88 437.88 265.57 438.87 268.24 439.85C268.725 440.047 269.26 440.089 269.77 439.97Z" fill="#010101"/>
</g>
<g opacity="0.13">
<path d="M188.79 391.19C188.528 389.882 187.763 388.73 186.66 387.98C186.418 387.783 186.16 387.606 185.89 387.45C186.2 385.32 185.76 383.01 185.95 380.87C185.95 379.3 186.18 377.5 184.95 376.33C184.452 375.832 183.818 375.492 183.127 375.353C182.437 375.214 181.721 375.282 181.069 375.547C180.416 375.813 179.857 376.265 179.461 376.847C179.064 377.43 178.848 378.116 178.84 378.82C179.02 381.54 178.59 384.41 178.84 387.12C177.92 388.32 177.76 390.12 179.21 391.91C179.31 392.03 179.42 392.14 179.53 392.26V392.57C179.96 399.7 190.44 398.15 188.79 391.19Z" fill="#010101"/>
</g>
<g opacity="0.13">
<path d="M152.02 384.21C143.92 384.42 143.94 396.29 152.02 396.51C160.12 396.31 160.1 384.44 152.02 384.21Z" fill="#010101"/>
</g>
<g opacity="0.13">
<path d="M115.36 375.82C107.26 376.02 107.28 387.89 115.36 388.11C123.44 387.93 123.44 376.06 115.36 375.82Z" fill="#010101"/>
</g>
<g opacity="0.13">
<path d="M200.15 37.36C198.3 32.36 190.52 33.99 190.64 39.27C189.69 51.47 188.57 63.52 187.18 72.27C186.93 74.47 185.67 76.41 185.7 78.65C185.46 86.98 197.1 86.46 196.64 78.12C196.64 76.12 196.26 77.48 196.45 74.33C197.77 66.57 198.6 58.74 199.45 50.92C199.78 47.77 200.14 44.62 200.39 41.47C200.44 40.12 200.87 38.63 200.15 37.36Z" fill="#010101"/>
</g>
<path d="M292.38 271.51C291.755 271.509 291.146 271.309 290.643 270.938C290.139 270.568 289.767 270.046 289.58 269.45C287 261.19 284.5 253.45 282.11 246.01C264.9 192.59 253.54 157.3 263.11 93.01C263.77 88.58 272.85 76.15 277.11 76.15H278.29C284.9 76.15 292.43 76.09 294.41 86.72C295.51 92.64 296.28 97.87 296.94 102.83C298.16 91.83 300.57 81.98 304.94 78.48C308.7 75.48 318.07 72.4 323.72 78.82C326.28 81.73 328.22 85.93 329.72 90.82C330.225 88.2503 330.893 85.7152 331.72 83.23C332.94 79.47 335.43 71.7 344.61 72C348.209 72.2424 351.633 73.6377 354.377 75.9793C357.12 78.3209 359.036 81.4841 359.84 85L360.33 87.25C361.11 90.86 362.11 95.45 363.09 100.69C364.109 96.1658 365.391 91.7049 366.93 87.33C369.12 80.97 378.57 77.7 384.77 79.47C394.86 82.37 395.27 94.47 395.44 99.58C396.2 122.09 396.64 133.46 397.09 144.82C397.54 156.18 397.98 167.57 398.74 190.1C398.756 190.873 398.467 191.621 397.936 192.183C397.404 192.744 396.673 193.074 395.9 193.1C395.517 193.112 395.135 193.048 394.777 192.912C394.419 192.776 394.091 192.571 393.812 192.308C393.533 192.045 393.309 191.73 393.153 191.38C392.996 191.03 392.91 190.653 392.9 190.27C392.14 167.76 391.7 156.39 391.25 145.02C390.8 133.65 390.36 122.27 389.6 99.75C389.38 93.02 388.44 86.59 383.18 85.09C379.48 84.02 373.5 86.34 372.51 89.21C368.03 102.21 366.59 111.57 366.59 127.66C366.588 128.423 366.289 129.155 365.757 129.701C365.226 130.248 364.502 130.567 363.74 130.59C362.978 130.623 362.234 130.351 361.671 129.836C361.109 129.32 360.774 128.602 360.74 127.84C359.74 112.06 356.56 97.29 354.64 88.47L354.15 86.2C353.615 83.9232 352.362 81.8789 350.576 80.3697C348.789 78.8604 346.564 77.9664 344.23 77.82C341.15 77.7 339.17 78.82 337.15 84.99C333.89 94.99 333.93 103.84 333.99 121.37C333.99 124.11 333.99 127.05 333.99 130.25C333.99 131.03 333.68 131.778 333.129 132.329C332.577 132.88 331.83 133.19 331.05 133.19C330.27 133.19 329.522 132.88 328.971 132.329C328.42 131.778 328.11 131.03 328.11 130.25C328.11 106.81 324.78 89.02 319.19 82.67C316.19 79.26 310.34 81.53 308.52 83.01C303.16 87.35 300.63 114.81 302.02 135.53C302.055 136.259 301.818 136.976 301.354 137.54C300.89 138.103 300.233 138.475 299.51 138.581C298.788 138.687 298.052 138.52 297.446 138.113C296.839 137.707 296.406 137.089 296.23 136.38C294.3 127.525 292.828 118.577 291.82 109.57C290.97 102.88 290.09 95.96 288.57 87.76C287.57 82.2 285.37 81.99 278.24 81.99H277.59C275.35 83.51 269.29 91.12 268.89 93.84C259.51 156.84 270.72 191.58 287.67 244.21C290.06 251.64 292.57 259.42 295.16 267.7C295.274 268.068 295.315 268.454 295.28 268.838C295.245 269.221 295.135 269.594 294.956 269.935C294.777 270.276 294.532 270.578 294.236 270.824C293.94 271.071 293.598 271.256 293.23 271.37C292.956 271.462 292.669 271.509 292.38 271.51Z" fill="#010101"/>
<path d="M287.02 475.82H286.74C285.964 475.747 285.25 475.368 284.753 474.768C284.256 474.168 284.018 473.396 284.09 472.62C284.46 468.56 285.09 459.51 285.76 449.04C286.88 432.26 288.27 411.37 289.65 396.6C289.722 395.826 290.098 395.111 290.696 394.614C291.294 394.117 292.066 393.878 292.84 393.95C293.614 394.022 294.329 394.398 294.826 394.996C295.323 395.594 295.562 396.366 295.49 397.14C294.13 411.84 292.74 432.68 291.62 449.43C290.89 460.38 290.32 469.02 289.94 473.16C289.873 473.888 289.536 474.564 288.996 475.056C288.455 475.548 287.751 475.821 287.02 475.82Z" fill="#010101"/>
<path d="M401.62 279.98C401.119 279.98 400.627 279.852 400.19 279.608C399.753 279.364 399.385 279.013 399.122 278.587C398.859 278.161 398.708 277.676 398.685 277.176C398.662 276.676 398.767 276.178 398.99 275.73C401.99 269.73 405.72 263.8 409.34 258.06C410.19 256.71 411.05 255.37 411.88 254.06C423.691 235.094 433.316 214.852 440.57 193.72C440.683 193.341 440.872 192.989 441.125 192.685C441.378 192.38 441.689 192.13 442.041 191.949C442.393 191.768 442.777 191.66 443.172 191.631C443.567 191.602 443.963 191.653 444.337 191.781C444.711 191.909 445.056 192.111 445.35 192.376C445.645 192.64 445.883 192.961 446.05 193.319C446.218 193.678 446.311 194.066 446.325 194.461C446.338 194.857 446.272 195.251 446.13 195.62C438.731 217.174 428.912 237.819 416.86 257.16L414.31 261.23C410.672 266.775 407.315 272.499 404.25 278.38C403.997 278.859 403.619 279.261 403.156 279.543C402.693 279.825 402.162 279.976 401.62 279.98Z" fill="#010101"/>
<path d="M393.75 475.82C392.99 475.82 392.259 475.526 391.713 474.997C391.166 474.469 390.846 473.75 390.82 472.99C390.45 462.47 390.04 447.36 389.65 432.74C389.26 418.12 388.85 403.02 388.48 392.53C388.464 391.759 388.751 391.012 389.281 390.451C389.81 389.889 390.539 389.559 391.31 389.53C391.693 389.517 392.076 389.58 392.434 389.715C392.793 389.85 393.122 390.056 393.401 390.319C393.68 390.582 393.904 390.898 394.06 391.248C394.216 391.599 394.301 391.977 394.31 392.36C394.68 402.87 395.09 417.99 395.48 432.61C395.87 447.23 396.28 462.32 396.64 472.81C396.656 473.581 396.369 474.328 395.839 474.889C395.31 475.451 394.581 475.781 393.81 475.81L393.75 475.82Z" fill="#010101"/>
<path d="M391.44 370.75C390.692 370.749 389.973 370.463 389.429 369.95C388.884 369.437 388.556 368.736 388.51 367.99C388.339 365.235 388.521 362.469 389.05 359.76C389.107 359.365 389.243 358.985 389.451 358.645C389.659 358.304 389.935 358.009 390.26 357.778C390.586 357.548 390.955 357.385 391.346 357.302C391.736 357.219 392.139 357.215 392.531 357.293C392.923 357.371 393.294 357.527 393.624 357.753C393.953 357.979 394.232 358.269 394.446 358.607C394.659 358.944 394.801 359.322 394.864 359.716C394.926 360.11 394.908 360.513 394.81 360.9C394.378 363.116 394.231 365.377 394.37 367.63C394.394 368.015 394.342 368.401 394.217 368.766C394.092 369.131 393.896 369.467 393.641 369.756C393.385 370.045 393.075 370.281 392.728 370.449C392.382 370.618 392.005 370.717 391.62 370.74L391.44 370.75Z" fill="#010101"/>
<path d="M393.75 333.82H393.61C393.225 333.802 392.848 333.708 392.499 333.544C392.15 333.38 391.837 333.149 391.578 332.864C391.319 332.579 391.119 332.245 390.989 331.882C390.858 331.52 390.801 331.135 390.82 330.75L390.98 327.25C390.993 326.862 391.083 326.481 391.246 326.129C391.409 325.778 391.641 325.462 391.928 325.202C392.216 324.941 392.553 324.742 392.919 324.614C393.285 324.487 393.673 324.434 394.06 324.46C394.836 324.499 395.566 324.844 396.089 325.419C396.612 325.994 396.885 326.753 396.85 327.53L396.68 331.03C396.644 331.783 396.32 332.492 395.774 333.012C395.228 333.531 394.503 333.821 393.75 333.82Z" fill="#010101"/>
<path d="M395.77 306.06H395.72C395.333 306.054 394.951 305.971 394.596 305.816C394.241 305.662 393.92 305.439 393.652 305.16C393.383 304.881 393.173 304.552 393.032 304.192C392.891 303.832 392.822 303.447 392.83 303.06C392.893 299.347 393.227 295.644 393.83 291.98C393.963 291.211 394.395 290.526 395.033 290.076C395.671 289.626 396.461 289.447 397.23 289.58C397.999 289.713 398.684 290.145 399.134 290.783C399.584 291.421 399.763 292.211 399.63 292.98C399.069 296.356 398.761 299.768 398.71 303.19C398.694 303.958 398.377 304.69 397.827 305.227C397.277 305.764 396.538 306.063 395.77 306.06Z" fill="#010101"/>
<path d="M136.93 219.74C122.274 219.663 107.643 218.496 93.16 216.25C88.74 215.59 76.31 206.52 76.31 202.25V201.06C76.31 194.43 76.25 186.92 86.88 184.94C92.8 183.84 98.03 183.07 102.99 182.41C91.99 181.19 82.1399 178.78 78.6399 174.46C75.6399 170.7 72.56 161.33 78.98 155.68C81.89 153.12 86.09 151.18 90.9799 149.68C88.4121 149.166 85.8775 148.498 83.3899 147.68C79.6299 146.45 71.8 143.91 72.16 134.78C72.4038 131.182 73.7998 127.758 76.1411 125.015C78.4825 122.272 81.6448 120.356 85.16 119.55L87.3999 119.07C91.0099 118.28 95.6099 117.28 100.86 116.3C96.3345 115.286 91.8733 114.003 87.4999 112.46C81.1399 110.27 77.8699 100.82 79.6399 94.62C82.5299 84.53 94.6399 84.13 99.7499 83.95C122.3 83.19 133.67 82.75 145.06 82.3C156.45 81.85 167.79 81.41 190.27 80.66C190.655 80.6469 191.038 80.7097 191.399 80.8448C191.759 80.9799 192.09 81.1847 192.371 81.4475C192.652 81.7103 192.879 82.0259 193.039 82.3764C193.198 82.7268 193.287 83.1053 193.3 83.49C193.313 83.8748 193.25 84.2584 193.115 84.6189C192.98 84.9794 192.775 85.3098 192.512 85.5911C192.25 85.8725 191.934 86.0994 191.584 86.2587C191.233 86.4181 190.855 86.5069 190.47 86.52C168 87.28 156.63 87.73 145.29 88.17C133.95 88.61 122.51 89.06 99.95 89.82C92.18 90.08 86.7099 91.28 85.2899 96.24C84.2299 99.94 86.54 105.92 89.41 106.91C102.41 111.39 111.77 112.83 127.86 112.83C128.614 112.844 129.334 113.148 129.871 113.679C130.407 114.209 130.72 114.925 130.743 115.679C130.766 116.434 130.498 117.168 129.995 117.73C129.492 118.292 128.792 118.64 128.04 118.7C112.24 119.7 97.4699 122.88 88.6499 124.81L86.4399 125.42C84.1946 125.942 82.1731 127.164 80.667 128.909C79.1609 130.654 78.248 132.832 78.06 135.13C77.94 138.24 79.06 140.19 85.23 142.21C95.28 145.47 104.07 145.44 121.63 145.37H130.49C131.239 145.414 131.943 145.742 132.457 146.288C132.972 146.833 133.259 147.555 133.259 148.305C133.259 149.055 132.972 149.777 132.457 150.322C131.943 150.868 131.239 151.196 130.49 151.24C107.04 151.24 89.26 154.58 82.91 160.16C79.5 163.16 81.7699 169.01 83.2499 170.83C87.5899 176.19 115.05 178.74 135.77 177.33C136.508 177.275 137.239 177.502 137.815 177.967C138.39 178.431 138.768 179.097 138.87 179.83C138.977 180.561 138.804 181.305 138.388 181.915C137.971 182.524 137.34 182.954 136.62 183.12C127.766 185.055 118.817 186.527 109.81 187.53C103.12 188.38 96.1999 189.26 87.9999 190.79C82.4399 191.79 82.2 193.94 82.23 201.11V201.77C83.75 204 91.3599 210.06 94.0799 210.46C157.08 219.84 191.82 208.64 244.45 191.68C251.88 189.29 259.66 186.78 267.93 184.2C268.673 183.968 269.477 184.04 270.166 184.401C270.855 184.762 271.373 185.382 271.605 186.125C271.837 186.868 271.765 187.672 271.404 188.361C271.043 189.05 270.423 189.568 269.68 189.8C261.43 192.38 253.68 194.88 246.25 197.27C206.22 210.13 176.38 219.74 136.93 219.74Z" fill="#010101"/>
<path d="M473.08 195.29H472.81C468.74 194.92 459.69 194.29 449.2 193.62C432.43 192.5 411.55 191.11 396.79 189.74C396.394 189.72 396.006 189.62 395.65 189.447C395.294 189.273 394.976 189.029 394.716 188.73C394.457 188.43 394.26 188.081 394.139 187.704C394.018 187.326 393.974 186.928 394.01 186.533C394.047 186.139 394.163 185.755 394.351 185.407C394.539 185.058 394.796 184.751 395.106 184.504C395.417 184.257 395.773 184.075 396.156 183.97C396.538 183.864 396.937 183.837 397.33 183.89C412.02 185.26 432.85 186.64 449.59 187.76C460.59 188.49 469.21 189.07 473.35 189.45C474.09 189.535 474.77 189.898 475.253 190.465C475.736 191.033 475.985 191.762 475.951 192.506C475.917 193.25 475.601 193.954 475.068 194.474C474.535 194.994 473.825 195.293 473.08 195.31V195.29Z" fill="#010101"/>
<path d="M277.23 80.68C276.778 80.6797 276.333 80.5735 275.93 80.3701C269.863 77.2161 263.959 73.7584 258.24 70.0101C256.89 69.1601 255.55 68.3101 254.24 67.4801C235.266 55.6797 215.017 46.0651 193.88 38.82C193.144 38.5681 192.538 38.0341 192.196 37.3355C191.854 36.6369 191.803 35.831 192.055 35.0951C192.307 34.3591 192.841 33.7533 193.539 33.4111C194.238 33.0688 195.044 33.0181 195.78 33.27C217.334 40.6655 237.979 50.4815 257.32 62.53L261.37 65.07C266.99 68.62 272.8 72.2901 278.54 75.1501C279.135 75.4425 279.614 75.9283 279.898 76.5282C280.181 77.128 280.253 77.8063 280.1 78.4521C279.948 79.0978 279.582 79.6728 279.06 80.083C278.539 80.4932 277.893 80.7143 277.23 80.71V80.68Z" fill="#010101"/>
<path d="M392.63 90.8799C391.879 90.8525 391.167 90.5384 390.64 90.0023C390.113 89.4661 389.812 88.7485 389.798 87.997C389.784 87.2455 390.058 86.5171 390.564 85.9616C391.071 85.406 391.77 85.0655 392.52 85.01C403.01 84.65 418.08 84.2399 432.65 83.8499C447.22 83.4599 462.46 83.0499 472.98 82.6799C473.365 82.6611 473.749 82.7201 474.111 82.8535C474.472 82.9868 474.803 83.1918 475.083 83.4561C475.363 83.7204 475.587 84.0385 475.741 84.3915C475.895 84.7444 475.976 85.1248 475.98 85.51C475.996 86.2813 475.709 87.0282 475.179 87.5894C474.65 88.1506 473.921 88.4813 473.15 88.51C462.61 88.87 447.45 89.2799 432.78 89.6799C418.11 90.0799 403.16 90.4699 392.7 90.8399L392.63 90.8799Z" fill="#010101"/>
<path d="M366.17 90.92C364.082 90.9222 361.998 90.7179 359.95 90.31C359.22 90.1249 358.59 89.667 358.187 89.0306C357.785 88.3942 357.643 87.6279 357.789 86.8895C357.935 86.151 358.359 85.4968 358.973 85.0616C359.587 84.6263 360.345 84.4432 361.09 84.55C363.302 84.9861 365.56 85.134 367.81 84.99C368.207 84.9437 368.608 84.9786 368.991 85.0927C369.374 85.2067 369.729 85.3975 370.036 85.6534C370.342 85.9093 370.593 86.225 370.774 86.5811C370.954 86.9373 371.06 87.3264 371.085 87.7249C371.11 88.1233 371.054 88.5228 370.92 88.8988C370.786 89.2748 370.576 89.6195 370.304 89.9119C370.033 90.2043 369.704 90.4383 369.339 90.5996C368.974 90.7609 368.579 90.8461 368.18 90.85C367.51 90.9 366.84 90.92 366.17 90.92Z" fill="#010101"/>
<path d="M331.09 88.5501H330.94L327.44 88.3801C326.68 88.3181 325.974 87.9633 325.47 87.3904C324.967 86.8175 324.706 86.0714 324.742 85.3097C324.778 84.5479 325.109 83.8301 325.665 83.3077C326.221 82.7854 326.957 82.4994 327.72 82.5101L331.21 82.6801C331.96 82.7373 332.66 83.0798 333.165 83.6372C333.67 84.1947 333.942 84.9245 333.926 85.6766C333.909 86.4287 333.605 87.1458 333.075 87.6804C332.546 88.2149 331.832 88.5261 331.08 88.5501H331.09Z" fill="#010101"/>
<path d="M303.31 86.53C299.597 86.4722 295.893 86.138 292.23 85.53C291.462 85.3974 290.779 84.9652 290.329 84.3285C289.88 83.6919 289.702 82.9028 289.835 82.135C289.968 81.3672 290.4 80.6835 291.036 80.2344C291.673 79.7852 292.462 79.6074 293.23 79.74C296.606 80.2936 300.019 80.5978 303.44 80.65C304.189 80.6997 304.89 81.0337 305.401 81.5838C305.911 82.1339 306.192 82.8583 306.185 83.6086C306.179 84.359 305.886 85.0785 305.366 85.6198C304.846 86.161 304.139 86.4831 303.39 86.52L303.31 86.53Z" fill="#010101"/>
<path d="M135.69 409.4H135.09C131.491 409.159 128.065 407.764 125.322 405.423C122.578 403.081 120.663 399.917 119.86 396.4L119.37 394.13C118.58 390.53 117.58 385.95 116.6 380.7C115.589 385.23 114.307 389.694 112.76 394.07C110.57 400.42 101.13 403.7 94.93 401.93C84.83 399.03 84.43 386.93 84.26 381.82C83.5 359.35 83.06 347.99 82.61 336.64C82.16 325.29 81.72 313.87 80.96 291.3C80.97 290.544 81.2706 289.822 81.7993 289.282C82.3281 288.742 83.0444 288.427 83.7996 288.401C84.5548 288.375 85.2909 288.641 85.8552 289.144C86.4194 289.646 86.7685 290.347 86.83 291.1C87.59 313.65 88.03 325.02 88.48 336.41C88.93 347.8 89.37 359.14 90.13 381.62C90.35 388.35 91.29 394.77 96.55 396.28C100.25 397.35 106.23 395.03 107.21 392.15C111.7 379.15 113.14 369.8 113.14 353.71C113.116 352.933 113.402 352.178 113.935 351.612C114.467 351.045 115.203 350.714 115.98 350.69C116.757 350.666 117.512 350.952 118.078 351.485C118.645 352.017 118.976 352.753 119 353.53C120 369.3 123.18 384.07 125.1 392.88L125.6 395.17C126.124 397.416 127.348 399.438 129.094 400.944C130.841 402.45 133.021 403.363 135.32 403.55C138.38 403.66 140.38 402.6 142.39 396.37C145.65 386.37 145.62 377.53 145.55 359.99C145.55 357.26 145.55 354.31 145.55 351.12C145.527 350.72 145.585 350.32 145.722 349.943C145.859 349.567 146.072 349.223 146.346 348.931C146.621 348.64 146.953 348.408 147.32 348.249C147.688 348.09 148.084 348.009 148.485 348.009C148.885 348.009 149.282 348.09 149.65 348.249C150.017 348.408 150.349 348.64 150.624 348.931C150.898 349.223 151.111 349.567 151.248 349.943C151.385 350.32 151.443 350.72 151.42 351.12C151.42 374.56 154.76 392.35 160.34 398.7C163.34 402.11 169.19 399.84 171.02 398.36C176.37 394.02 178.91 366.56 177.51 345.84C177.44 345.093 177.659 344.347 178.123 343.756C178.586 343.166 179.259 342.776 180.002 342.667C180.744 342.558 181.501 342.738 182.114 343.17C182.728 343.603 183.152 344.254 183.3 344.99C185.229 353.851 186.695 362.806 187.69 371.82C188.54 378.51 189.42 385.43 190.95 393.62C191.95 399.19 194.11 399.42 201.27 399.4H201.93C204.17 397.88 210.22 390.26 210.63 387.55C220 324.55 208.8 289.81 191.85 237.18C189.45 229.75 186.95 221.96 184.36 213.69C184.158 212.955 184.249 212.17 184.615 211.501C184.98 210.832 185.591 210.331 186.319 210.104C187.047 209.877 187.835 209.941 188.516 210.284C189.197 210.626 189.718 211.22 189.97 211.94C192.55 220.19 195.05 227.94 197.43 235.38C214.64 288.79 226.01 324.08 216.43 388.38C215.78 392.8 206.7 405.24 202.43 405.24H201.25C194.62 405.24 187.11 405.3 185.13 394.67C184.02 388.75 183.26 383.51 182.6 378.56C181.38 389.56 178.97 399.41 174.6 402.91C170.84 405.96 161.48 408.99 155.83 402.57C153.27 399.66 151.32 395.45 149.83 390.57C149.327 393.14 148.659 395.676 147.83 398.16C146.79 401.82 144.33 409.4 135.69 409.4Z" fill="#010101"/>
<path d="M186.98 87.41H186.71C186.326 87.3762 185.952 87.2666 185.611 87.0876C185.269 86.9086 184.967 86.6638 184.72 86.3672C184.474 86.0706 184.289 85.7282 184.175 85.3597C184.062 84.9911 184.023 84.6038 184.06 84.22C185.42 69.52 186.81 48.68 187.93 31.93C188.65 20.93 189.23 12.34 189.61 8.20004C189.712 7.45032 190.1 6.76893 190.692 6.29764C191.284 5.82635 192.035 5.60144 192.788 5.66971C193.542 5.73799 194.24 6.09418 194.738 6.66419C195.235 7.2342 195.494 7.97413 195.46 8.73004C195.08 12.8 194.46 21.84 193.78 32.32C192.67 49.1 191.27 69.99 189.9 84.76C189.828 85.485 189.49 86.1575 188.95 86.6472C188.411 87.1368 187.709 87.4086 186.98 87.41Z" fill="#010101"/>
<path d="M36.2 289.63C35.8608 289.633 35.5233 289.583 35.2 289.48C34.4735 289.214 33.8813 288.672 33.5518 287.972C33.2223 287.271 33.1822 286.47 33.44 285.74C40.8397 264.191 50.6555 243.55 62.7 224.21C63.54 222.877 64.39 221.543 65.25 220.21C68.8 214.59 72.46 208.77 75.32 203.03C75.4835 202.671 75.7177 202.348 76.0086 202.081C76.2995 201.814 76.6412 201.609 77.0133 201.477C77.3853 201.345 77.7801 201.289 78.1742 201.313C78.5682 201.337 78.9534 201.44 79.3067 201.616C79.66 201.792 79.9743 202.038 80.2308 202.338C80.4873 202.638 80.6807 202.986 80.7995 203.363C80.9184 203.739 80.9602 204.136 80.9224 204.529C80.8847 204.922 80.7683 205.303 80.58 205.65C77.58 211.65 73.84 217.6 70.21 223.34L67.69 227.34C55.8741 246.304 46.2459 266.547 38.99 287.68C38.7885 288.257 38.4106 288.756 37.9099 289.106C37.4091 289.455 36.8109 289.639 36.2 289.63Z" fill="#010101"/>
<path d="M88.13 91.82C87.3692 91.8229 86.6373 91.5288 86.09 91.0003C85.5428 90.4717 85.2235 89.7504 85.2 88.99C84.83 78.48 84.42 63.36 84.03 48.74C83.64 34.12 83.23 19.02 82.86 8.53996C82.8438 7.76859 83.1313 7.02174 83.6608 6.46051C84.1902 5.89928 84.919 5.56865 85.69 5.53996C86.0737 5.52527 86.4565 5.58718 86.8159 5.72207C87.1754 5.85696 87.5044 6.06214 87.7837 6.32561C88.063 6.58908 88.287 6.90556 88.4426 7.25657C88.5982 7.60758 88.6823 7.98608 88.69 8.36996C89.06 18.88 89.46 34 89.86 48.62C90.26 63.24 90.66 78.34 91.02 88.82C91.0389 89.5921 90.7522 90.3404 90.2222 90.9022C89.6923 91.464 88.9619 91.7938 88.19 91.82H88.13Z" fill="#010101"/>
<path d="M87.62 123.94C87.4287 123.943 87.2377 123.926 87.05 123.89C86.2867 123.738 85.6149 123.289 85.1819 122.642C84.7488 121.996 84.5899 121.204 84.74 120.44C85.1712 118.224 85.319 115.963 85.18 113.71C85.1726 112.957 85.4541 112.231 85.9666 111.679C86.479 111.128 87.1834 110.794 87.9346 110.747C88.6857 110.7 89.4265 110.942 90.0042 111.424C90.5819 111.907 90.9526 112.592 91.04 113.34C91.2105 116.095 91.0291 118.861 90.5 121.57C90.3681 122.237 90.009 122.838 89.4839 123.27C88.9588 123.702 88.3001 123.939 87.62 123.94Z" fill="#010101"/>
<path d="M85.63 156.87H85.49C84.7171 156.831 83.9908 156.489 83.4685 155.918C82.9462 155.347 82.67 154.593 82.7 153.82L82.86 150.33C82.9219 149.57 83.2768 148.864 83.8496 148.36C84.4225 147.857 85.1686 147.596 85.9303 147.632C86.6921 147.668 87.4099 147.999 87.9323 148.555C88.4546 149.111 88.7407 149.847 88.73 150.61L88.56 154.1C88.5166 154.848 88.1892 155.552 87.6446 156.066C87.1 156.581 86.3794 156.869 85.63 156.87Z" fill="#010101"/>
<path d="M82.83 191.82C82.6702 191.83 82.5099 191.83 82.35 191.82C81.5882 191.678 80.9108 191.247 80.4597 190.617C80.0086 189.987 79.8188 189.207 79.93 188.44C80.4865 185.064 80.794 181.651 80.85 178.23C80.8605 177.46 81.1739 176.725 81.7222 176.184C82.2705 175.643 83.0098 175.34 83.78 175.34C84.1674 175.345 84.5499 175.427 84.9053 175.581C85.2608 175.735 85.5822 175.958 85.851 176.237C86.1198 176.516 86.3305 176.845 86.4711 177.206C86.6117 177.567 86.6793 177.953 86.67 178.34C86.6121 182.053 86.2779 185.757 85.67 189.42C85.5474 190.087 85.1974 190.691 84.6795 191.128C84.1616 191.566 83.508 191.81 82.83 191.82Z" fill="#010101"/>
<path d="M289.19 400.56C288.439 400.531 287.728 400.215 287.203 399.678C286.677 399.141 286.377 398.424 286.364 397.672C286.352 396.921 286.627 396.193 287.134 395.639C287.641 395.084 288.341 394.745 289.09 394.69C311.6 393.93 322.97 393.49 334.33 393.05C345.69 392.61 357.08 392.16 379.61 391.4C386.34 391.17 392.76 390.24 394.27 384.98C395.33 381.28 393.02 375.3 390.14 374.31C377.14 369.82 367.79 368.38 351.7 368.38C350.923 368.404 350.168 368.118 349.602 367.585C349.035 367.053 348.704 366.317 348.68 365.54C348.656 364.763 348.942 364.008 349.475 363.442C350.007 362.875 350.743 362.544 351.52 362.52C367.3 361.52 382.06 358.34 390.88 356.42L393.16 355.92C395.406 355.396 397.428 354.172 398.934 352.426C400.44 350.679 401.352 348.499 401.54 346.2C401.66 343.1 400.54 341.15 394.37 339.13C384.32 335.87 375.53 335.9 357.97 335.97H349.11C348.71 335.993 348.31 335.935 347.933 335.798C347.557 335.661 347.213 335.448 346.921 335.174C346.63 334.899 346.398 334.567 346.239 334.2C346.08 333.832 345.999 333.435 345.999 333.035C345.999 332.634 346.08 332.238 346.239 331.87C346.398 331.503 346.63 331.171 346.921 330.896C347.213 330.621 347.557 330.409 347.933 330.272C348.31 330.135 348.71 330.077 349.11 330.1C372.55 330.1 390.34 326.76 396.69 321.18C400.1 318.18 397.83 312.33 396.35 310.5C392.01 305.15 364.56 302.61 343.83 304.01C343.101 304.045 342.384 303.808 341.82 303.344C341.257 302.88 340.885 302.223 340.779 301.5C340.673 300.778 340.84 300.042 341.247 299.436C341.653 298.829 342.271 298.396 342.98 298.22C351.834 296.289 360.783 294.82 369.79 293.82C376.48 292.97 383.4 292.09 391.59 290.56C397.16 289.56 397.4 287.41 397.37 280.24V279.58C395.84 277.34 388.23 271.29 385.52 270.89C322.52 261.51 287.78 272.71 235.15 289.67C227.72 292.06 219.93 294.57 211.66 297.15C210.917 297.382 210.113 297.31 209.424 296.949C208.735 296.588 208.217 295.968 207.985 295.225C207.753 294.482 207.825 293.678 208.186 292.989C208.547 292.3 209.167 291.782 209.91 291.55C218.17 288.97 225.91 286.46 233.35 284.08C286.76 266.87 322.05 255.5 386.35 265.08C390.77 265.74 403.21 274.81 403.21 279.08V280.26C403.21 286.89 403.27 294.4 392.64 296.38C386.72 297.49 381.49 298.25 376.53 298.91C387.53 300.13 397.38 302.54 400.88 306.91C403.88 310.67 406.96 320.04 400.54 325.69C397.63 328.25 393.42 330.19 388.54 331.69C391.112 332.199 393.65 332.867 396.14 333.69C399.9 334.91 407.73 337.45 407.37 346.59C407.127 350.187 405.731 353.611 403.39 356.352C401.048 359.094 397.885 361.008 394.37 361.81L392.11 362.31C388.5 363.09 383.92 364.09 378.67 365.07C383.198 366.086 387.663 367.368 392.04 368.91C398.39 371.1 401.67 380.54 399.9 386.74C397 396.84 384.9 397.24 379.79 397.41C357.28 398.17 345.91 398.62 334.54 399.06C323.17 399.5 311.79 399.95 289.27 400.71L289.19 400.56Z" fill="#010101"/>
<path d="M82.5 297.48H82.22C67.52 296.11 46.68 294.72 29.93 293.61C18.93 292.88 10.34 292.3 6.19998 291.92C5.80405 291.9 5.41625 291.8 5.05988 291.627C4.70352 291.453 4.38595 291.209 4.12627 290.91C3.8666 290.61 3.67019 290.261 3.54884 289.884C3.42749 289.506 3.38372 289.108 3.42016 288.713C3.4566 288.319 3.57249 287.935 3.76087 287.587C3.94925 287.238 4.20623 286.931 4.51634 286.684C4.82646 286.437 5.18331 286.255 5.56545 286.15C5.94758 286.044 6.3471 286.017 6.73997 286.07C10.8 286.45 19.85 287.07 30.32 287.75C47.1 288.87 67.99 290.26 82.76 291.63C83.4995 291.715 84.1794 292.077 84.6625 292.643C85.1455 293.209 85.3958 293.938 85.3628 294.681C85.3298 295.425 85.016 296.128 84.4847 296.65C83.9534 297.171 83.2441 297.471 82.5 297.49V297.48Z" fill="#010101"/>
<path d="M284.72 448.26C284.38 448.265 284.042 448.211 283.72 448.1C262.183 440.693 241.555 430.871 222.23 418.82L218.16 416.26C212.55 412.72 206.74 409.05 201 406.2C200.33 405.837 199.828 405.227 199.599 404.501C199.369 403.774 199.431 402.987 199.771 402.305C200.11 401.623 200.701 401.1 201.42 400.845C202.138 400.59 202.927 400.624 203.62 400.94C209.682 404.096 215.583 407.554 221.3 411.3C222.65 412.15 223.99 413 225.3 413.83C244.263 425.648 264.506 435.276 285.64 442.53C286.307 442.751 286.872 443.205 287.233 443.808C287.593 444.411 287.725 445.124 287.604 445.816C287.482 446.509 287.116 447.134 286.572 447.579C286.028 448.024 285.343 448.259 284.64 448.24L284.72 448.26Z" fill="#010101"/>
<path d="M6.43998 398.66C5.68919 398.631 4.97803 398.315 4.45254 397.778C3.92705 397.241 3.62712 396.524 3.61432 395.772C3.60152 395.021 3.87683 394.293 4.38372 393.739C4.89062 393.184 5.59061 392.845 6.33998 392.79C16.86 392.42 31.97 392.02 46.59 391.62C61.21 391.22 76.31 390.83 86.8 390.46H86.9C87.6508 390.489 88.3619 390.805 88.8874 391.342C89.4129 391.879 89.7128 392.596 89.7256 393.348C89.7384 394.099 89.4631 394.827 88.9562 395.381C88.4493 395.936 87.7493 396.275 87 396.33C76.49 396.69 61.37 397.1 46.75 397.49C32.13 397.88 17.04 398.29 6.54998 398.66H6.43998Z" fill="#010101"/>
<path d="M119.03 396.82C118.834 396.841 118.636 396.841 118.44 396.82C116.224 396.389 113.963 396.241 111.71 396.38C111.325 396.409 110.938 396.36 110.572 396.237C110.206 396.114 109.869 395.919 109.579 395.664C109.289 395.409 109.053 395.098 108.885 394.751C108.717 394.403 108.62 394.026 108.6 393.64C108.551 392.863 108.811 392.098 109.325 391.514C109.839 390.929 110.563 390.571 111.34 390.52C114.095 390.349 116.861 390.531 119.57 391.06C120.281 391.206 120.913 391.609 121.344 392.193C121.776 392.777 121.976 393.499 121.906 394.222C121.837 394.944 121.503 395.615 120.968 396.106C120.433 396.597 119.736 396.873 119.01 396.88L119.03 396.82Z" fill="#010101"/>
<path d="M151.96 398.82H151.82L148.32 398.66C147.56 398.598 146.854 398.243 146.35 397.67C145.847 397.097 145.586 396.351 145.622 395.59C145.658 394.828 145.989 394.11 146.545 393.588C147.101 393.065 147.837 392.779 148.6 392.79L152.09 392.96C152.84 393.017 153.54 393.36 154.045 393.917C154.55 394.475 154.822 395.205 154.806 395.957C154.789 396.709 154.485 397.426 153.955 397.96C153.426 398.495 152.712 398.806 151.96 398.83V398.82Z" fill="#010101"/>
<path d="M186.88 401.63C186.72 401.644 186.56 401.644 186.4 401.63C183.024 401.077 179.611 400.773 176.19 400.72C175.41 400.72 174.662 400.41 174.111 399.859C173.56 399.307 173.25 398.56 173.25 397.78C173.25 397 173.56 396.252 174.111 395.701C174.662 395.15 175.41 394.84 176.19 394.84H176.24C179.953 394.898 183.657 395.232 187.32 395.84C188.06 395.945 188.731 396.329 189.197 396.913C189.663 397.497 189.889 398.237 189.827 398.981C189.766 399.726 189.423 400.419 188.867 400.919C188.312 401.418 187.587 401.687 186.84 401.67L186.88 401.63Z" fill="#010101"/>
<path d="M329.27 65.35C328.703 65.3477 328.148 65.1847 327.67 64.88L265.67 24.47C265.348 24.2592 265.07 23.987 264.853 23.6689C264.636 23.3508 264.483 22.9931 264.404 22.6161C264.245 21.8547 264.394 21.0611 264.82 20.41C265.246 19.7589 265.913 19.3036 266.674 19.1442C267.435 18.9848 268.229 19.1343 268.88 19.56L330.83 59.96C331.362 60.3043 331.768 60.812 331.988 61.4067C332.207 62.0015 332.227 62.6513 332.046 63.2587C331.865 63.866 331.491 64.3982 330.981 64.7753C330.472 65.1523 329.854 65.354 329.22 65.35H329.27Z" fill="#010101"/>
<path d="M367.86 57.17C367.267 57.1688 366.688 56.9874 366.2 56.65L307.69 16.38C307.354 16.1692 307.065 15.8926 306.839 15.5669C306.613 15.2413 306.455 14.8733 306.375 14.4851C306.295 14.0969 306.294 13.6965 306.373 13.308C306.451 12.9194 306.607 12.5508 306.832 12.2242C307.057 11.8977 307.345 11.6199 307.68 11.4077C308.015 11.1954 308.389 11.0531 308.78 10.9892C309.171 10.9252 309.571 10.9411 309.956 11.0358C310.341 11.1304 310.703 11.302 311.02 11.54L369.53 51.82C370.048 52.1739 370.44 52.6849 370.646 53.2777C370.852 53.8706 370.862 54.514 370.675 55.1132C370.488 55.7123 370.114 56.2356 369.607 56.6059C369.1 56.9762 368.488 57.174 367.86 57.17Z" fill="#010101"/>
<path d="M207.75 452.41H207.49C178.042 449.822 148.994 443.821 120.93 434.53C120.218 434.264 119.637 433.733 119.308 433.048C118.979 432.363 118.929 431.577 119.167 430.855C119.405 430.133 119.913 429.532 120.585 429.177C121.256 428.822 122.04 428.74 122.77 428.95C150.402 438.1 179.004 444.009 208 446.56C208.739 446.644 209.419 447.005 209.902 447.57C210.386 448.136 210.637 448.863 210.605 449.606C210.573 450.35 210.261 451.053 209.731 451.575C209.201 452.097 208.493 452.399 207.75 452.42V452.41Z" fill="#010101"/>
</g>
<defs>
<clipPath id="clip0_206_3567">
<rect width="476.02" height="480" fill="white"/>
</clipPath>
</defs>
</svg>
