<svg width="25" height="20" viewBox="0 0 25 20" fill="none" xmlns="http://www.w3.org/2000/svg">
<path d="M12.649 5.71971L4.9956 12.1806V19.109C4.9956 19.4915 5.28676 19.7891 5.66111 19.7891H10.3197C10.6524 19.7891 10.9436 19.4915 10.9436 19.109V15.0284C10.9436 14.6884 11.2764 14.3483 11.6091 14.3483H14.2712C14.6455 14.3483 14.9367 14.6884 14.9367 15.0284V19.109C14.9367 19.4915 15.2694 19.7891 15.6022 19.7891H20.3024C20.6351 19.7891 20.9679 19.4915 20.9679 19.109V12.1381L13.2729 5.71971C13.1897 5.6347 13.0649 5.59219 12.9817 5.59219C12.857 5.59219 12.7322 5.6347 12.649 5.71971ZM24.753 10.0978L21.3006 7.1649V1.29913C21.3006 1.00159 21.0511 0.789062 20.8015 0.789062H18.4722C18.181 0.789062 17.9731 1.00159 17.9731 1.29913V4.35953L14.2296 1.21412C13.8968 0.959085 13.4393 0.789062 12.9817 0.789062C12.4826 0.789062 12.0251 0.959085 11.6923 1.21412L1.16891 10.0978C1.04413 10.1828 0.960938 10.3528 0.960938 10.4803C0.960938 10.6079 1.04413 10.7354 1.08572 10.8204L2.16718 12.1381C2.25037 12.2656 2.37515 12.3081 2.54153 12.3081C2.66631 12.3081 2.79109 12.2656 2.87428 12.1806L12.649 3.97698C12.7322 3.89197 12.857 3.84947 12.9817 3.84947C13.0649 3.84947 13.1897 3.89197 13.2729 3.97698L23.0476 12.1806C23.1308 12.2656 23.2556 12.3081 23.3803 12.3081C23.5467 12.3081 23.6715 12.2656 23.7547 12.1381L24.8362 10.8204C24.9193 10.7354 24.9609 10.6079 24.9609 10.4803C24.9609 10.3528 24.8777 10.1828 24.753 10.0978Z" fill="white"/>
</svg>
