<svg width="23" height="25" viewBox="0 0 23 25" fill="none" xmlns="http://www.w3.org/2000/svg">
<g clip-path="url(#clip0_641:1011)">
<path d="M4.95644 21.875H0.365753V7.27051H4.95644V21.875ZM2.65863 5.27832C1.19067 5.27832 0 4.07715 0 2.62695C1.0507e-08 1.93037 0.280104 1.26232 0.778693 0.769762C1.27728 0.277204 1.95351 0.000488281 2.65863 0.000488281C3.36374 0.000488281 4.03997 0.277204 4.53856 0.769762C5.03715 1.26232 5.31725 1.93037 5.31725 2.62695C5.31725 4.07715 4.12608 5.27832 2.65863 5.27832ZM22.1379 21.875H17.5571V14.7656C17.5571 13.0713 17.5225 10.8984 15.1703 10.8984C12.7835 10.8984 12.4178 12.7393 12.4178 14.6436V21.875H7.83205V7.27051H12.2349V9.2627H12.2992C12.9121 8.11523 14.4092 6.9043 16.6427 6.9043C21.2888 6.9043 22.1429 9.92676 22.1429 13.8525V21.875H22.1379Z" fill="#9C182F"/>
</g>
<defs>
<clipPath id="clip0_641:1011">
<rect width="22.1429" height="25" fill="white"/>
</clipPath>
</defs>
</svg>
