<svg width="409" height="480" viewBox="0 0 409 480" fill="none" xmlns="http://www.w3.org/2000/svg">
<g clip-path="url(#clip0_206_3627)">
<path d="M374.56 226.42C363.39 226.86 352.27 232.61 346.56 242.2C340.85 251.79 341.28 265.08 348.62 273.5C352.471 277.753 357.537 280.72 363.13 282C374.54 284.77 388.32 279.91 392.71 269C394.45 264.69 394.62 259.91 394.42 255.27C394.22 250.39 393.61 245.43 391.49 241.03C388.11 234 381.29 229.27 374.56 226.42Z" fill="white"/>
<path d="M333.42 401.35C330.924 374.562 333.516 347.544 341.06 321.72C342.768 315.713 344.849 309.818 347.29 304.07C349.66 298.59 352.58 293.14 357.21 289.38C361.84 285.62 368.54 283.89 373.92 286.48C376.83 287.88 379.07 290.38 380.99 292.98C388.53 303.24 392.08 315.83 395.13 328.2C401.01 352.07 405.6 376.63 403.69 401.15L333.42 401.35Z" fill="white"/>
<path d="M351.63 321.58C351.386 321.577 351.151 321.484 350.97 321.32C350.773 321.143 350.654 320.896 350.639 320.632C350.624 320.367 350.714 320.108 350.89 319.91C358.15 311.82 365.64 303.72 373.16 295.83C373.251 295.735 373.359 295.658 373.479 295.605C373.599 295.552 373.729 295.523 373.86 295.519C373.992 295.516 374.122 295.539 374.245 295.586C374.368 295.633 374.48 295.704 374.575 295.795C374.67 295.886 374.747 295.994 374.8 296.114C374.853 296.234 374.882 296.364 374.886 296.495C374.889 296.627 374.866 296.757 374.819 296.88C374.772 297.003 374.701 297.115 374.61 297.21C367.1 305.08 359.61 313.21 352.37 321.21C352.28 321.321 352.168 321.411 352.04 321.475C351.912 321.539 351.773 321.575 351.63 321.58Z" fill="#010101"/>
<path d="M344.42 347.71C344.186 347.71 343.96 347.629 343.78 347.48C343.679 347.395 343.597 347.292 343.536 347.175C343.476 347.058 343.439 346.931 343.428 346.8C343.417 346.669 343.431 346.537 343.471 346.412C343.511 346.287 343.575 346.17 343.66 346.07C355.085 332.541 367.318 319.714 380.29 307.66C380.383 307.566 380.493 307.492 380.615 307.441C380.737 307.39 380.868 307.364 381 307.364C381.132 307.364 381.263 307.39 381.385 307.441C381.506 307.492 381.617 307.566 381.71 307.66C381.89 307.854 381.985 308.111 381.976 308.375C381.967 308.64 381.853 308.889 381.66 309.07C368.749 321.066 356.579 333.836 345.22 347.31C345.127 347.434 345.006 347.535 344.867 347.604C344.728 347.674 344.575 347.71 344.42 347.71Z" fill="#010101"/>
<path d="M342.96 370.52C342.767 370.517 342.578 370.459 342.417 370.351C342.256 370.244 342.13 370.092 342.054 369.914C341.978 369.736 341.955 369.54 341.988 369.349C342.021 369.159 342.108 368.982 342.24 368.84L385 323.68C385.182 323.486 385.433 323.373 385.698 323.364C385.964 323.356 386.221 323.453 386.415 323.635C386.609 323.817 386.722 324.068 386.731 324.333C386.739 324.599 386.642 324.856 386.46 325.05L343.69 370.21C343.596 370.309 343.483 370.387 343.357 370.44C343.232 370.494 343.096 370.521 342.96 370.52Z" fill="#010101"/>
<path d="M347.14 388.93C347.001 388.931 346.864 388.903 346.736 388.848C346.609 388.793 346.494 388.712 346.4 388.61C346.221 388.415 346.128 388.157 346.139 387.893C346.15 387.628 346.266 387.379 346.46 387.2C361.87 373.01 376.74 357.91 390.68 342.3C390.765 342.194 390.871 342.107 390.99 342.043C391.11 341.979 391.242 341.941 391.377 341.929C391.512 341.918 391.649 341.935 391.777 341.978C391.906 342.021 392.025 342.089 392.126 342.18C392.227 342.27 392.309 342.38 392.366 342.503C392.424 342.626 392.455 342.76 392.459 342.895C392.464 343.031 392.44 343.166 392.39 343.292C392.341 343.419 392.266 343.534 392.17 343.63C378.17 359.28 363.27 374.44 347.82 388.63C347.637 388.81 347.396 388.916 347.14 388.93Z" fill="#010101"/>
<path d="M368.75 390.55C368.616 390.551 368.483 390.525 368.36 390.473C368.236 390.422 368.124 390.346 368.03 390.25C367.844 390.063 367.739 389.809 367.739 389.545C367.739 389.281 367.844 389.027 368.03 388.84L392.29 365.48C392.382 365.378 392.494 365.296 392.619 365.239C392.745 365.182 392.88 365.151 393.018 365.149C393.155 365.147 393.292 365.173 393.419 365.226C393.546 365.279 393.66 365.357 393.756 365.457C393.851 365.556 393.924 365.674 393.972 365.803C394.019 365.932 394.04 366.07 394.032 366.207C394.024 366.344 393.988 366.479 393.925 366.601C393.863 366.724 393.776 366.832 393.67 366.92L369.45 390.28C369.261 390.457 369.01 390.554 368.75 390.55Z" fill="#010101"/>
<path d="M386.29 391.27C386.052 391.27 385.821 391.185 385.64 391.03C385.441 390.858 385.319 390.615 385.298 390.353C385.277 390.091 385.361 389.831 385.53 389.63C388.008 386.729 390.656 383.977 393.46 381.39C393.658 381.231 393.909 381.152 394.162 381.171C394.416 381.19 394.652 381.305 394.824 381.492C394.996 381.679 395.09 381.925 395.088 382.179C395.085 382.433 394.986 382.676 394.81 382.86C392.068 385.396 389.476 388.09 387.05 390.93C386.955 391.038 386.838 391.124 386.707 391.183C386.576 391.242 386.434 391.271 386.29 391.27Z" fill="#010101"/>
<g opacity="0.13">
<path d="M395.54 247.07C394.726 246.27 393.631 245.822 392.49 245.822C391.349 245.822 390.254 246.27 389.44 247.07C387.26 249.96 388.6 250.95 386.99 255.53C385.26 262.19 376.66 268.18 373.34 269.67C368.39 271.67 366.77 271.67 364.21 271.84C359.27 272.02 360.11 271.84 354.64 270.6C353.505 270.24 352.42 269.739 351.41 269.11C350.973 268.825 350.483 268.631 349.969 268.541C349.455 268.451 348.929 268.467 348.421 268.587C347.913 268.706 347.435 268.928 347.016 269.238C346.596 269.549 346.244 269.941 345.981 270.391C345.718 270.842 345.549 271.341 345.485 271.859C345.42 272.376 345.462 272.902 345.607 273.403C345.751 273.904 345.997 274.37 346.327 274.774C346.658 275.177 347.067 275.509 347.53 275.75C364.07 286.9 380.18 283.68 392.16 265.82C394.547 261.73 396.04 257.18 396.54 252.47C396.85 250.6 397.09 248.48 395.54 247.07Z" fill="#010101"/>
</g>
<g opacity="0.13">
<path d="M403.92 384.66C403.92 384.43 403.92 384.21 403.92 383.99C404.7 382.08 402.92 372.88 403.33 376.12C403.04 373.85 402.68 371.57 402.33 369.3C402.33 369.16 402.28 369.02 402.26 368.87C401.94 362.92 400.62 357.13 399.34 351.33C395.98 333.06 393.73 313.92 384.59 297.42C381.88 291.88 378.36 286.18 372.84 283.14C366.93 280.36 361.5 288.49 366.19 293.01C371.12 297.46 370.19 296.69 373.33 302.78C377.03 309.16 377.09 312.52 379.52 321.85C384.17 339.04 384.82 347.4 385.63 365.22L385.96 367.41C386.377 371.631 386.423 375.881 386.1 380.11C386.183 381.903 386.393 383.687 386.73 385.45C386.66 391.39 386.84 399.14 393.6 401.12C397.38 402.25 401.02 400.12 402.87 396.89C407.97 394.76 408.29 387.48 403.92 384.66Z" fill="#010101"/>
</g>
<path d="M375.77 168.67C375.153 168.666 374.552 168.472 374.049 168.114C373.546 167.756 373.166 167.252 372.96 166.67C358.09 125.88 323.01 92.8399 281.4 80.4499C281.002 80.3568 280.627 80.1831 280.298 79.9397C279.969 79.6962 279.694 79.3881 279.489 79.0343C279.283 78.6805 279.153 78.2885 279.104 77.8823C279.056 77.4761 279.092 77.0643 279.208 76.6723C279.325 76.2803 279.521 75.9163 279.783 75.6027C280.046 75.2891 280.37 75.0325 280.736 74.8487C281.101 74.6649 281.5 74.5578 281.908 74.5339C282.317 74.5101 282.726 74.57 283.11 74.7099C326.5 87.6299 363.11 122.08 378.58 164.62C378.74 165.071 378.789 165.554 378.724 166.028C378.659 166.501 378.482 166.953 378.207 167.344C377.932 167.736 377.567 168.056 377.143 168.278C376.719 168.5 376.249 168.617 375.77 168.62V168.67Z" fill="#010101"/>
<path d="M296.64 104.27C296.08 104.27 295.532 104.114 295.057 103.819C294.581 103.524 294.198 103.102 293.95 102.6C289.743 94.0595 284.681 85.968 278.84 78.45C278.538 78.0615 278.336 77.6048 278.253 77.12C278.169 76.6352 278.206 76.1373 278.36 75.6701C278.503 75.1979 278.761 74.7684 279.109 74.4196C279.458 74.0707 279.888 73.8133 280.36 73.6701C290.333 70.9236 300.704 69.9089 311.02 70.6701C311.816 70.7271 312.556 71.0978 313.078 71.7008C313.601 72.3037 313.862 73.0894 313.805 73.8851C313.748 74.6807 313.377 75.4211 312.774 75.9434C312.171 76.4657 311.386 76.7271 310.59 76.6701C302.448 76.0663 294.261 76.6558 286.29 78.4201C291.235 85.2263 295.585 92.4464 299.29 100C299.513 100.456 299.618 100.962 299.592 101.47C299.567 101.977 299.413 102.47 299.145 102.902C298.877 103.333 298.504 103.69 298.061 103.938C297.617 104.186 297.118 104.318 296.61 104.32L296.64 104.27Z" fill="#010101"/>
<path d="M368.06 286.37C363.82 286.365 359.608 285.673 355.59 284.32C353.241 283.586 351.019 282.497 349 281.09C345.31 278.45 342.56 274.44 340.6 268.84C339.469 265.762 338.827 262.526 338.7 259.25C338.672 255.227 339.412 251.236 340.88 247.49C343.247 240.708 347.449 234.715 353.02 230.18C358.925 225.44 366.423 223.142 373.97 223.76C381.07 224.48 387.92 229.17 392.79 236.63C396.699 242.899 398.717 250.163 398.6 257.55C398.631 260.358 398.295 263.159 397.6 265.88C395.46 273.82 388.95 280.79 380.6 284.08C376.6 285.619 372.346 286.396 368.06 286.37ZM371.35 229.61C366.026 229.699 360.883 231.557 356.73 234.89C352.025 238.736 348.483 243.816 346.5 249.56C345.3 252.597 344.686 255.834 344.69 259.1C344.804 261.753 345.333 264.371 346.26 266.86C347.8 271.26 349.84 274.32 352.49 276.23C354.025 277.282 355.711 278.095 357.49 278.64C364.268 281.022 371.662 280.976 378.41 278.51C385.03 275.9 390.17 270.51 391.82 264.32C392.372 262.11 392.631 259.837 392.59 257.56C392.712 251.33 391.031 245.197 387.75 239.9C385.92 237.09 380.85 230.48 373.35 229.72C372.686 229.649 372.018 229.612 371.35 229.61Z" fill="#010101"/>
<path d="M332.4 405.26C331.644 405.262 330.915 404.98 330.359 404.468C329.803 403.956 329.46 403.253 329.4 402.5C326.96 371.15 330.93 338.37 340.58 310.19C343.02 303.07 345.98 295.66 351.04 289.82C356.87 283.09 364.84 279.9 371.86 281.51C383.32 284.14 389.08 297.45 392.41 307.23C402.705 337.57 408.155 369.343 408.56 401.38C408.56 402.176 408.244 402.939 407.681 403.501C407.119 404.064 406.356 404.38 405.56 404.38C393.86 404.38 344.12 404.53 332.56 405.22L332.4 405.26ZM368.12 287.08C363.19 287.08 358.54 290.34 355.58 293.74C351.19 298.81 348.51 305.58 346.27 312.14C337.18 338.69 333.27 369.47 335.19 399.14C349.52 398.59 387.75 398.45 402.53 398.43C401.847 368.044 396.529 337.941 386.76 309.16C382.26 295.96 376.96 288.82 370.54 287.35C369.746 287.172 368.934 287.081 368.12 287.08Z" fill="#010101"/>
<path d="M327.53 185.79C326.971 185.79 326.422 185.634 325.947 185.339C325.471 185.044 325.088 184.621 324.84 184.12C316.179 166.555 301.826 152.439 284.12 144.07C283.736 143.92 283.388 143.694 283.095 143.404C282.803 143.113 282.574 142.766 282.422 142.384C282.27 142.001 282.198 141.591 282.211 141.18C282.224 140.768 282.321 140.364 282.498 139.991C282.674 139.619 282.924 139.287 283.234 139.016C283.544 138.745 283.907 138.541 284.299 138.416C284.692 138.291 285.105 138.248 285.515 138.29C285.925 138.332 286.321 138.458 286.68 138.66C305.609 147.607 320.954 162.695 330.22 181.47C330.566 182.183 330.616 183.003 330.36 183.752C330.103 184.502 329.56 185.119 328.85 185.47C328.441 185.678 327.989 185.788 327.53 185.79Z" fill="#010101"/>
<path d="M205.647 1.44873C195.857 5.68873 185.807 11.2587 180.967 20.7587C178.858 25.0799 177.938 29.8849 178.302 34.6795C178.666 39.4741 180.3 44.0852 183.037 48.0387C185.876 51.9218 189.668 55.0079 194.047 56.9994C198.426 58.9909 203.244 59.8207 208.037 59.4087C211.53 59.1162 214.922 58.0894 217.991 56.3955C221.06 54.7015 223.737 52.3786 225.847 49.5787C230.147 43.5787 231.167 35.7387 230.057 28.4687C229.218 22.2155 226.593 16.3369 222.497 11.5387C218.317 6.85873 212.317 3.67873 205.647 1.44873Z" fill="white"/>
<path d="M196.647 62.6786C187.057 67.0886 182.137 77.6786 178.757 87.6786C169.364 115.447 165.912 144.88 168.627 174.069L169.137 176.919C169.669 176.997 170.166 177.23 170.567 177.589C170.567 177.589 240.257 177.949 240.467 176.909C239.747 143.459 236.537 109.369 223.087 78.7386C220.797 73.5186 218.087 68.2686 213.707 64.6286C211.36 62.6808 208.497 61.4591 205.467 61.1127C202.437 60.7664 199.372 61.3106 196.647 62.6786Z" fill="white"/>
<path d="M45.2467 229.519C41.1159 229.975 37.1172 231.249 33.4833 233.266C29.8494 235.282 26.6529 238.002 24.0798 241.265C21.5067 244.529 19.6084 248.272 18.4954 252.276C17.3824 256.28 17.0769 260.465 17.5967 264.589C18.0179 269.14 19.8979 273.433 22.9567 276.829C25.5267 279.469 28.9567 281.129 32.3167 282.549C36.5367 284.299 40.9467 285.789 45.5067 285.919C49.1505 285.993 52.761 285.212 56.0484 283.639C59.3359 282.065 62.2088 279.743 64.4367 276.859C71.0167 268.209 70.6067 255.859 66.8067 245.719C65.5561 241.912 63.4487 238.443 60.6467 235.579C56.5067 231.689 50.7567 230.119 45.2467 229.519Z" fill="white"/>
<path d="M7.04663 403.599C4.8737 371.739 9.66822 339.788 21.0966 309.969C23.2766 304.269 25.7966 298.529 30.0166 294.129C34.2366 289.729 40.5466 286.869 46.4966 288.219C55.3866 290.219 59.7766 300.089 62.4966 308.779C72.3866 339.779 78.6066 371.859 79.7766 404.979C59.4033 405.165 39.03 404.899 18.6566 404.179C14.8666 404.039 10.9366 403.899 7.04663 403.599Z" fill="#AED3F0"/>
<g opacity="0.13">
<path d="M67.9667 249.549C66.9667 246.819 62.9167 246.619 61.5467 249.119C60.2767 252.119 61.5467 255.619 61.2367 258.819C61.4167 259.389 59.8367 265.219 58.9167 266.419C58.5967 266.969 59.1867 266.149 59.3967 265.899C59.1367 266.219 58.7167 266.799 58.3967 267.159C58.2667 267.319 58.1367 267.469 57.9967 267.619C55.8267 269.779 53.5767 271.839 51.3267 273.909C49.3151 275.218 47.1121 276.207 44.7967 276.839C43.9096 277.106 43.0082 277.323 42.0967 277.489H41.8667C38.8667 277.349 35.7967 277.669 32.7767 277.399H32.4567C30.8667 277.139 29.2267 276.749 27.7767 277.679C24.4267 279.489 25.1267 284.959 28.8467 285.849C32.9467 286.849 37.1467 288.169 41.4067 287.789C46.6667 287.339 51.5467 284.789 56.0467 282.199C68.4367 275.849 71.5967 259.659 67.9667 249.549Z" fill="#010101"/>
</g>
<g opacity="0.13">
<path d="M230.717 24.4589C230.493 23.9334 230.129 23.4801 229.663 23.1492C229.198 22.8184 228.65 22.6229 228.08 22.5846C227.511 22.5463 226.941 22.6666 226.436 22.9321C225.931 23.1976 225.508 23.598 225.217 24.0889C224.047 28.7289 224.877 30.0889 223.057 34.6389C222.317 37.3389 216.057 43.4389 211.597 45.6389C210.687 46.1389 205.407 47.9789 203.177 47.8089C195.527 47.6089 194.777 47.5689 188.357 47.1189C186.357 46.7889 184.357 45.9989 182.407 46.1889C177.837 46.5889 177.407 53.4789 181.837 54.5889C187.837 55.9389 192.027 58.2089 194.907 58.2589C201.187 58.8389 207.857 59.0489 213.657 56.1989C220.177 52.5089 225.257 46.1989 228.417 39.4489C229.737 34.8889 231.497 29.1389 230.717 24.4589Z" fill="#010101"/>
</g>
<g opacity="0.13">
<path d="M81.2167 396.969L81.1267 396.259V396.199C80.8067 390.319 80.6267 384.439 80.6867 378.559C79.5584 368.888 77.9329 359.282 75.8167 349.779C73.6467 339.959 71.1167 330.249 68.0867 320.669C65.5567 312.329 63.2866 303.829 59.2667 296.069C58.1643 293.924 56.8224 291.911 55.2667 290.069C54.897 289.457 54.3826 288.946 53.7688 288.579C53.155 288.213 52.4606 288.003 51.7467 287.969C50.9857 287.985 50.2459 288.222 49.6174 288.651C48.9889 289.08 48.4989 289.683 48.2073 290.386C47.9157 291.089 47.8351 291.862 47.9753 292.61C48.1154 293.358 48.4703 294.049 48.9967 294.599C60.3067 308.709 61.1166 333.229 63.4066 349.879C64.1866 360.189 64.6167 358.359 65.0067 365.149C65.4567 370.299 65.3567 375.509 65.8767 380.639C66.3167 382.639 67.3567 389.699 67.9467 391.839C68.0967 393.729 68.3967 395.599 68.4067 397.479C67.2866 400.719 68.9567 404.919 72.2967 406.049C76.5567 408.169 82.0267 404.419 81.8067 399.699C81.8181 398.756 81.6164 397.823 81.2167 396.969Z" fill="#010101"/>
</g>
<g opacity="0.13">
<path d="M239.007 165.569C238.527 155.159 237.187 146.649 236.557 141.509C236.217 137.209 233.927 119.599 231.077 108.929C227.527 95.6187 224.077 82.1687 219.017 69.3487C218.393 67.9948 217.622 66.7137 216.717 65.5287C215.717 64.3387 214.947 62.6487 213.347 62.1387C209.547 60.2787 205.397 65.0287 207.667 68.5887C211.667 73.7987 212.167 77.5087 213.997 85.4487C215.867 94.8187 217.217 103.339 217.857 108.679L217.627 106.989C218.237 115.259 219.627 127.169 220.307 131.529C221.197 143.329 221.577 155.179 222.807 166.939C223.047 167.939 223.267 168.939 223.557 169.939V170.039C223.647 170.559 223.717 171.039 223.797 171.619C223.815 171.828 223.848 172.035 223.897 172.239C223.897 172.499 223.977 172.749 224.007 173.009C224.012 172.979 224.012 172.948 224.007 172.919C224.003 172.999 224.003 173.079 224.007 173.159C224.007 172.949 223.957 172.769 223.927 172.609C223.932 172.579 223.932 172.549 223.927 172.519C224.08 173.399 224.37 174.249 224.787 175.039C225.037 175.429 225.307 175.809 225.587 176.169C226.575 177.875 228.166 179.148 230.047 179.739L231.047 179.879L230.267 179.789C236.047 181.209 239.507 176.249 238.847 171.889C239.077 169.829 238.667 167.649 239.007 165.569Z" fill="#010101"/>
</g>
<path d="M28.8667 181.779C28.6722 181.782 28.4778 181.765 28.2867 181.729C27.5074 181.574 26.8213 181.117 26.3788 180.457C25.9364 179.797 25.7738 178.988 25.9267 178.209C30.2057 157.111 39.1106 137.225 52 119.984C64.8894 102.742 81.4425 88.5733 100.467 78.4988C100.817 78.2945 101.205 78.1633 101.607 78.1131C102.01 78.063 102.418 78.0949 102.808 78.2071C103.198 78.3192 103.561 78.5092 103.875 78.7656C104.189 79.022 104.448 79.3394 104.636 79.6986C104.824 80.0579 104.938 80.4516 104.969 80.8559C105.001 81.2602 104.95 81.6667 104.82 82.0509C104.691 82.435 104.484 82.7889 104.214 83.091C103.943 83.3932 103.614 83.6374 103.247 83.8088C85.0112 93.4602 69.1445 107.038 56.7907 123.563C44.4369 140.087 35.9038 159.148 31.8067 179.369C31.6704 180.048 31.3031 180.66 30.7671 181.099C30.2312 181.538 29.5597 181.778 28.8667 181.779Z" fill="#010101"/>
<path d="M27.3166 182.729C26.9367 182.73 26.56 182.658 26.2066 182.519C25.7753 182.346 25.3901 182.075 25.0812 181.728C24.7723 181.381 24.5482 180.967 24.4267 180.519C20.9877 168.353 18.5364 155.929 17.0966 143.369C17.0253 142.966 17.0373 142.552 17.1318 142.154C17.2263 141.755 17.4014 141.38 17.6462 141.052C17.891 140.724 18.2005 140.45 18.5554 140.245C18.9104 140.041 19.3033 139.912 19.7101 139.866C20.1169 139.819 20.5289 139.856 20.9208 139.975C21.3126 140.094 21.676 140.292 21.9886 140.556C22.3012 140.821 22.5563 141.146 22.7383 141.513C22.9202 141.88 23.0252 142.28 23.0467 142.689C24.3019 153.604 26.3371 164.415 29.1366 175.039C37.558 169.609 45.2822 163.168 52.1367 155.859C52.7028 155.394 53.4195 155.153 54.1515 155.18C54.8835 155.207 55.5803 155.501 56.1104 156.007C56.6405 156.512 56.9673 157.194 57.0293 157.924C57.0912 158.654 56.884 159.381 56.4466 159.969C48.3144 168.658 39.0157 176.176 28.8166 182.309C28.3624 182.578 27.8449 182.723 27.3166 182.729Z" fill="#010101"/>
<path d="M202.527 472.589C179.961 472.675 157.68 467.541 137.427 457.589C136.766 457.206 136.277 456.587 136.057 455.856C135.837 455.125 135.905 454.338 136.245 453.655C136.585 452.972 137.173 452.444 137.888 452.179C138.604 451.914 139.394 451.932 140.097 452.229C178.957 471.599 227.097 471.429 265.867 451.789C266.568 451.486 267.357 451.463 268.075 451.722C268.793 451.982 269.385 452.505 269.73 453.186C270.075 453.866 270.148 454.653 269.934 455.386C269.72 456.118 269.235 456.741 268.577 457.129C248.074 467.38 225.45 472.676 202.527 472.589Z" fill="#010101"/>
<path d="M249.187 479.969C248.571 479.966 247.971 479.773 247.468 479.417C246.965 479.062 246.584 478.559 246.377 477.979C246.169 477.399 246.145 476.77 246.308 476.175C246.471 475.581 246.813 475.052 247.287 474.659C253.61 469.489 259.145 463.426 263.717 456.659C255.454 455.125 247.338 452.887 239.457 449.969C239.06 449.855 238.691 449.66 238.373 449.396C238.055 449.133 237.795 448.807 237.609 448.438C237.423 448.07 237.315 447.667 237.291 447.255C237.268 446.842 237.33 446.43 237.474 446.043C237.617 445.656 237.839 445.302 238.126 445.005C238.412 444.707 238.757 444.472 239.138 444.314C239.519 444.156 239.929 444.079 240.342 444.086C240.755 444.094 241.162 444.187 241.537 444.359C250.466 447.657 259.707 450.042 269.117 451.479C269.604 451.553 270.065 451.746 270.46 452.041C270.854 452.335 271.171 452.722 271.38 453.168C271.59 453.614 271.686 454.104 271.661 454.596C271.636 455.088 271.491 455.566 271.237 455.989C265.905 464.856 259.09 472.74 251.087 479.299C250.55 479.734 249.879 479.971 249.187 479.969Z" fill="#010101"/>
<path d="M203.127 62.7187C198.889 62.7155 194.68 62.0197 190.667 60.6587C188.316 59.928 186.09 58.8421 184.067 57.4387C180.387 54.7887 177.637 50.7787 175.677 45.1787C174.541 42.1021 173.896 38.8658 173.767 35.5887C173.749 31.5699 174.489 27.5837 175.947 23.8387C178.313 17.0509 182.52 11.0544 188.097 6.51872C194.002 1.77853 201.5 -0.518932 209.047 0.0987195C216.137 0.81872 223.047 5.50872 227.857 12.9687C231.775 19.2338 233.793 26.5004 233.667 33.8887C233.708 36.6976 233.371 39.4993 232.667 42.2187C230.537 50.1587 224.027 57.1387 215.667 60.4287C211.665 61.9632 207.413 62.7398 203.127 62.7187ZM206.417 5.96872C201.094 6.05527 195.951 7.90918 191.797 11.2387C187.097 15.0876 183.559 20.1664 181.577 25.9087C180.376 28.9462 179.759 32.1826 179.757 35.4487C179.867 38.0979 180.394 40.7131 181.317 43.1987C182.857 47.5987 184.897 50.6687 187.557 52.5687C189.093 53.6215 190.778 54.4373 192.557 54.9887C199.339 57.3699 206.737 57.3204 213.487 54.8487C220.107 52.2487 225.247 46.8487 226.887 40.6687C227.449 38.4573 227.708 36.1798 227.657 33.8987C227.785 27.6711 226.103 21.5401 222.817 16.2487C220.987 13.4387 215.927 6.81872 208.417 6.05872C207.752 5.99428 207.085 5.96424 206.417 5.96872Z" fill="#010101"/>
<path d="M211.317 181.599C197.627 181.599 183.037 181.099 167.317 180.099C166.598 180.053 165.919 179.75 165.405 179.245C164.891 178.74 164.576 178.067 164.517 177.349C161.984 146.632 165.793 115.722 175.707 86.5388C178.137 79.4088 181.097 72.0088 186.157 66.1688C191.987 59.4288 199.977 56.2388 206.987 57.8588C218.447 60.4888 224.197 73.7888 227.527 83.5688C237.827 113.908 243.28 145.681 243.687 177.719C243.688 178.484 243.397 179.221 242.873 179.779C242.349 180.337 241.631 180.673 240.867 180.719C231.427 181.319 221.617 181.599 211.317 181.599ZM170.317 174.289C192.73 175.775 215.209 175.992 237.647 174.939C236.981 144.495 231.659 114.332 221.867 85.4988C217.367 72.2988 212.067 65.1688 205.657 63.6888C199.867 62.3688 194.127 66.1188 190.657 70.0888C186.317 75.1588 183.577 81.9688 181.317 88.4788C172.054 116.083 168.316 145.241 170.317 174.289Z" fill="#010101"/>
<path d="M43.3669 289.669C39.1257 289.666 34.9135 288.971 30.8969 287.609C28.5473 286.874 26.3222 285.788 24.2969 284.389C20.6069 281.739 17.8669 277.729 15.9069 272.129C14.7725 269.052 14.128 265.816 13.9969 262.539C13.9793 258.52 14.7188 254.534 16.1769 250.789C18.5377 244.001 22.7412 238.003 28.3169 233.469C34.2363 228.718 41.753 226.42 49.3169 227.049C56.4069 227.769 63.3169 232.459 68.1269 239.919C72.0454 246.187 74.0635 253.457 73.9369 260.849C73.9758 263.654 73.6395 266.452 72.9369 269.169C70.8069 277.109 64.2869 284.089 55.9369 287.379C51.9258 288.917 47.6629 289.694 43.3669 289.669ZM46.6569 232.909C41.3305 232.993 36.1835 234.847 32.0269 238.179C27.3271 242.028 23.7889 247.106 21.8069 252.849C20.6048 255.886 19.9873 259.122 19.9869 262.389C20.1006 265.042 20.6304 267.66 21.5569 270.149C23.0969 274.549 25.1369 277.619 27.7869 279.519C29.3223 280.572 31.0079 281.388 32.7869 281.939C39.5701 284.312 46.9661 284.263 53.7169 281.799C60.3369 279.199 65.4669 273.799 67.1269 267.619C67.6749 265.405 67.9304 263.129 67.8869 260.849C68.0132 254.618 66.3321 248.484 63.0469 243.189C61.2169 240.389 56.1469 233.769 48.6469 233.009C47.9857 232.941 47.3215 232.908 46.6569 232.909Z" fill="#010101"/>
<path d="M41.3169 408.359C26.4469 408.359 12.1569 408.039 7.09688 406.999C6.46152 406.867 5.88612 406.532 5.457 406.045C5.02788 405.559 4.76819 404.946 4.71688 404.299C2.27702 373.584 6.08007 342.694 15.8969 313.489C18.3169 306.359 21.3169 298.969 26.3169 293.119C32.1469 286.379 40.1369 283.189 47.1469 284.809C58.6069 287.429 64.3569 300.739 67.6869 310.519C77.9853 340.858 83.4388 372.631 83.8469 404.669C83.8476 405.442 83.5494 406.186 83.0146 406.745C82.4799 407.304 81.7498 407.635 80.9769 407.669C74.7269 407.969 57.6669 408.359 41.3169 408.359ZM10.5169 401.459C22.8069 402.859 62.1069 402.349 77.8369 401.829C77.1649 371.405 71.8433 341.263 62.0569 312.449C57.5569 299.249 52.2569 292.119 45.8469 290.649C40.0469 289.319 34.3169 293.069 30.8469 297.039C26.4569 302.109 23.7669 308.869 21.5269 315.429C12.2345 343.102 8.49311 372.337 10.5169 401.459Z" fill="#010101"/>
<path d="M204.677 419.619C186.269 419.671 168.08 415.631 151.427 407.789C151.043 407.638 150.695 407.41 150.403 407.119C150.112 406.828 149.883 406.48 149.732 406.096C149.581 405.713 149.511 405.303 149.525 404.891C149.54 404.479 149.639 404.075 149.817 403.703C149.994 403.331 150.246 403 150.558 402.73C150.869 402.46 151.232 402.257 151.626 402.134C152.019 402.011 152.433 401.97 152.843 402.013C153.252 402.057 153.649 402.185 154.007 402.389C168.495 409.168 184.198 412.965 200.183 413.554C216.168 414.143 232.109 411.513 247.057 405.819C247.791 405.562 248.596 405.601 249.302 405.927C250.008 406.253 250.56 406.841 250.842 407.566C251.123 408.291 251.112 409.096 250.811 409.813C250.51 410.53 249.942 411.102 249.227 411.409C235.012 416.877 219.907 419.661 204.677 419.619Z" fill="#010101"/>
<path d="M84.8368 192.889C84.3685 192.889 83.9068 192.779 83.4885 192.568C83.0703 192.358 82.7072 192.052 82.4282 191.676C82.1493 191.3 81.9622 190.863 81.8821 190.402C81.802 189.941 81.831 189.467 81.9668 189.019C85.6461 177.234 91.682 166.32 99.7081 156.939C107.734 147.559 117.583 139.907 128.657 134.449C129.014 134.248 129.408 134.122 129.815 134.08C130.222 134.037 130.634 134.078 131.025 134.201C131.416 134.323 131.777 134.524 132.087 134.792C132.397 135.059 132.649 135.387 132.828 135.756C133.006 136.125 133.107 136.526 133.125 136.935C133.142 137.344 133.076 137.752 132.93 138.135C132.784 138.517 132.561 138.866 132.275 139.159C131.989 139.452 131.646 139.683 131.267 139.839C120.935 144.934 111.745 152.074 104.256 160.827C96.7662 169.58 91.1326 179.763 87.6968 190.759C87.5107 191.373 87.1324 191.911 86.6176 192.295C86.1029 192.678 85.4787 192.886 84.8368 192.889Z" fill="#010101"/>
</g>
<defs>
<clipPath id="clip0_206_3627">
<rect width="408.58" height="480" fill="white"/>
</clipPath>
</defs>
</svg>
