<svg width="24" height="24" viewBox="0 0 24 24" fill="none" xmlns="http://www.w3.org/2000/svg">
<path fill-rule="evenodd" clip-rule="evenodd" d="M6 0C2.68629 0 0 2.68629 0 6V18C0 21.3137 2.68629 24 6 24H18C21.3137 24 24 21.3137 24 18V6C24 2.68629 21.3137 0 18 0H6ZM6.6 1.8C3.94903 1.8 1.8 3.94904 1.8 6.6V17.1C1.8 19.751 3.94903 21.9 6.6 21.9H17.1C19.751 21.9 21.9 19.751 21.9 17.1V6.6C21.9 3.94904 19.751 1.8 17.1 1.8H6.6Z" fill="#F05566"/>
<path fill-rule="evenodd" clip-rule="evenodd" d="M12 18C15.3137 18 18 15.3137 18 12C18 8.68629 15.3137 6 12 6C8.68629 6 6 8.68629 6 12C6 15.3137 8.68629 18 12 18ZM12 16.2C14.3196 16.2 16.2 14.3196 16.2 12C16.2 9.6804 14.3196 7.8 12 7.8C9.6804 7.8 7.8 9.6804 7.8 12C7.8 14.3196 9.6804 16.2 12 16.2Z" fill="#F05566"/>
<path fill-rule="evenodd" clip-rule="evenodd" d="M18 6.6C18.9941 6.6 19.8 5.79412 19.8 4.8C19.8 3.80588 18.9941 3 18 3C17.0059 3 16.2 3.80588 16.2 4.8C16.2 5.79412 17.0059 6.6 18 6.6ZM18 6C18.6627 6 19.2 5.46274 19.2 4.8C19.2 4.13726 18.6627 3.6 18 3.6C17.3373 3.6 16.8 4.13726 16.8 4.8C16.8 5.46274 17.3373 6 18 6Z" fill="#F05566"/>
</svg>
