<svg width="24" height="23" viewBox="0 0 24 23" fill="none" xmlns="http://www.w3.org/2000/svg">
<path fill-rule="evenodd" clip-rule="evenodd" d="M5.44833 7.45084H0.304198V22.9068H5.44833V7.45084Z" fill="white"/>
<path fill-rule="evenodd" clip-rule="evenodd" d="M5.78712 2.6697C5.75373 1.15426 4.67003 0 2.91025 0C1.15048 0 0 1.15426 0 2.6697C0 4.15376 1.11648 5.34125 2.84348 5.34125H2.87635C4.67003 5.34125 5.78712 4.15376 5.78712 2.6697Z" fill="white"/>
<path fill-rule="evenodd" clip-rule="evenodd" d="M24 14.0449C24 9.29747 21.4622 7.08795 18.0772 7.08795C15.346 7.08795 14.1232 8.58811 13.4404 9.6405V7.45129H8.29569C8.36349 8.9016 8.29569 22.9073 8.29569 22.9073H13.4404V14.2754C13.4404 13.8134 13.4738 13.3526 13.6098 13.0219C13.9816 12.0991 14.8281 11.1436 16.2493 11.1436C18.1115 11.1436 18.8559 12.5609 18.8559 14.6379V22.9069H23.9998L24 14.0449Z" fill="white"/>
</svg>
