<svg width="24" height="25" viewBox="0 0 24 25" fill="none" xmlns="http://www.w3.org/2000/svg">
<path d="M11.0625 24.1027C11.4844 24.7589 12.4688 24.7589 12.8906 24.1027C19.7344 14.2589 21 13.2277 21 9.57141C21 4.60266 16.9688 0.571411 12 0.571411C6.98438 0.571411 3 4.60266 3 9.57141C3 13.2277 4.21875 14.2589 11.0625 24.1027ZM12 13.3214C9.89062 13.3214 8.25 11.6808 8.25 9.57141C8.25 7.50891 9.89062 5.82141 12 5.82141C14.0625 5.82141 15.75 7.50891 15.75 9.57141C15.75 11.6808 14.0625 13.3214 12 13.3214Z" fill="#368DCC"/>
</svg>
