<svg width="22" height="22" viewBox="0 0 22 22" fill="none" xmlns="http://www.w3.org/2000/svg">
<path d="M19.9375 2.75H2.0625C0.923398 2.75 0 3.6734 0 4.8125V17.1875C0 18.3266 0.923398 19.25 2.0625 19.25H19.9375C21.0766 19.25 22 18.3266 22 17.1875V4.8125C22 3.6734 21.0766 2.75 19.9375 2.75ZM19.9375 4.8125V6.56584C18.9741 7.35041 17.4381 8.57038 14.1545 11.1416C13.4308 11.7108 11.9974 13.0783 11 13.0623C10.0028 13.0784 8.56887 11.7106 7.84554 11.1416C4.56242 8.57076 3.02607 7.35053 2.0625 6.56584V4.8125H19.9375ZM2.0625 17.1875V9.21241C3.04709 9.99664 4.44336 11.0971 6.57155 12.7636C7.51072 13.5029 9.15544 15.1349 11 15.125C12.8355 15.1349 14.4594 13.5266 15.4281 12.764C17.5562 11.0975 18.9529 9.99672 19.9375 9.21246V17.1875H2.0625Z" fill="#BABABA"/>
</svg>
