<svg width="22" height="22" viewBox="0 0 22 22" fill="none" xmlns="http://www.w3.org/2000/svg">
<g clip-path="url(#clip0_641:993)">
<path d="M21.2013 1.0575L16.7325 0.0262459C16.247 -0.0854728 15.7485 0.168043 15.5509 0.623512L13.4884 5.43601C13.3079 5.85711 13.4282 6.35125 13.7848 6.63914L16.3887 8.77039C14.8419 12.0661 12.1391 14.8075 8.77468 16.3844L6.64342 13.7805C6.35124 13.4239 5.86139 13.3036 5.4403 13.4841L0.627792 15.5466C0.168026 15.7485 -0.08549 16.2469 0.0262288 16.7325L1.05748 21.2012C1.1649 21.6653 1.5774 22.0005 2.06295 22.0005C13.0673 22.0005 22.0005 13.0844 22.0005 2.06296C22.0005 1.58171 21.6696 1.16492 21.2013 1.0575Z" fill="#BABABA"/>
</g>
<defs>
<clipPath id="clip0_641:993">
<rect width="22" height="22" fill="white"/>
</clipPath>
</defs>
</svg>
