<svg width="24" height="24" viewBox="0 0 24 24" fill="none" xmlns="http://www.w3.org/2000/svg">
<path fill-rule="evenodd" clip-rule="evenodd" d="M4.97143 0.0488502C5.26287 0.0244251 5.51267 0.0952578 5.6743 0.361491C6.03676 0.947693 6.40166 1.53389 6.74697 2.13475C7.14616 2.82842 7.51352 3.54164 7.90536 4.24264C8.00577 4.43071 8.14536 4.60168 8.26292 4.78243C8.37067 4.95341 8.47353 5.12927 8.57394 5.30024C8.77966 5.6886 8.76986 6.0794 8.46374 6.3896C8.02781 6.83414 7.5478 7.24692 7.08494 7.66947C6.69799 8.02364 6.29635 8.36315 5.9192 8.72464C5.62532 9.00797 5.5494 9.36213 5.74777 9.73584C6.0539 10.3074 6.35758 10.8789 6.69309 11.4383C7.9372 13.5071 9.52661 15.2657 11.5348 16.6213C12.3087 17.1464 13.1144 17.6276 13.9275 18.0868C14.694 18.5191 14.9928 18.4458 15.5879 17.7839C16.1414 17.1708 16.6753 16.548 17.2263 15.93C17.3586 15.781 17.5178 15.6491 17.6721 15.5221C17.9855 15.2583 18.3284 15.229 18.6884 15.4098C18.7888 15.4586 18.8966 15.5026 18.9847 15.5661C19.9398 16.2476 21.0076 16.7287 22.0166 17.3076C22.5579 17.6178 23.0844 17.95 23.6158 18.2675C23.9024 18.4361 24.0175 18.6827 23.9979 19.0223C23.944 19.9773 23.7848 20.9152 23.2289 21.7212C22.9962 22.0558 22.6656 22.3489 22.3325 22.5859C21.4093 23.2307 20.3782 23.6288 19.2811 23.8731C18.2843 24.0953 17.29 24.0147 16.3349 23.7168C14.4908 23.1501 12.6736 22.5004 11.0009 21.5161C9.48253 20.6197 8.10128 19.5376 6.82289 18.3286C5.20409 16.7922 3.75917 15.1167 2.59098 13.2091C1.82934 11.9707 1.28565 10.6371 0.793402 9.27664C0.494621 8.45596 0.200738 7.64261 0.0684913 6.77307C-0.083348 5.78874 0.0219599 4.84105 0.337884 3.90801C0.62197 3.06535 0.977078 2.25932 1.51341 1.53878C1.93465 0.979446 2.46118 0.569104 3.14201 0.385916C3.68814 0.241808 4.23917 0.12701 4.78776 0C4.85878 0.0561777 4.9151 0.0561777 4.97143 0.0488502Z" fill="#368DCC"/>
</svg>
