<svg width="24" height="24" viewBox="0 0 24 24" fill="none" xmlns="http://www.w3.org/2000/svg">
<path fill-rule="evenodd" clip-rule="evenodd" d="M4.95821 0.0488502C5.24887 0.0244251 5.498 0.0952578 5.65921 0.361491C6.0207 0.947693 6.38463 1.53389 6.72903 2.13475C7.12716 2.82842 7.49353 3.54164 7.88433 4.24264C7.98448 4.43071 8.1237 4.60168 8.24094 4.78243C8.34841 4.95341 8.451 5.12927 8.55114 5.30024C8.75631 5.6886 8.74654 6.0794 8.44123 6.3896C8.00646 6.83414 7.52773 7.24692 7.06609 7.66947C6.68018 8.02364 6.27961 8.36315 5.90346 8.72464C5.61036 9.00797 5.53464 9.36213 5.73249 9.73584C6.0378 10.3074 6.34067 10.8789 6.67529 11.4383C7.91609 13.5071 9.50128 15.2657 11.5041 16.6213C12.276 17.1464 13.0796 17.6276 13.8905 18.0868C14.655 18.5191 14.953 18.4458 15.5465 17.7839C16.0985 17.1708 16.631 16.548 17.1805 15.93C17.3124 15.781 17.4712 15.6491 17.6251 15.5221C17.9377 15.2583 18.2796 15.229 18.6387 15.4098C18.7388 15.4586 18.8463 15.5026 18.9342 15.5661C19.8868 16.2476 20.9518 16.7287 21.9581 17.3076C22.4979 17.6178 23.023 17.95 23.553 18.2675C23.8388 18.436 23.9536 18.6827 23.9341 19.0223C23.8803 19.9773 23.7216 20.9152 23.1671 21.7212C22.9351 22.0558 22.6053 22.3489 22.2731 22.5859C21.3523 23.2307 20.324 23.6288 19.2298 23.8731C18.2357 24.0953 17.244 24.0147 16.2914 23.7168C14.4522 23.1501 12.6399 22.5004 10.9717 21.5161C9.45731 20.6197 8.07974 19.5376 6.80475 18.3286C5.19025 16.7922 3.74917 15.1167 2.58409 13.2091C1.82447 11.9707 1.28224 10.6371 0.791292 9.27665C0.493306 8.45596 0.200205 7.64261 0.0683092 6.77307C-0.0831263 5.78874 0.0219015 4.84105 0.336985 3.90801C0.620316 3.06535 0.97448 2.25932 1.50939 1.53878C1.9295 0.979446 2.45464 0.569104 3.13366 0.385916C3.67834 0.241808 4.2279 0.12701 4.77502 0C4.84585 0.0561777 4.90203 0.0561777 4.95821 0.0488502Z" fill="white"/>
</svg>
