<svg width="133" height="300" viewBox="0 0 133 300" fill="none" xmlns="http://www.w3.org/2000/svg">
<path d="M69.2027 2.39331C53.0297 9.39776 36.4271 18.5994 28.4315 34.2933C24.9476 41.4319 23.4281 49.3697 24.0291 57.2903C24.6301 65.2109 27.33 72.8285 31.8511 79.3597C36.5418 85.7745 42.8061 90.8727 50.0399 94.1627C57.2738 97.4526 65.2333 98.8234 73.151 98.1429C78.9219 97.6597 84.5258 95.9634 89.596 93.165C94.6661 90.3666 99.0882 86.5291 102.573 81.9038C109.677 71.9918 111.362 59.0402 109.528 47.0302C108.143 36.6998 103.807 26.9885 97.0388 19.0619C90.1334 11.3306 80.2215 6.07726 69.2027 2.39331Z" fill="#F05566"/>
<path d="M54.3346 103.545C38.492 110.83 30.3641 128.325 24.7804 144.845C9.26283 190.718 3.56132 239.341 8.04571 287.56L8.88824 292.268C9.76697 292.398 10.5883 292.783 11.2506 293.375C11.2506 293.375 126.378 293.97 126.725 292.252C125.535 236.993 120.233 180.676 98.0132 130.076C94.2302 121.452 89.7533 112.779 82.5176 106.766C78.6412 103.548 73.9111 101.53 68.9058 100.958C63.9006 100.386 58.8371 101.285 54.3346 103.545Z" fill="#F05566"/>
<g opacity="0.13">
<path d="M110.618 40.4059C110.249 39.5378 109.647 38.7889 108.878 38.2423C108.109 37.6958 107.204 37.3729 106.263 37.3096C105.322 37.2463 104.382 37.445 103.547 37.8837C102.712 38.3223 102.014 38.9838 101.532 39.7946C99.5995 47.4599 100.971 49.7066 97.9641 57.2232C96.7416 61.6836 86.4001 71.7607 79.0322 75.3951C77.5289 76.2211 68.8064 79.2608 65.1225 78.9799C52.4847 78.6495 51.2457 78.5835 40.6399 77.8401C37.3359 77.2949 34.0319 75.9898 30.8105 76.3037C23.2609 76.9645 22.5506 88.3467 29.8689 90.1804C39.7809 92.4106 46.7027 96.1607 51.4605 96.2433C61.835 97.2014 72.8538 97.5483 82.4353 92.8402C93.2063 86.7443 101.598 76.3202 106.819 65.1693C108.999 57.6362 111.907 48.1372 110.618 40.4059Z" fill="#010101"/>
</g>
<g opacity="0.13">
<path d="M124.314 273.518C123.521 256.321 121.307 242.263 120.266 233.771C119.704 226.668 115.921 197.576 111.213 179.95C105.349 157.962 99.6493 135.742 91.2903 114.564C90.2594 112.327 88.9852 110.211 87.4906 108.253C85.8386 106.287 84.5666 103.495 81.9234 102.653C75.6459 99.5801 68.7901 107.427 72.5401 113.308C79.1481 121.915 79.9741 128.044 82.9972 141.161C86.0864 156.64 88.3167 170.715 89.3739 179.537L88.994 176.745C90.0017 190.407 92.2979 210.082 93.4213 217.285C94.8916 236.778 95.5193 256.354 97.5513 275.782C97.9477 277.434 98.3112 279.086 98.7903 280.738V280.903C98.9389 281.762 99.0546 282.555 99.1868 283.513C99.2161 283.858 99.2713 284.2 99.3519 284.537C99.3519 284.967 99.4841 285.38 99.5337 285.809C99.5427 285.76 99.5427 285.71 99.5337 285.661C99.5271 285.793 99.5271 285.925 99.5337 286.057C99.5337 285.71 99.4511 285.413 99.4015 285.148C99.4095 285.099 99.4095 285.049 99.4015 285C99.6542 286.453 100.134 287.858 100.822 289.163C101.235 289.807 101.681 290.435 102.144 291.03C103.776 293.848 106.405 295.952 109.512 296.927L111.164 297.158L109.875 297.01C119.424 299.356 125.14 291.162 124.049 283.959C124.429 280.556 123.752 276.955 124.314 273.518Z" fill="#010101"/>
</g>
<path d="M65.0401 103.611C58.0393 103.606 51.0863 102.456 44.4563 100.208C40.5721 99.0006 36.8953 97.2067 33.5532 94.8884C27.4738 90.5106 22.9308 83.8861 19.6929 74.6349C17.8161 69.5524 16.7513 64.2061 16.5376 58.7923C16.5085 52.1533 17.7303 45.5682 20.139 39.3814C24.0483 28.1679 30.9975 18.2617 40.2107 10.7689C49.9665 2.93812 62.3518 -0.857272 74.8199 0.163084C86.5326 1.35252 97.9479 9.10037 105.894 21.4242C112.367 31.7741 115.701 43.7784 115.492 55.9839C115.559 60.6242 115.004 65.2526 113.84 69.745C110.321 82.8619 99.5668 94.3928 85.7562 99.8278C79.1452 102.363 72.1203 103.646 65.0401 103.611ZM70.4752 9.86028C61.6817 10.0033 53.1854 13.0659 46.3231 18.5663C38.559 24.9247 32.7139 33.3148 29.4397 42.801C27.4565 47.8189 26.4365 53.1655 26.4331 58.561C26.6157 62.9374 27.4853 67.2578 29.0102 71.364C31.5542 78.6328 34.9243 83.7044 39.3186 86.8432C41.8559 88.5824 44.6404 89.93 47.5786 90.841C58.7823 94.7747 71.0047 94.693 82.1548 90.6097C93.091 86.3145 101.582 77.3938 104.292 67.1845C105.219 63.5311 105.647 59.7688 105.564 56.0005C105.775 45.7125 102.997 35.5841 97.5679 26.8428C94.5447 22.2007 86.1857 11.2645 73.7792 10.009C72.6812 9.90251 71.5784 9.85289 70.4752 9.86028Z" fill="#010101"/>
<path d="M78.5699 300C55.9541 300 31.8516 299.174 5.88223 297.522C4.69413 297.447 3.57287 296.946 2.72352 296.112C1.87416 295.278 1.35346 294.166 1.25665 292.979C-2.92789 242.235 3.36429 191.172 19.7425 142.961C23.7568 131.183 28.6467 118.958 37.0058 109.31C46.6369 98.1759 59.8363 92.9061 71.4168 95.5823C90.3486 99.927 99.8476 121.899 105.349 138.055C122.364 188.176 131.373 240.665 132.045 293.59C132.047 294.855 131.566 296.072 130.7 296.994C129.834 297.915 128.649 298.47 127.386 298.546C111.792 299.537 95.5855 300 78.5699 300ZM10.8382 287.924C47.8645 290.38 85.0001 290.738 122.067 288.998C120.966 238.705 112.175 188.876 95.9984 141.243C88.5645 119.437 79.8089 107.658 69.2196 105.213C59.6546 103.033 50.1722 109.228 44.4398 115.786C37.2701 124.162 32.7436 135.412 29.0101 146.166C13.7069 191.768 7.53215 239.937 10.8382 287.924Z" fill="#010101"/>
</svg>
