<svg width="30" height="31" viewBox="0 0 30 31" fill="none" xmlns="http://www.w3.org/2000/svg">
<circle cx="15" cy="15.5" r="15" fill="#F05566"/>
<path d="M16.332 14.9961C17.543 15.1758 18.5078 15.6836 19.2266 16.5195C19.9531 17.3477 20.3164 18.3672 20.3164 19.5781C20.3164 20.5859 20.0664 21.4805 19.5664 22.2617C19.0742 23.0352 18.3867 23.6406 17.5039 24.0781C16.6211 24.5156 15.6211 24.7344 14.5039 24.7344C13.4023 24.7344 12.4141 24.5195 11.5391 24.0898C10.6641 23.6602 9.98828 23.0469 9.51172 22.25C9.03516 21.4453 8.80469 20.5156 8.82031 19.4609H12.1719C12.1719 20.1328 12.3906 20.6797 12.8281 21.1016C13.2734 21.5234 13.8477 21.7344 14.5508 21.7344C15.2383 21.7344 15.7969 21.5352 16.2266 21.1367C16.6641 20.7383 16.8828 20.1953 16.8828 19.5078C16.8828 18.8516 16.668 18.3359 16.2383 17.9609C15.8164 17.5859 15.2539 17.3828 14.5508 17.3516C14.3555 17.3359 13.8125 17.3281 12.9219 17.3281H12.0078V15.0898L15.125 12.043H9.67578V9.11328H19.4727V11.8789L16.332 14.9961Z" fill="white"/>
</svg>
