<svg width="30" height="31" viewBox="0 0 30 31" fill="none" xmlns="http://www.w3.org/2000/svg">
<circle cx="15" cy="15.5" r="15" fill="#F5BC5C"/>
<path d="M14.5508 21.4531H19.6133V24.5H9.48828V22.0742L14.9844 16.3438C15.3828 15.9141 15.6953 15.5078 15.9219 15.125C16.1484 14.7344 16.2617 14.293 16.2617 13.8008C16.2617 13.207 16.082 12.7422 15.7227 12.4062C15.3711 12.0703 14.8945 11.9023 14.293 11.9023C13.6211 11.9023 13.0977 12.1055 12.7227 12.5117C12.3555 12.918 12.1953 13.4492 12.2422 14.1055H8.91406C8.85156 13.0664 9.05469 12.1445 9.52344 11.3398C9.99219 10.5273 10.6602 9.90234 11.5273 9.46484C12.3945 9.02734 13.3789 8.80859 14.4805 8.80859C15.5039 8.80859 16.4102 9.00391 17.1992 9.39453C17.9961 9.78516 18.6094 10.3359 19.0391 11.0469C19.4688 11.7578 19.6836 12.5859 19.6836 13.5312C19.6836 14.5234 19.4844 15.3711 19.0859 16.0742C18.6875 16.7773 18.1758 17.4727 17.5508 18.1602L14.5508 21.4531Z" fill="white"/>
</svg>
