<svg width="24" height="20" viewBox="0 0 24 20" fill="none" xmlns="http://www.w3.org/2000/svg">
<path fill-rule="evenodd" clip-rule="evenodd" d="M11.6534 5.276L11.7054 6.13385L10.8383 6.0288C7.68221 5.62614 4.92494 4.26058 2.58386 1.96714L1.43933 0.829178L1.14453 1.66952C0.52024 3.54279 0.91909 5.5211 2.21969 6.85164C2.91334 7.58694 2.75727 7.69199 1.56072 7.25431C1.14453 7.11425 0.78036 7.00921 0.745677 7.06173C0.624288 7.18428 1.04048 8.77743 1.36996 9.40769C1.82084 10.283 2.73993 11.1409 3.74573 11.6486L4.59545 12.0513L3.58965 12.0688C2.61854 12.0688 2.58386 12.0863 2.68791 12.4539C3.03473 13.5919 4.4047 14.7999 5.93073 15.3251L7.00589 15.6928L6.06946 16.253C4.68216 17.0583 3.05207 17.5135 1.42199 17.5485C0.641629 17.566 0 17.6361 0 17.6886C0 17.8636 2.11564 18.844 3.34688 19.2292C7.04058 20.3672 11.4279 19.877 14.7228 17.9337C17.0639 16.5506 19.4049 13.802 20.4974 11.1409C21.087 9.72282 21.6767 7.13176 21.6767 5.88875C21.6767 5.08342 21.7287 4.97838 22.6998 4.01548C23.2721 3.45525 23.8096 2.8425 23.9137 2.66743C24.0871 2.33479 24.0698 2.33479 23.1853 2.63242C21.7113 3.15763 21.5032 3.0876 22.2316 2.29978C22.7692 1.73955 23.4108 0.724136 23.4108 0.426514C23.4108 0.373992 23.1507 0.461528 22.8559 0.619093C22.5437 0.794164 21.8501 1.05677 21.3298 1.21434L20.3934 1.51196L19.5437 0.934221C19.0755 0.619093 18.4165 0.268949 18.0697 0.163906C17.1853 -0.0811938 15.8326 -0.0461795 15.0349 0.233935C12.8673 1.02176 11.4973 3.05259 11.6534 5.276Z" fill="white"/>
</svg>
