<svg width="24" height="24" viewBox="0 0 24 24" fill="none" xmlns="http://www.w3.org/2000/svg">
<path fill-rule="evenodd" clip-rule="evenodd" d="M12.0453 23.7938H12.0502C18.6388 23.7911 23.9974 18.4569 24 11.9013C24.0013 8.72361 22.7594 5.73568 20.5033 3.48784C18.2472 1.23989 15.2468 0.00137308 12.0501 0C5.4635 0 0.102809 5.33474 0.100188 11.8919C0.099291 13.9879 0.649554 16.0338 1.69529 17.8374L0 24L6.33478 22.3462C8.08018 23.2937 10.0453 23.7931 12.0453 23.7938ZM6.8828 20.3988L6.52012 20.1845L2.76097 21.1659L3.76434 17.5183L3.52819 17.1443C2.53396 15.5706 2.00885 13.7516 2.00962 11.8839C2.01179 6.43389 6.46741 2 11.946 2C14.5989 2.00092 17.0927 3.03038 18.9679 4.89879C20.8431 6.76721 21.8752 9.25064 21.8742 11.8919C21.872 17.3423 17.4164 21.7766 11.9421 21.7766H11.9381C10.1558 21.7759 8.40775 21.2994 6.8828 20.3988Z" fill="white"/>
<path fill-rule="evenodd" clip-rule="evenodd" d="M18.1211 14.9961C18.0465 14.8722 17.8475 14.7978 17.5489 14.649C17.2503 14.5003 15.7823 13.7815 15.5086 13.6823C15.2349 13.5831 15.0358 13.5336 14.8368 13.831C14.6378 14.1284 14.0656 14.7978 13.8914 14.9961C13.7172 15.1944 13.543 15.2193 13.2445 15.0705C12.9459 14.9218 11.9838 14.608 10.8433 13.5956C9.95571 12.8076 9.35646 11.8346 9.18229 11.5371C9.00812 11.2396 9.16372 11.0788 9.3132 10.9306C9.44753 10.7975 9.61181 10.5835 9.76109 10.41C9.91037 10.2366 9.96013 10.1125 10.0597 9.91434C10.1592 9.71593 10.1094 9.54246 10.0348 9.39371C9.96013 9.24496 9.36299 7.78229 9.11418 7.18729C8.87179 6.60785 8.62565 6.68635 8.44238 6.67719C8.26841 6.6685 8.06914 6.66667 7.87011 6.66667C7.67107 6.66667 7.34757 6.74104 7.07389 7.03854C6.8002 7.33604 6.02886 8.05496 6.02886 9.51752C6.02886 10.9802 7.09876 12.3932 7.24806 12.5915C7.39734 12.7899 9.3535 15.7913 12.3488 17.0784C13.0611 17.3846 13.6173 17.5675 14.051 17.7044C14.7662 17.9306 15.4172 17.8987 15.9316 17.8221C16.5053 17.7369 17.6981 17.1034 17.9471 16.4092C18.1957 15.715 18.1957 15.12 18.1211 14.9961Z" fill="white"/>
</svg>
