<svg width="23" height="26" viewBox="0 0 23 26" fill="none" xmlns="http://www.w3.org/2000/svg">
<path d="M19.5551 4.93086C17.404 2.79805 14.5393 1.625 11.4949 1.625C5.21094 1.625 0.0975446 6.68281 0.0975446 12.8984C0.0975446 14.884 0.621205 16.8238 1.61719 18.5352L0 24.375L6.04263 22.8059C7.70603 23.7047 9.57991 24.177 11.4897 24.177H11.4949C17.7737 24.177 23 19.1191 23 12.9035C23 9.89219 21.7063 7.06367 19.5551 4.93086ZM11.4949 22.2777C9.7904 22.2777 8.12187 21.8258 6.66897 20.9727L6.325 20.7695L2.74152 21.6988L3.69643 18.2406L3.47054 17.8852C2.52076 16.3922 2.02277 14.6707 2.02277 12.8984C2.02277 7.73398 6.27366 3.5293 11.5 3.5293C14.031 3.5293 16.408 4.5043 18.1946 6.27656C19.9813 8.04883 21.0799 10.4 21.0748 12.9035C21.0748 18.073 16.7161 22.2777 11.4949 22.2777ZM16.6904 15.2598C16.408 15.1176 15.0065 14.4371 14.7446 14.3457C14.4828 14.2492 14.2929 14.2035 14.1029 14.4879C13.9129 14.7723 13.3688 15.402 13.1993 15.5949C13.035 15.7828 12.8656 15.8082 12.5833 15.666C10.9096 14.8383 9.81094 14.1883 8.70714 12.3145C8.41451 11.8168 8.99978 11.8523 9.54397 10.7758C9.63638 10.5879 9.59018 10.4254 9.5183 10.2832C9.44643 10.141 8.87656 8.75469 8.6404 8.19102C8.40938 7.64258 8.17321 7.71875 7.99866 7.70859C7.83438 7.69844 7.64442 7.69844 7.45446 7.69844C7.26451 7.69844 6.95647 7.76953 6.69464 8.04883C6.43281 8.3332 5.69866 9.01367 5.69866 10.4C5.69866 11.7863 6.72031 13.127 6.85893 13.3148C7.00268 13.5027 8.86629 16.3465 11.7259 17.5703C13.533 18.3422 14.2415 18.4082 15.1451 18.2762C15.6944 18.1949 16.829 17.5957 17.0652 16.9355C17.3013 16.2754 17.3013 15.7117 17.2295 15.5949C17.1627 15.468 16.9728 15.3969 16.6904 15.2598Z" fill="#BABABA"/>
</svg>
