<svg width="132" height="300" viewBox="0 0 132 300" fill="none" xmlns="http://www.w3.org/2000/svg">
<path d="M75.7628 4.5575C57.31 5.28437 38.9398 14.7833 29.5069 30.626C20.074 46.4686 20.7844 68.4236 32.91 82.3334C39.2727 89.3595 47.6403 94.2613 56.8805 96.3753C75.7297 100.951 98.4942 92.9227 105.746 74.8994C108.621 67.7793 108.902 59.8828 108.571 52.2175C108.241 44.1558 107.233 35.9619 103.731 28.6931C98.1473 17.0796 86.8807 9.26568 75.7628 4.5575Z" fill="#F5BC5C"/>
<path d="M7.80049 293.541C3.67653 249.288 7.95883 204.655 20.4217 161.993C23.2435 152.069 26.6808 142.331 30.7136 132.835C34.6289 123.782 39.4527 114.779 47.1014 108.568C54.7502 102.356 65.8185 99.4981 74.7063 103.777C79.5136 106.09 83.2141 110.22 86.3859 114.515C98.8419 131.464 104.706 152.263 109.745 172.698C119.459 212.131 127.041 252.704 123.886 293.211L7.80049 293.541Z" fill="#F5BC5C"/>
<path d="M37.8827 161.761C37.479 161.756 37.0911 161.603 36.7924 161.332C36.4665 161.04 36.2696 160.631 36.2448 160.194C36.2201 159.758 36.3695 159.329 36.6603 159.002C48.6537 145.638 61.0272 132.257 73.4502 119.222C73.5998 119.065 73.7791 118.939 73.9775 118.851C74.176 118.763 74.3899 118.715 74.607 118.709C74.824 118.704 75.04 118.741 75.2426 118.82C75.4452 118.898 75.6305 119.015 75.7877 119.165C75.945 119.314 76.0713 119.493 76.1593 119.692C76.2473 119.89 76.2954 120.104 76.3008 120.321C76.3061 120.538 76.2687 120.754 76.1906 120.957C76.1125 121.16 75.9953 121.345 75.8456 121.502C63.4391 134.503 51.0656 147.934 39.1052 161.15C38.9568 161.333 38.771 161.483 38.5601 161.588C38.3493 161.693 38.1183 161.752 37.8827 161.761Z" fill="#010101"/>
<path d="M25.9723 204.928C25.5863 204.929 25.2123 204.794 24.915 204.548C24.749 204.408 24.6121 204.237 24.5122 204.044C24.4124 203.852 24.3515 203.641 24.3331 203.425C24.3147 203.208 24.3391 202.99 24.4049 202.784C24.4708 202.577 24.5768 202.385 24.7168 202.219C43.5915 179.869 63.7992 158.679 85.2294 138.766C85.3829 138.611 85.5656 138.488 85.7669 138.404C85.9683 138.32 86.1842 138.277 86.4023 138.277C86.6203 138.277 86.8363 138.32 87.0376 138.404C87.2389 138.488 87.4216 138.611 87.5752 138.766C87.8722 139.086 88.0302 139.511 88.0147 139.947C87.9993 140.384 87.8115 140.797 87.4926 141.095C66.1632 160.912 46.0598 182.008 27.2939 204.267C27.14 204.473 26.9405 204.639 26.7111 204.754C26.4817 204.868 26.2288 204.928 25.9723 204.928Z" fill="#010101"/>
<path d="M23.5605 242.61C23.2409 242.606 22.9294 242.509 22.6637 242.331C22.398 242.153 22.1896 241.902 22.0637 241.609C21.9378 241.315 21.8999 240.991 21.9544 240.676C22.009 240.361 22.1537 240.069 22.371 239.834L93.0103 165.23C93.3104 164.91 93.7253 164.723 94.1637 164.709C94.6021 164.695 95.028 164.856 95.3479 165.156C95.6677 165.456 95.8552 165.871 95.8692 166.309C95.8831 166.748 95.7224 167.174 95.4222 167.494L24.7664 242.098C24.6109 242.261 24.4238 242.39 24.2164 242.478C24.009 242.566 23.7858 242.611 23.5605 242.61Z" fill="#010101"/>
<path d="M30.4655 273.023C30.2362 273.025 30.009 272.978 29.7986 272.887C29.5881 272.796 29.3989 272.663 29.243 272.494C28.9481 272.172 28.793 271.746 28.8116 271.309C28.8301 270.873 29.0209 270.461 29.3421 270.165C54.7994 246.723 79.3645 221.778 102.393 195.991C102.534 195.816 102.708 195.671 102.906 195.566C103.104 195.461 103.321 195.397 103.545 195.378C103.768 195.36 103.993 195.387 104.206 195.458C104.419 195.529 104.615 195.643 104.782 195.792C104.949 195.941 105.084 196.123 105.179 196.326C105.274 196.53 105.326 196.75 105.333 196.974C105.34 197.198 105.301 197.422 105.219 197.63C105.136 197.839 105.013 198.029 104.855 198.188C81.7268 224.041 57.1121 249.086 31.5888 272.528C31.2873 272.824 30.8878 273 30.4655 273.023Z" fill="#010101"/>
<path d="M66.1654 275.699C65.944 275.7 65.7247 275.657 65.5204 275.572C65.3161 275.487 65.1309 275.362 64.976 275.203C64.6683 274.894 64.4956 274.475 64.4956 274.039C64.4956 273.602 64.6683 273.184 64.976 272.874L105.053 234.284C105.205 234.115 105.391 233.979 105.597 233.885C105.804 233.79 106.028 233.74 106.256 233.736C106.483 233.733 106.708 233.776 106.918 233.864C107.128 233.951 107.317 234.081 107.474 234.245C107.632 234.409 107.753 234.604 107.832 234.817C107.91 235.031 107.944 235.258 107.931 235.485C107.918 235.711 107.858 235.933 107.755 236.136C107.652 236.339 107.508 236.518 107.333 236.662L67.3218 275.253C67.0088 275.546 66.5941 275.706 66.1654 275.699Z" fill="#010101"/>
<path d="M95.1416 276.889C94.7478 276.889 94.367 276.748 94.0678 276.492C93.7397 276.208 93.5366 275.806 93.5026 275.373C93.4686 274.94 93.6064 274.511 93.886 274.179C97.9795 269.387 102.354 264.841 106.986 260.567C107.313 260.304 107.728 260.174 108.146 260.206C108.565 260.237 108.956 260.427 109.24 260.736C109.524 261.045 109.679 261.45 109.675 261.87C109.671 262.29 109.507 262.692 109.217 262.995C104.686 267.184 100.405 271.636 96.3971 276.327C96.2405 276.505 96.0472 276.648 95.8305 276.745C95.6139 276.842 95.3789 276.891 95.1416 276.889Z" fill="#010101"/>
<g opacity="0.13">
<path d="M110.422 38.6716C109.078 37.3499 107.269 36.6093 105.384 36.6093C103.499 36.6093 101.689 37.3499 100.345 38.6716C96.7437 43.4459 98.9574 45.0813 96.2977 52.6475C93.4397 63.6497 79.2325 73.5452 73.7479 76.0067C65.5705 79.3107 62.8944 79.3106 58.6652 79.5915C50.5044 79.8888 51.8921 79.5915 42.8556 77.543C40.9813 76.9483 39.1887 76.1213 37.5197 75.0815C36.7981 74.6103 35.9883 74.2907 35.1394 74.1421C34.2905 73.9934 33.4203 74.0189 32.5815 74.2168C31.7427 74.4147 30.953 74.7811 30.2601 75.2936C29.5672 75.8061 28.9857 76.454 28.5509 77.1981C28.1161 77.9422 27.8371 78.7669 27.7307 79.6221C27.6244 80.4773 27.693 81.3452 27.9323 82.1731C28.1716 83.001 28.5767 83.7717 29.1229 84.4383C29.6692 85.1048 30.3452 85.6535 31.1099 86.0508C58.4339 104.471 85.0476 99.1511 104.838 69.6465C108.782 62.889 111.248 55.3725 112.074 47.5924C112.586 44.5031 112.983 41.0009 110.422 38.6716Z" fill="#010101"/>
</g>
<g opacity="0.13">
<path d="M124.266 265.969C124.266 265.59 124.266 265.226 124.266 264.863C125.555 261.707 122.614 246.509 123.291 251.861C122.812 248.111 122.218 244.345 121.639 240.595C121.639 240.364 121.557 240.132 121.524 239.884C120.995 230.055 118.814 220.49 116.7 210.908C111.149 180.727 107.432 149.107 92.3329 121.85C87.856 112.697 82.041 103.281 72.922 98.259C63.1587 93.6665 54.1884 107.097 61.9362 114.564C70.0806 121.916 68.5443 120.644 73.7315 130.704C79.8439 141.244 79.943 146.795 83.9574 162.208C91.6391 190.606 92.7129 204.416 94.051 233.855L94.5962 237.473C95.2844 244.446 95.3618 251.466 94.8275 258.453C94.9644 261.414 95.3122 264.362 95.8682 267.275C95.7526 277.087 96.0499 289.89 107.217 293.161C113.462 295.028 119.475 291.509 122.531 286.173C130.957 282.655 131.485 270.628 124.266 265.969Z" fill="#010101"/>
</g>
<path d="M65.0253 103.594C58.0205 103.587 51.0634 102.443 44.4249 100.208C40.5448 98.9957 36.8733 97.1962 33.5383 94.8719C27.4424 90.5107 22.8994 83.8862 19.6615 74.635C17.7924 69.551 16.7333 64.205 16.5227 58.7924C16.4768 52.1465 17.699 45.5528 20.1241 39.3649C24.0339 28.1606 30.9766 18.2612 40.1793 10.7689C49.9351 2.93812 62.3204 -0.857272 74.7886 0.163084C86.5177 1.35252 97.8339 9.10039 105.879 21.4243C112.337 31.7806 115.67 43.7805 115.477 55.984C115.528 60.6234 114.973 65.2496 113.825 69.7451C110.29 82.8619 99.5354 94.3763 85.7413 99.8114C79.1326 102.354 72.1062 103.637 65.0253 103.594ZM70.4603 9.82726C61.6649 9.97495 53.1684 13.0435 46.3082 18.5498C38.5355 24.9036 32.684 33.2948 29.4083 42.7845C27.4258 47.8021 26.4112 53.1496 26.4182 58.5446C26.606 62.9272 27.4812 67.2531 29.0118 71.364C31.5559 78.6328 34.926 83.688 39.3038 86.8433C41.8394 88.5813 44.6245 89.9237 47.5637 90.8246C58.7605 94.7597 70.9764 94.6838 82.1234 90.6098C93.0596 86.2981 101.551 77.3938 104.277 67.168C105.189 63.5175 105.617 59.7627 105.549 56.0005C105.75 45.7085 102.973 35.5776 97.553 26.8263C94.5299 22.1842 86.1543 11.2645 73.7643 10.009C72.6668 9.89194 71.564 9.83128 70.4603 9.82726Z" fill="#010101"/>
<path d="M6.11521 300C4.8667 300.004 3.66269 299.537 2.74387 298.691C1.82504 297.846 1.2591 296.685 1.15923 295.44C-2.87164 243.65 3.68682 189.498 19.6286 142.945C23.6594 131.183 28.5493 118.941 36.9084 109.294C46.5395 98.1758 59.7059 92.9059 71.3029 95.5657C90.2348 99.9104 99.7503 121.898 105.251 138.055C122.259 188.177 131.262 240.666 131.931 293.59C131.931 294.905 131.409 296.165 130.48 297.095C129.55 298.024 128.29 298.546 126.975 298.546C107.647 298.546 25.4766 298.794 6.37954 299.934L6.11521 300ZM65.1245 104.767C56.9801 104.767 49.2984 110.153 44.4085 115.77C37.1562 124.145 32.7289 135.329 29.0284 146.166C14.0118 190.027 7.55246 240.875 10.7243 289.89C34.3974 288.981 97.5531 288.75 121.97 288.717C120.841 238.52 112.055 188.789 95.9176 141.243C88.4837 119.437 79.7281 107.642 69.1223 105.213C67.81 104.919 66.4693 104.77 65.1245 104.767Z" fill="#010101"/>
</svg>
